<svg id="Layer_1" data-name="Layer 1" xmlns="http://www.w3.org/2000/svg" viewBox="0 0 179.28 191.27"><title>arm</title><polygon points="12.77 178.91 5.37 190.29 -0.29 186.61 7.11 175.23 12.77 178.91 12.77 178.91" style="fill:#3bc0d9;fill-rule:evenodd"/><polygon points="12.77 178.91 5.37 190.29 3.39 189.01 10.79 177.63 12.77 178.91 12.77 178.91" style="fill:#1493ab;fill-rule:evenodd"/><polygon points="9.35 176.69 1.95 188.07 0.88 187.37 8.28 175.99 9.35 176.69 9.35 176.69" style="fill:#56dbed;fill-rule:evenodd"/><polygon points="36.46 151.45 21.06 169.89 8.45 178.46 7.66 176.97 18.46 168.11 19.34 166.85 19.38 166.82 28.62 153.77 36.46 151.45 36.46 151.45" style="fill:#bdcfd8;fill-rule:evenodd"/><polygon points="35.26 152.88 21.06 169.89 8.45 178.46 8.28 178.13 18.97 169.35 19.88 168.06 19.92 168.03 29.42 154.61 35.26 152.88 35.26 152.88" style="fill:#9cb7ca;fill-rule:evenodd"/><polygon points="166.85 120.39 107.35 120.39 107.35 6.77 166.85 6.77 166.85 120.39 166.85 120.39" style="fill:#375987;fill-rule:evenodd"/><polygon points="107.35 115.04 107.35 6.77 160.13 6.77 160.13 115.04 107.35 115.04 107.35 115.04" style="fill:#5ec1e2;fill-rule:evenodd"/><polygon points="113.69 6.77 160.13 6.77 160.13 115.04 113.69 115.04 113.69 6.77 113.69 6.77" style="fill:#0086ba;fill-rule:evenodd"/><polygon points="69.19 101.03 83.93 77.77 136.65 111.64 121.92 134.91 69.19 101.03 69.19 101.03" style="fill:#5ec1e2;fill-rule:evenodd"/><polygon points="134.5 115.04 121.92 134.91 69.75 101.39 82.33 81.53 134.5 115.04 134.5 115.04" style="fill:#375987;fill-rule:evenodd"/><polygon points="71.8 98.15 82.33 81.53 134.34 114.94 123.81 131.57 71.8 98.15 71.8 98.15" style="fill:#0086ba;fill-rule:evenodd"/><polygon points="54.3 136.06 37.19 123.88 64.57 86.27 81.68 98.45 54.3 136.06 54.3 136.06" style="fill:#375987;fill-rule:evenodd"/><polygon points="37.21 123.86 64.58 86.27 78.95 96.51 51.58 134.1 37.21 123.86 37.21 123.86" style="fill:#5ec1e2;fill-rule:evenodd"/><polygon points="77.61 98.34 51.58 134.1 39.57 125.57 65.61 89.82 77.61 98.34 77.61 98.34" style="fill:#0086ba;fill-rule:evenodd"/><polygon points="17.08 141.6 5.41 160.85 4.58 177.79 6.22 178.03 7.93 162.71 18.11 148.36 28.88 155.98 34.23 146.16 17.08 141.6 17.08 141.6" style="fill:#bdcfd8;fill-rule:evenodd"/><polygon points="44.01 160.6 29.47 178 11.84 183.43 11.05 181.94 26.87 176.22 27.76 174.97 27.8 174.94 37.03 161.89 26.26 154.26 34.52 146.97 44.01 160.6 44.01 160.6" style="fill:#bdcfd8;fill-rule:evenodd"/><polygon points="36.39 150.65 29.02 145.4 39.6 130.74 46.97 135.98 36.39 150.65 36.39 150.65" style="fill:#bdcfd8;fill-rule:evenodd"/><path d="M137.05,86.18a31,31,0,1,1-31,31,31,31,0,0,1,31-31Z" style="fill:#fcb240;fill-rule:evenodd"/><path d="M164.13,102a31,31,0,0,1-51.51,34.33A31,31,0,0,1,164.13,102Z" style="fill:#f4763c;fill-rule:evenodd"/><path d="M38.79,148.14a6.27,6.27,0,1,0-5.4,7,6.26,6.26,0,0,0,5.4-7Z" style="fill:#fff;fill-rule:evenodd"/><path d="M140.35,102.08a18,18,0,1,1-18,18,18,18,0,0,1,18-18Z" style="fill:#e65c31;fill-rule:evenodd"/><path d="M137.05,99.26a18,18,0,1,1-18,18,18,18,0,0,1,18-18Z" style="fill:#fff;fill-rule:evenodd"/><path d="M151.34,106.34a18,18,0,0,1-25,25.25,18,18,0,0,1,25-25.25Z" style="fill:#9ab6ca;fill-rule:evenodd"/><path d="M125,129.58a18,18,0,0,1,25.55-23.82A18,18,0,0,1,125,129.58Z" style="fill:#bdcfd8;fill-rule:evenodd"/><path d="M145.28,26.44c-18.9,0-34.63-6.53-37.93-15.14h59.5v12a70.81,70.81,0,0,1-21.57,3.17Z" style="fill:#375987;fill-rule:evenodd"/><path d="M137.11,19.22c-21,0-38.51-5.37-42.18-12.45h84.35c-3.66,7.08-21.15,12.45-42.17,12.45Z" style="fill:#e65c31;fill-rule:evenodd"/><path d="M99.12,11.07a12.39,12.39,0,0,1-4.19-4.3h74.49c-6.67,5.33-21.71,9-39.2,9-12.24,0-23.28-1.82-31.1-4.74Z" style="fill:#f4763c;fill-rule:evenodd"/><polygon points="179.28 1.24 94.83 1.24 94.83 6.77 179.28 6.77 179.28 1.24 179.28 1.24" style="fill:#0086ba;fill-rule:evenodd"/><path d="M90.67,82.11a15,15,0,0,1-17.62,21.4L69.19,101,83.93,77.77l6.74,4.34Z" style="fill:#375987;fill-rule:evenodd"/><path d="M36.82,149.18a3.63,3.63,0,1,0-3.12,4.07,3.62,3.62,0,0,0,3.12-4.07Z" style="fill:#9ab6ca;fill-rule:evenodd"/><path d="M22.15,144.36a3.57,3.57,0,1,0-3.07,4,3.56,3.56,0,0,0,3.07-4Z" style="fill:#9ab6ca;fill-rule:evenodd"/><path d="M21.51,143.68a3.57,3.57,0,1,0-3.07,4,3.56,3.56,0,0,0,3.07-4Z" style="fill:#d6dde2;fill-rule:evenodd"/><path d="M44.75,159.84a3.57,3.57,0,1,0-3.08,4,3.57,3.57,0,0,0,3.08-4Z" style="fill:#9ab6ca;fill-rule:evenodd"/><path d="M44.11,159.16a3.57,3.57,0,1,0-3.07,4,3.58,3.58,0,0,0,3.07-4Z" style="fill:#d6dde2;fill-rule:evenodd"/><polygon points="47.22 121.46 65.06 96.95 68.65 99.51 50.81 124.02 47.22 121.46 47.22 121.46" style="fill:#375987;fill-rule:evenodd"/><polygon points="48.72 122.14 66.56 97.63 70.16 100.19 52.31 124.7 48.72 122.14 48.72 122.14" style="fill:#fdd15a;fill-rule:evenodd"/><path d="M74.62,79.46A8.66,8.66,0,1,1,67,89.08a8.67,8.67,0,0,1,7.59-9.62Z" style="fill:#e65c31;fill-rule:evenodd"/><path d="M72.15,72A15,15,0,1,1,59,88.65,15,15,0,0,1,72.15,72Z" style="fill:#fcb240;fill-rule:evenodd"/><path d="M86,78.1A15,15,0,0,1,63.26,97.45,15,15,0,0,1,86,78.1Z" style="fill:#f4763c;fill-rule:evenodd"/><path d="M72.88,78.3a8.66,8.66,0,1,1-7.59,9.61,8.65,8.65,0,0,1,7.59-9.61Z" style="fill:#fff;fill-rule:evenodd"/><path d="M80.12,80.89a8.66,8.66,0,0,1-10.58,13.5,8.66,8.66,0,0,1,10.58-13.5Z" style="fill:#9ab6ca;fill-rule:evenodd"/><path d="M68.79,93.51a8.67,8.67,0,0,1,10.9-12.86,8.67,8.67,0,0,1-10.9,12.86Z" style="fill:#bdcfd8;fill-rule:evenodd"/><path d="M38.44,137.72l3.72-5.16L47,136l-4.29,6a13.42,13.42,0,0,1-4.24-4.21Z" style="fill:#9ab6ca;fill-rule:evenodd"/><path d="M45,118.24a11.35,11.35,0,1,1-10,12.59,11.34,11.34,0,0,1,10-12.59Z" style="fill:#fcb240;fill-rule:evenodd"/><path d="M55.47,122.84a11.2,11.2,0,0,1,2.09,5.35,11.35,11.35,0,0,1-19.33,9.31,11.35,11.35,0,0,1,17.24-14.66Z" style="fill:#f4763c;fill-rule:evenodd"/><path d="M46.84,123.87a6.56,6.56,0,1,1-5.76,7.29,6.57,6.57,0,0,1,5.76-7.29Z" style="fill:#e65c31;fill-rule:evenodd"/><path d="M45.52,123a6.56,6.56,0,1,1-5.75,7.29A6.56,6.56,0,0,1,45.52,123Z" style="fill:#fff;fill-rule:evenodd"/><path d="M51,125a6.49,6.49,0,0,1,1.8,3.79A6.57,6.57,0,0,1,43,135.19a6.56,6.56,0,0,1,4-11.08A6.46,6.46,0,0,1,51,125Z" style="fill:#9ab6ca;fill-rule:evenodd"/><path d="M42.42,134.52A6.57,6.57,0,0,1,47,124.11a6.5,6.5,0,0,1,3.74.66,6.49,6.49,0,0,1,1.22,3.12,6.57,6.57,0,0,1-9.49,6.63Z" style="fill:#bdcfd8;fill-rule:evenodd"/><path d="M27.74,153a6.26,6.26,0,0,0,11.28.48L34.52,147l-6.78,6Z" style="fill:#9cb7ca;fill-rule:evenodd"/><path d="M38.8,148.14a6.36,6.36,0,0,0-1.68-3.51,6.27,6.27,0,0,0-8.73,9,6.27,6.27,0,0,0,10.41-5.48Z" style="fill:#bdcfd8;fill-rule:evenodd"/><path d="M36.17,148.49a3.63,3.63,0,1,0-3.12,4.07,3.62,3.62,0,0,0,3.12-4.07Z" style="fill:#d6dde2;fill-rule:evenodd"/><path d="M19.87,143.9A1.91,1.91,0,1,0,18.22,146a1.91,1.91,0,0,0,1.65-2.14Z" style="fill:#a5bfcf;fill-rule:evenodd"/><path d="M42.46,159.38a1.91,1.91,0,1,0-1.64,2.14,1.9,1.9,0,0,0,1.64-2.14Z" style="fill:#a5bfcf;fill-rule:evenodd"/><path d="M10.16,161.62a2.71,2.71,0,1,0-2.34,3,2.71,2.71,0,0,0,2.34-3Z" style="fill:#9ab6ca;fill-rule:evenodd"/><path d="M9.68,161.1a2.72,2.72,0,1,0-2.34,3.05,2.73,2.73,0,0,0,2.34-3.05Z" style="fill:#d6dde2;fill-rule:evenodd"/><path d="M8.42,161.27a1.45,1.45,0,1,0-1.24,1.62,1.44,1.44,0,0,0,1.24-1.62Z" style="fill:#a5bfcf;fill-rule:evenodd"/><path d="M31.51,176.55a2.71,2.71,0,1,0-2.34,3,2.71,2.71,0,0,0,2.34-3Z" style="fill:#9ab6ca;fill-rule:evenodd"/><path d="M31,176a2.71,2.71,0,1,0-2.34,3A2.72,2.72,0,0,0,31,176Z" style="fill:#d6dde2;fill-rule:evenodd"/><path d="M29.78,176.21A1.45,1.45,0,0,0,28.15,175a1.45,1.45,0,1,0,1.63,1.25Z" style="fill:#a5bfcf;fill-rule:evenodd"/><path d="M23.5,168.08a2.71,2.71,0,1,0-2.33,3,2.71,2.71,0,0,0,2.33-3Z" style="fill:#9ab6ca;fill-rule:evenodd"/><path d="M23,167.57a2.71,2.71,0,1,0-2.34,3,2.72,2.72,0,0,0,2.34-3Z" style="fill:#d6dde2;fill-rule:evenodd"/><path d="M21.77,167.73a1.45,1.45,0,0,0-1.63-1.24,1.45,1.45,0,1,0,.38,2.87,1.45,1.45,0,0,0,1.25-1.63Z" style="fill:#a5bfcf;fill-rule:evenodd"/><path d="M123.82,38.37,151.43,25v7.85L123.82,46.23V38.37Zm0,40L151.43,65v7.86L123.82,86.21V78.36Zm0-13.33,27.61-13.36v7.86L123.82,72.88V65Zm0-13.33,27.61-13.35V46.2L123.82,59.56V51.7Z" style="fill:#f4763c;fill-rule:evenodd"/><polygon points="36.46 151.45 21.06 169.89 8.45 178.46 7.66 176.97 18.46 168.11 19.34 166.85 19.38 166.82 28.62 153.77 36.46 151.45 36.46 151.45" style="fill:#bdcfd8;fill-rule:evenodd"/><polygon points="35.26 152.88 21.06 169.89 8.45 178.46 8.28 178.13 18.97 169.35 19.88 168.06 19.92 168.03 29.42 154.61 35.26 152.88 35.26 152.88" style="fill:#9cb7ca;fill-rule:evenodd"/><polygon points="166.85 120.39 107.35 120.39 107.35 6.77 166.85 6.77 166.85 120.39 166.85 120.39" style="fill:#375987;fill-rule:evenodd"/><polygon points="107.35 115.04 107.35 6.77 160.13 6.77 160.13 115.04 107.35 115.04 107.35 115.04" style="fill:#5ec1e2;fill-rule:evenodd"/><polygon points="113.69 6.77 160.13 6.77 160.13 115.04 113.69 115.04 113.69 6.77 113.69 6.77" style="fill:#0086ba;fill-rule:evenodd"/><polygon points="69.19 101.03 83.93 77.77 136.65 111.64 121.92 134.91 69.19 101.03 69.19 101.03" style="fill:#5ec1e2;fill-rule:evenodd"/><polygon points="134.5 115.04 121.92 134.91 69.75 101.39 82.33 81.53 134.5 115.04 134.5 115.04" style="fill:#375987;fill-rule:evenodd"/><polygon points="71.8 98.15 82.33 81.53 134.34 114.94 123.81 131.57 71.8 98.15 71.8 98.15" style="fill:#0086ba;fill-rule:evenodd"/><polygon points="54.3 136.06 37.19 123.88 64.57 86.27 81.68 98.45 54.3 136.06 54.3 136.06" style="fill:#375987;fill-rule:evenodd"/><polygon points="37.21 123.86 64.58 86.27 78.95 96.51 51.58 134.1 37.21 123.86 37.21 123.86" style="fill:#5ec1e2;fill-rule:evenodd"/><polygon points="77.61 98.34 51.58 134.1 39.57 125.57 65.61 89.82 77.61 98.34 77.61 98.34" style="fill:#0086ba;fill-rule:evenodd"/><polygon points="17.08 141.6 5.41 160.85 4.58 177.79 6.22 178.03 7.93 162.71 18.11 148.36 28.88 155.98 34.23 146.16 17.08 141.6 17.08 141.6" style="fill:#bdcfd8;fill-rule:evenodd"/><polygon points="44.01 160.6 29.47 178 11.84 183.43 11.05 181.94 26.87 176.22 27.76 174.97 27.8 174.94 37.03 161.89 26.26 154.26 34.52 146.97 44.01 160.6 44.01 160.6" style="fill:#bdcfd8;fill-rule:evenodd"/><polygon points="36.39 150.65 29.02 145.4 39.6 130.74 46.97 135.98 36.39 150.65 36.39 150.65" style="fill:#bdcfd8;fill-rule:evenodd"/><path d="M137.05,86.18a31,31,0,1,1-31,31,31,31,0,0,1,31-31Z" style="fill:#fcb240;fill-rule:evenodd"/><path d="M164.13,102a31,31,0,0,1-51.51,34.33A31,31,0,0,1,164.13,102Z" style="fill:#f4763c;fill-rule:evenodd"/><path d="M38.79,148.14a6.27,6.27,0,1,0-5.4,7,6.26,6.26,0,0,0,5.4-7Z" style="fill:#fff;fill-rule:evenodd"/><path d="M140.35,102.08a18,18,0,1,1-18,18,18,18,0,0,1,18-18Z" style="fill:#e65c31;fill-rule:evenodd"/><path d="M137.05,99.26a18,18,0,1,1-18,18,18,18,0,0,1,18-18Z" style="fill:#fff;fill-rule:evenodd"/><path d="M151.34,106.34a18,18,0,0,1-25,25.25,18,18,0,0,1,25-25.25Z" style="fill:#9ab6ca;fill-rule:evenodd"/><path d="M125,129.58a18,18,0,0,1,25.55-23.82A18,18,0,0,1,125,129.58Z" style="fill:#bdcfd8;fill-rule:evenodd"/><path d="M145.28,26.44c-18.9,0-34.63-6.53-37.93-15.14h59.5v12a70.81,70.81,0,0,1-21.57,3.17Z" style="fill:#375987;fill-rule:evenodd"/><path d="M137.11,19.22c-21,0-38.51-5.37-42.18-12.45h84.35c-3.66,7.08-21.15,12.45-42.17,12.45Z" style="fill:#e65c31;fill-rule:evenodd"/><path d="M99.12,11.07a12.39,12.39,0,0,1-4.19-4.3h74.49c-6.67,5.33-21.71,9-39.2,9-12.24,0-23.28-1.82-31.1-4.74Z" style="fill:#f4763c;fill-rule:evenodd"/><polygon points="179.28 1.24 94.83 1.24 94.83 6.77 179.28 6.77 179.28 1.24 179.28 1.24" style="fill:#0086ba;fill-rule:evenodd"/><path d="M90.67,82.11a15,15,0,0,1-17.62,21.4L69.19,101,83.93,77.77l6.74,4.34Z" style="fill:#375987;fill-rule:evenodd"/><path d="M36.82,149.18a3.63,3.63,0,1,0-3.12,4.07,3.62,3.62,0,0,0,3.12-4.07Z" style="fill:#9ab6ca;fill-rule:evenodd"/><path d="M22.15,144.36a3.57,3.57,0,1,0-3.07,4,3.56,3.56,0,0,0,3.07-4Z" style="fill:#9ab6ca;fill-rule:evenodd"/><path d="M21.51,143.68a3.57,3.57,0,1,0-3.07,4,3.56,3.56,0,0,0,3.07-4Z" style="fill:#d6dde2;fill-rule:evenodd"/><path d="M44.75,159.84a3.57,3.57,0,1,0-3.08,4,3.57,3.57,0,0,0,3.08-4Z" style="fill:#9ab6ca;fill-rule:evenodd"/><path d="M44.11,159.16a3.57,3.57,0,1,0-3.07,4,3.58,3.58,0,0,0,3.07-4Z" style="fill:#d6dde2;fill-rule:evenodd"/><polygon points="47.22 121.46 65.06 96.95 68.65 99.51 50.81 124.02 47.22 121.46 47.22 121.46" style="fill:#375987;fill-rule:evenodd"/><path d="M50.9,119.14l14.5-19.9a15,15,0,0,0,4,2L54.51,121.68a11.46,11.46,0,0,0-3.61-2.54Z" style="fill:#fdd15a;fill-rule:evenodd"/><path d="M74.62,79.46A8.66,8.66,0,1,1,67,89.08a8.67,8.67,0,0,1,7.59-9.62Z" style="fill:#e65c31;fill-rule:evenodd"/><path d="M72.15,72A15,15,0,1,1,59,88.65,15,15,0,0,1,72.15,72Z" style="fill:#fcb240;fill-rule:evenodd"/><path d="M86,78.1A15,15,0,0,1,63.26,97.45,15,15,0,0,1,86,78.1Z" style="fill:#f4763c;fill-rule:evenodd"/><path d="M72.88,78.3a8.66,8.66,0,1,1-7.59,9.61,8.65,8.65,0,0,1,7.59-9.61Z" style="fill:#fff;fill-rule:evenodd"/><path d="M80.12,80.89a8.66,8.66,0,0,1-10.58,13.5,8.66,8.66,0,0,1,10.58-13.5Z" style="fill:#9ab6ca;fill-rule:evenodd"/><path d="M68.79,93.51a8.67,8.67,0,0,1,10.9-12.86,8.67,8.67,0,0,1-10.9,12.86Z" style="fill:#bdcfd8;fill-rule:evenodd"/><path d="M38.44,137.72l3.72-5.16L47,136l-4.29,6a13.42,13.42,0,0,1-4.24-4.21Z" style="fill:#9ab6ca;fill-rule:evenodd"/><path d="M45,118.24a11.35,11.35,0,1,1-10,12.59,11.34,11.34,0,0,1,10-12.59Z" style="fill:#fcb240;fill-rule:evenodd"/><path d="M55.47,122.84a11.2,11.2,0,0,1,2.09,5.35,11.35,11.35,0,0,1-19.33,9.31,11.35,11.35,0,0,1,17.24-14.66Z" style="fill:#f4763c;fill-rule:evenodd"/><path d="M46.84,123.87a6.56,6.56,0,1,1-5.76,7.29,6.57,6.57,0,0,1,5.76-7.29Z" style="fill:#e65c31;fill-rule:evenodd"/><path d="M45.52,123a6.56,6.56,0,1,1-5.75,7.29A6.56,6.56,0,0,1,45.52,123Z" style="fill:#fff;fill-rule:evenodd"/><path d="M51,125a6.49,6.49,0,0,1,1.8,3.79A6.57,6.57,0,0,1,43,135.19a6.56,6.56,0,0,1,4-11.08A6.46,6.46,0,0,1,51,125Z" style="fill:#9ab6ca;fill-rule:evenodd"/><path d="M42.42,134.52A6.57,6.57,0,0,1,47,124.11a6.5,6.5,0,0,1,3.74.66,6.49,6.49,0,0,1,1.22,3.12,6.57,6.57,0,0,1-9.49,6.63Z" style="fill:#bdcfd8;fill-rule:evenodd"/><path d="M27.74,153a6.26,6.26,0,0,0,11.28.48L34.52,147l-6.78,6Z" style="fill:#9cb7ca;fill-rule:evenodd"/><path d="M38.8,148.14a6.36,6.36,0,0,0-1.68-3.51,6.27,6.27,0,0,0-8.73,9,6.27,6.27,0,0,0,10.41-5.48Z" style="fill:#bdcfd8;fill-rule:evenodd"/><path d="M36.17,148.49a3.63,3.63,0,1,0-3.12,4.07,3.62,3.62,0,0,0,3.12-4.07Z" style="fill:#d6dde2;fill-rule:evenodd"/><path d="M19.87,143.9A1.91,1.91,0,1,0,18.22,146a1.91,1.91,0,0,0,1.65-2.14Z" style="fill:#a5bfcf;fill-rule:evenodd"/><path d="M42.46,159.38a1.91,1.91,0,1,0-1.64,2.14,1.9,1.9,0,0,0,1.64-2.14Z" style="fill:#a5bfcf;fill-rule:evenodd"/><path d="M10.16,161.62a2.71,2.71,0,1,0-2.34,3,2.71,2.71,0,0,0,2.34-3Z" style="fill:#9ab6ca;fill-rule:evenodd"/><path d="M9.68,161.1a2.72,2.72,0,1,0-2.34,3.05,2.73,2.73,0,0,0,2.34-3.05Z" style="fill:#d6dde2;fill-rule:evenodd"/><path d="M8.42,161.27a1.45,1.45,0,1,0-1.24,1.62,1.44,1.44,0,0,0,1.24-1.62Z" style="fill:#a5bfcf;fill-rule:evenodd"/><path d="M31.51,176.55a2.71,2.71,0,1,0-2.34,3,2.71,2.71,0,0,0,2.34-3Z" style="fill:#9ab6ca;fill-rule:evenodd"/><path d="M31,176a2.71,2.71,0,1,0-2.34,3A2.72,2.72,0,0,0,31,176Z" style="fill:#d6dde2;fill-rule:evenodd"/><path d="M29.78,176.21A1.45,1.45,0,0,0,28.15,175a1.45,1.45,0,1,0,1.63,1.25Z" style="fill:#a5bfcf;fill-rule:evenodd"/><path d="M23.5,168.08a2.71,2.71,0,1,0-2.33,3,2.71,2.71,0,0,0,2.33-3Z" style="fill:#9ab6ca;fill-rule:evenodd"/><path d="M23,167.57a2.71,2.71,0,1,0-2.34,3,2.72,2.72,0,0,0,2.34-3Z" style="fill:#d6dde2;fill-rule:evenodd"/><path d="M21.77,167.73a1.45,1.45,0,0,0-1.63-1.24,1.45,1.45,0,1,0,.38,2.87,1.45,1.45,0,0,0,1.25-1.63Z" style="fill:#a5bfcf;fill-rule:evenodd"/><path d="M123.82,38.37,151.43,25v7.85L123.82,46.23V38.37Zm0,40L151.43,65v7.86L123.82,86.21V78.36Zm0-13.33,27.61-13.36v7.86L123.82,72.88V65Zm0-13.33,27.61-13.35V46.2L123.82,59.56V51.7Z" style="fill:#f4763c;fill-rule:evenodd"/><path d="M99.12,11.07a12.39,12.39,0,0,1-4.19-4.3h74.49c-6.67,5.33-21.71,9-39.2,9-12.24,0-23.28-1.82-31.1-4.74Z" style="fill:#f4763c;fill-rule:evenodd"/><path d="M50.9,119.14l14.5-19.9a15,15,0,0,0,4,2L54.51,121.68a11.46,11.46,0,0,0-3.61-2.54Z" style="fill:#fdd15a;fill-rule:evenodd"/></svg>