<svg id="Layer_1" data-name="Layer 1" xmlns="http://www.w3.org/2000/svg" viewBox="0 0 152.38 214.86"><title>arm</title><path d="M104.87,173.18l10.79,7.48a1.24,1.24,0,0,1,.42,1.69l-3,4.37a1.23,1.23,0,0,1-1.72.2l-10.79-7.49a1.23,1.23,0,0,1-.42-1.68l3-4.38a1.24,1.24,0,0,1,1.72-.19Z" style="fill:#9ab6ca;fill-rule:evenodd"/><polygon points="86.79 67.46 69.04 45.58 19.49 86.3 37.24 108.18 86.79 67.46 86.79 67.46" style="fill:#5ec1e2;fill-rule:evenodd"/><polygon points="22.08 89.49 37.24 108.18 86.27 67.89 71.11 49.2 22.08 89.49 22.08 89.49" style="fill:#375987;fill-rule:evenodd"/><polygon points="83.8 64.85 71.11 49.2 22.23 89.37 34.92 105.02 83.8 64.85 83.8 64.85" style="fill:#0086ba;fill-rule:evenodd"/><path d="M103.85,190.18a3.55,3.55,0,0,1,1-4.92h0a3.55,3.55,0,0,1,4.92,1L119.67,201l20.92,10-1.38,1.77L115.88,208q-6-8.86-12-17.78Z" style="fill:#9ab6ca;fill-rule:evenodd"/><path d="M116.76,172.79a3.55,3.55,0,0,0-4.42,2.36h0a3.56,3.56,0,0,0,2.36,4.42l17,5.17,15.67,17.08,1.29-1.83-11.4-20.91q-10.23-3.2-20.52-6.29Z" style="fill:#9ab6ca;fill-rule:evenodd"/><path d="M84.6,19.5C63.09,19.5,45.19,14,41.44,6.76h86.32C124,14,106.11,19.5,84.6,19.5Z" style="fill:#e65c31;fill-rule:evenodd"/><path d="M45.73,11.16a12.52,12.52,0,0,1-4.29-4.4h76.23C110.84,12.21,95.45,16,77.55,16,65,16,53.72,14.15,45.73,11.16Z" style="fill:#f4763c;fill-rule:evenodd"/><polygon points="127.76 1.1 41.32 1.1 41.32 6.76 127.76 6.76 127.76 1.1 127.76 1.1" style="fill:#0086ba;fill-rule:evenodd"/><path d="M84.6,19.5C63.09,19.5,45.19,14,41.44,6.76h86.32C124,14,106.11,19.5,84.6,19.5Z" style="fill:#e65c31;fill-rule:evenodd"/><path d="M45.73,11.16a12.52,12.52,0,0,1-4.29-4.4h76.23C110.84,12.21,95.45,16,77.55,16,65,16,53.72,14.15,45.73,11.16Z" style="fill:#f4763c;fill-rule:evenodd"/><polygon points="127.76 1.1 41.32 1.1 41.32 6.76 127.76 6.76 127.76 1.1 127.76 1.1" style="fill:#0086ba;fill-rule:evenodd"/><path d="M45.73,11.16a12.52,12.52,0,0,1-4.29-4.4h76.23C110.84,12.21,95.45,16,77.55,16,65,16,53.72,14.15,45.73,11.16Z" style="fill:#f4763c;fill-rule:evenodd"/><polygon points="61.02 40.82 108.06 40.82 106.1 36.92 63.22 36.92 61.02 40.82 61.02 40.82" style="fill:#9ab6ca;fill-rule:evenodd"/><polygon points="61.02 33.02 108.06 33.02 106.1 29.12 63.22 29.12 61.02 33.02 61.02 33.02" style="fill:#9ab6ca;fill-rule:evenodd"/><polygon points="61.02 25.22 108.06 25.22 106.1 21.32 63.22 21.32 61.02 25.22 61.02 25.22" style="fill:#9ab6ca;fill-rule:evenodd"/><polygon points="61.02 33.02 108.06 33.02 106.1 36.92 63.22 36.92 61.02 33.02 61.02 33.02" style="fill:#bdcfd8;fill-rule:evenodd"/><polygon points="61.02 25.22 108.06 25.22 106.1 29.12 63.22 29.12 61.02 25.22 61.02 25.22" style="fill:#bdcfd8;fill-rule:evenodd"/><polygon points="61.02 17.42 108.06 17.42 106.1 21.32 63.22 21.32 61.02 17.42 61.02 17.42" style="fill:#bdcfd8;fill-rule:evenodd"/><path d="M112.7,41a28.16,28.16,0,0,1-56.32,0Z" style="fill:#e65c31;fill-rule:evenodd"/><path d="M57,46.75A28.21,28.21,0,0,1,56.38,41H104.8c-3,11.91-13,20.65-25,20.65-9.89,0-18.49-6-22.84-14.94Z" style="fill:#f4763c;fill-rule:evenodd"/><polygon points="17.73 117.53 38.51 98.5 75.39 146.22 59.98 155.98 17.73 117.53 17.73 117.53" style="fill:#5ec1e2;fill-rule:evenodd"/><polygon points="71.03 149.87 61.19 157.07 18.18 118.03 36.42 102.41 71.03 149.87 71.03 149.87" style="fill:#375987;fill-rule:evenodd"/><polygon points="21.07 115.39 35.93 101.78 72.67 149.26 65.73 155.73 21.07 115.39 21.07 115.39" style="fill:#0086ba;fill-rule:evenodd"/><path d="M22.43,79.55A20.45,20.45,0,1,1,2,100,20.46,20.46,0,0,1,22.43,79.55Z" style="fill:#fcb240;fill-rule:evenodd"/><path d="M40.27,90A20.45,20.45,0,0,1,6.33,112.61,20.45,20.45,0,0,1,40.27,90Z" style="fill:#f4763c;fill-rule:evenodd"/><path d="M24.6,90a11.84,11.84,0,1,1-11.83,11.83A11.83,11.83,0,0,1,24.6,90Z" style="fill:#e65c31;fill-rule:evenodd"/><path d="M22.43,88.17A11.83,11.83,0,1,1,10.6,100,11.83,11.83,0,0,1,22.43,88.17Z" style="fill:#fff;fill-rule:evenodd"/><path d="M31.84,92.83a11.83,11.83,0,0,1-16.5,16.64,11.83,11.83,0,0,1,16.5-16.64Z" style="fill:#9ab6ca;fill-rule:evenodd"/><path d="M14.46,108.15a11.83,11.83,0,0,1,16.83-15.7,11.83,11.83,0,0,1-16.83,15.7Z" style="fill:#bdcfd8;fill-rule:evenodd"/><path d="M75.71,140.55l30.2,25.55c4.06,3.43,5.3,9.18,2.19,13.5h0c-3.11,4.31-8.92,4.9-13.49,2.18l-34-20.22a13,13,0,0,1-2.93-18.07h0a13,13,0,0,1,18.08-2.94Z" style="fill:#5ec1e2;fill-rule:evenodd"/><path d="M75.93,141.78l30.2,25.54c4.06,3.44,5.3,9.19,2.19,13.5h0c-3.11,4.31-8.92,4.91-13.49,2.19l-34-20.22a13,13,0,0,1-2.93-18.08h0a13,13,0,0,1,18.08-2.93Z" style="fill:#0086ba;fill-rule:evenodd"/><path d="M74.66,147.19a9,9,0,1,1-12.5,2.25,9,9,0,0,1,12.5-2.25Z" style="fill:#375987;fill-rule:evenodd"/><path d="M74.52,145.05A9,9,0,1,1,62,147.3a9,9,0,0,1,12.5-2.25Z" style="fill:#fcb240;fill-rule:evenodd"/><path d="M78.34,153.28a9,9,0,1,1-3.85-6.86,8.92,8.92,0,0,1,3.85,6.86Z" style="fill:#f4763c;fill-rule:evenodd"/><path d="M72.36,148.16a5.19,5.19,0,1,1-7.23,1.3,5.19,5.19,0,0,1,7.23-1.3Z" style="fill:#fff;fill-rule:evenodd"/><path d="M74.59,152.2a5.2,5.2,0,1,1-2-2.63,5.15,5.15,0,0,1,2,2.63Z" style="fill:#9ab6ca;fill-rule:evenodd"/><path d="M64.48,153.37a5.2,5.2,0,0,1,8.14-3.8,5.2,5.2,0,0,1,1.87,2.35,5.2,5.2,0,0,1-10,1.45Z" style="fill:#bdcfd8;fill-rule:evenodd"/><path d="M104.73,170.19a7.11,7.11,0,1,1-9.9,1.79,7.11,7.11,0,0,1,9.9-1.79Z" style="fill:#375987;fill-rule:evenodd"/><path d="M104.35,168.74a7.11,7.11,0,1,1-9.9,1.79,7.13,7.13,0,0,1,9.9-1.79Z" style="fill:#fcb240;fill-rule:evenodd"/><path d="M107.37,175.27a7.11,7.11,0,1,1-3-5.44,7.06,7.06,0,0,1,3,5.44Z" style="fill:#f4763c;fill-rule:evenodd"/><path d="M102.64,171.21a4.11,4.11,0,1,1-5.73,1,4.11,4.11,0,0,1,5.73-1Z" style="fill:#fff;fill-rule:evenodd"/><path d="M104.4,174.41a4,4,0,0,1-.73,2.52,4.11,4.11,0,0,1-7.28-1,4.06,4.06,0,0,1,.73-2.53,4.11,4.11,0,0,1,7.28,1Z" style="fill:#9ab6ca;fill-rule:evenodd"/><path d="M96.4,175.33a4.12,4.12,0,0,1,6.44-3,4.07,4.07,0,0,1,1.48,1.87,4,4,0,0,1-.72,2,4.11,4.11,0,0,1-7.2-.83Z" style="fill:#bdcfd8;fill-rule:evenodd"/><path d="M12,82.53c-1.17-9.84-.17-16.25,3.15-20.18,4.1-4.86,11.12-5.2,19.24-5.6,7.77-.38,16.58-.81,25-5.2l1,1.92c-8.85,4.61-17.91,5.06-25.91,5.45-7.61.37-14.19.69-17.69,4.83C14,67.14,13.09,73.2,14.17,82.28Z" style="fill:#2e6694"/><path d="M116.47,174.32a1.89,1.89,0,1,1-2.52.88,1.89,1.89,0,0,1,2.52-.88Z" style="fill:#bdcfd8;fill-rule:evenodd"/><path d="M108.56,187a1.89,1.89,0,1,1-2.66.12,1.89,1.89,0,0,1,2.66-.12Z" style="fill:#bdcfd8;fill-rule:evenodd"/><polygon points="48.97 98.55 64.83 118.83 67.5 116.75 51.59 96.39 48.97 98.55 48.97 98.55" style="fill:#bdcfd8;fill-rule:evenodd"/><path d="M58.32,123.92l5,6.47L73,122.84c3.27-2.56-1.92-8.92-5-6.47l-9.66,7.55Z" style="fill:#fff;fill-rule:evenodd"/><path d="M58.62,124.31l4.76,6.07L73,122.84a2.6,2.6,0,0,0,1-1.92c-.3-2.72-3.74-5.75-6.07-3.93l-9.37,7.32Z" style="fill:#bdcfd8;fill-rule:evenodd"/><path d="M67,119a2.8,2.8,0,1,0,3.93.48A2.79,2.79,0,0,0,67,119Z" style="fill:#fff;fill-rule:evenodd"/><path d="M65.93,121.27a2.74,2.74,0,0,0,.59,1.69,2.79,2.79,0,0,0,4.9-1,2.74,2.74,0,0,0-.59-1.69,2.79,2.79,0,0,0-4.9,1Z" style="fill:#9ab6ca;fill-rule:evenodd"/><path d="M71.39,121.6a2.8,2.8,0,0,0-4.48-1.8,2.89,2.89,0,0,0-.94,1.32,3,3,0,0,0,.56,1.32,2.8,2.8,0,0,0,3.93.48,2.7,2.7,0,0,0,.93-1.32Z" style="fill:#bdcfd8;fill-rule:evenodd"/><polygon points="47.78 99.52 53.59 106.95 58.56 103.07 52.66 95.51 47.78 99.52 47.78 99.52" style="fill:#9ab6ca;fill-rule:evenodd"/><path d="M104.87,173.18l10.79,7.48a1.24,1.24,0,0,1,.42,1.69l-3,4.37a1.23,1.23,0,0,1-1.72.2l-10.79-7.49a1.23,1.23,0,0,1-.42-1.68l3-4.38a1.24,1.24,0,0,1,1.72-.19Z" style="fill:#9ab6ca;fill-rule:evenodd"/><polygon points="86.79 67.46 69.04 45.58 19.49 86.3 37.24 108.18 86.79 67.46 86.79 67.46" style="fill:#5ec1e2;fill-rule:evenodd"/><polygon points="22.08 89.49 37.24 108.18 86.27 67.89 71.11 49.2 22.08 89.49 22.08 89.49" style="fill:#375987;fill-rule:evenodd"/><polygon points="83.8 64.85 71.11 49.2 22.23 89.37 34.92 105.02 83.8 64.85 83.8 64.85" style="fill:#0086ba;fill-rule:evenodd"/><path d="M84.6,19.5C63.09,19.5,45.19,14,41.44,6.76h86.32C124,14,106.11,19.5,84.6,19.5Z" style="fill:#e65c31;fill-rule:evenodd"/><path d="M45.73,11.16a12.52,12.52,0,0,1-4.29-4.4h76.23C110.84,12.21,95.45,16,77.55,16,65,16,53.72,14.15,45.73,11.16Z" style="fill:#f4763c;fill-rule:evenodd"/><polygon points="127.76 1.1 41.32 1.1 41.32 6.76 127.76 6.76 127.76 1.1 127.76 1.1" style="fill:#0086ba;fill-rule:evenodd"/><path d="M84.6,19.5C63.09,19.5,45.19,14,41.44,6.76h86.32C124,14,106.11,19.5,84.6,19.5Z" style="fill:#e65c31;fill-rule:evenodd"/><path d="M45.73,11.16a12.52,12.52,0,0,1-4.29-4.4h76.23C110.84,12.21,95.45,16,77.55,16,65,16,53.72,14.15,45.73,11.16Z" style="fill:#f4763c;fill-rule:evenodd"/><polygon points="127.76 1.1 41.32 1.1 41.32 6.76 127.76 6.76 127.76 1.1 127.76 1.1" style="fill:#0086ba;fill-rule:evenodd"/><path d="M45.73,11.16a12.52,12.52,0,0,1-4.29-4.4h76.23C110.84,12.21,95.45,16,77.55,16,65,16,53.72,14.15,45.73,11.16Z" style="fill:#f4763c;fill-rule:evenodd"/><polygon points="61.02 40.82 108.06 40.82 106.1 36.92 63.22 36.92 61.02 40.82 61.02 40.82" style="fill:#9ab6ca;fill-rule:evenodd"/><polygon points="61.02 33.02 108.06 33.02 106.1 29.12 63.22 29.12 61.02 33.02 61.02 33.02" style="fill:#9ab6ca;fill-rule:evenodd"/><polygon points="61.02 25.22 108.06 25.22 106.1 21.32 63.22 21.32 61.02 25.22 61.02 25.22" style="fill:#9ab6ca;fill-rule:evenodd"/><polygon points="61.02 33.02 108.06 33.02 106.1 36.92 63.22 36.92 61.02 33.02 61.02 33.02" style="fill:#bdcfd8;fill-rule:evenodd"/><polygon points="61.02 25.22 108.06 25.22 106.1 29.12 63.22 29.12 61.02 25.22 61.02 25.22" style="fill:#bdcfd8;fill-rule:evenodd"/><polygon points="61.02 17.42 108.06 17.42 106.1 21.32 63.22 21.32 61.02 17.42 61.02 17.42" style="fill:#bdcfd8;fill-rule:evenodd"/><path d="M112.7,41a28.16,28.16,0,0,1-56.32,0Z" style="fill:#e65c31;fill-rule:evenodd"/><path d="M57,46.75A28.21,28.21,0,0,1,56.38,41H104.8c-3,11.91-13,20.65-25,20.65-9.89,0-18.49-6-22.84-14.94Z" style="fill:#f4763c;fill-rule:evenodd"/><polygon points="17.73 117.53 38.51 98.5 75.39 146.22 59.98 155.98 17.73 117.53 17.73 117.53" style="fill:#5ec1e2;fill-rule:evenodd"/><polygon points="71.03 149.87 61.19 157.07 18.18 118.03 36.42 102.41 71.03 149.87 71.03 149.87" style="fill:#375987;fill-rule:evenodd"/><polygon points="21.07 115.39 35.93 101.78 72.67 149.26 65.73 155.73 21.07 115.39 21.07 115.39" style="fill:#0086ba;fill-rule:evenodd"/><path d="M22.43,79.55A20.45,20.45,0,1,1,2,100,20.46,20.46,0,0,1,22.43,79.55Z" style="fill:#fcb240;fill-rule:evenodd"/><path d="M40.27,90A20.45,20.45,0,0,1,6.33,112.61,20.45,20.45,0,0,1,40.27,90Z" style="fill:#f4763c;fill-rule:evenodd"/><path d="M24.6,90a11.84,11.84,0,1,1-11.83,11.83A11.83,11.83,0,0,1,24.6,90Z" style="fill:#e65c31;fill-rule:evenodd"/><path d="M22.43,88.17A11.83,11.83,0,1,1,10.6,100,11.83,11.83,0,0,1,22.43,88.17Z" style="fill:#fff;fill-rule:evenodd"/><path d="M31.84,92.83a11.83,11.83,0,0,1-16.5,16.64,11.83,11.83,0,0,1,16.5-16.64Z" style="fill:#9ab6ca;fill-rule:evenodd"/><path d="M14.46,108.15a11.83,11.83,0,0,1,16.83-15.7,11.83,11.83,0,0,1-16.83,15.7Z" style="fill:#bdcfd8;fill-rule:evenodd"/><path d="M75.71,140.55l30.2,25.55c4.06,3.43,5.3,9.18,2.19,13.5h0c-3.11,4.31-8.92,4.9-13.49,2.18l-34-20.22a13,13,0,0,1-2.93-18.07h0a13,13,0,0,1,18.08-2.94Z" style="fill:#5ec1e2;fill-rule:evenodd"/><path d="M75.93,141.78l30.2,25.54c4.06,3.44,5.3,9.19,2.19,13.5h0c-3.11,4.31-8.92,4.91-13.49,2.19l-34-20.22a13,13,0,0,1-2.93-18.08h0a13,13,0,0,1,18.08-2.93Z" style="fill:#0086ba;fill-rule:evenodd"/><path d="M74.66,147.19a9,9,0,1,1-12.5,2.25,9,9,0,0,1,12.5-2.25Z" style="fill:#375987;fill-rule:evenodd"/><path d="M74.52,145.05A9,9,0,1,1,62,147.3a9,9,0,0,1,12.5-2.25Z" style="fill:#fcb240;fill-rule:evenodd"/><path d="M78.34,153.28a9,9,0,1,1-3.85-6.86,8.92,8.92,0,0,1,3.85,6.86Z" style="fill:#f4763c;fill-rule:evenodd"/><path d="M72.36,148.16a5.19,5.19,0,1,1-7.23,1.3,5.19,5.19,0,0,1,7.23-1.3Z" style="fill:#fff;fill-rule:evenodd"/><path d="M74.59,152.2a5.2,5.2,0,1,1-2-2.63,5.15,5.15,0,0,1,2,2.63Z" style="fill:#9ab6ca;fill-rule:evenodd"/><path d="M64.48,153.37a5.2,5.2,0,0,1,8.14-3.8,5.2,5.2,0,0,1,1.87,2.35,5.2,5.2,0,0,1-10,1.45Z" style="fill:#bdcfd8;fill-rule:evenodd"/><path d="M104.73,170.19a7.11,7.11,0,1,1-9.9,1.79,7.11,7.11,0,0,1,9.9-1.79Z" style="fill:#375987;fill-rule:evenodd"/><path d="M104.35,168.74a7.11,7.11,0,1,1-9.9,1.79,7.13,7.13,0,0,1,9.9-1.79Z" style="fill:#fcb240;fill-rule:evenodd"/><path d="M107.37,175.27a7.11,7.11,0,1,1-3-5.44,7.06,7.06,0,0,1,3,5.44Z" style="fill:#f4763c;fill-rule:evenodd"/><path d="M102.64,171.21a4.11,4.11,0,1,1-5.73,1,4.11,4.11,0,0,1,5.73-1Z" style="fill:#fff;fill-rule:evenodd"/><path d="M104.4,174.41a4,4,0,0,1-.73,2.52,4.11,4.11,0,0,1-7.28-1,4.06,4.06,0,0,1,.73-2.53,4.11,4.11,0,0,1,7.28,1Z" style="fill:#9ab6ca;fill-rule:evenodd"/><path d="M96.4,175.33a4.12,4.12,0,0,1,6.44-3,4.07,4.07,0,0,1,1.48,1.87,4,4,0,0,1-.72,2,4.11,4.11,0,0,1-7.2-.83Z" style="fill:#bdcfd8;fill-rule:evenodd"/><path d="M12,82.53c-1.17-9.84-.17-16.25,3.15-20.18,4.1-4.86,11.12-5.2,19.24-5.6,7.77-.38,16.58-.81,25-5.2l1,1.92c-8.85,4.61-17.91,5.06-25.91,5.45-7.61.37-14.19.69-17.69,4.83C14,67.14,13.09,73.2,14.17,82.28Z" style="fill:#2e6694"/><polygon points="48.97 98.55 64.83 118.83 67.5 116.75 51.59 96.39 48.97 98.55 48.97 98.55" style="fill:#bdcfd8;fill-rule:evenodd"/><path d="M58.32,123.92l5,6.46L73,122.84c3.27-2.56-1.91-8.92-5-6.47l-9.66,7.55Z" style="fill:#fff;fill-rule:evenodd"/><path d="M58.62,124.31l4.75,6.07L73,122.84a2.6,2.6,0,0,0,1-1.92c-.3-2.73-3.75-5.75-6.07-3.93l-9.37,7.32Z" style="fill:#bdcfd8;fill-rule:evenodd"/><path d="M67,119a2.8,2.8,0,1,0,3.93.48A2.8,2.8,0,0,0,67,119Z" style="fill:#fff;fill-rule:evenodd"/><path d="M65.93,121.28a2.73,2.73,0,0,0,.59,1.68,2.54,2.54,0,1,0,.39-3.16,2.76,2.76,0,0,0-1,1.48Z" style="fill:#9ab6ca;fill-rule:evenodd"/><path d="M71.39,121.6a2.8,2.8,0,0,0-4.48-1.8,2.82,2.82,0,0,0-.94,1.32,2.91,2.91,0,0,0,.56,1.32,2.81,2.81,0,0,0,3.93.48,2.77,2.77,0,0,0,.93-1.32Z" style="fill:#bdcfd8;fill-rule:evenodd"/><polygon points="47.78 99.52 53.59 106.95 58.56 103.07 52.66 95.51 47.78 99.52 47.78 99.52" style="fill:#9ab6ca;fill-rule:evenodd"/><path d="M150.3,206.93a6,6,0,1,0-6.63,5.29,6,6,0,0,0,6.63-5.29Z" style="fill:#8892a2;fill-rule:evenodd"/><path d="M148.31,206.71a4,4,0,0,0-3.53-4.42l-.25,0a4,4,0,0,0,0,7.94l.27,0a4,4,0,0,0,3.48-3.52Z" style="fill:#d6dde2;fill-rule:evenodd"/><path d="M146.35,206.49a2,2,0,1,0-2.24,1.78,2,2,0,0,0,2.24-1.78Z" style="fill:#636e83;fill-rule:evenodd"/><path d="M144.06,206.81a.61.61,0,0,0-1.22-.14.61.61,0,1,0,1.22.14Z" style="fill:#fff;fill-rule:evenodd"/></svg>