<svg id="Layer_1" data-name="Layer 1" xmlns="http://www.w3.org/2000/svg" viewBox="0 0 127 94.44">
  <title>arm</title>
  <path d="M88.35,1.39a3,3,0,0,0,1.3-.31H39.27a3,3,0,0,0,1.3.31Z" style="fill:#50b7dd;fill-rule:evenodd"/>
  <path d="M40.57,1.39H88.35a3,3,0,0,0,1.3-.31H39.55l.06.14A2.85,2.85,0,0,0,40.57,1.39Z" style="fill:#375987;fill-rule:evenodd"/>
  <g id="left-finger">
    <path d="M51.94,59.25,3.71,77V87.83l4.88,3.41a.71.71,0,0,0,.84,0,.59.59,0,0,0,.14-.78L7.54,87l0-5L51.91,68.77l0-9.52Z" style="fill:#bdcfd8;fill-rule:evenodd"/>
    <path d="M5.13,88.82l3.46,2.42a.71.71,0,0,0,.84,0,.59.59,0,0,0,.14-.78L7.54,87l0-5L51.91,68.77l0-7.72L5.13,78.24V88.82Z" style="fill:#9ab6ca;fill-rule:evenodd"/>
  </g>
  <g id="right-finger">
    <path d="M75.83,59.25,124.06,77V87.83l-4.89,3.41a.71.71,0,0,1-.84,0,.6.6,0,0,1-.14-.78l2-3.39,0-5L75.85,68.77l0-9.52Z" style="fill:#bdcfd8;fill-rule:evenodd"/>
    <polygon points="124.06 78.5 124.06 87.83 119.17 91.24 121.08 88.01 121.06 83.85 120.21 83.2 120.21 82 75.85 68.77 75.83 61.18 124.06 78.5 124.06 78.5" style="fill:#9ab6ca;fill-rule:evenodd"/>
  </g>
  <polygon points="51.91 56.81 75.96 56.81 75.96 69.87 51.91 69.87 51.91 56.81 51.91 56.81" style="fill:#5ec1e2;fill-rule:evenodd"/>
  <polygon points="75.96 57.77 75.96 69.87 52.96 69.87 52.96 57.77 75.96 57.77 75.96 57.77" style="fill:#0086ba;fill-rule:evenodd"/>
  <polygon points="55.97 39.6 71.9 39.6 71.9 56.81 55.97 56.81 55.97 39.6 55.97 39.6" style="fill:#0086ba;fill-rule:evenodd"/>
  <rect x="60.11" y="1.08" width="7.64" height="38.52" style="fill:#bdcfd8"/>
  <path d="M66.58,32.23a11.51,11.51,0,0,0,1.18-.06V1.08H60.11V29.82A9.92,9.92,0,0,0,66.58,32.23Z" style="fill:#9ab6ca;fill-rule:evenodd"/>
  <path d="M65,28.51c6,0,10.15-4.84,10.91-10.75L78.09,1.08H52.4L54.28,17.6C55,23.52,59.08,28.47,65,28.51Z" style="fill:#375987;fill-rule:evenodd"/>
  <path d="M63.69,28.91c6,.05,10.15-4.84,10.91-10.75L76.8,1.08H51L52.94,18C53.61,23.92,57.73,28.87,63.69,28.91Z" style="fill:#5ec1e2;fill-rule:evenodd"/>
  <path d="M59.13,27.8a9.94,9.94,0,0,0,4.56,1.11c6,.05,10.15-4.84,10.91-10.75L76.8,1.08H52.25l2,17.76A12.89,12.89,0,0,0,59.13,27.8Z" style="fill:#0086ba;fill-rule:evenodd"/>
  <path d="M59.89,22.81a6.17,6.17,0,1,0,2.68-8.3,6.16,6.16,0,0,0-2.68,8.3Z" style="fill:#445d87;fill-rule:evenodd"/>
  <path d="M58.15,20.77a6.39,6.39,0,1,0,4.09-8,6.38,6.38,0,0,0-4.09,8Z" style="fill:#fcb240;fill-rule:evenodd"/>
  <path d="M63,25.06a6.39,6.39,0,0,0,3.43-12.27A6.39,6.39,0,0,0,63,25.06Z" style="fill:#f4763c;fill-rule:evenodd"/>
  <path d="M60.71,19.94a3.7,3.7,0,1,0,2.37-4.66,3.69,3.69,0,0,0-2.37,4.66Z" style="fill:#fff;fill-rule:evenodd"/>
  <path d="M63,22.28a3.69,3.69,0,0,0,3.34-6.51A3.69,3.69,0,0,0,63,22.28Z" style="fill:#9ab6ca;fill-rule:evenodd"/>
  <path d="M65.87,15.63a3.7,3.7,0,0,0-4.25,4.77,3.62,3.62,0,0,0,1.22,1.75,3.66,3.66,0,0,0,1.88-.1,3.71,3.71,0,0,0,2.37-4.67,3.79,3.79,0,0,0-1.22-1.75Z" style="fill:#bdcfd8;fill-rule:evenodd"/>
  <polygon points="57.55 39.6 60.68 39.6 60.68 56.81 57.55 56.81 57.55 39.6 57.55 39.6" style="fill:#5ec1e2;fill-rule:evenodd"/>
</svg>
