<svg id="Layer_1" data-name="Layer 1" xmlns="http://www.w3.org/2000/svg" viewBox="0 0 115.04 128.65"><title>arm</title><polygon points="16.23 125.22 18.08 100.93 9.21 95.62 7.14 99.28 13.81 124.71 16.23 125.22 16.23 125.22" style="fill:#9ab6ca;fill-rule:evenodd"/><path d="M6,97.4l8.45-14.73a3.14,3.14,0,0,1,4.28-1.17h0a3.15,3.15,0,0,1,1.17,4.29l-8.45,14.73a3.15,3.15,0,0,1-4.29,1.17h0A3.15,3.15,0,0,1,6,97.4Z" style="fill:#bdcfd8;fill-rule:evenodd"/><path d="M12.26,100.83l8.45-14.74A3.15,3.15,0,0,1,25,84.93h0a3.16,3.16,0,0,1,1.17,4.29L17.71,104a3.16,3.16,0,0,1-4.29,1.17h0a3.15,3.15,0,0,1-1.16-4.29Z" style="fill:#bdcfd8;fill-rule:evenodd"/><polygon points="52.31 45.26 58.08 53.69 115.04 14.71 115.04 3.2 114.63 2.6 52.31 45.26" style="fill:#eaa785;fill-rule:evenodd"/><polygon points="38.02 53.17 51.37 44.03 58.89 55.01 45.54 64.15 38.02 53.17 38.02 53.17" style="fill:#faa53d;fill-rule:evenodd"/><polygon points="56.12 50.97 58.89 55.01 45.77 63.99 43.01 59.95 56.12 50.97 56.12 50.97" style="fill:#f4763c;fill-rule:evenodd"/><polygon points="57.87 53.53 58.89 55.01 46.01 63.83 44.99 62.34 57.87 53.53 57.87 53.53" style="fill:#ec6334;fill-rule:evenodd"/><polygon points="113.74 1.33 115.04 3.22 115.04 0.45 113.74 1.33" style="fill:#faa53d;fill-rule:evenodd"/><polygon points="15.65 86.78 18.17 79.44 42.22 87.7 39.71 95.04 15.65 86.78 15.65 86.78" style="fill:#fff;fill-rule:evenodd"/><polygon points="15.65 86.78 17.92 80.16 41.94 88.4 39.67 95.02 15.65 86.78 15.65 86.78" style="fill:#9ab6ca;fill-rule:evenodd"/><polygon points="20.78 80.34 26.29 64.29 45.12 70.75 39.61 86.81 20.78 80.34 20.78 80.34" style="fill:#bdcfd8;fill-rule:evenodd"/><path d="M24.75,68.77l1.53-4.48,18.84,6.46L41.88,80.2A15.71,15.71,0,0,1,25.15,70c-.15-.43-.29-.85-.4-1.27Z" style="fill:#9ab6ca;fill-rule:evenodd"/><polygon points="16.22 125.22 29.67 104.91 39.93 106.16 39.31 110.32 18.44 126.3 16.22 125.22 16.22 125.22" style="fill:#9ab6ca;fill-rule:evenodd"/><path d="M41.4,109.56l2.38-16.82a3.16,3.16,0,0,0-2.67-3.55h0a3.15,3.15,0,0,0-3.55,2.67l-2.38,16.82a3.15,3.15,0,0,0,2.67,3.55h0a3.15,3.15,0,0,0,3.55-2.67Z" style="fill:#bdcfd8;fill-rule:evenodd"/><path d="M34.33,108.4,36.7,91.58A3.15,3.15,0,0,0,34,88h0a3.16,3.16,0,0,0-3.55,2.67l-2.37,16.82a3.15,3.15,0,0,0,2.67,3.55h0a3.15,3.15,0,0,0,3.55-2.67Z" style="fill:#bdcfd8;fill-rule:evenodd"/><path d="M7.07,98.47a1.75,1.75,0,1,1,1.08,2.22,1.75,1.75,0,0,1-1.08-2.22Zm8.36-14.6a1.75,1.75,0,1,1,1.09,2.22,1.76,1.76,0,0,1-1.09-2.22Zm6.24,3.32a1.75,1.75,0,1,1,1.08,2.22,1.75,1.75,0,0,1-1.08-2.22Zm13.6,4.67A1.75,1.75,0,1,0,33.05,93a1.74,1.74,0,0,0,2.22-1.09Zm7,1.21A1.75,1.75,0,1,0,40,94.15a1.76,1.76,0,0,0,2.22-1.08Zm-2.36,16.65a1.74,1.74,0,1,0-2.22,1.09,1.75,1.75,0,0,0,2.22-1.09Zm-7-1.2a1.75,1.75,0,1,0-2.22,1.08,1.74,1.74,0,0,0,2.22-1.08ZM13.3,101.79A1.75,1.75,0,1,1,14.39,104a1.75,1.75,0,0,1-1.09-2.22Z" style="fill:#d6dde2;fill-rule:evenodd"/><path d="M10.36,98.45a1.74,1.74,0,0,1-2.21,2.24,1.79,1.79,0,0,1-.8-.57,1.75,1.75,0,0,1,2.21-2.25,1.75,1.75,0,0,1,.8.58Zm5.35-14.09a1.74,1.74,0,0,1,2.22-1.08,1.66,1.66,0,0,1,.8.57,1.77,1.77,0,0,1,0,1.16,1.76,1.76,0,0,1-3,.52,1.74,1.74,0,0,1,0-1.17Zm6.23,3.32a1.74,1.74,0,0,1,2.22-1.08,1.66,1.66,0,0,1,.8.57,1.71,1.71,0,0,1,0,1.16,1.75,1.75,0,0,1-2.22,1.08,1.71,1.71,0,0,1-.8-.56,1.74,1.74,0,0,1,0-1.17Zm13.32,3a1.74,1.74,0,0,0-3,.52,1.71,1.71,0,0,0,0,1.16,1.81,1.81,0,0,0,.8.57,1.75,1.75,0,0,0,2.22-1.09,1.71,1.71,0,0,0,0-1.16Zm7,1.21a1.74,1.74,0,1,0,0,1.16,1.77,1.77,0,0,0,0-1.16Zm-2.36,16.65a1.81,1.81,0,0,0-.8-.57,1.75,1.75,0,0,0-2.22,1.09,1.71,1.71,0,0,0,0,1.16,1.74,1.74,0,0,0,3-.52,1.71,1.71,0,0,0,0-1.16Zm-7-1.2a1.66,1.66,0,0,0-.8-.57,1.75,1.75,0,0,0-2.22,1.08,1.77,1.77,0,0,0,0,1.16,1.71,1.71,0,0,0,.8.57,1.74,1.74,0,0,0,2.22-1.08,1.71,1.71,0,0,0,0-1.16Zm-19.33-5.08a1.76,1.76,0,0,1,2.22-1.09,1.84,1.84,0,0,1,.81.57,1.77,1.77,0,0,1,0,1.16,1.75,1.75,0,0,1-3,.52,1.77,1.77,0,0,1,0-1.16Z" style="fill:#9ab6ca;fill-rule:evenodd"/><path d="M33,49.77a13.48,13.48,0,1,1-8,17.3,13.47,13.47,0,0,1,8-17.3Z" style="fill:#f4763c;fill-rule:evenodd"/><path d="M28.88,57.26a8.8,8.8,0,0,1,15.84.39,8.8,8.8,0,0,0-14.58,1.62A8.78,8.78,0,0,0,30,66.93a8.79,8.79,0,0,1-1.07-9.67Z" style="fill:#faa63d;fill-rule:evenodd"/><path d="M34.66,54.2a8.76,8.76,0,1,1-5.21,11.24A8.76,8.76,0,0,1,34.66,54.2Z" style="fill:#f4763c;fill-rule:evenodd"/><polygon points="52.31 45.26 58.08 53.69 115.04 14.71 115.04 3.2 114.63 2.6 52.31 45.26" style="fill:#5ec1e2;fill-rule:evenodd"/><polygon points="58.08 53.69 115.04 14.71 115.04 4.86 53.49 46.98 58.08 53.69" style="fill:#0086ba;fill-rule:evenodd"/><polygon points="58.08 53.69 115.04 14.71 115.04 9.78 55.79 50.34 58.08 53.69" style="fill:#375987;fill-rule:evenodd"/><path d="M44.89,58.68a8.44,8.44,0,1,1-13.73,9.7A8.44,8.44,0,0,0,45.52,60a7.82,7.82,0,0,0-.63-1.34Z" style="fill:#e65c31;fill-rule:evenodd"/><path d="M33.29,60A4.24,4.24,0,0,1,39,58.16a4.17,4.17,0,0,1,1.92,2,4.11,4.11,0,0,0-1.31-1,4.24,4.24,0,0,0-5.8,5.52A4.25,4.25,0,0,1,33.29,60Z" style="fill:#fff;fill-rule:evenodd"/><path d="M36.07,58.52a4.22,4.22,0,1,1-2.5,5.41,4.22,4.22,0,0,1,2.5-5.41Z" style="fill:#bdcfd8;fill-rule:evenodd"/><path d="M41,60.67a4.06,4.06,0,1,1-6.61,4.67,4.06,4.06,0,0,0,6.92-4,4.85,4.85,0,0,0-.31-.65Z" style="fill:#e85c31;fill-rule:evenodd"/></svg>