<svg id="Layer_1" data-name="Layer 1" xmlns="http://www.w3.org/2000/svg" viewBox="0 0 56.5 42.68">
  <title>bubbles</title>
  <path
    d="M54.15,32.08a5.11,5.11,0,0,0-.57-2,5.85,5.85,0,0,0-.56-2.4,5,5,0,0,0-.59-1,14.25,14.25,0,0,0,.18-1.57A12.8,12.8,0,0,0,53.26,23c.9-4-1.24-9.22-5.43-10.23a7.84,7.84,0,0,0-2.56-.2,10,10,0,0,0-1.49-3.1,6.52,6.52,0,0,0-1.66-1.62,6.71,6.71,0,0,0-5.56-5.17,6.57,6.57,0,0,0-5.78,1.87,10.94,10.94,0,0,0-3.62,2.58c-3.95.62-5.73,4.09-6.16,7.76s1.83,8.34,6.27,6.94a5,5,0,0,0,1.42-.71,4.91,4.91,0,0,0,3.28.43,4.14,4.14,0,0,0,1.59,1.83,6.55,6.55,0,0,0,.58,2.78,5.16,5.16,0,0,0,4.74,3.1,4.21,4.21,0,0,0,1.52.31,4,4,0,0,0,.19.48,5,5,0,0,0,2.86,2.58,5.16,5.16,0,0,0,.39,1.67,3.82,3.82,0,0,0,.53.93A3.84,3.84,0,0,0,49,38.72,6.15,6.15,0,0,0,54.15,32.08Z"
    style="fill:#fff"/>
    <path
    d="M54.11,32.08,54,31.56l-.12-.5c-.05-.16-.12-.33-.17-.49s-.15-.31-.22-.47h0l0-.45a6.74,6.74,0,0,0-.15-.88l-.13-.43c-.05-.14-.12-.27-.17-.41a2.14,2.14,0,0,0-.2-.4,2.22,2.22,0,0,0-.23-.39l-.26-.35,0,0v0l.14-1.56v0l.34-1,.25-1a9.79,9.79,0,0,0,.14-1.07c0-.18,0-.35,0-.53v-.53c0-.36-.07-.71-.12-1.06s-.13-.7-.23-1-.22-.68-.34-1-.29-.65-.45-1a10.13,10.13,0,0,0-.55-.89,7.56,7.56,0,0,0-.65-.82c-.12-.13-.25-.25-.37-.37a3.17,3.17,0,0,0-.39-.34l-.4-.32-.44-.27a2.47,2.47,0,0,0-.46-.23,2.76,2.76,0,0,0-.47-.2l-.49-.15-.12,0-.12,0-.26-.05a3.67,3.67,0,0,0-.52-.08,4.4,4.4,0,0,0-.51,0,9,9,0,0,0-1,0L45,13l-.1-.31L44.66,12c-.07-.22-.17-.43-.25-.65a5.18,5.18,0,0,0-.3-.63l-.16-.3a3,3,0,0,0-.18-.3l-.19-.29-.09-.15s-.07-.08-.1-.13l-.22-.28A3,3,0,0,0,43,9a5.43,5.43,0,0,0-.48-.48c-.16-.16-.36-.28-.53-.43l-.11-.08,0-.11-.24-.83c-.1-.27-.23-.52-.34-.79s-.3-.49-.44-.73a6.9,6.9,0,0,0-.53-.68,5.05,5.05,0,0,0-.63-.59,4.43,4.43,0,0,0-.7-.5l-.36-.23-.4-.17a5,5,0,0,0-.81-.32l-.84-.23a8.81,8.81,0,0,0-.88-.11,5,5,0,0,0-.86,0,4.21,4.21,0,0,0-.86.16l-.42.11-.41.17a5.74,5.74,0,0,0-.79.38,7.15,7.15,0,0,0-.73.49c-.24.17-.46.37-.69.56h0l-1,.5-.92.6-.86.7-.79.77,0,0h-.06l-.7.15-.68.22a6.62,6.62,0,0,0-1.25.69,4.7,4.7,0,0,0-.55.45l-.27.24-.23.26a6.86,6.86,0,0,0-.84,1.16c-.12.2-.22.42-.34.63s-.19.43-.28.66a12.1,12.1,0,0,0-.42,1.37,11.25,11.25,0,0,0-.25,1.41l-.05.36,0,.35,0,.37V16l0,.35,0,.35a5.65,5.65,0,0,0,.11.7,5.63,5.63,0,0,0,.17.68,5.84,5.84,0,0,0,.24.66,5.9,5.9,0,0,0,.66,1.21,4.33,4.33,0,0,0,.43.53c.15.17.33.3.49.46s.37.25.56.36a6.25,6.25,0,0,0,.6.24,3.6,3.6,0,0,0,1.31.15,4.92,4.92,0,0,0,1.29-.26c.23-.09.47-.18.68-.28a5.84,5.84,0,0,1,.53-.33l.22-.13.24.08.73.28c.12,0,.25,0,.37.09l.38.07a1.58,1.58,0,0,0,.38,0h.38a.62.62,0,0,0,.19,0l.19,0,.37-.05.36-.05.17.32.26.47.33.43.39.38.44.33.2.15,0,.25,0,.52a4.43,4.43,0,0,0,.06.51,4,4,0,0,0,.1.5c.05.16.08.33.14.49l.19.47,0,.06v0h0c0-.06,0,0,0,0h0l0,0,.06.12.14.24a2.79,2.79,0,0,0,.27.46l.29.38c.1.13.24.23.35.35l.18.18.2.15c.14.09.26.2.41.28l.44.24c.15.07.31.11.47.17a2,2,0,0,0,.48.14,4.33,4.33,0,0,0,.5.08l.5,0H39l.07,0,.33.12.34.08.34.06.34,0,.32,0,.11.29.09.23a2.2,2.2,0,0,0,.09.21l.13.25.13.24c.1.13.18.27.29.4a3.09,3.09,0,0,0,.33.39l.18.18.19.17a3.91,3.91,0,0,0,.41.3,4,4,0,0,0,.45.25c.15.08.31.14.47.21l.23.11,0,.25.08.64a1.16,1.16,0,0,0,.07.31l.09.31.09.29.14.32.08.16.08.12.16.26.06.1v.08a3.89,3.89,0,0,0,.17.89,3.18,3.18,0,0,0,.37.82,3,3,0,0,0,.58.7,3.24,3.24,0,0,0,.75.52,3.78,3.78,0,0,0,.87.32,4.23,4.23,0,0,0,.94.1c.16,0,.32,0,.47,0s.32,0,.48-.07a2.46,2.46,0,0,0,.47-.1,3.88,3.88,0,0,0,.45-.14,5.33,5.33,0,0,0,.87-.41l.41-.25.39-.3a5.46,5.46,0,0,0,.68-.68,5,5,0,0,0,.58-.79c.08-.14.17-.27.25-.42l.21-.44A7.21,7.21,0,0,0,54,34c0-.15.07-.32.1-.48a3.91,3.91,0,0,0,.05-.48A6.41,6.41,0,0,0,54.11,32.08Zm.09,0a6.68,6.68,0,0,1,0,1,4.1,4.1,0,0,1-.06.49,4.21,4.21,0,0,1-.09.49,8,8,0,0,1-.3,1l-.2.45-.24.44a5.72,5.72,0,0,1-.57.82,6.73,6.73,0,0,1-.69.72l-.39.33-.41.28a5,5,0,0,1-.89.47,2.74,2.74,0,0,1-.48.17,4.5,4.5,0,0,1-.49.14l-.5.09c-.17,0-.34,0-.51,0a5,5,0,0,1-1-.07,4.43,4.43,0,0,1-1-.3,3.6,3.6,0,0,1-.89-.56,3.82,3.82,0,0,1-.72-.78,3.63,3.63,0,0,1-.48-.94,4.08,4.08,0,0,1-.25-1l.07.18-.23-.33L43.76,35l-.08-.15-.16-.32a2.05,2.05,0,0,1-.08-.19l-.06-.18-.12-.35a2.37,2.37,0,0,1-.09-.36l-.12-.75.27.36c-.19-.08-.38-.14-.56-.23a5.36,5.36,0,0,1-.53-.28,4.46,4.46,0,0,1-.5-.35,2.23,2.23,0,0,1-.24-.19l-.22-.21c-.15-.14-.27-.3-.41-.45s-.24-.34-.36-.51-.1-.16-.15-.24l-.13-.25a1.3,1.3,0,0,1-.13-.3L40,29.72l.43.31L40,30l-.43-.07-.42-.1-.4-.14.17,0-.6,0a2.91,2.91,0,0,1-.59-.1,2.44,2.44,0,0,1-.59-.15c-.18-.07-.38-.12-.56-.21L36,29c-.18-.1-.33-.23-.5-.34l-.25-.18L35,28.23a6,6,0,0,1-.43-.44l-.37-.5a3.23,3.23,0,0,1-.3-.49l-.13-.24-.07-.12,0,0,0,0h0v0l0-.06-.22-.56c-.07-.19-.11-.38-.16-.57a4,4,0,0,1-.12-.58A5.93,5.93,0,0,1,33.1,24l0-.59.21.4-.53-.41-.48-.47-.41-.55-.33-.61.54.27-.46.06-.23,0a1,1,0,0,1-.24,0l-.46,0a2.38,2.38,0,0,1-.46,0L29.78,22c-.14,0-.3-.06-.44-.11l-.84-.34.45,0-.72.43c-.24.11-.46.18-.69.28a5.88,5.88,0,0,1-1.58.3,4.39,4.39,0,0,1-1.6-.21,4.82,4.82,0,0,1-.74-.31,6.52,6.52,0,0,1-.67-.45,7.67,7.67,0,0,1-.58-.56,5.7,5.7,0,0,1-.48-.62A6.94,6.94,0,0,1,21.18,19a6.23,6.23,0,0,1-.24-.73,5.06,5.06,0,0,1-.17-.75,6.32,6.32,0,0,1-.11-.76,6.51,6.51,0,0,1,0-.77v-.39l0-.36c0-.13,0-.23,0-.39l.06-.37c.08-.49.19-1,.32-1.47a12.55,12.55,0,0,1,.49-1.42c.1-.23.21-.46.32-.68s.24-.45.38-.66A8.13,8.13,0,0,1,23.18,9l.26-.27.29-.25a5.32,5.32,0,0,1,.61-.45,6.07,6.07,0,0,1,1.34-.69c.24-.09.48-.15.72-.23L27.13,7,27,7l.82-.78.89-.71,1-.61,1-.5,0,0c.23-.2.46-.4.7-.59s.49-.36.76-.5A5.23,5.23,0,0,1,33,3l.42-.18.44-.13a4.63,4.63,0,0,1,.9-.18,4.79,4.79,0,0,1,.93-.05c.31,0,.6.06.9.08l.9.22a4.72,4.72,0,0,1,.87.3l.43.17.4.23a4.55,4.55,0,0,1,.78.51,5.86,5.86,0,0,1,.7.62,6,6,0,0,1,.61.71c.16.26.36.51.5.78s.28.56.4.85l.3.88-.14-.19a6.5,6.5,0,0,1,.61.46,4.6,4.6,0,0,1,.56.52,3.5,3.5,0,0,1,.27.28l.22.28a1.26,1.26,0,0,1,.13.16l.1.15.21.31a2.8,2.8,0,0,1,.2.32l.18.33a4.69,4.69,0,0,1,.34.67c.09.23.21.46.29.7l.23.71-.42-.29a8.83,8.83,0,0,1,1.15,0c.19,0,.39,0,.59.05a4.68,4.68,0,0,1,.56.09l.26.06.15,0,.14,0,.56.17c.18.06.35.16.53.24a3.2,3.2,0,0,1,.52.27l.49.31.45.37a3.08,3.08,0,0,1,.42.39c.13.14.27.27.39.41a8.38,8.38,0,0,1,.68.92,8.09,8.09,0,0,1,.56,1,9.63,9.63,0,0,1,.43,1,7.86,7.86,0,0,1,.31,1.08,10.5,10.5,0,0,1,.26,2.23v.56c0,.18,0,.37-.05.56a10.13,10.13,0,0,1-.2,1.1l-.3,1.06-.4,1v-.05l-.21,1.59,0-.08.26.39a3,3,0,0,1,.22.39,2.26,2.26,0,0,1,.19.42c.06.14.12.28.17.43l.11.44a3.58,3.58,0,0,1,.09.45,2.32,2.32,0,0,1,.06.45l0,.45v0c.07.16.15.32.21.48A4.91,4.91,0,0,1,54,31c0,.18.09.35.12.52Z"
    style="fill:#70cbe0"/>
    <path
    d="M27.78,10.39a1.55,1.55,0,0,1-.07-.31,2,2,0,0,1,0-.35,1.94,1.94,0,0,1,.2-.66,2.72,2.72,0,0,1,.37-.58A4.43,4.43,0,0,1,28.78,8a4.35,4.35,0,0,1,.57-.38A3.3,3.3,0,0,1,30,7.37a2.71,2.71,0,0,1,.69-.13H31l.35,0a3.11,3.11,0,0,1,.68.19,4.15,4.15,0,0,1,.6.29A6.44,6.44,0,0,1,34.06,9c.14.17.28.33.4.5a7.71,7.71,0,0,1,.69,1.09l-.82-.15a5.34,5.34,0,0,1,.39-.44,4.46,4.46,0,0,1,.5-.35,4.07,4.07,0,0,1,.58-.22,3.21,3.21,0,0,1,.61-.09,3.9,3.9,0,0,1,.59,0,3.27,3.27,0,0,1,.56.13c.17.07.36.12.52.2a4.53,4.53,0,0,1,.48.27c.14.1.3.19.43.3l.41.34a8.53,8.53,0,0,1,.7.77l.29.43c.1.14.17.3.26.45s.14.31.21.47a4.07,4.07,0,0,1,.13.5l-.11.05L40.54,13c-.13-.1-.23-.22-.36-.32s-.48-.4-.73-.58l-.37-.27c-.13-.08-.26-.16-.38-.25s-.52-.3-.78-.43-.26-.11-.38-.17a3.12,3.12,0,0,0-.39-.15c-.13-.06-.26-.06-.38-.11a1.68,1.68,0,0,0-.37-.06c-.13,0-.24,0-.36,0l-.34.07-.33.16a1.78,1.78,0,0,1-.31.23l-.67.45-.15-.6c0-.18-.08-.38-.13-.56S34,10,33.94,9.8a3.54,3.54,0,0,0-.25-.52,2.64,2.64,0,0,0-.33-.47,2.22,2.22,0,0,0-.44-.37,1.92,1.92,0,0,0-.5-.24,2,2,0,0,0-.55-.07,2.24,2.24,0,0,0-.52,0l-.25.05-.3.07a4.34,4.34,0,0,0-.48.14,5.13,5.13,0,0,0-1,.41,3.57,3.57,0,0,0-.85.62c-.06.07-.13.13-.18.2a1.12,1.12,0,0,0-.16.22,1.42,1.42,0,0,0-.14.23c-.05.09-.08.2-.12.29Z"
    style="fill:#70cbe0"/>
    <path
    d="M48.45,37.52c.09-.16.18-.33.26-.5a3.23,3.23,0,0,0-1.16-3.82,2.8,2.8,0,0,0-.58-.35,1.83,1.83,0,0,0-.83-1.55c-.09-.05-.18-.12-.27-.18a1.71,1.71,0,0,0-.33-1.84,2.72,2.72,0,0,0-3.78-.35,2.29,2.29,0,0,0-.4,2.85,5,5,0,0,0,.89,1.12,1.88,1.88,0,0,0-.2,1.26.88.88,0,0,0,.05.15,3.59,3.59,0,0,0-.43,1.46c-.27,3.38,4.25,6.89,6.68,3.48A1.73,1.73,0,0,0,48.45,37.52Z"
    style="fill:#fff"/>
    <path
    d="M44.31,28.44a2.46,2.46,0,0,1-.33,0,1.86,1.86,0,0,0-.34-.05c-.13,0-.25,0-.39,0a2.08,2.08,0,0,0-.43,0,2,2,0,0,0-.51.08,2.26,2.26,0,0,0-.26.14,1.45,1.45,0,0,0-.19.23,1.14,1.14,0,0,0-.15.6,5.48,5.48,0,0,0,.07.6,3.06,3.06,0,0,0,.15.54,5.11,5.11,0,0,0,.21.47c.07.15.15.29.22.43s.17.23.23.34.16.19.21.27l.19.26h0s0,0,0,0h0a2.15,2.15,0,0,1-.32-.09,1.32,1.32,0,0,1-.36-.15,2.86,2.86,0,0,1-.41-.29,3.62,3.62,0,0,1-.39-.46,1.88,1.88,0,0,1-.27-.63,2.92,2.92,0,0,1-.07-.73,1.79,1.79,0,0,1,.19-.72,3.7,3.7,0,0,1,.35-.62c.07-.1.12-.2.19-.3l.22-.28a1.26,1.26,0,0,1,.59-.38,1.27,1.27,0,0,1,.64,0,2.09,2.09,0,0,1,.5.18A.56.56,0,0,1,44,28l.13.12a1.24,1.24,0,0,1,.22.24,0,0,0,0,1,0,.05Z"
    style="fill:#70cbe0"/>
    <path
    d="M42.19,32.86a1.37,1.37,0,0,1-.13.2c0,.07-.05.14-.08.2s0,.13,0,.2l0,.19A1.67,1.67,0,0,0,42,34a1.73,1.73,0,0,0,.16.37,3.35,3.35,0,0,0,.21.36l.26.33c.09.11.19.21.29.31a3,3,0,0,0,.32.29l0,0a.21.21,0,0,1,0,.29.21.21,0,0,1-.16.08,3,3,0,0,0-.5.06,2.18,2.18,0,0,0-.23.09l-.21.15a1.12,1.12,0,0,0-.28.4,1.4,1.4,0,0,0-.08.49,2.49,2.49,0,0,0,.25,1,4.68,4.68,0,0,0,.5.87,5.13,5.13,0,0,0,.68.72,3.86,3.86,0,0,0,.38.3,4.23,4.23,0,0,0,.42.25,4.69,4.69,0,0,0,.45.18,3.39,3.39,0,0,0,.48.1,2.86,2.86,0,0,0,.51,0,4.78,4.78,0,0,0,.53-.06h0s0,0,0,0l0,0a2.64,2.64,0,0,1-.49.29,1.52,1.52,0,0,1-.28.09,1,1,0,0,1-.29.06A2.58,2.58,0,0,1,43.8,41a2.7,2.7,0,0,1-.55-.24,5.62,5.62,0,0,1-.5-.35,4.16,4.16,0,0,1-.42-.42,5.36,5.36,0,0,1-.34-.49,3.71,3.71,0,0,1-.46-1.08,2.93,2.93,0,0,1,0-1.18,2.35,2.35,0,0,1,.2-.56,1.77,1.77,0,0,1,.34-.47,2.32,2.32,0,0,1,.48-.34,2.18,2.18,0,0,1,.55-.22l-.07.41a2.44,2.44,0,0,1-.87-.56,3.22,3.22,0,0,1-.32-.41,3.33,3.33,0,0,1-.24-.46,2.31,2.31,0,0,1-.12-.52,1.45,1.45,0,0,1,0-.55,2,2,0,0,1,.1-.26,1.07,1.07,0,0,1,.15-.22,1.57,1.57,0,0,1,.19-.18l.21-.12s0,0,0,0A0,0,0,0,1,42.19,32.86Z"
    style="fill:#70cbe0"/>
    <!-- <path d="M11.06,14.92a3.95,3.95,0,1,1-4.14-3.75A3.94,3.94,0,0,1,11.06,14.92Z" style="fill:#fff"/>
    <path
    d="M11.1,14.92s0,.09,0,.28,0,.2,0,.33A4.28,4.28,0,0,1,11,16a5.16,5.16,0,0,1-.37,1.2,4,4,0,0,1-1,1.34,3.78,3.78,0,0,1-1.84.81,4.75,4.75,0,0,1-.56,0,3.58,3.58,0,0,1-.53-.06A3.88,3.88,0,0,1,5.63,19a4.91,4.91,0,0,1-1.78-1.46A4.41,4.41,0,0,1,3,14.1a4,4,0,0,1,.43-1.17,4.37,4.37,0,0,1,1.72-1.69,4.14,4.14,0,0,1,2.22-.46,3.9,3.9,0,0,1,1.93.67,4.11,4.11,0,0,1,1.14,1.24,4.27,4.27,0,0,1,.48,1.16,3.42,3.42,0,0,1,.1.45,1.56,1.56,0,0,1,.05.33Zm-.07,0,0-.28a3,3,0,0,0-.19-.74,3.26,3.26,0,0,0-.63-1A3.77,3.77,0,0,0,9,12a4.37,4.37,0,0,0-1.62-.43A4,4,0,0,0,5.52,12,3.68,3.68,0,0,0,4,13.28a4,4,0,0,0-.63,2,4.07,4.07,0,0,0,.15,1.08,3.55,3.55,0,0,0,.5,1,3.6,3.6,0,0,0,.79.77,3.59,3.59,0,0,0,1,.45,3.84,3.84,0,0,0,1,.15,4.18,4.18,0,0,0,.49,0l.45-.06A4.91,4.91,0,0,0,9.3,18a4.26,4.26,0,0,0,1.09-1A3.37,3.37,0,0,0,10.91,16,2.8,2.8,0,0,0,11,15.2Z"
    style="fill:#70cbe0"/>
    <path d="M15.33,25.63a2.33,2.33,0,1,1-4.65.24,2.33,2.33,0,0,1,4.65-.24Z" style="fill:#fff"/>
    <path
    d="M15.35,25.64v.16a1.66,1.66,0,0,1,0,.46c0,.1,0,.22-.06.34s-.09.24-.15.38-.15.25-.23.4a4.27,4.27,0,0,1-.36.38,2.08,2.08,0,0,1-1.09.47,1.61,1.61,0,0,1-.33,0l-.31,0a1.36,1.36,0,0,1-.32-.08,1.73,1.73,0,0,1-.32-.11,3.11,3.11,0,0,1-1.05-.86,3,3,0,0,1-.53-1.3,2.93,2.93,0,0,1,0-.72,2.36,2.36,0,0,1,.24-.69,2.72,2.72,0,0,1,1-1,2.36,2.36,0,0,1,1.31-.26,2,2,0,0,1,.61.12,3.15,3.15,0,0,1,.52.26,4.74,4.74,0,0,1,.39.35c.1.14.2.26.28.38l.18.36a3,3,0,0,1,.1.33,2.14,2.14,0,0,1,.09.46l0,.16Zm0,0,0-.16a1.33,1.33,0,0,0-.12-.44,2.63,2.63,0,0,0-.14-.3l-.22-.3c-.09-.1-.21-.18-.31-.28s-.26-.16-.39-.24a3.61,3.61,0,0,0-.46-.17,2.24,2.24,0,0,0-.51-.07,2.28,2.28,0,0,0-1.07.21,2.37,2.37,0,0,0-.89.78,2.34,2.34,0,0,0-.25.56,2,2,0,0,0,.27,1.87,2,2,0,0,0,1,.71l.29.06a.89.89,0,0,0,.29,0h.31l.25-.05a2.66,2.66,0,0,0,.93-.36c.12-.1.26-.19.37-.29s.2-.21.28-.31l.19-.33a2.22,2.22,0,0,0,.11-.3,1.39,1.39,0,0,0,.06-.45C15.3,25.69,15.3,25.64,15.3,25.64Z"
    style="fill:#70cbe0"/> -->
    <!-- <path d="M17.93,11.47A1.84,1.84,0,1,1,16,9.73,1.84,1.84,0,0,1,17.93,11.47Z" style="fill:#fff"/>
    <path
    d="M18,11.47v.13a1.86,1.86,0,0,1,0,.37c0,.08,0,.17-.06.27s-.07.19-.11.29a2.69,2.69,0,0,1-.19.32,3.92,3.92,0,0,1-.28.31,1.73,1.73,0,0,1-.86.37,1.1,1.1,0,0,1-.27,0l-.24,0a2.65,2.65,0,0,1-.51-.15,2.59,2.59,0,0,1-.83-.68,2.38,2.38,0,0,1-.41-1,2.18,2.18,0,0,1,0-.57,2.55,2.55,0,0,1,.19-.55,2.19,2.19,0,0,1,.81-.79,1.84,1.84,0,0,1,1-.21,1.79,1.79,0,0,1,.48.1,2.35,2.35,0,0,1,.42.21,2.8,2.8,0,0,1,.31.28l.22.29c.05.11.09.2.14.29s.05.18.08.26a1.15,1.15,0,0,1,.06.36A.69.69,0,0,1,18,11.47Zm0,0,0-.12A1,1,0,0,0,17.8,11a1.58,1.58,0,0,0-.11-.23,1.88,1.88,0,0,0-.18-.24c-.07-.08-.16-.15-.24-.23L17,10.12A2.2,2.2,0,0,0,16.6,10a1.44,1.44,0,0,0-.4-.07,2,2,0,0,0-.85.17,1.74,1.74,0,0,0-.7.62,2,2,0,0,0-.3.95,1.8,1.8,0,0,0,.31,1,1.62,1.62,0,0,0,.81.56,1.89,1.89,0,0,0,.23.05.57.57,0,0,0,.23,0h.24l.2,0a2.2,2.2,0,0,0,.74-.29c.09-.08.2-.15.29-.22s.15-.17.22-.25a3,3,0,0,1,.15-.26,1.35,1.35,0,0,0,.08-.24,1.48,1.48,0,0,0,.06-.36A.73.73,0,0,1,17.92,11.47Z"
    style="fill:#70cbe0"/> -->
  </svg>
