<svg xmlns="http://www.w3.org/2000/svg" xmlns:xlink="http://www.w3.org/1999/xlink" viewBox="0 0 141.98 143.7"><defs><clipPath id="clip-path"><circle cx="71.63" cy="71.93" r="65.8" transform="translate(-1.29 1.3) rotate(-1.03)" style="fill:none"/></clipPath><linearGradient id="linear-gradient" x1="105.57" y1="88.28" x2="105.57" y2="116.01" gradientUnits="userSpaceOnUse"><stop offset="0.33" stop-color="#f9b5aa"/><stop offset="0.76" stop-color="#ffe3e3"/><stop offset="1" stop-color="#fff1e3"/></linearGradient><linearGradient id="_R_W_h_22" x1="96.05" y1="-68.05" x2="111.75" y2="37" gradientTransform="translate(-1.97 10.56) rotate(0.34)" gradientUnits="userSpaceOnUse"><stop offset="0"/><stop offset="0.5" stop-color="#e9a768"/><stop offset="0.95"/></linearGradient><linearGradient id="_R_W_h_81" x1="96.05" y1="-68.05" x2="111.75" y2="37" gradientTransform="translate(-1.97 10.56) rotate(0.34)" gradientUnits="userSpaceOnUse"><stop offset="0"/><stop offset="0.18" stop-color="#020101"/><stop offset="0.24" stop-color="#090604"/><stop offset="0.29" stop-color="#140f09"/><stop offset="0.33" stop-color="#251b11"/><stop offset="0.36" stop-color="#3b2b1b"/><stop offset="0.39" stop-color="#573e27"/><stop offset="0.41" stop-color="#775535"/><stop offset="0.43" stop-color="#9b7045"/><stop offset="0.45" stop-color="#bc8754"/><stop offset="0.5" stop-color="#e9a768"/><stop offset="0.55" stop-color="#9f7247"/><stop offset="0.55" stop-color="#9b6f45"/><stop offset="0.57" stop-color="#765535"/><stop offset="0.6" stop-color="#573e27"/><stop offset="0.62" stop-color="#3b2b1b"/><stop offset="0.65" stop-color="#251b11"/><stop offset="0.69" stop-color="#140f09"/><stop offset="0.73" stop-color="#090604"/><stop offset="0.79" stop-color="#020101"/><stop offset="0.95"/></linearGradient><radialGradient id="_R_W_h_34" cx="82.21" cy="50.39" r="11.11" gradientTransform="translate(-1.97 10.56) rotate(0.34)" gradientUnits="userSpaceOnUse"><stop offset="0" stop-color="#ffa7b7"/><stop offset="1" stop-color="#fff1e3"/></radialGradient><radialGradient id="_R_W_h_34-2" cx="129.48" cy="52.3" r="10.89" xlink:href="#_R_W_h_34"/><radialGradient id="radial-gradient" cx="-3399.76" cy="50.79" r="9.32" gradientTransform="matrix(-1, 0, 0, 1, -3321.05, 0)" gradientUnits="userSpaceOnUse"><stop offset="0" stop-color="#ff8191"/><stop offset="1" stop-color="#fff1e3"/></radialGradient><radialGradient id="radial-gradient-2" cx="103.48" cy="97.8" r="11.53" gradientTransform="translate(2.35 -9.81) rotate(-0.38)" xlink:href="#radial-gradient"/><clipPath id="clip-path-2"><path d="M93,81.71s10.57,5.35,26.28-.21c0,0-2.23,10.31-13.07,10.67C95.94,92.52,93,81.71,93,81.71Z" style="fill:none"/></clipPath><radialGradient id="radial-gradient-3" cx="-3238.53" cy="38.65" r="9.06" gradientTransform="matrix(-1, -0.01, -0.01, 1, -3113.03, -8.76)" xlink:href="#radial-gradient"/><linearGradient id="_R_W_h_2" x1="-3759.47" y1="37.63" x2="-3759.47" y2="49.03" gradientTransform="matrix(-1, -0.01, -0.01, 1, -3633.25, -11.86)" gradientUnits="userSpaceOnUse"><stop offset="0.47" stop-color="#54312f"/><stop offset="0.85" stop-color="#913b37"/><stop offset="1" stop-color="#ff9b7f"/></linearGradient><clipPath id="clip-path-3"><circle cx="-91.89" cy="71.93" r="65.8" transform="translate(-5.25 -6.24) rotate(-4.01)" style="fill:none"/></clipPath><linearGradient id="_R_W_h_22-2" x1="-71.2" y1="-90.88" x2="-53.92" y2="24.77" xlink:href="#_R_W_h_22"/><linearGradient id="_R_W_h_81-2" x1="-71.2" y1="-90.88" x2="-53.92" y2="24.77" xlink:href="#_R_W_h_81"/></defs><title>level</title><g style="isolation:isolate"><g id="Layer_1" data-name="Layer 1"><path d="M142.51,71.93A70.88,70.88,0,1,1,71.63,1.05,70.88,70.88,0,0,1,142.51,71.93Z" style="fill:#fff"/><circle cx="71.63" cy="71.93" r="65.8" transform="translate(-1.29 1.3) rotate(-1.03)" style="fill:#fff"/><g style="clip-path:url(#clip-path)"><g id="_Group_" data-name="&lt;Group&gt;"><path d="M177.12,175,177,175c-11.55-6.68-30.6-6.29-41.07-4.39-9.15,1.9-17.33,5.7-26.82,6.33-10.13.95-17-2.29-26.49-4.43-14.06-3.16-34.55-1.58-47,6l-.31-.11c-3.82,10.08-8.25,23.17-5,34,.09.31.19.62.3.92,0,0,0,0,0,.05a41.71,41.71,0,0,1,1.76,10H20.8c1.48-15.48-2.5-22.06-4-33.45-1.47-13.28-6.38-26.1.49-38.91,6.38-10.44,14.2-15.1,26.49-15.66,35-1.58,41.54-16.48,40.38-44,.61-1.07,2.86,2.16,4.21,1.57,4.17-1.78,8.58-2.26,13-3s8.21-1.54,12.51-.71c2.45.47,5,.71,7.36,1.07,1.1.11,2.2.11,3.31.23a20.06,20.06,0,0,0,2.79-2.28c-3.75,27.76,4.48,46.56,38.85,47.12,12.3.2,20.12,5.22,26.5,15.66,6.86,12.81,2,25.63.49,38.91-1.48,11.39-4.47,21.44-4,33.31v.14h-7.38a35,35,0,0,1,1.11-9.51c4.39-11.52-.87-26.07-5-36.75C177.73,176.42,177.43,175.7,177.12,175Z" style="fill:#fff1e3"/></g><path d="M120.38,121.48s-1.2,14.08-11.17,24.13c0,0-.33,1,5-1.13,0,0,4.62-2.79,18.21-1,0,0,11.9,1.16,18.21.08,0,0-21.32-4.8-33-2.67C117.63,140.86,123.14,128.47,120.38,121.48Z" style="fill:#ffe2dc"/><path d="M88.09,124.69s5,15.19,11,19c0,0,.24,3.59-2.76,1.93,0,0-5.61-4.12-20.19-2.21,0,0-11,2.39-16.3.31a66.84,66.84,0,0,0,13.37-2.61c6.25-2.08,14.39-.64,19.07.12C92.26,141.22,87.51,130,88.09,124.69Z" style="fill:#ffe2dc"/><path d="M83.71,89.75s.55,10.46.48,12.44c0,0,16.35,25.52,43.24,7.2a92.46,92.46,0,0,1-.06-21.11L85.21,91Z" style="fill:url(#linear-gradient)"/><path d="M43.81,135.41S12,143.75,15.31,180c0,0-5.25-21.44,4-32S34.06,136.24,43.81,135.41Z" style="fill:#fffcfa"/><path d="M83.71,89.75s.08.69.22,2,.31,3.18.4,5.61a60,60,0,0,1-.25,8.74,35.28,35.28,0,0,1-2.88,11,26.23,26.23,0,0,1-3.44,5.53,27.22,27.22,0,0,1-5.08,4.77A40.42,40.42,0,0,1,59,133.44a87.23,87.23,0,0,1-15.87,2.35,42.2,42.2,0,0,0-8,1.38,27.73,27.73,0,0,0-7.46,3.31,28.67,28.67,0,0,0-6.14,5.38A39.32,39.32,0,0,0,19,149.1c-.38.56-.76,1.12-1.12,1.7l-.27.43-.22.43c-.15.31-.32.61-.46.91a29.23,29.23,0,0,0-2.38,7.61,36.74,36.74,0,0,0-.45,7.81,71.57,71.57,0,0,0,.78,7.57c.36,2.46.78,4.87,1.16,7.22s.73,4.64,1,6.87.64,4.34,1.06,6.37.88,4,1.3,5.81.75,3.62,1,5.28a59,59,0,0,1,.75,8.71c0,1.21,0,2.3-.06,3.24S21,220.8,21,221.44l-.17,2s.05-.69.14-2c0-.65.07-1.44.1-2.38s0-2,0-3.24a59.25,59.25,0,0,0-.9-8.66c-.59-3.32-1.57-7-2.47-11.06-.44-2-.83-4.17-1.13-6.39s-.63-4.5-1-6.84a119.3,119.3,0,0,1-2-14.85,38.06,38.06,0,0,1,.42-8,30,30,0,0,1,2.43-7.8c.14-.32.31-.61.46-.92l.24-.48.28-.44c.36-.58.74-1.16,1.13-1.73A36.52,36.52,0,0,1,21,145.4a27.47,27.47,0,0,1,14-8.89,43.07,43.07,0,0,1,8.17-1.38,86.39,86.39,0,0,0,15.75-2.29,40.09,40.09,0,0,0,13.54-5.91,26.06,26.06,0,0,0,5-4.65,25.79,25.79,0,0,0,3.44-5.41,35.62,35.62,0,0,0,3-10.82,60.3,60.3,0,0,0,.39-8.71c-.06-2.42-.21-4.32-.32-5.61S83.71,89.75,83.71,89.75Z" style="fill:#f9b5aa"/><path d="M127.43,87.67s-.07.69-.21,2-.3,3.22-.39,5.66a71,71,0,0,0,.17,8.8,45,45,0,0,0,2.29,11.12,25.68,25.68,0,0,0,13.37,15.12,37.81,37.81,0,0,0,7.18,2.59,83.11,83.11,0,0,0,15.93,2.1,44.78,44.78,0,0,1,8.27,1.11,29.53,29.53,0,0,1,7.85,3.12,28.09,28.09,0,0,1,6.52,5.37,35.83,35.83,0,0,1,2.63,3.27c.41.56.81,1.14,1.18,1.72.2.29.37.59.56.88s.18.27.28.47l.23.46c.32.6.6,1.25.89,1.88s.52,1.28.73,1.94a29.1,29.1,0,0,1,1.07,4,36.8,36.8,0,0,1,.6,8,103.6,103.6,0,0,1-2,15c-.41,2.36-.8,4.66-1.08,6.9s-.61,4.4-1,6.47c-.71,4.13-1.46,7.9-2,11.25s-.93,6.3-1.12,8.74c-.11,1.21-.15,2.3-.2,3.25s0,1.76,0,2.41c0,1.31,0,2,0,2s0-.7-.06-2c0-.65,0-1.46,0-2.41s.05-2,.14-3.26c.15-2.44.47-5.4,1-8.77s1.19-7.15,1.87-11.28c.33-2.07.65-4.22.91-6.46s.63-4.56,1-6.93.81-4.8,1.16-7.29a65.71,65.71,0,0,0,.7-7.64,35.52,35.52,0,0,0-.62-7.87,28.06,28.06,0,0,0-1.05-3.87c-.21-.64-.47-1.26-.72-1.89s-.55-1.23-.88-1.84a32,32,0,0,0-11.16-11.86,27.79,27.79,0,0,0-7.64-3.06,43.22,43.22,0,0,0-8.15-1.13,83.21,83.21,0,0,1-16-2.16,31.58,31.58,0,0,1-13.45-6.83,25.74,25.74,0,0,1-4.51-5.41,30.41,30.41,0,0,1-2.81-5.93,43.51,43.51,0,0,1-2.17-11.24,70.51,70.51,0,0,1,0-8.82c.13-2.45.34-4.36.48-5.66S127.43,87.67,127.43,87.67Z" style="fill:#f9b5aa"/><path d="M120.86,106s-.07,1.35-.14,3.64c0,1.15-.08,2.53-.15,4.09,0,.78-.09,1.61-.14,2.47s-.14,1.77-.21,2.7-.19,1.9-.34,2.88c-.08.49-.15,1-.22,1.5s-.2,1-.29,1.52c-.17,1-.45,2-.69,3.1-.13.52-.31,1-.45,1.56s-.29,1.05-.49,1.56l-.56,1.56c-.17.52-.42,1-.63,1.53s-.41,1-.66,1.53l-.74,1.49c-.13.25-.24.5-.38.74l-.41.72c-.27.49-.55,1-.82,1.44-.57.94-1.19,1.84-1.76,2.75l.51-.62.62-.76c.24-.3.53-.64.83-1s.6-.88,1-1.38c.17-.25.35-.51.53-.79s.35-.58.53-.89c.34-.62.76-1.26,1.11-2s.73-1.49,1.08-2.32l.5-1.27c.17-.44.36-.88.49-1.34.29-.93.63-1.89.86-2.91.12-.51.25-1,.37-1.55l.3-1.61c.11-.55.18-1.1.25-1.67s.16-1.13.21-1.71.09-1.17.14-1.76.06-1.19.08-1.8,0-1.21,0-1.83,0-1.24,0-1.86C121.15,111.18,121,108.61,120.86,106Z" style="fill:#f9b5aa"/><path d="M85.86,110.49s0,1.29.14,3.46a65.69,65.69,0,0,0,1.2,8.76c.19.88.39,1.8.64,2.72s.51,1.88.82,2.83.65,1.93,1,2.9.82,1.93,1.29,2.89c.24.47.48.95.75,1.41s.54.93.82,1.39.6.9.89,1.34.64.87,1,1.28.68.83,1.06,1.21l.55.57.58.54a19.13,19.13,0,0,0,2.47,1.9l-.57-.5a8.73,8.73,0,0,1-.68-.63,12.44,12.44,0,0,1-.88-.89c-.32-.35-.67-.73-1-1.18s-.73-.94-1.12-1.47-.78-1.13-1.15-1.78c-.2-.32-.4-.65-.58-1s-.4-.7-.58-1.07a45.51,45.51,0,0,1-2.17-4.95c-.34-.91-.67-1.86-1-2.84s-.61-2-.9-3c-.56-2.1-1.07-4.33-1.5-6.64S86.13,113,85.86,110.49Z" style="fill:#f9b5aa"/><path d="M48.23,141.78l1.17.3c.77.18,1.88.48,3.29.79l2.32.51c.84.18,1.76.35,2.73.54s2,.35,3.09.51c.55.08,1.1.17,1.68.24l1.77.11c.6.05,1.21,0,1.83,0s1.25,0,1.89,0c1.27,0,2.57-.16,3.9-.29l4-.42c.68-.08,1.36-.14,2-.21l1-.1,1-.07c1.37-.14,2.77-.12,4.17-.14h1l1,0c.35,0,.7,0,1,0l1,.07a26.66,26.66,0,0,1,4.1.6c.67.15,1.31.38,2,.57s1.26.52,1.89.77l-.89-.49-.49-.27a3.73,3.73,0,0,0-.6-.3c-.46-.19-1-.41-1.57-.64s-1.28-.41-2-.58a24.55,24.55,0,0,0-2.47-.44c-.89-.14-1.84-.2-2.86-.27s-2.07-.1-3.19-.12h-.85l-.87,0c-.59,0-1.19,0-1.8.09-1.22.09-2.48.19-3.77.33s-2.63.29-4,.42-2.77.25-4.2.32c-.72,0-1.45.06-2.17.06s-1.47,0-2.21-.06l-2.27-.23L59,143.3l-1.16-.15-2.34-.3-2.38-.34C51.48,142.29,49.87,142,48.23,141.78Z" style="fill:#f9b5aa"/><path d="M159.85,141.84l-4.53.68-2.35.34-2.75.36c-1,.14-2,.22-3.08.33-.55,0-1.1.12-1.66.16l-1.72,0c-.58,0-1.18,0-1.78,0s-1.22,0-1.84-.09c-1.25-.09-2.53-.22-3.84-.36l-4-.43c-.68-.08-1.37-.14-2.06-.19l-1-.09-1.06,0a37.66,37.66,0,0,0-4.25,0l-1.06,0-1.07.08c-.35,0-.71.05-1.06.09l-1.06.15a23,23,0,0,0-4.13,1c-.66.23-1.29.53-1.93.8s-1.2.67-1.79,1l.94-.4.51-.22a4.74,4.74,0,0,1,.62-.24l1.58-.49c.61-.12,1.28-.29,2-.41s1.55-.23,2.43-.26,1.82-.09,2.81-.12l3.16,0h.84l.85.06c.57.05,1.15.08,1.75.14,1.19.12,2.44.24,3.73.39s2.62.31,4,.43,2.81.23,4.28.27c.73,0,1.48,0,2.23,0s1.52-.07,2.28-.14l2.29-.34,1.16-.17,1.15-.22,2.34-.44,2.35-.53C156.66,142.65,158.25,142.24,159.85,141.84Z" style="fill:#f9b5aa"/><g id="_Group_2" data-name="&lt;Group&gt;"><path d="M127.22,35l-.11.22c-12.09-.62-26-9.08-32.38-20.62h0c1.85,7.37,7.56,15.9,14.65,19.27v0c-18.72-3.67-29.78-19.16-33-37.45-.06-.39-.13-.8-.2-1.22-17.09,18.65-21,50.46-5.72,72.09a48.28,48.28,0,0,1-8-8.67,50.56,50.56,0,0,1-5.91-10.88h-.36a9.27,9.27,0,0,0-3.35.62l-.05-.11C48.16,34.13,45.25,10,54.62-9.86c2.62-5.57,8.4-14.79,15.29-18.83l.08,0c6.2-5.15,15-7.3,23.68-8.89a53.76,53.76,0,0,1,21.13.32A72,72,0,0,1,124-34.68c8.73,3,15.67,7.1,21.57,13.19,1,1,2,2.17,3,3.35h0a60.24,60.24,0,0,1,3.63,5c.13.2.27.39.39.59.88,1.36,1.73,2.78,2.57,4.28a.75.75,0,0,1,.07.12c9.61,17.8,9.83,40.36-.19,57.72l0,.07a8.85,8.85,0,0,0-4.47-1.27,52.74,52.74,0,0,1-4.17,8.16h0a53.2,53.2,0,0,1-4.65,6.3c1.94-6.39,5.9-13.31-2.26-23.75h0A37.32,37.32,0,0,1,127.22,35Z" style="fill:#bc875b"/><path d="M70.46,67.3C55.2,45.67,59.09,13.86,76.18-4.79c.07.42.14.83.2,1.22,3.21,18.29,14.27,33.78,33,37.45v0c-7.09-3.37-12.8-11.9-14.65-19.27h0c6.34,11.54,20.29,20,32.38,20.62l.11-.22A37.32,37.32,0,0,0,139.44,39h0c8.16,10.44,4.2,17.36,2.26,23.75a53.2,53.2,0,0,0,4.65-6.3c-.27,2.47-1.71,6.72-3.63,11.41C139.41,76,134.67,85.33,132,89.3c-3.11,4.57-17.31,17.53-26.58,17.47S83.12,93.88,78.12,89c-2.73-2.68-7.24-11.89-11.4-20.91-1.51-3.26-3-6.51-4.28-9.4l.06,0A48.28,48.28,0,0,0,70.46,67.3Z" style="fill:#fff1e3"/><path d="M62.48,58.67c1.31,2.89,2.77,6.13,4.28,9.4-6.15-.79-11.1-4.75-14.5-9.82-1.41-2.11-3.09-5.35-1.75-7.87a4.58,4.58,0,0,1,2.4-2,9.55,9.55,0,0,1,3.35-.61h.33a50.73,50.73,0,0,0,5.95,10.88Z" style="fill:#fff1e3"/></g><path d="M95.4,15.73a43.75,43.75,0,0,0,31.71,19.46s-10.79.72-17.74-1.31C109.37,33.88,99.74,30,95.4,15.73Z" style="fill:#ffd1c5"/><path d="M76.3-4.92S78.74,25.28,105.66,33c0,0-24.64-4.72-30.6-26.58,0,0-18.21,19.35-9.32,52.62C65.74,59,50.15,24.75,76.3-4.92Z" style="fill:#ffd1c5"/><path d="M69.18-14.85S42,11,54.8,47.87a19,19,0,0,1,2.3-.11S42.89,19.14,69.18-14.85Z" style="fill:#aa784b"/><path d="M95.24-7.15s8.82,26.5,27.43,40.84c1.62,1.25,1.3.3,4.59,1.41,3.65,1.23,6.23,2.71,9.84,3.49s8.24.85,12.73,1.23C149.83,39.82,108.27,32.34,95.24-7.15Z" style="fill:#aa784b"/><path d="M104-6.62S119.19,25,138.18,37c3.28,2.06,7.81,2.08,11.65,2.84C149.83,39.82,116.63,19.91,104-6.62Z" style="fill:#aa784b"/><path d="M98.49-17.85s36.67,20.43,51.34,57.67c0,0-4.79.53-6.93-2.58-2.42-3.51.64-8.14-9.28-20.84C123.11,3,112.74-9.43,98.49-17.85Z" style="fill:#aa784b"/><path d="M98.64-20.27s43.42,6,51.19,60.09c0,0-4.2-1.15-4.82-9.17C143.64,12.89,124.33-16.61,98.64-20.27Z" style="fill:#aa784b"/><path d="M91.57-26.25s52.34-6.33,56,56.42c.25,4.3-1.57,7.75-1.08,8.57s3.42-1,3.38,1.08C149.83,39.82,154.24-29.55,91.57-26.25Z" style="fill:#aa784b"/><path d="M136.19,38.47s10.44,10.13,5.51,24.31c0,0,3.47-5.6,2.7-14.5-.24-2.82-5-9.25-5-9.25A12.19,12.19,0,0,1,136.19,38.47Z" style="fill:#ffd1c5"/><path d="M63.18,59.93S73.5,84.28,77.62,88.44c0,0,10.9,11.15,16.91,14.23,0,0-10.54-11.75-14.85-16C76.6,83.66,63.64,61.69,63.18,59.93Z" style="fill:#ffe2dc"/><path d="M146.25,57s-5.81,20.74-13.9,31.8c0,0-7.31,9.87-16.78,14.62,0,0,11.63-11.54,15.3-17.09,3.79-5.73,15.38-29.65,15.38-29.65Z" style="fill:#ffe2dc"/><path d="M76.3-4.92S45.74,27.73,70.46,67.3c0,0-14-11.84-15.57-27.18,0,0,4.5-.56,4.06-5.83S65.23,2.42,76.3-4.92Z" style="fill:#aa784b"/><path d="M75.66-9s3.65,37.72,33.71,42.87c0,0-12.34-7.55-14.26-18.65,0,0,10.11,18.58,32.52,20l-7-3.4c.78-4.88-22.68-1.2-29.29-28.93,0,0,.49,11.3,4.5,20.44C95.79,23.3,77.6,15.49,75.66-9Z" style="fill:#aa784b"/><path d="M53.89,54.75s-.8-3.38.94-3.56,5.16,5.1,5.41,7.73c0,0-2.16.36-1.45,1.92s3.13,3.22,3.13,3.22A14.65,14.65,0,0,1,53.89,54.75Z" style="fill:#ffd1c5"/><path d="M54.43,22.33c-.45,5.41.67,10.31,2.32,10.94,1,.37,2.08-.94,2.7-4,1.73-8.52.71,9.38-.12,11.74s-5.24,5-5.5-1.17S54.43,22.33,54.43,22.33Z" style="fill:#aa784b"/><path d="M149.81,33c.17,4,.07,6.21,2.88,6,0,0-1.72,2.28-8.8.56-1.49-.36-1.86-.26-2.71-.79C138.45,37.1,149.81,33,149.81,33Z" style="fill:#aa784b"/><path d="M154.8,30.77c-.69,4.09-2.74,15.48-7.34,14.55-1.49-.31-2.9-5.84-2.9-5.84-1.16-.09-5.12-.45-5.12-.45,3,2.88,4.65,9.84,4.65,9.84.69,1.59.39,4.27-.19,6.85-.83,3-2.2,7.06-2.2,7.06a50.33,50.33,0,0,0,7.69-12.31,63.64,63.64,0,0,0,3-7.56A64.7,64.7,0,0,0,154.8,30.77Z" style="fill:#aa784b"/><path d="M53.89,54.75s1.25-3.91,6.15,3.89c0,0-1.51-5.78-5-7.46C55.06,51.18,53.24,50.44,53.89,54.75Z" style="fill:#f4a4a4"/><path d="M102.19,28a26.84,26.84,0,0,1-7.08-12.73s7.08,11.61,16,15.13C111.13,30.36,109.55,31.31,102.19,28Z" style="fill:#f4a4a4"/><path d="M63.19,20.24s2.57-14.1,12.9-24.91c0,0,3.06,19.78,14.73,29.5,0,0-13.76-11.93-16.43-24.85C74.39,0,65.09,11.35,63.19,20.24Z" style="fill:#f4a4a4"/><path d="M56.26,48.45c-1.94-1.57-5.69.88-6.21,3.09-.83,3.57,1.9,6.81,4.34,9,0,0,.3.18.24.11a21.63,21.63,0,0,1-3-5.59,7.93,7.93,0,0,1-.52-3.7c.27-2.41,3.3-2.32,5.07-2.81C56.18,48.57,56.34,48.51,56.26,48.45Z" style="fill:#fffcfa"/><path d="M76.09-4.67s2.8,32.77,33.28,38.55c0,0-12.11-6.36-14.26-18.65a40.33,40.33,0,0,0,32,20s7.2,3.39,12.33,3.84c0,0,8.91,9.47,2.26,23.75,0,0,6.05-6.74,8.7-14.46a6.46,6.46,0,0,1,4.72,1s20.41-33.06-5.22-65.82c-24.13-30.83-65.55-23.45-80-12.15,0,0-33.1,21.59-17,76.87a6.64,6.64,0,0,1,3.76-.52s4.85,13,13.87,19.55C70.46,67.3,45.51,31,76.09-4.67Z" style="opacity:0.35000000000000003;mix-blend-mode:screen;fill:url(#_R_W_h_22)"/><path d="M76.09-4.67s2.8,32.77,33.28,38.55c0,0-12.11-6.36-14.26-18.65a40.33,40.33,0,0,0,32,20s7.2,3.39,12.33,3.84c0,0,8.91,9.47,2.26,23.75,0,0,6.05-6.74,8.7-14.46a6.46,6.46,0,0,1,4.72,1s20.41-33.06-5.22-65.82c-24.13-30.83-65.55-23.45-80-12.15,0,0-33.1,21.59-17,76.87a6.64,6.64,0,0,1,3.76-.52s4.85,13,13.87,19.55C70.46,67.3,45.51,31,76.09-4.67Z" style="opacity:0.6000000000000001;mix-blend-mode:screen;fill:url(#_R_W_h_81)"/><path d="M56.23,47.76l-.38,0a9.14,9.14,0,0,0-1,.15,8.89,8.89,0,0,0-1.56.43,5.74,5.74,0,0,0-1.76,1.06,3.65,3.65,0,0,0-1.15,2,5.77,5.77,0,0,0,.19,2.65,12.85,12.85,0,0,0,1.19,2.67c.25.43.52.87.8,1.28s.59.86.91,1.26a27.58,27.58,0,0,0,2,2.34,27.14,27.14,0,0,0,2.16,2c.37.32.76.58,1.12.88s.74.53,1.12.76.73.47,1.1.66.72.39,1.08.54c.17.09.34.16.51.24L63,67a8.41,8.41,0,0,0,.93.36c.59.21,1.13.35,1.57.46s.79.18,1,.23l.37.08-.38,0c-.24,0-.6,0-1.05-.13s-1-.17-1.62-.34c-.31-.07-.63-.18-1-.29a8.14,8.14,0,0,1-1.06-.4,12.22,12.22,0,0,1-1.13-.5c-.39-.18-.76-.4-1.16-.62s-.79-.48-1.19-.73-.79-.55-1.17-.87a23.88,23.88,0,0,1-2.27-2,28,28,0,0,1-2-2.4c-.33-.42-.6-.85-.9-1.28s-.57-.89-.83-1.34a13,13,0,0,1-1.19-2.85,5.91,5.91,0,0,1-.09-2.92,4.15,4.15,0,0,1,1.39-2.22,5.3,5.3,0,0,1,1.94-1,8.62,8.62,0,0,1,1.62-.33,9.26,9.26,0,0,1,1.06,0Z" style="fill:#f9b5aa"/><path d="M53.94,55.2a8.75,8.75,0,0,1-.28-1.37,6.81,6.81,0,0,1,0-1.43,2.72,2.72,0,0,1,.18-.72,1.46,1.46,0,0,1,.22-.35,1,1,0,0,1,.33-.27,1.11,1.11,0,0,1,.42-.12,1.91,1.91,0,0,1,.42,0,3.12,3.12,0,0,1,.73.24h0l0,0a17.15,17.15,0,0,1,1.59,1.6A15.16,15.16,0,0,1,59,54.63a5.66,5.66,0,0,1,.31.48c.09.16.2.32.29.49l.26.51.23.53a5,5,0,0,1,.2.54,5.15,5.15,0,0,1,.16.56,5.86,5.86,0,0,1,.1.58l0,.6,0,.26-.27.06a2.25,2.25,0,0,0-.4.12,2.12,2.12,0,0,0-.37.18,1.13,1.13,0,0,0-.5.54,1.11,1.11,0,0,0,0,.74,1.73,1.73,0,0,0,.18.39,2.14,2.14,0,0,0,.23.38A8.87,8.87,0,0,0,60.69,63c.46.43,1,.83,1.43,1.23-.27-.16-.55-.31-.81-.49l-.78-.55c-.25-.19-.5-.39-.74-.6a7.49,7.49,0,0,1-.68-.7c-.11-.13-.2-.26-.3-.4a2.82,2.82,0,0,1-.23-.46,1.67,1.67,0,0,1-.08-1.11,1.71,1.71,0,0,1,.71-.87,2.94,2.94,0,0,1,.46-.25,3.81,3.81,0,0,1,.51-.17l-.26.32-.06-.51a4.64,4.64,0,0,0-.11-.51,2.88,2.88,0,0,0-.15-.5,4.24,4.24,0,0,0-.18-.5l-.22-.48L59,55.94c-.08-.16-.19-.31-.28-.47s-.18-.3-.28-.45c-.4-.61-.85-1.18-1.31-1.75s-1-1.1-1.47-1.61l.06,0a2.27,2.27,0,0,0-.57-.23,1,1,0,0,0-.28,0,.92.92,0,0,0-.25,0,.62.62,0,0,0-.22.15,1.06,1.06,0,0,0-.17.23,2.37,2.37,0,0,0-.21.6,6.09,6.09,0,0,0-.12,1.36Q53.86,54.51,53.94,55.2Z" style="fill:#f9b5aa"/><path d="M62.44,58.67,64.91,64l2.88,6.08c1.12,2.33,2.4,5,3.84,7.81a84.74,84.74,0,0,0,5.08,8.93,14.41,14.41,0,0,0,1.73,2.1l2,2c1.39,1.32,2.82,2.66,4.31,4a78.36,78.36,0,0,0,9.7,7.47,34,34,0,0,0,5.54,2.9,14.18,14.18,0,0,0,6.06,1.17,18.16,18.16,0,0,0,6-1.63,41.2,41.2,0,0,0,5.5-3,68.88,68.88,0,0,0,9.59-7.59,42.86,42.86,0,0,0,4-4.26,42.87,42.87,0,0,0,3-4.72c1.78-3.18,3.33-6.27,4.7-9.15s2.56-5.55,3.57-7.94,1.83-4.49,2.44-6.25a40.85,40.85,0,0,0,1.23-4.14c.1-.49.18-.86.21-1.12s.06-.39.06-.39,0,.14,0,.39-.1.63-.19,1.13A42.49,42.49,0,0,1,145,61.88c-.57,1.77-1.35,3.9-2.3,6.31s-2.11,5.11-3.46,8-2.85,6-4.6,9.25c-.45.8-.9,1.61-1.38,2.42a24.3,24.3,0,0,1-1.59,2.4,44.37,44.37,0,0,1-4,4.34,69,69,0,0,1-9.66,7.7,41.32,41.32,0,0,1-5.58,3.08,18.55,18.55,0,0,1-6.24,1.71,14.76,14.76,0,0,1-6.35-1.24,34.55,34.55,0,0,1-5.65-3,79,79,0,0,1-9.75-7.57q-2.23-2-4.31-4l-2-2a14.06,14.06,0,0,1-1.77-2.21,84.34,84.34,0,0,1-5-9c-1.42-2.87-2.65-5.52-3.72-7.89L64.8,64Z" style="fill:#f9b5aa"/><path d="M76.32-4.91,75-3.48c-.44.45-.9,1.07-1.49,1.76-.29.34-.58.73-.89,1.14s-.65.84-1,1.31c-.66,1-1.39,2-2.1,3.18-.38.58-.73,1.2-1.09,1.85-.19.32-.37.65-.56,1l-.54,1-.55,1.07L66.3,10c-.17.38-.35.76-.53,1.15s-.33.8-.5,1.2c-.35.81-.66,1.65-1,2.51s-.6,1.75-.89,2.66-.54,1.84-.81,2.79-.48,1.93-.68,2.92-.41,2-.55,3c-.08.52-.17,1-.23,1.55s-.12,1-.19,1.58-.11,1.06-.14,1.59l-.12,1.61c0,1.09-.11,2.18-.08,3.28A62.18,62.18,0,0,0,61,42.49a58.39,58.39,0,0,0,1.17,6.66,53.38,53.38,0,0,0,2,6.48c.37,1.07.86,2.09,1.29,3.12.25.5.5,1,.74,1.51l.37.75.4.73.81,1.45.87,1.4.44.7.47.67.93,1.33-.88-1.36c-.14-.23-.3-.47-.48-.75l-.53-.93c-.2-.33-.4-.69-.62-1.08s-.43-.81-.66-1.26c-.48-.88-.93-1.89-1.43-3-.25-.55-.47-1.15-.72-1.76s-.48-1.25-.71-1.92q-.18-.49-.36-1c-.12-.34-.21-.7-.33-1.06-.21-.72-.44-1.46-.63-2.24s-.41-1.57-.56-2.4l-.27-1.25c-.08-.43-.14-.86-.22-1.3s-.14-.87-.22-1.32-.11-.9-.16-1.36c-.13-.92-.2-1.86-.28-2.82s-.09-1.94-.15-2.94,0-2,0-3.05.06-2.08.16-3.14.19-2.14.32-3.23a64.63,64.63,0,0,1,1.19-6.65c.24-1.13.58-2.25.88-3.39s.69-2.28,1.11-3.41.85-2.26,1.3-3.41,1-2.26,1.55-3.37A57.2,57.2,0,0,1,76.32-4.91Z" style="fill:#9b6c3f"/><path d="M74.47-21l-1.66,1.8-.9,1c-.33.36-.66.78-1,1.21-.73.88-1.61,1.86-2.47,3L67-12.17c-.47.66-.94,1.35-1.44,2.07L64.81-9l-.73,1.17-.76,1.21c-.26.41-.52.83-.76,1.27-.49.87-1,1.77-1.5,2.7S60.1-.74,59.61.26L58.23,3.37,57,6.69c-.37,1.15-.78,2.31-1.13,3.5-.16.61-.33,1.21-.5,1.82-.08.31-.16.62-.25.92l-.21.94c-.14.63-.27,1.26-.42,1.9s-.23,1.28-.34,1.93c-.25,1.3-.39,2.62-.55,4-.09.67-.11,1.35-.17,2s-.11,1.36-.12,2.05c0,1.37-.07,2.76,0,4.15s.16,2.79.27,4.19c.08.71.19,1.4.28,2.11l.14,1,.2,1.05a52.41,52.41,0,0,0,2.17,8.29c.45,1.36,1,2.68,1.58,4s1.22,2.6,1.93,3.84A45,45,0,0,0,70.51,67.32L69,65.92c-.13-.11-.25-.24-.39-.37l-.41-.42-.93-1c-.35-.34-.68-.75-1-1.18s-.76-.88-1.16-1.38L63.89,60c-.43-.55-.81-1.18-1.25-1.82s-.83-1.32-1.26-2c-.21-.36-.44-.71-.64-1.09s-.4-.78-.61-1.17-.43-.8-.62-1.22-.39-.84-.59-1.28c-.42-.86-.76-1.78-1.14-2.71s-.68-1.94-1-2.94-.61-2.07-.92-3.15a60,60,0,0,1-1.29-6.88,59.24,59.24,0,0,1-.49-7.55c0-1.31,0-2.64.13-4,0-.67.08-1.35.15-2l.24-2.05c.07-.7.19-1.38.31-2.08s.21-1.39.36-2.09c.3-1.39.57-2.81,1-4.22A70.41,70.41,0,0,1,59,3.19l.89-2.12c.29-.71.66-1.4,1-2.1.64-1.42,1.41-2.79,2.16-4.18a79.28,79.28,0,0,1,5.19-8.11A92.85,92.85,0,0,1,74.47-21Z" style="fill:#9b6c3f"/><path d="M139.44,39,140.79,41l.63,1.07c.22.38.48.79.69,1.25s.47.94.69,1.46.42,1.08.61,1.66c.08.29.17.59.25.9a7,7,0,0,1,.22.93,15.57,15.57,0,0,1,.28,2,18,18,0,0,1,0,2.08c0,.35-.06.71-.09,1.06a9.31,9.31,0,0,1-.14,1.06c-.1.72-.27,1.42-.43,2.13s-.37,1.42-.59,2.11c-.42,1.4-.87,2.78-1.24,4.13l.17-.5c.12-.32.28-.8.5-1.41s.5-1.37.79-2.24c.15-.44.3-.91.44-1.42s.29-1,.42-1.6.23-1.17.34-1.79a17.51,17.51,0,0,0,.15-2c0-.34,0-.69,0-1l-.09-1.07a8,8,0,0,0-.16-1.08,10.4,10.4,0,0,0-.23-1.11q-.16-.54-.33-1.11a10.6,10.6,0,0,0-.41-1.1c-.16-.36-.28-.74-.47-1.1s-.37-.71-.56-1.08a9.54,9.54,0,0,0-.63-1.06c-.22-.35-.45-.7-.67-1.06C140.48,40.37,140,39.7,139.44,39Z" style="fill:#9b6c3f"/><path d="M153.2,6.85s.09.51.25,1.45c.08.47.18,1,.3,1.72s.2,1.45.32,2.32.27,1.82.34,2.86c.05.52.1,1.06.15,1.61s.11,1.14.12,1.74.06,1.21.09,1.84.07,1.27,0,1.93,0,1.34,0,2c0,.35,0,.7,0,1s0,.71,0,1.07c0,.71-.07,1.44-.1,2.18s-.14,1.49-.21,2.25c-.11,1.52-.37,3.07-.61,4.65-.1.8-.31,1.58-.46,2.38-.08.4-.17.8-.25,1.2l-.12.6-.16.6c-.22.8-.43,1.6-.65,2.41a11.92,11.92,0,0,1-.37,1.2c-.13.4-.27.8-.4,1.2-.49,1.62-1.19,3.17-1.82,4.75-.34.78-.74,1.54-1.1,2.31L148,53.35l-.63,1.11c-.42.74-.85,1.48-1.26,2.21l-1.4,2.11c-.24.35-.46.71-.7,1l-.76,1-1.51,2,.79-.95.94-1.15.61-.74c.21-.26.41-.56.63-.87L146.14,57c.51-.77,1-1.65,1.57-2.57s1.06-2,1.62-3,1-2.29,1.59-3.53l.39-1c.12-.32.23-.65.35-1l.7-2c.26-.69.41-1.43.63-2.16s.44-1.49.59-2.26c.32-1.56.7-3.15.9-4.82.06-.41.13-.83.19-1.25s.12-.85.15-1.28q.12-1.29.24-2.61c.09-.88.08-1.77.13-2.68,0-.45,0-.9.05-1.36s0-.91,0-1.37c0-.92,0-1.85-.05-2.79s-.12-1.88-.19-2.83-.19-1.9-.29-2.87c-.06-.48-.11-1-.17-1.44s-.15-1-.22-1.45l-.24-1.45-.11-.73-.15-.73Z" style="fill:#9b6c3f"/><path d="M69.92-28.67l-.46.28a13.66,13.66,0,0,0-1.29.84c-.56.38-1.21.91-2,1.53L65.06-25c-.39.39-.82.8-1.25,1.25-.85.91-1.76,1.93-2.68,3.1s-1.88,2.46-2.83,3.87-1.9,2.95-2.81,4.61c-.45.83-.91,1.68-1.31,2.59S53.38-7.71,53-6.77c-.21.47-.38,1-.56,1.45s-.35,1-.53,1.49-.35,1-.53,1.51-.3,1-.44,1.57c-.65,2.09-1.1,4.29-1.56,6.53-.18,1.13-.36,2.27-.54,3.43s-.25,2.32-.37,3.5c0,.3-.07.59-.09.88l-.05.89-.09,1.79c-.09,1.2-.06,2.4-.07,3.61,0,.6,0,1.21,0,1.81s.05,1.21.07,1.82,0,1.21.08,1.82l.15,1.82L48.61,29l.22,1.81.23,1.81.29,1.8c.1.6.19,1.2.3,1.79S49.9,37.37,50,38c.22,1.19.51,2.35.8,3.51.57,2.33,1.28,4.59,2,6.79,0,0-.16-.58-.48-1.68-.16-.54-.36-1.22-.55-2s-.47-1.74-.68-2.8-.5-2.22-.71-3.52q-.18-1-.36-2c-.12-.7-.21-1.44-.32-2.19-.25-1.51-.38-3.13-.57-4.85-.08-.86-.13-1.74-.19-2.65,0-.45-.07-.91-.1-1.38s0-.94,0-1.41c0-1-.08-1.93-.06-2.93s0-2,0-3.06c.1-2.07.19-4.23.46-6.44.06-.56.12-1.12.17-1.68l.27-1.69c.18-1.13.33-2.29.6-3.45.13-.57.25-1.16.38-1.74l.18-.88c.07-.3.16-.59.24-.88.33-1.17.62-2.37,1-3.55s.81-2.37,1.24-3.56,1-2.36,1.5-3.55a57.09,57.09,0,0,1,3.86-6.92,55.36,55.36,0,0,1,4.91-6.55A28.24,28.24,0,0,1,69.92-28.67Z" style="fill:#9b6c3f"/><path d="M62.74,59l.23.75c.08.24.17.53.28.88s.22.75.35,1.19.28.94.4,1.48.28,1.11.41,1.73.27,1.27.38,2,.25,1.42.32,2.17c0,.38.08.76.13,1.15s.05.79.08,1.19c.08.81.08,1.64.1,2.48,0,.42,0,.85,0,1.28s0,.86-.06,1.3l-.09,1.31c0,.44-.11.88-.16,1.33l-.08.66-.11.67c-.07.44-.15.88-.22,1.33-.2.88-.36,1.77-.6,2.64-.11.43-.21.87-.33,1.3s-.26.87-.38,1.29c-.24.87-.55,1.69-.81,2.53l.26-.6.32-.73c.12-.29.27-.62.4-1s.3-.8.47-1.27.32-1,.5-1.52.33-1.14.49-1.77c.08-.32.17-.64.24-1l.21-1c.15-.71.25-1.46.36-2.24S66,76.87,66,76s.08-1.71,0-2.61-.09-1.82-.17-2.76c0-.46-.12-.94-.18-1.41,0-.24-.07-.48-.11-.72s-.09-.48-.14-.72c-.16-1-.41-1.94-.66-2.93s-.56-2-.92-2.94S63.13,60,62.74,59Z" style="fill:#9b6c3f"/><path d="M76.41-20.61s-.13.6-.36,1.71c-.13.55-.19,1.25-.32,2-.07.41-.09.84-.13,1.31s-.08.95-.11,1.47,0,1.07,0,1.65,0,1.17,0,1.79.05,1.27.1,1.94c0,.33,0,.67.07,1l.12,1,.12,1.08c0,.36.1.73.16,1.1.09.75.24,1.51.39,2.29s.29,1.57.49,2.38.42,1.61.63,2.45c.1.41.23.83.37,1.24s.27.84.41,1.26.27.85.41,1.28.33.84.5,1.27a52.67,52.67,0,0,0,2.3,5.14L83,15.39c.53.83,1.08,1.65,1.62,2.48.26.42.59.8.89,1.2s.61.79.92,1.19l.46.6.51.56,1,1.12a29.37,29.37,0,0,0,2.18,2.14,27.69,27.69,0,0,0,2.34,2c.41.31.8.65,1.23.93l1.28.84c.43.28.85.56,1.29.83l1.35.72,1.34.72c.46.23.94.4,1.4.6a24.84,24.84,0,0,0,2.82,1.09l1.43.45a10.91,10.91,0,0,0,1.43.4l2.89.64L108,33.5l-1.71-.44c-.68-.19-1.42-.49-2.28-.78-.42-.15-.88-.29-1.35-.48l-1.43-.65c-.5-.23-1-.45-1.56-.71L98,29.53a36,36,0,0,1-3.43-2.19,9.05,9.05,0,0,1-.87-.66L92.84,26a17.84,17.84,0,0,1-1.76-1.53c-.58-.55-1.18-1.1-1.76-1.69l-1.7-1.91a11.74,11.74,0,0,1-.83-1L86,18.76c-.27-.36-.57-.7-.82-1.09l-.76-1.16-.77-1.18c-.25-.4-.47-.83-.71-1.24-.46-.85-1-1.68-1.38-2.58-.21-.45-.42-.9-.64-1.35s-.44-.91-.62-1.39c-.36-.95-.78-1.89-1.13-2.87s-.67-2-1-3S77.6.83,77.32-.22s-.46-2.14-.69-3.23-.37-2.19-.5-3.31a48.46,48.46,0,0,1-.44-6.85A36.24,36.24,0,0,1,76.41-20.61Z" style="fill:#9b6c3f"/><path d="M109.37,33.84l-.54-.3-.64-.35c-.25-.14-.52-.34-.83-.53s-.65-.43-1-.7-.74-.53-1.11-.87-.8-.66-1.18-1.06-.83-.78-1.23-1.23l-.63-.67-.61-.73c-.43-.48-.81-1-1.22-1.55s-.79-1.1-1.18-1.68S98.44,23,98.1,22.38c-.17-.31-.36-.62-.53-.93l-.49-.95c-.33-.64-.63-1.29-.92-1.95s-.56-1.31-.79-2-.44-1.34-.66-2c0,0,0,.17.13.5s.19.82.39,1.43c.1.3.2.64.33,1L96,18.71c.17.42.37.86.58,1.34s.46.95.71,1.46.56,1,.86,1.56.66,1.09,1,1.64.76,1.12,1.2,1.67.9,1.12,1.39,1.68c.23.29.51.55.77.83s.52.56.81.81l.87.8.93.76c.3.26.64.48,1,.72a10.18,10.18,0,0,0,1,.68c.35.2.7.44,1.07.62Z" style="fill:#9b6c3f"/><path d="M91.3,2.93s0,.45.09,1.29c0,.42.11.93.18,1.53a9.6,9.6,0,0,0,.17,1c.07.34.13.7.22,1.08.2.74.41,1.57.72,2.44a14,14,0,0,0,.5,1.35l.28.7.33.71.34.73.38.73.4.75.45.75a34.65,34.65,0,0,0,2,3c.38.51.8,1,1.21,1.52s.87,1,1.33,1.5.94,1,1.45,1.47l.75.73.8.7c1.06.94,2.2,1.84,3.39,2.7s2.45,1.65,3.75,2.4a42.43,42.43,0,0,0,4,2,38,38,0,0,0,4.24,1.59,35.73,35.73,0,0,0,4.37,1.08,34.29,34.29,0,0,0,4.37.46L126,35.07c-.35,0-.79-.09-1.3-.16s-1.1-.18-1.76-.31c-.33-.05-.67-.14-1-.22s-.74-.17-1.13-.28l-1.23-.35-1.3-.42a43.29,43.29,0,0,1-5.89-2.52c-1-.54-2.13-1.16-3.22-1.83s-2.21-1.43-3.31-2.27a42.38,42.38,0,0,1-3.3-2.72,43.76,43.76,0,0,1-3.17-3.21c-.53-.57-1-1.19-1.51-1.8s-1-1.26-1.41-1.93-.88-1.36-1.31-2.05-.81-1.44-1.16-2.2a27.8,27.8,0,0,1-1.81-4.74A27.11,27.11,0,0,1,91.3,2.93Z" style="fill:#9b6c3f"/><path d="M107.83,15.79l.73,1,2,2.82c.44.6.94,1.25,1.48,2s1.14,1.45,1.78,2.25,1.37,1.59,2.1,2.45c.37.43.79.83,1.2,1.26s.81.87,1.27,1.29c.91.82,1.82,1.72,2.87,2.51.52.4,1,.85,1.57,1.23l1.69,1.15c.55.41,1.18.72,1.78,1.08l.92.51a7.11,7.11,0,0,0,.95.49,33.33,33.33,0,0,0,4,1.66l1,.35a9.82,9.82,0,0,0,1,.33l2.13.52c.35.08.7.18,1.07.25l1.08.16,2.17.31c.72.1,1.45.1,2.17.15l2.16.12,4.25-.15-4-.07c-.64,0-1.36-.12-2.14-.19l-1.22-.11a12.63,12.63,0,0,1-1.31-.16l-2.87-.51c-1-.22-2.05-.53-3.16-.81a14,14,0,0,1-1.65-.56l-1.72-.61c-.57-.23-1.14-.52-1.72-.78l-.89-.41-.44-.2-.44-.25a35.35,35.35,0,0,1-3.51-2.13,43.19,43.19,0,0,1-3.49-2.6c-1.11-1-2.27-2-3.35-3.1l-.83-.83-.8-.87c-.54-.59-1.09-1.16-1.61-1.79C113,22.32,112,21.05,111,19.75Z" style="fill:#9b6c3f"/><g id="_x_7_" data-name="¤­©x_7_"><path d="M104.73,71.07c-1.1-1.9-4-1.7-5.76-2.61-.08,0-.68-.15-.53,0a2.43,2.43,0,0,0,.32.24,1.3,1.3,0,0,0-.62.23c.21.15.27.41.44.59a2.75,2.75,0,0,1,.22.26,1.79,1.79,0,0,1,.25.22c1.78,1.8,3.67,4.26,3.63,6.8a1.19,1.19,0,0,0,.94-.31C104.31,74.7,105.82,73,104.73,71.07Z" style="fill:#ffd1c5"/><path d="M99.76,49.18c-.05-.08-.42-.23-.4-.19a26.57,26.57,0,0,1,1.78,11c-.27,3-.91,6.56-3.27,8.61-.06.06.36.48.5.35C103.5,64.39,103.08,54.55,99.76,49.18Z" style="fill:#fffcfa"/><path d="M91.05,61.51A11.11,11.11,0,1,1,80,50.34,11.11,11.11,0,0,1,91.05,61.51Z" style="opacity:0.9;fill:url(#_R_W_h_34)"/><path d="M138.09,63.7a10.89,10.89,0,1,1-10.82-11A10.89,10.89,0,0,1,138.09,63.7Z" style="opacity:0.6000000000000001;fill:url(#_R_W_h_34-2)"/><path d="M99.35,48.72a23.71,23.71,0,0,1,.76,2.44c.23.82.4,1.66.57,2.5.08.41.14.84.21,1.26s.12.85.17,1.27c.08.85.14,1.71.18,2.57s0,1.72-.06,2.59c0,.43-.08.86-.14,1.29s-.14.87-.22,1.29-.2.86-.33,1.28a9.91,9.91,0,0,1-.46,1.25,9.52,9.52,0,0,1-.59,1.2c-.12.19-.24.38-.37.56l-.41.54,0-.65c.26.31.5.61.74.92s.46.63.68,1a21.27,21.27,0,0,1,1.23,2,13.58,13.58,0,0,1,1,2.12,6.23,6.23,0,0,1,.42,2.29,6.79,6.79,0,0,0-.75-2.15,16.68,16.68,0,0,0-1.19-1.93c-.43-.62-.89-1.22-1.37-1.81-.24-.29-.5-.57-.74-.86s-.5-.57-.76-.83l-.26-.28.24-.38.31-.5c.1-.17.18-.35.27-.53A8.27,8.27,0,0,0,98.9,66c.14-.37.24-.76.35-1.15l.15-.59.12-.59c.07-.4.14-.81.18-1.21s.09-.82.13-1.23c.07-.82.1-1.64.11-2.47s0-1.66,0-2.5-.07-1.67-.13-2.5-.12-1.68-.19-2.52S99.44,49.57,99.35,48.72Z" style="fill:#f9b5aa"/><path d="M65.44,40.18l.21-.21c.15-.13.36-.32.65-.55s.65-.49,1.08-.76l.69-.44c.25-.15.52-.28.8-.43.55-.32,1.19-.58,1.85-.88l1-.38.55-.19.57-.16,1.17-.31,1.23-.23c.82-.16,1.67-.2,2.51-.28a10.94,10.94,0,0,1,1.28,0l1.26,0c.83,0,1.65.19,2.44.28s1.52.33,2.23.49a7.9,7.9,0,0,1,1,.3l.93.33a12.25,12.25,0,0,1,1.59.63l1.19.59,1,.54-1.11-.29c-.35-.09-.78-.2-1.26-.35s-1-.23-1.64-.37l-.94-.2-.49-.11-.51-.08-2.17-.3-2.34-.15h-1.2c-.4,0-.8,0-1.2,0a23.51,23.51,0,0,0-2.4.22c-.39.07-.78.11-1.17.17l-1.13.23-.55.12-.53.14-1,.27-1,.32q-.48.14-.9.3A24.67,24.67,0,0,0,65.44,40.18Z" style="fill:#9b6c42"/><path d="M140.54,41.59a25.8,25.8,0,0,0-3.74-1.73,9.43,9.43,0,0,0-.9-.32l-1-.33-1-.28-.54-.15-.55-.12-1.13-.25-1.16-.18a23.59,23.59,0,0,0-2.39-.25,9.88,9.88,0,0,0-1.21,0l-1.2,0-2.34.12-2.17.27-.52.07-.49.11-.94.19c-.6.13-1.16.2-1.64.35s-.91.25-1.26.34l-1.12.27,1-.53c.33-.16.73-.36,1.19-.57a13.08,13.08,0,0,1,1.6-.62c.3-.1.62-.2.94-.32a7.87,7.87,0,0,1,1-.28c.71-.15,1.46-.34,2.24-.47s1.61-.2,2.44-.24H127c.42,0,.85,0,1.27,0,.85.1,1.7.14,2.52.32.41.07.82.15,1.22.24l1.17.32.57.17.54.2,1,.39c.66.31,1.29.57,1.84.89.27.16.55.3.79.45l.69.44c.42.28.78.56,1.07.78s.5.43.64.56A2.46,2.46,0,0,1,140.54,41.59Z" style="fill:#9b6c42"/><path d="M90.32,50.63a8.88,8.88,0,0,0-.68-.85,17.9,17.9,0,0,0-2-2c-.46-.39-1-.78-1.54-1.18a18.43,18.43,0,0,0-1.87-1.1,15.78,15.78,0,0,0-2.14-.9A15.46,15.46,0,0,0,79.69,44a13.94,13.94,0,0,0-2.41-.11l-.6,0L76.1,44c-.2,0-.39,0-.58.09l-.56.12c-.37.08-.73.19-1.07.3a7.92,7.92,0,0,0-1,.37,8.54,8.54,0,0,0-.92.41c-.28.15-.57.28-.83.44a15.63,15.63,0,0,0-1.37.88c-.39.29-.73.53-1,.76L68,48.1l.9-.6a12.1,12.1,0,0,1,1.06-.65c.4-.26.9-.48,1.41-.76.27-.13.55-.24.84-.37s.59-.24.91-.35a9.35,9.35,0,0,1,1-.3,8.76,8.76,0,0,1,1-.25l.54-.11.55-.06a10.36,10.36,0,0,1,1.12-.08,11.74,11.74,0,0,1,2.29.13,13,13,0,0,1,2.24.51c.37.1.72.25,1.07.37s.69.27,1,.44a20.58,20.58,0,0,1,3.43,2,24.58,24.58,0,0,1,2.2,1.81C90.05,50.34,90.32,50.63,90.32,50.63Z" style="fill:#f9b5aa"/><path d="M90.32,51.6a13.88,13.88,0,0,0-13-7s-9.85.39-10.2,7.67a26.9,26.9,0,0,0,11.09,4.61A11.81,11.81,0,0,0,90.32,51.6Z" style="opacity:0.6000000000000001;fill:url(#radial-gradient)"/><path d="M67.1,52.24s11.88,7.4,23.22.08c0,0-5.86,8.64-12.91,7.2C71.32,58.27,67.1,52.24,67.1,52.24Z" style="fill:#ffe6e3"/><path d="M90.32,52.32S81.6,65.91,67.1,52.24C67.1,52.24,80.56,58.88,90.32,52.32Z" style="fill:#543129"/><path d="M71.71,55.36s-3.55-.67-5.86,4.28c0,0,.53-4.94,4.29-5.57Z" style="fill:#543129"/><path d="M74.73,57S70.6,57.47,70,61c0,0-.3-2.66,3.06-5Z" style="fill:#543129"/><path d="M77,57.81s-2.49.5-2.79,2.47a3.16,3.16,0,0,1,1.69-3Z" style="fill:#543129"/><path d="M78.19,57.6a1.25,1.25,0,0,0-.37.08.45.45,0,0,0-.18.07,2.12,2.12,0,0,0-.2.12,1.93,1.93,0,0,0-.41.36,3.32,3.32,0,0,0-.61,1.15,3,3,0,0,0-.1,1.37s0-.12,0-.32a3.92,3.92,0,0,1,.17-.83A4.8,4.8,0,0,1,77,58.48a2.38,2.38,0,0,1,.48-.53,1.3,1.3,0,0,1,.31-.21A1.49,1.49,0,0,1,78.19,57.6Z" style="fill:#543129"/><path d="M72.87,55.6l-.69.16a1.84,1.84,0,0,0-.36.11l-.4.16a3.58,3.58,0,0,0-.45.21l-.46.27-.25.15-.22.19-.47.39c-.15.15-.29.32-.43.48a2.88,2.88,0,0,0-.4.52c-.11.19-.23.37-.35.57s-.18.41-.26.61l-.12.31c0,.1-.05.21-.08.32s-.08.4-.13.62l.23-.56.11-.3c0-.1.12-.21.18-.33l.2-.39a4.53,4.53,0,0,1,.26-.4l.31-.44a4.72,4.72,0,0,1,.37-.43,3.41,3.41,0,0,1,.42-.43l.48-.43c.17-.14.37-.26.55-.39l.29-.2.31-.17a5,5,0,0,1,.66-.32Z" style="fill:#543129"/><path d="M89.42,51.75l-.19.17a3.94,3.94,0,0,1-.58.43,6.68,6.68,0,0,1-1,.54l-.63.3c-.22.08-.47.15-.73.23l-.79.26-.88.18-.93.19a7.93,7.93,0,0,1-1,.09l-1,.08a7.18,7.18,0,0,1-1,0l-2.13,0a9.24,9.24,0,0,1-1.07-.1l-1-.12-1-.12c-.34-.05-.68-.12-1-.18a16.74,16.74,0,0,1-1.88-.43L71.64,53a6.11,6.11,0,0,1-.79-.27,11.4,11.4,0,0,1-1.34-.59,8.63,8.63,0,0,1-1-.57l-.34-.24c-.08-.09-.16-.15-.22-.21A2.23,2.23,0,0,1,67.8,51s.06.06.2.16l.24.18.36.2a7.6,7.6,0,0,0,1,.49l.31.13.33.11.72.24a4.56,4.56,0,0,0,.79.22l.85.21L73,53l.47.08c.31,0,.63.1,1,.16s.65.12,1,.16l1,.1c.69.06,1.41.17,2.09.18l2.1.08a5.79,5.79,0,0,0,1,0l1-.06c.33,0,.65,0,1-.07l.92-.14.87-.13.79-.21L87,53l.64-.24a6.54,6.54,0,0,0,1-.45,5.82,5.82,0,0,0,.61-.36Z" style="fill:#f9b5aa"/><path d="M91.87,80.08s12.26,5.19,29.14-.19c0,0-1.33,14.64-14.47,14.73S91.87,80.08,91.87,80.08Z" style="opacity:0.6000000000000001;fill:url(#radial-gradient-2)"/><path d="M114.6,90.85a4,4,0,0,0-2.11.38l-.11,0a3.86,3.86,0,0,0-1.2.9c-.07.08-.22.22-.07.31a2.68,2.68,0,0,0,2.94-.57,1.37,1.37,0,0,0,.61-.75.08.08,0,0,0,0,0c0-.05.06-.08.08-.13S114.66,90.86,114.6,90.85Z" style="fill:#fffcfa"/><path d="M99.38,93.64s7.45,5.35,14.51-.57c0,0-2.36,6.38-7.92,6A7.14,7.14,0,0,1,99.38,93.64Z" style="fill:#ffd1c5"/><path d="M99.17,93.44a18.67,18.67,0,0,0,14.72-.37S107,100.82,99.17,93.44Z" style="fill:#ef9289"/><path d="M93,81.71s10.57,5.35,26.28-.21c0,0-2.23,10.31-13.07,10.67C95.94,92.52,93,81.71,93,81.71Z" style="fill:#ef9289"/><path d="M93.59,80.67s.39.11,1.08.27c.35.07.77.17,1.26.26l1.63.28c.6.1,1.25.17,1.94.26s1.42.15,2.17.2l1.15.08,1.19,0c.79,0,1.6,0,2.4,0S108,82,108.82,82s1.57-.12,2.33-.18,1.47-.18,2.17-.26,1.33-.21,1.93-.31,1.15-.18,1.63-.3l1.25-.28,1.09-.23-1.06.33-1.23.38c-.48.15-1,.26-1.62.4s-1.24.3-1.93.4-1.42.26-2.18.34-1.54.19-2.35.24-1.61.11-2.43.1-1.63,0-2.43,0l-1.2,0-1.16-.11c-.76,0-1.49-.18-2.18-.27s-1.35-.22-2-.35-1.14-.26-1.62-.39S95,81.14,94.65,81C94,80.83,93.59,80.67,93.59,80.67Z" style="fill:#fffcfa"/><g style="clip-path:url(#clip-path-2)"><path d="M93,81.71s12.9,3.72,26.28-.21C119.23,81.5,106.17,90.34,93,81.71Z" style="fill:#fffcfa"/><path d="M96.35,88.26s6.07-1.1,20.59-.14c0,0-3.75,4.43-8.37,4.64s-8.07.21-10.47-1.2S96.35,88.26,96.35,88.26Z" style="fill:#e07670"/></g><path d="M93,81.71s.4.14,1.1.34,1.72.45,3,.7c.61.14,1.28.25,2,.37s1.46.2,2.24.29,1.58.16,2.4.18l1.23.06h1.25c.83,0,1.66,0,2.48-.08s1.62-.15,2.4-.22,1.52-.23,2.23-.33c.35-.07.7-.11,1-.18l1-.23c.61-.16,1.18-.26,1.67-.4l1.26-.39,1.11-.32-1.07.43-1.24.49c-.47.18-1,.33-1.64.51l-1,.28c-.33.09-.68.15-1,.23a20.73,20.73,0,0,1-2.24.42l-1.2.16-.61.08-.62,0c-.83,0-1.67.12-2.52.1h-1.26l-1.26-.07c-.83,0-1.64-.15-2.43-.24s-1.53-.24-2.25-.38-1.37-.29-2-.46-1.17-.33-1.66-.49-.91-.31-1.25-.44C93.33,81.89,93,81.71,93,81.71Z" style="fill:#ef9289"/><path d="M136.89,52.93s-9-10.23-23.33,1.59c0,0,2.32-11.68,13.87-10.37C138,45.35,136.89,52.93,136.89,52.93Z" style="opacity:0.6000000000000001;fill:url(#radial-gradient-3)"/><path d="M115.37,58.33s3.88,3.59,19.22.69a19.31,19.31,0,0,1-10.67,2.49C117.55,61.2,115.37,58.33,115.37,58.33Z" style="fill:#ffe6e3"/><path d="M120.67,49.09c-.15.07-9.41,3.25-6.1,9.72,0,0,11.12,3.07,18,.3,0,0,5.48-1.22,2.81-6.76C135.4,52.35,129.27,45.22,120.67,49.09Z" style="fill:#fff"/><path d="M113,54.51s11-15.87,24-2c0,0-.24,3.69-1.28,4.88a8.23,8.23,0,0,0-.21-3.64C135,52.27,124.68,43.69,113,54.51Z" style="fill:#543129"/><path d="M118.67,50.08s-3.55,5,.27,9.05a50.58,50.58,0,0,0,12.38.32s4.21-1.11,3.3-6.78c0,0-2.63-3.94-9.35-4.32S118.67,50.08,118.67,50.08Z" style="fill:url(#_R_W_h_2)"/><path d="M114.57,58.81c-.49-.16,14.68,1.43,19.94-.5C134.51,58.31,129.61,63.59,114.57,58.81Z" style="fill:#543129"/><path d="M115.59,56.47s.59-2.72,2.73-1.06C118.32,55.41,117.28,58.64,115.59,56.47Z" style="fill:#fff"/><path d="M122,54.9a3,3,0,1,0,3.05-3A3,3,0,0,0,122,54.9Z" style="fill:#543129"/><path d="M133.22,53.46s-3-4.6-7,.74C126.18,54.2,130.54,59.33,133.22,53.46Z" style="fill:#fff;opacity:0.9"/><path d="M123.67,55.43s-4.53,0-3.79,1.93S123.32,55.61,123.67,55.43Z" style="fill:#ffe0dc"/><path d="M123.86,54.2s-3.58-2.78-4.18-.79S123.48,54.12,123.86,54.2Z" style="fill:#ffe0dc"/><path d="M113.93,51.69s.21-.33.62-.85a17.52,17.52,0,0,1,1.89-2c.42-.38.9-.77,1.43-1.17a14.75,14.75,0,0,1,1.73-1.13,14.4,14.4,0,0,1,2-1,13.75,13.75,0,0,1,2.22-.62,12.76,12.76,0,0,1,2.3-.2h.57l.56,0a9.71,9.71,0,0,1,1.1.16,7,7,0,0,1,1,.24,9.18,9.18,0,0,1,1,.32,7.87,7.87,0,0,1,.89.36c.28.13.56.24.81.38a14,14,0,0,1,1.34.79c.39.26.73.48,1,.69l.81.65-.88-.54c-.28-.19-.64-.37-1-.59s-.88-.42-1.38-.67c-.25-.12-.53-.21-.81-.32a7.57,7.57,0,0,0-.88-.3,7.36,7.36,0,0,0-.95-.25c-.33-.07-.66-.16-1-.2a8.87,8.87,0,0,0-1.05-.12,9.6,9.6,0,0,0-1.08,0,11.5,11.5,0,0,0-2.18.21,13.8,13.8,0,0,0-2.12.57,14.5,14.5,0,0,0-2,.86,19.16,19.16,0,0,0-3.21,2.08c-.87.71-1.56,1.35-2,1.82S113.93,51.69,113.93,51.69Z" style="fill:#f9b5aa"/><path d="M135.2,51.21s2.92,1.59,6.19-2.49c0,0-1.61,4.47-5.24,4.2Z" style="fill:#543129"/><path d="M132.53,49.2s3.95.46,5.37-2.69c0,0-.33,2.54-4,3.91Z" style="fill:#543129"/><path d="M130.62,47.89s2.43.1,3.15-1.65a3,3,0,0,1-2.26,2.42Z" style="fill:#543129"/><path d="M129.47,47.82a2,2,0,0,0,.35,0l.19,0a1.66,1.66,0,0,0,.21-.06,2.09,2.09,0,0,0,.46-.25,3.29,3.29,0,0,0,.83-.93,3,3,0,0,0,.41-1.24l-.09.29a3.54,3.54,0,0,1-.35.73,4,4,0,0,1-.74.93,2,2,0,0,1-.56.38,1.4,1.4,0,0,1-.34.13A2.21,2.21,0,0,1,129.47,47.82Z" style="fill:#543129"/><path d="M134,50.88h.68a1.45,1.45,0,0,0,.35,0l.41-.06a2.86,2.86,0,0,0,.46-.09l.49-.15a2.83,2.83,0,0,0,.52-.21l.52-.26c.17-.1.33-.23.51-.34a2.62,2.62,0,0,0,.48-.4l.46-.44.38-.51.18-.25.14-.28.27-.55-.33.47-.18.25c-.06.09-.15.18-.23.28l-.28.31a2.46,2.46,0,0,1-.33.31l-.38.34a5.15,5.15,0,0,1-.45.32,3.41,3.41,0,0,1-.49.31l-.54.29c-.19.09-.4.15-.6.24l-.32.11-.33.08a4.82,4.82,0,0,1-.68.16Z" style="fill:#543129"/></g><path d="M74.38-6.06s-.75,1-2,2.75-2.88,4.36-4.69,7.56a90.44,90.44,0,0,0-5.43,11.32A70.23,70.23,0,0,0,60,22.27a54.76,54.76,0,0,0-1.53,7.13A43.22,43.22,0,0,0,58,36.65a36.34,36.34,0,0,0,.74,7,34.76,34.76,0,0,0,1.94,6.29,32.89,32.89,0,0,0,2.76,5.23,38.72,38.72,0,0,0,3,4c1,1.13,1.89,2.07,2.66,2.81l1,1,.8.7.67.58-.69-.55L70,63c-.32-.27-.68-.59-1.08-.95-.8-.72-1.74-1.64-2.76-2.74a34,34,0,0,1-3.12-4,34.45,34.45,0,0,1-2.9-5.24,33.13,33.13,0,0,1-2.06-6.36,37.67,37.67,0,0,1-.8-7.11,43.47,43.47,0,0,1,.49-7.37,55.73,55.73,0,0,1,1.59-7.21,71.17,71.17,0,0,1,2.34-6.74c.86-2.15,1.82-4.17,2.77-6.06s1.94-3.64,2.88-5.23a87.61,87.61,0,0,1,4.92-7.45C73.58-5.12,74.38-6.06,74.38-6.06Z" style="fill:#9b6c3f"/><path d="M149.26,39.51s-.88-.51-2.39-1.47-3.66-2.36-6.15-4.15c-1.25-.89-2.58-1.88-4-2.94s-2.86-2.21-4.34-3.43-3-2.51-4.5-3.85c-.76-.66-1.5-1.35-2.25-2s-1.5-1.39-2.23-2.11c-1.46-1.43-2.91-2.89-4.27-4.37l-1-1.1-1-1.12c-.66-.73-1.3-1.47-1.91-2.21S114,9.26,113.42,8.53s-1.12-1.45-1.64-2.15q-.39-.54-.78-1l-.72-1c-.48-.68-.94-1.33-1.35-2s-.83-1.25-1.19-1.85-.69-1.18-1-1.71c-.63-1.08-1.12-2-1.55-2.83C104.39-5.69,104-6.62,104-6.62s.47.91,1.31,2.49c.45.77,1,1.73,1.62,2.79L107.94.33c.37.59.79,1.2,1.22,1.83s.88,1.29,1.37,2l.73,1c.26.34.53.68.79,1,.54.69,1.08,1.41,1.68,2.11s1.16,1.45,1.79,2.17,1.25,1.47,1.92,2.2l1,1.1,1,1.1c1.37,1.47,2.81,2.91,4.28,4.33.72.72,1.47,1.41,2.21,2.12s1.48,1.38,2.24,2c1.49,1.34,3,2.64,4.46,3.86,2.94,2.45,5.76,4.66,8.23,6.48s4.55,3.29,6,4.29S149.26,39.51,149.26,39.51Z" style="fill:#9b6c3f"/><path d="M98.49-17.85s1.07.58,2.88,1.7,4.37,2.79,7.32,4.95c1.47,1.08,3,2.28,4.68,3.59s3.33,2.73,5,4.24,3.44,3.12,5.15,4.81l1.28,1.27L126.12,4c.85.86,1.67,1.77,2.5,2.66s1.61,1.83,2.42,2.74l2.31,2.79c.74.95,1.48,1.88,2.19,2.82s1.4,1.87,2.06,2.81,1.31,1.85,1.91,2.77l1.73,2.72c.54.9,1.06,1.77,1.56,2.62s.94,1.7,1.39,2.5S145,30,145.4,30.77s.73,1.45,1,2.13c.6,1.35,1.15,2.52,1.56,3.51.8,2,1.25,3.1,1.25,3.1l-1.32-3.07c-.44-1-1-2.13-1.65-3.47-.33-.66-.71-1.36-1.09-2.09s-.78-1.52-1.25-2.3-.9-1.63-1.41-2.47L141,23.51l-1.77-2.68c-.61-.91-1.26-1.82-1.92-2.76s-1.36-1.84-2.06-2.79-1.46-1.85-2.19-2.79l-2.32-2.77c-.81-.91-1.59-1.83-2.42-2.72s-1.63-1.8-2.48-2.67L124.53,3l-1.27-1.27c-1.7-1.69-3.43-3.29-5.12-4.82s-3.36-3-5-4.28S110-9.89,108.53-11c-2.92-2.19-5.41-3.93-7.2-5.09S98.49-17.85,98.49-17.85Z" style="fill:#9b6c3f"/><path d="M98.64-20.27a31.06,31.06,0,0,1,3.54.76c1.11.28,2.46.67,4,1.2a52.58,52.58,0,0,1,5,2c1.81.8,3.7,1.8,5.67,2.92l1.47.89.75.46.74.5c.49.33,1,.66,1.49,1l1.48,1.09c.5.36,1,.75,1.47,1.15l1.47,1.2,1.44,1.28.72.64.69.68L130-3.12c.45.47.89,1,1.33,1.44.92,1,1.74,2,2.58,3,.43.5.82,1,1.21,1.57l1.17,1.59c.74,1.08,1.46,2.18,2.17,3.27s1.32,2.22,1.93,3.33,1.17,2.25,1.72,3.35,1,2.24,1.49,3.33.84,2.19,1.24,3.25c.1.26.21.53.3.79s.18.53.26.79c.17.52.34,1,.5,1.55.33,1,.65,2,.89,2.94l.72,2.74c.24.87.37,1.72.55,2.5.32,1.57.62,2.94.78,4.08l.55,3.57-.63-3.56c-.18-1.14-.51-2.49-.87-4-.19-.78-.34-1.62-.6-2.48s-.5-1.77-.76-2.72-.58-1.93-.92-2.93L145,22.7c-.08-.26-.17-.52-.26-.79l-.31-.78c-.42-1.05-.83-2.13-1.28-3.22s-1-2.18-1.5-3.3-1.14-2.2-1.72-3.32S138.68,9.09,138,8s-1.42-2.16-2.16-3.24L134.7,3.17c-.39-.53-.78-1.06-1.21-1.55-.83-1-1.64-2-2.55-3-.44-.48-.87-1-1.31-1.43l-1.39-1.37-.68-.68-.71-.64-1.42-1.28L124-8c-.48-.39-1-.78-1.46-1.14l-1.46-1.09-1.48-1-.73-.5-.73-.46-1.45-.92c-2-1.13-3.83-2.15-5.61-3s-3.45-1.53-5-2.08-2.83-1-3.93-1.29A32.47,32.47,0,0,0,98.64-20.27Z" style="fill:#9b6c3f"/><path d="M149.29,39.53s.1-1.58,0-4.33a98.14,98.14,0,0,0-.91-11.37c-.33-2.33-.77-4.85-1.37-7.49a81.16,81.16,0,0,0-2.32-8.16,62.59,62.59,0,0,0-3.55-8.35,53.26,53.26,0,0,0-5-7.91,46.41,46.41,0,0,0-6.39-6.81A43.76,43.76,0,0,0,122.38-20a46.22,46.22,0,0,0-7.77-3.38,55.64,55.64,0,0,0-7.36-1.87c-1.17-.19-2.28-.38-3.35-.5-.53-.06-1.05-.14-1.56-.18l-1.48-.13c-1-.09-1.85-.11-2.68-.16s-1.59,0-2.28,0c-1.37,0-2.46,0-3.19,0l-1.14,0,1.13-.05c.74,0,1.82-.1,3.2-.09.69,0,1.46,0,2.29,0s1.73,0,2.69.11l1.48.1c.51,0,1,.1,1.57.16,1.07.09,2.19.28,3.36.46a56.15,56.15,0,0,1,7.43,1.8,44.8,44.8,0,0,1,7.86,3.35,44.55,44.55,0,0,1,7.52,5.17,47.28,47.28,0,0,1,6.47,6.86,52.61,52.61,0,0,1,5,8A63.86,63.86,0,0,1,145.12,8a76.71,76.71,0,0,1,2.27,8.23c.57,2.65,1,5.18,1.29,7.53a90.06,90.06,0,0,1,.73,11.4C149.42,38,149.29,39.53,149.29,39.53Z" style="fill:#9b6c3f"/><path d="M149.26,39.51s-1.15-.18-3.13-.68c-1-.25-2.19-.58-3.55-1s-2.89-.92-4.53-1.55c-.83-.3-1.67-.66-2.55-1s-1.77-.74-2.68-1.18c-1.83-.82-3.72-1.79-5.64-2.85s-3.85-2.26-5.74-3.57-3.77-2.72-5.59-4.19c-.89-.76-1.77-1.54-2.64-2.32L112,20c-.42-.4-.84-.8-1.24-1.22a67.44,67.44,0,0,1-4.47-5.08c-.67-.87-1.36-1.7-2-2.58l-.89-1.28c-.15-.22-.29-.43-.44-.63l-.4-.65C102,7.66,101.51,6.84,101,6s-.89-1.62-1.32-2.39c-.22-.38-.4-.77-.58-1.15L98.6,1.37c-.34-.72-.69-1.4-.94-2.06S97.13-2,96.9-2.54s-.45-1.09-.61-1.58l-1.05-3,1.13,3c.16.48.39,1,.64,1.56l.8,1.83c.27.65.64,1.32,1,2S99.51,2.74,100,3.5l1.35,2.37c.48.81,1,1.61,1.56,2.46l.41.64.44.62.91,1.26c.59.87,1.28,1.7,1.95,2.56,1.36,1.7,2.87,3.38,4.47,5,.39.42.81.81,1.23,1.21l1.25,1.19c.87.78,1.74,1.54,2.63,2.3,1.8,1.47,3.64,2.91,5.54,4.19s3.81,2.47,5.69,3.57,3.77,2.06,5.59,2.9c.9.45,1.8.82,2.65,1.21s1.71.73,2.53,1c1.62.65,3.13,1.17,4.48,1.64s2.53.8,3.52,1.07C148.11,39.3,149.26,39.51,149.26,39.51Z" style="fill:#9b6c3f"/><path d="M62.8-22.7s-.24.2-.67.59-1,1-1.81,1.74a64.46,64.46,0,0,0-5.83,6.75c-1.12,1.47-2.25,3.13-3.36,4.93l-.82,1.37c-.28.47-.53,1-.79,1.45-.55,1-1,2-1.54,3a50.1,50.1,0,0,0-2.57,6.61c-.4,1.14-.66,2.33-1,3.51-.16.59-.24,1.2-.37,1.8s-.25,1.2-.32,1.81l-.24,1.82c0,.31-.09.61-.11.91l-.06.92-.12,1.82c0,.61,0,1.21,0,1.82s0,1.2,0,1.8l.12,1.78c0,1.18.27,2.34.42,3.48s.43,2.24.64,3.32a30.21,30.21,0,0,0,.81,3.15c.14.51.28,1,.43,1.5s.34,1,.51,1.43L46.66,36c.17.45.32.9.52,1.32.75,1.68,1.37,3.26,2.1,4.58s1.25,2.52,1.83,3.43c1.1,1.86,1.72,2.93,1.72,2.93L51,45.41c-.62-.9-1.21-2.07-2-3.39s-1.44-2.86-2.23-4.55c-.2-.41-.36-.86-.54-1.31s-.34-.91-.53-1.38-.35-1-.54-1.43-.3-1-.46-1.51c-.3-1-.65-2.06-.87-3.16s-.54-2.2-.68-3.36-.39-2.32-.44-3.52c0-.6-.1-1.2-.14-1.8s0-1.22,0-1.83,0-1.23,0-1.84.08-1.23.11-1.85l.06-.93c0-.31.07-.62.11-.92l.23-1.86c.07-.61.23-1.22.34-1.83s.21-1.22.38-1.82c.32-1.2.6-2.4,1-3.55a52.75,52.75,0,0,1,2.64-6.68A57.64,57.64,0,0,1,50.71-9c1.16-1.79,2.32-3.43,3.48-4.89s2.27-2.74,3.29-3.85,2-2,2.75-2.77,1.43-1.3,1.88-1.67S62.8-22.7,62.8-22.7Z" style="fill:#9b6c3f"/><path d="M76.16-5.63s0,.78,0,2.15a52.05,52.05,0,0,0,.4,5.65c.15,1.16.33,2.42.61,3.73.12.66.3,1.33.46,2S78,9.29,78.18,10c.11.34.21.7.33,1s.24.7.37,1.05c.24.72.55,1.41.84,2.12a31.47,31.47,0,0,0,2.16,4.1,28.29,28.29,0,0,0,2.71,3.76c.5.57,1,1.13,1.55,1.66l.82.76c.27.25.53.51.82.73a30.38,30.38,0,0,0,3.42,2.43c.58.33,1.14.67,1.7,1l1.65.78c.53.25,1.06.42,1.56.62s1,.38,1.42.51l1.28.39.57.17.52.12,2.1.48-2.12-.39-.53-.1L98.78,31l-1.3-.34A14.27,14.27,0,0,1,96,30.22c-.5-.18-1-.35-1.59-.59l-1.68-.75c-.57-.28-1.14-.61-1.74-.93a27.52,27.52,0,0,1-3.5-2.42,9.76,9.76,0,0,1-.84-.73L85.84,24q-.81-.81-1.59-1.68a30.13,30.13,0,0,1-2.78-3.8,31.64,31.64,0,0,1-2.15-4.17c-.29-.72-.6-1.43-.84-2.15-.12-.36-.25-.72-.37-1.07l-.33-1.07c-.22-.7-.38-1.41-.56-2.1s-.31-1.37-.41-2c-.26-1.33-.42-2.6-.55-3.77A48.07,48.07,0,0,1,76-3.48C76.07-4.85,76.16-5.63,76.16-5.63Z" style="fill:#9b6c3f"/><path d="M95.4,15.73s.31.56.91,1.51S97.81,19.51,99,21c.58.76,1.23,1.58,2,2.4s1.52,1.67,2.36,2.52,1.76,1.69,2.73,2.49c.47.41,1,.78,1.48,1.17s1,.75,1.57,1.1,1.06.71,1.61,1l.82.47.84.43a28.31,28.31,0,0,0,3.39,1.45c.56.2,1.13.34,1.68.52s1.1.27,1.63.4a26,26,0,0,0,3.06.42l.7.06h.67l1.24,0c.78-.05,1.46-.06,2-.12l1.75-.22-1.74.31c-.56.08-1.24.12-2,.2-.39,0-.81,0-1.25,0h-.68l-.71,0a25.81,25.81,0,0,1-3.1-.35c-.54-.12-1.11-.22-1.67-.36s-1.14-.31-1.71-.51A26.83,26.83,0,0,1,112.16,33l-.86-.43-.84-.48c-.57-.31-1.1-.67-1.65-1s-1-.74-1.57-1.12-1-.78-1.5-1.2c-1-.82-1.88-1.68-2.73-2.54s-1.63-1.73-2.33-2.59S99.34,22,98.76,21.2a42.73,42.73,0,0,1-2.53-3.91C95.67,16.31,95.4,15.73,95.4,15.73Z" style="fill:#9b6c3f"/><path d="M47,136.5c-.88-2.72-5.18-1.56-4.29,1.18,8.15,25,3.1,52.36,2.7,78.18,0,2.87,4.41,2.87,4.46,0C50.26,189.59,55.29,162,47,136.5Z" style="fill:#fbe0da;opacity:0.8;mix-blend-mode:multiply"/><path d="M67.47,88.62s28.06-3.94,17.6-17.78C77.47,60.76,68.49,65.59,62,83.51c-7.14,19.67-.12,8.38-.12,8.38Z" style="fill:#724d49"/><path d="M60.06,85.05c1.73-1.53,4-1.83,5-.68l1.33,1.5c1,1.16.44,3.33-1.29,4.86L6.14,141.31c-1.73,1.52-3.78,2-4.81.87L1.18,142c-1-1.15-.12-2.89,1.61-4.42Z" style="fill:#d8214d"/><path d="M60,85h0s.13-.12.4-.33a6.35,6.35,0,0,1,1.31-.75,3.69,3.69,0,0,1,2.41-.21,2.2,2.2,0,0,1,.68.35,4.31,4.31,0,0,1,.56.57c.36.42.76.83,1.15,1.31a2.48,2.48,0,0,1,.38,1.93,4.87,4.87,0,0,1-.85,2,9.9,9.9,0,0,1-1.64,1.66l-1.86,1.64C60,95.42,57.15,98,54,100.76L49,105.07c-1.7,1.49-3.5,3-5.33,4.55-3.65,3.14-7.57,6.37-11.59,9.75s-8.18,6.87-12.37,10.46l-6.3,5.44L7.14,140.8a20.49,20.49,0,0,1-1.64,1.37,5.69,5.69,0,0,1-2,.9,3,3,0,0,1-1.16,0,2.24,2.24,0,0,1-1.1-.54c-.06-.07-.16-.15-.21-.21l-.08-.1-.1-.12a2.26,2.26,0,0,1-.31-.54,2.26,2.26,0,0,1-.08-1.23,4.69,4.69,0,0,1,1-2A14.46,14.46,0,0,1,3,136.84L6,134l11.88-11c3.85-3.57,7.62-7,11.17-10.23s6.93-6.3,10.06-9.1l8.58-7.62c2.54-2.27,4.79-4.22,6.6-5.88Zm.07.07-5.64,5.25c-1.8,1.65-4,3.72-6.43,6.06l-8.33,7.89c-3.06,2.88-6.38,6-9.93,9.24s-7.27,6.71-11.16,10.24l-12,10.89-3.08,2.78a14,14,0,0,0-1.45,1.42,4.12,4.12,0,0,0-.92,1.65,1.55,1.55,0,0,0,0,.83,2.18,2.18,0,0,0,.51.72,1.89,1.89,0,0,0,1.67.39,4.82,4.82,0,0,0,1.8-.76,18.66,18.66,0,0,0,1.62-1.29l6.42-5.4,6.34-5.39c4.18-3.6,8.29-7.15,12.22-10.64s7.74-6.84,11.39-10c1.83-1.57,3.58-3.11,5.32-4.57l5-4.23c3.21-2.71,6.19-5.15,8.82-7.34l1.9-1.58a9.81,9.81,0,0,0,1.64-1.56,4.61,4.61,0,0,0,.88-1.86,2.27,2.27,0,0,0-.32-1.77c-.38-.47-.78-.9-1.13-1.32a4.82,4.82,0,0,0-.54-.56,2.23,2.23,0,0,0-.63-.33,3.61,3.61,0,0,0-2.32.18,6,6,0,0,0-1.29.73Z" style="fill:#99163b"/><path d="M62.45,82.94c.41-.37,1.57.28,2.59,1.43l1.33,1.5c1,1.16,1.51,2.39,1.1,2.75L53.62,100.85c-.41.36-1.57-.28-2.59-1.43l-1.33-1.5c-1-1.16-1.51-2.39-1.1-2.75Z" style="fill:#d1d1d1"/><path d="M52.54,99.53,53.1,99l1.5-1.33,2.14-1.83,2.47-2.08,2.47-2.07,1.13-1,1-.88c.31-.27.59-.52.83-.75l.62-.61c.31-.35.49-.57.49-.57l-.1.17c-.07.11-.16.28-.3.48l-.55.68c-.22.26-.47.54-.75.85-.57.6-1.26,1.28-2,2-.39.34-.78.71-1.19,1.06l-1.25,1.07c-.85.71-1.7,1.4-2.52,2s-1.59,1.22-2.26,1.7-1.24.87-1.63,1.15Z" style="fill:#fff"/><path d="M64.16,81.1l.16-.32.18-.37.28-.48c.1-.18.22-.37.36-.58a6.93,6.93,0,0,1,.45-.64,18.07,18.07,0,0,1,1.15-1.44c.42-.51.92-1,1.43-1.57s1.06-1.1,1.62-1.66c1.12-1.12,2.29-2.28,3.35-3.47,0,0-.37.17-1,.53a19.52,19.52,0,0,0-2.57,1.73,21.05,21.05,0,0,0-1.6,1.4,17.36,17.36,0,0,0-1.61,1.83c-.26.34-.51.71-.75,1.09A10.69,10.69,0,0,0,65,78.36a5.24,5.24,0,0,0-.27.65,3.89,3.89,0,0,0-.23.68c-.06.23-.14.46-.18.7Z" style="fill:#4c2c2a"/><path d="M64.78,82.14l.33-.57a6.29,6.29,0,0,1,.4-.62,3.87,3.87,0,0,1,.24-.37l.29-.39c.19-.27.43-.54.65-.84s.24-.3.35-.45.24-.31.37-.46.49-.63.74-.94.49-.64.71-1c0,0-.17.11-.46.33a9.89,9.89,0,0,0-1.17,1c-.23.23-.47.49-.71.78a9.39,9.39,0,0,0-.72,1c-.12.18-.22.38-.33.57a3.92,3.92,0,0,0-.29.62,5.66,5.66,0,0,0-.24.66C64.89,81.68,64.83,81.91,64.78,82.14Z" style="fill:#4c2c2a"/><path d="M65.74,83.28l.2-.38a3.79,3.79,0,0,1,.24-.39,1.67,1.67,0,0,1,.16-.24l.18-.24c.25-.35.57-.71.9-1.11a9.24,9.24,0,0,0,.89-1.26,11.21,11.21,0,0,0-1,.88l-.46.49c-.16.18-.31.4-.47.62s-.14.24-.21.36a1.76,1.76,0,0,0-.19.39,2.39,2.39,0,0,0-.14.43Q65.79,83,65.74,83.28Z" style="fill:#4c2c2a"/><path d="M66.29,84.05a19.73,19.73,0,0,0,1.55-1.37L68.5,82c.24-.23.49-.47.73-.73a13.23,13.23,0,0,0,1.34-1.65,16,16,0,0,0-1.46,1.12c-.22.19-.45.39-.69.62a9,9,0,0,0-.71.77A19.14,19.14,0,0,0,66.29,84.05Z" style="fill:#4c2c2a"/><path d="M67.14,84.64s.26-.17.69-.48l.74-.56c.15-.11.29-.24.45-.35l.51-.35c.35-.25.71-.53,1.08-.82s.79-.58,1.18-.9a20.91,20.91,0,0,0,2.27-2s-.24.1-.65.31l-.74.39c-.28.16-.6.34-.94.57l-1.1.74c-.39.27-.78.61-1.18.95l-.6.55a5.81,5.81,0,0,0-.59.62C67.88,83.7,67.5,84.16,67.14,84.64Z" style="fill:#4c2c2a"/><path d="M67.69,85.4s.44-.11,1.2-.36a3.48,3.48,0,0,0,.61-.22l.7-.3c.24-.12.52-.22.77-.37l.83-.46a9.86,9.86,0,0,0,.85-.53l.88-.61c.29-.21.58-.44.87-.68s.58-.47.86-.73a20.85,20.85,0,0,0,3-3.42s-.32.2-.89.59l-1,.72-1.31,1-1.54,1.18c-.28.21-.55.44-.85.65s-.6.45-.9.69l-1,.7-.48.38-.52.35c-.34.23-.67.51-1,.73S68.06,85.15,67.69,85.4Z" style="fill:#4c2c2a"/><path d="M68.52,86.5s.59-.17,1.59-.51a7.64,7.64,0,0,0,.82-.3l.92-.42c.33-.16.69-.3,1-.5L74,84.14c.18-.12.37-.23.57-.34l.56-.4,1.15-.84c.38-.29.75-.63,1.12-1a12.21,12.21,0,0,0,1.1-1.06c.35-.37.7-.75,1-1.14s.63-.82.93-1.24a10.89,10.89,0,0,0,.83-1.29c.25-.44.49-.89.71-1.33,0,0-.4.33-1.06.95l-.54.52c-.2.19-.42.38-.66.59l-.75.69c-.25.25-.55.48-.84.75l-.93.82-1,.85c-.35.29-.7.62-1.09.91s-.77.62-1.16.95-.83.62-1.25,1l-.63.51-.68.47c-.46.32-.9.7-1.38,1S69,86.15,68.52,86.5Z" style="fill:#4c2c2a"/><path d="M68.56,87.39a2,2,0,0,0,.39.06,3.89,3.89,0,0,0,1.12-.12,11.78,11.78,0,0,0,1.64-.53l.94-.38c.33-.13.68-.29,1-.46a9.39,9.39,0,0,0,1.09-.56c.36-.21.75-.41,1.11-.67A11.82,11.82,0,0,0,77,83.92,12.9,12.9,0,0,0,78,83a13.74,13.74,0,0,0,1-1c.28-.38.58-.74.83-1.14s.48-.81.68-1.23.36-.85.52-1.26c0,0-.33.33-.86,1a6.6,6.6,0,0,1-.46.49l-.55.57c-.2.21-.43.4-.66.62s-.47.46-.75.68-.54.47-.84.71l-.93.73-1,.73-1.12.74c-.38.25-.79.48-1.2.75s-.86.52-1.28.79-.86.54-1.31.79A3.88,3.88,0,0,1,68.56,87.39Z" style="fill:#4c2c2a"/><path d="M79.55,68.38l-.93.41a16.84,16.84,0,0,0-2.24,1.32,16,16,0,0,0-1.33,1,14.41,14.41,0,0,0-1.29,1.3,9.08,9.08,0,0,0-1.84,3.25s.22-.24.56-.66c.09-.11.17-.23.28-.35l.37-.4.41-.45c.15-.16.32-.31.49-.48l.52-.53.6-.55c.39-.4.86-.78,1.31-1.21C77.41,70.24,78.44,69.33,79.55,68.38Z" style="fill:#b27f7b"/><path d="M79.83,69.71s-.24.12-.62.35-.93.53-1.55.91a15.35,15.35,0,0,0-2,1.44A6.16,6.16,0,0,0,74.1,74.5l.44-.41a5.48,5.48,0,0,1,.53-.46l.33-.27.38-.29c.53-.42,1.19-.87,1.89-1.42A15.89,15.89,0,0,0,79.83,69.71Z" style="fill:#b27f7b"/><path d="M79.19,71.67s-.08.1-.23.25-.39.34-.66.56a10.67,10.67,0,0,0-1.74,1.65,8.58,8.58,0,0,0,.9-.59,9.9,9.9,0,0,0,.89-.74A3.63,3.63,0,0,0,79.19,71.67Z" style="fill:#b27f7b"/><path d="M81.66,71.33s-.32.17-.86.49a17.07,17.07,0,0,0-2.09,1.44c-.41.32-.84.67-1.27,1s-.84.83-1.25,1.27l-.61.68c-.19.24-.37.49-.55.74a17.83,17.83,0,0,0-1,1.53s.25-.19.66-.54,1-.89,1.69-1.52C77.83,75.18,79.69,73.41,81.66,71.33Z" style="fill:#b27f7b"/><path d="M82.64,72.45l-.49.51c-.14.17-.35.33-.56.54s-.48.41-.75.64a17.78,17.78,0,0,0-3.54,3.47l.5-.34,1.31-.94A16.65,16.65,0,0,0,81,74.81,7.7,7.7,0,0,0,82.64,72.45Z" style="fill:#b27f7b"/><path d="M85.09,74.09l-.25.48a9.9,9.9,0,0,1-.72,1.14A23,23,0,0,0,82,78.83a15.87,15.87,0,0,0,1.22-1.19,11.12,11.12,0,0,0,1.12-1.45A5.28,5.28,0,0,0,85.09,74.09Z" style="fill:#b27f7b"/><path d="M86,75.58l-.13.29a6.55,6.55,0,0,1-.38.77A12.08,12.08,0,0,1,83.72,79c-.79.86-1.78,1.76-2.83,2.7a28.05,28.05,0,0,0-3,3l.88-.49A26.8,26.8,0,0,0,81,82.76a15.49,15.49,0,0,0,3-2.71,9.42,9.42,0,0,0,1.29-2A7,7,0,0,0,86,75.58Z" style="fill:#b27f7b"/><path d="M78.17,67.9s-.38,0-1,.14a8,8,0,0,0-1.14.31,9.39,9.39,0,0,0-1.4.59A15.78,15.78,0,0,0,69,73.81l.75-.49c.47-.32,1.14-.79,1.95-1.38A33,33,0,0,1,78.17,67.9Z" style="fill:#b27f7b"/><path d="M48.44,95.38s.12-.12.35-.32a4,4,0,0,1,.41-.37c.18-.14.36-.3.59-.47.44-.33,1-.71,1.62-1.15.32-.21.65-.44,1-.7s.7-.54,1.06-.85c.7-.59,1.45-1.23,2.22-1.91s1.54-1.44,2.32-2.2c.38-.38.79-.78,1.14-1.15s.77-.75,1.16-1.13.79-.77,1.16-1.16c.18-.19.36-.39.55-.58l.58-.55-.34.2-.41.26-.53.39-.64.49c-.23.18-.5.36-.77.57s-.58.43-.89.67l-1,.83c-.64.57-1.34,1.19-2.07,1.87s-1.55,1.4-2.37,2.18L52.4,91.48c-.43.39-.88.77-1.34,1.17s-.94.81-1.38,1.27A10.28,10.28,0,0,0,48.44,95.38Z" style="fill:#a3a6af"/><path d="M53.62,100.81l.09-.08a1.38,1.38,0,0,1,.27-.22l.45-.34L55,99.7a6.77,6.77,0,0,1,.74-.52,10.18,10.18,0,0,0,.89-.64l.94-.77,1-.85L60.83,95c.78-.65,1.56-1.33,2.39-2.06l1.21-1.11c.39-.38.77-.77,1.15-1.16s.75-.78,1.12-1.18a3.76,3.76,0,0,0,.89-1.32,2.44,2.44,0,0,1-.22.31,5.49,5.49,0,0,1-.82.73l-1.39,1.1c-.54.43-1.14,1-1.81,1.47S62,92.93,61.18,93.59s-1.59,1.35-2.41,2.1c-.42.37-.84.77-1.26,1.19l-1.26,1.27c-.39.42-.91.78-1.36,1.24l-.33.36c-.1.11-.19.23-.3.34A5.49,5.49,0,0,0,53.62,100.81Z" style="fill:#a3a6af"/><path d="M50.48,95.74s.31-.13.81-.38a12.48,12.48,0,0,0,1.88-1.2,14,14,0,0,0,2.11-2c.16-.19.32-.4.48-.61s.31-.41.45-.63A8,8,0,0,0,57,89.47a7.1,7.1,0,0,0-.71.28c-.22.1-.49.23-.8.4l-.48.27c-.17.1-.32.23-.49.35a11.14,11.14,0,0,0-1,.88,12.57,12.57,0,0,0-1.06,1.11c-.34.41-.67.89-1,1.36A15.33,15.33,0,0,0,50.48,95.74Z" style="fill:#a3a6af"/><path d="M58,88.86l.35-.13.39-.17a2.4,2.4,0,0,0,.46-.27,5.74,5.74,0,0,0,1-.79l.43-.49a4.27,4.27,0,0,0,.38-.59l-.31.09-.36.14a2.09,2.09,0,0,0-.43.24,5,5,0,0,0-1,.79c-.16.16-.31.36-.46.54A5.55,5.55,0,0,0,58,88.86Z" style="fill:#a3a6af"/><g id="_Group_3" data-name="&lt;Group&gt;"><path d="M48.61,163.92l.06-.07,1-1.17a1.14,1.14,0,0,1,.15-.17c2-2.25,3.8-4.57,3.85-6.7,0-3.1-1.39-6.05-2-9.7-.69-4.35-2.44-8.15-3.81-12.15a30.07,30.07,0,0,1-.9-3.6l-.11-.46a50,50,0,0,0-2.32-8,.75.75,0,0,0-.06-.13C42.84,118,42,117,44,113.26l.19-.36c1.65-3.18,3.59-6.17,5.26-9.18.52-.94,1-1.88,1.49-2.83,1-2,1.93-4,2.9-6s1.68-5,3.15-6.76h0a2.11,2.11,0,0,1,1.15-.38c2.07,0,2.68,4.27,2.3,6.19h0a1.23,1.23,0,0,1,1.64-.68h0a2.6,2.6,0,0,1,.81.45c1.94,1.46,1.06,5.23.18,7.09a1.51,1.51,0,0,0-.11.22c0-.07.07-.14.11-.22a1.77,1.77,0,0,1,2.05-.8c1.68.55,1.45,2.74,1.51,4.16,0,4.15-1.84,8.4-3.5,12.36-.09-.4-.26.25-.41,1s-.27,1.38-.3,1.57c0,3.57,2.35,7.61,3.9,10.7a78.25,78.25,0,0,0,7.5,12.42c1.25,1.54,2.67,3,2.92,5.17.48,3.55-2.09,7.55-3.35,10.67a16.32,16.32,0,0,0-1.28,2.23h0c-2.89,4.35-7.45,9.06-10.1,13-11.9,18.18-29.64,42.18-41,60.89,0,.08-.1.16-.15.24-1.11,1.78-3,4.7-3.38,5.41-6.21,9.24-21.68,21.23-32.1,11.84-6.89-6-4.54-16.83.16-23.58a70.15,70.15,0,0,1,7.08-7.93s0,0,0,0c8.73-9.29,24.45-23.84,32.73-31.52,5.65-5.25,10.18-10.86,16-17.41C44.26,168,45.85,166.9,48.61,163.92Z" style="fill:#fff1e3"/><path d="M44.14,86c6.2-.78,7.39,10.82,6.79,14.86-.48,1-1,1.89-1.49,2.83-1.67,3-3.61,6-5.26,9.18a35.43,35.43,0,0,0,1-5.9A59.24,59.24,0,0,0,44.14,86Z" style="fill:#fff1e3"/></g><path d="M-5.82,257.74c-3.24-.89-7.52-3.81-10.61-7.72,4.85.5,16.55-1.58,23.23-7.82,10.59-9.9,56.71-77.06,61.34-84.07s.85-20.33-3.68-26.7c-4.72-6.63-4.46-13.5-2.93-17s5-12.21,2.64-14.35c0,0,2.43-.41,2.42,2.54a19.29,19.29,0,0,1-1.26,8.4c-1.73,4.45-4.11,7.82-2,12.42,0,0,6.46,13.28,9.69,17.74,0,0,5.67,4.5,3.21,10.42s-4.54,10.31-9.54,15.75c0,0-7,8.52-8.76,12.18s-14.4,20.89-17.18,24.92-16.06,23.83-17.9,26.82-7,15.41-14.93,20.34c0,0-5.2,5.64-8.78,6.78A14.89,14.89,0,0,1-5.82,257.74Z" style="fill:#ffe2dc"/><path d="M62.88,131.55l-.32-.61-.09-.17a2.09,2.09,0,0,1-.08-.23,1.34,1.34,0,0,0-1.64-.91,1.3,1.3,0,0,0-.56.35,41.61,41.61,0,0,1-1.28-6,43.24,43.24,0,0,0-1.67-4.81,9.59,9.59,0,0,1-.76-2.47,1.32,1.32,0,0,0,2.59-.5,1.39,1.39,0,0,0,.19-1.63,1.35,1.35,0,0,0-1.81-.46l-.11.07c1.35-1.94,2.94-6.26,3.81-7.3s1.92-6,1.92-6a25.69,25.69,0,0,0,.82-2.56c1.15-3.81-1.81-5-1.81-5,3.18,2.44-7.81,19-7.24,23.73.5,4.09,4.33,11.21,5.31,13a1.27,1.27,0,0,0-.3,1.25,9.41,9.41,0,0,0,.76,1.64,1.32,1.32,0,1,0,2.27-1.36Z" style="fill:#ffe2dc"/><path d="M49.56,118.79s.75,2.91-.13-.43a7.41,7.41,0,0,1-.23-1.22,4.93,4.93,0,0,0,.27.73,1.32,1.32,0,0,0,2.27-1.36c.16.34,0,0,0-.1s0,0,0-.06,0,0,0,0,0,0,0,0a.47.47,0,0,1,.05-.1,1.32,1.32,0,0,0-2.19-1.45,13.07,13.07,0,0,1,1.62-2.38,15.46,15.46,0,0,0,2-4c.62-1.71,1.92-3.12,2.62-4.76s2.91-6.11,3.29-6.89c0-.09.09-.18.15-.29L60.44,94c.64-6-2.31-6.19-2.31-6.19,3.2,3.12-9.32,22.52-10.87,26.83s5.34,11.55,5.34,11.55C52.28,124.36,49.56,118.79,49.56,118.79Z" style="fill:#ffe2dc"/><path d="M44.16,86.06s3.85-.88,5.69,4.87c0,0,1.81,6.81,1.29,9.51l-6,10.64S51.89,87.66,44.16,86.06Z" style="fill:#ffe2dc"/><path d="M55.29,134.12a1.35,1.35,0,0,1-1.82-.45,3.83,3.83,0,0,1-.62-2.75,1.34,1.34,0,0,1,1.6-1,1.35,1.35,0,0,1,1,1.6c0-.43,0,0,0,.12a.15.15,0,0,0,0,.06.37.37,0,0,0,0,.09s0,.12.06.18a2.23,2.23,0,0,0,.2.33A1.32,1.32,0,0,1,55.29,134.12Z" style="fill:#ffe2dc"/><path d="M50.28,135.1a1.36,1.36,0,0,1-1.82-.46,3.82,3.82,0,0,1-.61-2.75,1.32,1.32,0,0,1,1.6-1,1.35,1.35,0,0,1,1,1.6c.06-.44,0,0,0,.11a.06.06,0,0,0,0,.06.29.29,0,0,0,0,.09,1.21,1.21,0,0,0,.05.18,3.87,3.87,0,0,0,.21.34A1.31,1.31,0,0,1,50.28,135.1Z" style="fill:#ffe2dc"/><path d="M45.5,117.15a1.09,1.09,0,0,1-.06-.23c0-.11,0-.22,0-.33h0a.19.19,0,0,0,0-.08,1.34,1.34,0,0,0-.09-1.79,1.35,1.35,0,0,0-1.87,0,3.14,3.14,0,0,0-.52,3.15,1.33,1.33,0,0,0,2.55-.74Z" style="fill:#ffe2dc"/><path d="M44.16,86.06s2.65-.15,3.37,5c0,0-1,2.38-2.34,1.23Z" style="fill:#fffcfa"/><path d="M58.13,87.77s1.4,2.14-1.11,5.44c0,0-1.91,2.52-2.72.18,0,0,1.75-5.45,3.59-5.61Z" style="fill:#fffcfa"/><path d="M62.08,93.29s2,1.75-1.41,6.49c0,0-2.53,1.8-2.85-.27s-.06.1-.06.1,2.21-4.35,2.52-5.14.07-.12.07-.12.11-.64.29-.77A1.22,1.22,0,0,1,62.08,93.29Z" style="fill:#fffcfa"/><path d="M64.1,100s1.35.33.9,4a9.33,9.33,0,0,1-1.33,3.38s-2.33,1-2.52-.61a24.65,24.65,0,0,0,1.37-3.57,10.53,10.53,0,0,1,.38-2.1C63.07,100.83,63.74,100,64.1,100Z" style="fill:#fffcfa"/><path d="M45.3,93.21s.29,16.12-1.12,19.69C44.18,112.9,48.82,98,45.3,93.21Z" style="fill:#fffcfa"/><path d="M53.58,95.41c0-.26-4.78,10.2-6.54,12.73s-3.71,5.25-4.2,7.63C42.84,115.77,54.44,100.31,53.58,95.41Z" style="fill:#fffcfa"/><path d="M57.57,100.25c-.3-.39-4.13,9.42-7.08,13.24l-.29.37C47.23,117.43,60.32,103.91,57.57,100.25Z" style="fill:#fffcfa"/><path d="M43.54,119.56c-.16-.14,2.12,5.23,2.64,7.29s1.15,4.32,1.35,5.35C47.53,132.2,48.12,123.64,43.54,119.56Z" style="fill:#fffcfa"/><path d="M49.56,118.79s3.06,6.34,3.22,8c0,0,0,1.93,0,3.39C52.8,130.23,55.79,125.63,49.56,118.79Z" style="fill:#fffcfa"/><path d="M56.79,117.48s1.08,3.09,1.47,4.29c0,0,1.27,2.62.89,4.12a13.07,13.07,0,0,0,1.13,4.31,9.64,9.64,0,0,1-.47-3.95C60.1,124.51,58.24,118.44,56.79,117.48Z" style="fill:#fffcfa"/><path d="M-10.82,223.59c3.76-4.18,8-8.13,8-8.13C-1,213.6,12.16,201,14.05,199.2s6.43-6,9.3-8.75,13-13.51,13-13.51c2.32-2.64,13.34-14.26,15.74-17.23s1.55-5,1.55-5c.21-2.56-1.83-8-2.38-10.82A45.49,45.49,0,0,0,49.05,137l.87.48s9.36,9.76,5.73,20.72S16.25,204.17,1.12,216.7c-5.71,4.73-13.57,9.11-16.62,13.14C-15.44,227.59-11.49,225.71-10.82,223.59Z" style="fill:#fffcfa"/><path d="M44.5,86.1s3.31-.75,5,3.83C49.48,89.93,46.61,86.07,44.5,86.1Z" style="fill:#ffc3c3"/><path d="M60.64,93.58s-.12-5.14-2.07-5.71C58.57,87.87,61.37,92.52,60.64,93.58Z" style="fill:#ffc3c3"/><path d="M62.08,93.29s3.09.69,1.77,5.33l-.63,1.84S63.64,94.45,62.08,93.29Z" style="fill:#ffc3c3"/><path d="M64.1,100s3.3-1.34,2.49,5.32a18.75,18.75,0,0,1-.86,4.54S66.75,100.47,64.1,100Z" style="fill:#ffc3c3"/><path d="M71.87,139.47s4.45,5.35,4.7,7.1c0,0,2.17,4.48-5.73,15.54C70.84,162.11,79.29,147.5,71.87,139.47Z" style="fill:#ffc3c3"/><path d="M62.94,101l.08-.12a1.66,1.66,0,0,1,.25-.33.84.84,0,0,1,.22-.19,1,1,0,0,1,.3-.18,1.53,1.53,0,0,1,.82-.15,2.13,2.13,0,0,1,.48.09,1.87,1.87,0,0,1,.45.26,1.71,1.71,0,0,1,.61,1,5.13,5.13,0,0,1,.18,1.35c0,.48,0,1,0,1.56s-.08,1.08-.13,1.64-.2,1.13-.3,1.72-.3,1.17-.45,1.77-.37,1.19-.56,1.8L64.24,113c-.21.61-.43,1.22-.65,1.82-.45,1.22-.86,2.43-1.23,3.62,0,0,.29-.58.79-1.61l.9-1.9c.33-.75.73-1.59,1.1-2.54.2-.48.4-1,.57-1.51s.39-1.08.53-1.67c.08-.29.15-.59.23-.89l.12-.46c0-.16.05-.31.08-.47a12.61,12.61,0,0,0,.24-2c0-.34,0-.69,0-1s0-.68,0-1a6.53,6.53,0,0,0-.35-2.18,2.25,2.25,0,0,0-.69-1,1.92,1.92,0,0,0-1.12-.41,1.86,1.86,0,0,0-1.13.31A2,2,0,0,0,62.94,101Z" style="fill:#f9b5aa"/><path d="M63.14,116.63l0-.07a.29.29,0,0,0,0-.09s-.06,0-.09,0a4.42,4.42,0,0,0-.27.86c-.09.38-.19.86-.3,1.41a2,2,0,0,0-.07.44c0,.16,0,.31,0,.48s0,.67.09,1,.15.73.22,1.13.23.78.35,1.2a24.79,24.79,0,0,0,1,2.61c.39.91.86,1.86,1.34,2.84s1,2,1.55,3.08c.28.53.55,1.07.84,1.61l.9,1.65c.32.56.62,1.12,1,1.69l1,1.68c.17.29.35.57.53.86l.27.43.29.41L73,141.57l.6.84.67.8a17.34,17.34,0,0,1,1.24,1.65,7.08,7.08,0,0,1,.85,1.83,7.66,7.66,0,0,1,.21,2,13.26,13.26,0,0,1-1,4c-.5,1.31-1.1,2.59-1.65,3.87-.14.31-.28.64-.41,1l-.19.47-.26.45a11.67,11.67,0,0,0-.95,1.82l.12-.24a5.34,5.34,0,0,1,.36-.66c.17-.29.41-.62.67-1,.07-.11.14-.2.21-.33s.1-.25.16-.37.25-.53.38-.81c.54-1.14,1.27-2.5,2-4.16a15.58,15.58,0,0,0,.86-2.75,7.82,7.82,0,0,0,0-3.27,8.09,8.09,0,0,0-1.64-3.17c-.38-.5-.78-1-1.17-1.45l-1.11-1.56c-.37-.53-.78-1.05-1.14-1.62s-.71-1.15-1.08-1.73c-.75-1.16-1.41-2.42-2.14-3.68s-1.39-2.59-2.12-3.93-1.43-2.71-2.1-4.13A20.37,20.37,0,0,1,62.74,121a5.6,5.6,0,0,1-.12-.59l-.06-.6-.06-.6c0-.17.06-.4.08-.59.07-.41.13-.81.21-1.22,0-.2.08-.4.14-.6a.85.85,0,0,1,.1-.28C63.08,116.37,63.12,116.55,63.14,116.63Z" style="fill:#f9b5aa"/><path d="M60.43,94l0-.06s.06-.09.11-.16a1.53,1.53,0,0,1,.22-.23,1,1,0,0,1,.36-.19,1.41,1.41,0,0,1,1,.13,3.06,3.06,0,0,1,.56.35A2.83,2.83,0,0,1,63,94a1.08,1.08,0,0,1,.24.28,2.86,2.86,0,0,1,.36.67c0,.12.09.25.12.38l.09.41a7.91,7.91,0,0,1,.06.85c0,.3,0,.6,0,.9a12.55,12.55,0,0,1-.31,1.8,14,14,0,0,1-.55,1.73,6.46,6.46,0,0,0,.4-.76,10.05,10.05,0,0,0,.71-2.24c.06-.24.08-.5.12-.77a6,6,0,0,0,0-.85,2.27,2.27,0,0,0,0-.45,2.44,2.44,0,0,0-.07-.46,2,2,0,0,0-.13-.46,1.86,1.86,0,0,0-.19-.46,2,2,0,0,0-.28-.43L63.36,94l-.19-.18a2.87,2.87,0,0,0-.9-.55,1.6,1.6,0,0,0-1.1-.06A1.32,1.32,0,0,0,60.43,94Z" style="fill:#f9b5aa"/><path d="M57,88.15l.2-.1.25-.11a2.17,2.17,0,0,1,.33-.1,2,2,0,0,1,.43,0,1,1,0,0,1,.24,0,.75.75,0,0,1,.24.08,2,2,0,0,1,.83.79,7.09,7.09,0,0,1,.86,2.71A11.17,11.17,0,0,1,60.46,93a4.78,4.78,0,0,1-.18,1.51l.08-.18a4.8,4.8,0,0,0,.13-.52,8.06,8.06,0,0,0,.09-2,8.89,8.89,0,0,0-.2-1.34,6.32,6.32,0,0,0-.5-1.46,2.41,2.41,0,0,0-1.19-1.21,1.5,1.5,0,0,0-.89,0A2.87,2.87,0,0,0,57,88.15Z" style="fill:#f9b5aa"/><path d="M57.06,88.13l-.19.22-.24.27a1.83,1.83,0,0,0-.31.39l-.35.53c-.1.2-.22.42-.35.66-.25.48-.5,1-.76,1.7S54.33,93.24,54,94s-.74,1.53-1.16,2.37L51.5,99,50,101.93l-.8,1.52c-.3.51-.61,1-.91,1.54l-1.89,3.19-1.9,3.39a18.82,18.82,0,0,0-1.74,3.64,5.29,5.29,0,0,0-.22,2.14,7.21,7.21,0,0,0,.59,2c.54,1.26,1.18,2.44,1.69,3.67A38.13,38.13,0,0,1,46,126.84c.36,1.27.7,2.55,1.1,3.78,0,0-.07-.33-.21-1s-.32-1.54-.57-2.72c-.13-.58-.28-1.24-.45-2l-.31-1.11c-.12-.38-.25-.77-.39-1.18-.31-.81-.67-1.65-1.05-2.52a10.39,10.39,0,0,1-.92-2.79,5.59,5.59,0,0,1,.64-3c.47-1,1.12-2.06,1.71-3.14s1.22-2.2,1.89-3.34l2-3.54c.68-1.21,1.28-2.51,1.94-3.81s1.25-2.65,1.89-4c.3-.69.65-1.35.92-2.08s.52-1.45.76-2.19A12.32,12.32,0,0,1,57.06,88.13Z" style="fill:#f9b5aa"/><path d="M47,129.89l.2,1c.07.31.15.69.25,1.13s.25.94.41,1.5.34,1.17.54,1.83l.68,2.12c.24.75.49,1.55.76,2.38s.52,1.71.75,2.62c.11.46.23.93.34,1.4s.19,1,.29,1.45c.19,1,.33,2,.6,3.07s.54,2.09.82,3.15a24.73,24.73,0,0,1,.66,3.19,9.34,9.34,0,0,1,0,1.58,5.94,5.94,0,0,1-.45,1.51,15.28,15.28,0,0,1-1.72,2.83c-1.33,1.79-2.84,3.46-4.12,5.22,0,0,.75-.83,2.16-2.28.69-.73,1.56-1.61,2.47-2.72A15.88,15.88,0,0,0,53,159a7.54,7.54,0,0,0,1-2.45c0-.24.06-.49.08-.73s0-.48,0-.72a14.45,14.45,0,0,0-.15-1.46,27.86,27.86,0,0,0-.68-3c-.27-1-.54-2-.79-3.11s-.44-2.2-.67-3.34-.6-2.31-1-3.46c-.19-.58-.39-1.16-.61-1.74l-.66-1.76c-.45-1.17-.91-2.36-1.35-3.57-.21-.61-.44-1.22-.65-1.84Z" style="fill:#f9b5aa"/><path d="M62.89,101.15l-.34,1.37a5.36,5.36,0,0,1-.2.7c-.09.26-.19.52-.29.81a7.52,7.52,0,0,1-.33.89l-.42,1c-.07.16-.14.33-.22.5l-.25.52L60.32,108c-.38.72-.76,1.47-1.16,2.24s-.8,1.54-1.18,2.32-.72,1.58-1,2.35l.63-1c.38-.67,1-1.61,1.66-2.81.35-.59.71-1.25,1.09-2,.18-.36.39-.72.56-1.11l.55-1.2c.19-.41.33-.86.5-1.29.08-.23.17-.45.25-.67s.12-.47.19-.71l.18-.71a3.64,3.64,0,0,0,.15-.73C62.76,102.17,62.82,101.67,62.89,101.15Z" style="fill:#f9b5aa"/><path d="M56.64,115.38l0,.39c0,.12,0,.28,0,.46s0,.39,0,.62a5.71,5.71,0,0,0,.09.77,8.09,8.09,0,0,0,.19.87,19.06,19.06,0,0,0,.63,2l.42,1.1c.13.38.3.76.4,1.16,0,.2.11.4.17.6a6.39,6.39,0,0,1,.13.63c.1.42.16.85.23,1.29s.13.88.2,1.33.16.9.28,1.34a9.29,9.29,0,0,0,.43,1.29,13.07,13.07,0,0,0,.61,1.18l-.11-.31-.14-.37a4.79,4.79,0,0,1-.17-.5l-.16-.64a7,7,0,0,1-.15-.77c0-.27-.09-.57-.12-.89s-.08-.65-.11-1-.08-.72-.13-1.11-.12-.79-.2-1.21a12.61,12.61,0,0,0-.34-1.27c-.15-.43-.33-.85-.51-1.28-.36-.86-.74-1.74-1-2.69a4.48,4.48,0,0,1-.22-.71,6.64,6.64,0,0,1-.18-.74c0-.25-.1-.51-.12-.76S56.65,115.65,56.64,115.38Z" style="fill:#f9b5aa"/><path d="M60.29,94.48s-.4.7-1.08,1.85c-.34.58-.71,1.31-1.14,2.12s-.9,1.74-1.38,2.73-1,2.07-1.54,3.18c-.28.55-.55,1.11-.83,1.68s-.56,1.16-.87,1.73l-.89,1.74-1,1.71-.47.86-.51.83c-.34.54-.68,1.09-1,1.64l1.16-1.42.61-.76.66-1,.74-1.11c.27-.39.5-.83.77-1.28l.81-1.43c.27-.5.53-1,.8-1.57.56-1.08,1.09-2.27,1.65-3.5s1.11-2.55,1.69-3.89c.29-.67.56-1.37.87-2Z" style="fill:#f9b5aa"/><path d="M48.91,116.22s0,.17.07.47.05.34.08.56a6.82,6.82,0,0,0,.16.75c.08.27.14.58.24.91s.22.67.34,1c.27.73.59,1.54,1,2.4l.56,1.33c.18.46.39.92.56,1.4s.36,1,.5,1.47a8.67,8.67,0,0,1,.24,1.54c.08,1.06-.06,2.18.06,3.32a5.38,5.38,0,0,0,.43,1.63,6.55,6.55,0,0,0,.85,1.39l-.19-.36a3.63,3.63,0,0,1-.2-.43c-.07-.18-.16-.37-.23-.61a5.13,5.13,0,0,1-.18-.77,5.61,5.61,0,0,1-.08-.95c0-.68.08-1.45.13-2.34a8.19,8.19,0,0,0-.31-2.92c-.15-.51-.36-1-.54-1.51s-.43-1-.68-1.54l-.75-1.58c-.26-.53-.51-1.08-.76-1.64s-.5-1.13-.7-1.73A17,17,0,0,1,48.91,116.22Z" style="fill:#f9b5aa"/><path d="M44,113.55l.21-.65.25-.79c.08-.31.15-.67.24-1.07.05-.2.09-.42.14-.64s.08-.45.12-.7c.07-.48.16-1,.23-1.56.15-1.11.29-2.36.45-3.71.07-.67.11-1.37.17-2.09s.07-1.46.09-2.22l0-1.15c0-.38,0-.77,0-1.16s0-.78,0-1.18-.06-.79-.09-1.19c-.06-.8-.13-1.6-.25-2.39s-.21-1.6-.37-2.39-.28-1.58-.46-2.35-.35-1.52-.52-2.28c0,0,.12.79.34,2.2.12.7.22,1.57.36,2.57.07.5.13,1,.19,1.61s.12,1.16.18,1.79.08,1.29.13,2,0,1.4.06,2.14,0,1.5,0,2.28-.06,1.59-.1,2.41c0,.41-.05.83-.08,1.25s-.07.84-.11,1.27c-.08.86-.15,1.73-.23,2.62,0,.45-.09.89-.14,1.34s-.09.9-.18,1.35-.13.91-.23,1.36S44.07,113.09,44,113.55Z" style="fill:#f9b5aa"/><path d="M44.13,86h.46a4,4,0,0,1,.54,0,4.93,4.93,0,0,1,.71.18l.39.15.4.23a3.6,3.6,0,0,1,.4.28,4.36,4.36,0,0,1,.4.35c.13.13.25.27.38.41l.36.47a9.51,9.51,0,0,1,.65,1.09,13.26,13.26,0,0,1,.54,1.26c.17.44.32.9.46,1.37a27.58,27.58,0,0,1,.66,3c.17,1,.3,2.1.37,3.16a20.89,20.89,0,0,1,0,3.16l.08-.38c.05-.25.12-.62.17-1.1a20.65,20.65,0,0,0,0-4.06,21.83,21.83,0,0,0-.43-2.77c-.11-.49-.24-1-.4-1.5a14.83,14.83,0,0,0-.59-1.55,8.12,8.12,0,0,0-2.06-2.88A4.2,4.2,0,0,0,44.13,86Z" style="fill:#f9b5aa"/><path d="M58,87.71a.26.26,0,0,1,.14.06.5.5,0,0,1,.18.34,2.82,2.82,0,0,1,.05.62v.39c0,.13,0,.27,0,.41s0,.3,0,.45-.06.3-.08.46a4.64,4.64,0,0,1-.12.47,4.34,4.34,0,0,1-.16.47,3.9,3.9,0,0,1-.2.47c-.07.16-.14.32-.22.47l-.49.89.31-.37c.1-.12.2-.28.33-.46a5.31,5.31,0,0,0,.39-.65c0-.13.11-.26.17-.4a3,3,0,0,0,.15-.45,2.61,2.61,0,0,0,.12-.5,3,3,0,0,0,.06-.53,3.47,3.47,0,0,0,0-.56c0-.19,0-.39-.06-.57a2.53,2.53,0,0,0-.11-.6C58.35,87.94,58.21,87.7,58,87.71Z" style="fill:#f9b5aa"/><path d="M62.09,93.28l.12.13a1.25,1.25,0,0,1,.17.44,9.08,9.08,0,0,1,0,1.66c0,.17-.06.34-.08.52a2.73,2.73,0,0,1-.13.53,2.81,2.81,0,0,1-.17.54,5.09,5.09,0,0,1-.22.54c-.09.18-.16.37-.26.55s-.18.36-.28.54l-.56,1.06.35-.45c.12-.14.24-.32.4-.53l.22-.35a3.85,3.85,0,0,0,.24-.4l.24-.45.21-.52a4.74,4.74,0,0,0,.17-.57,4.23,4.23,0,0,0,.11-.62,3.65,3.65,0,0,0,0-.66c0-.23,0-.45,0-.68a2.78,2.78,0,0,0-.12-.69A1,1,0,0,0,62.09,93.28Z" style="fill:#f9b5aa"/><path d="M64.17,100.07l.17.1.14.18a1.46,1.46,0,0,1,.13.28,4.36,4.36,0,0,1,.18.8c.06.32.09.66.15,1V103a4.34,4.34,0,0,1-.06.61,3.52,3.52,0,0,1-.11.62c0,.11,0,.21-.07.32l-.1.31c-.07.22-.13.43-.22.64s-.15.43-.23.64c-.17.42-.33.84-.47,1.26l.32-.55c.11-.17.22-.39.36-.65s.27-.55.42-.89c.07-.17.13-.35.2-.54a3.51,3.51,0,0,0,.16-.6,4.54,4.54,0,0,0,.11-.66l0-.35c0-.12,0-.24,0-.36a3,3,0,0,0-.08-.73c-.06-.25-.1-.5-.18-.74a4.35,4.35,0,0,0-.26-.74A1,1,0,0,0,64.17,100.07Z" style="fill:#f9b5aa"/><path d="M44.16,86.06l.15.06.18.06a6.39,6.39,0,0,1,.49.26c.09.07.19.12.29.2s.2.16.29.26a3.06,3.06,0,0,1,.3.32,6.23,6.23,0,0,1,1,1.72A11.48,11.48,0,0,1,47.45,91a4.9,4.9,0,0,0,0-.51,6.64,6.64,0,0,0-.24-1.38,5.41,5.41,0,0,0-.94-1.83,2.76,2.76,0,0,0-.41-.43,3.05,3.05,0,0,0-.49-.38,3,3,0,0,0-.57-.27A3.42,3.42,0,0,0,44.16,86.06Z" style="fill:#f9b5aa"/></g><g style="clip-path:url(#clip-path-3)"><g id="_Group_4" data-name="&lt;Group&gt;"><path d="M24.13,188l-.19.09c-13.22-9.42-35-8.87-47-6.19-10.47,2.68-19.83,8-30.68,8.93-11.6,1.34-19.44-3.23-30.31-6.25-16.09-4.46-39.52-2.23-53.75,8.48l-.36-.16c-4.36,14.22-9.44,32.69-5.67,47.91.11.43.22.87.34,1.3a.12.12,0,0,1,0,.07,70.5,70.5,0,0,1,2,14.14h-13.28c1.7-21.84-2.86-31.13-4.54-47.2-1.68-18.74-7.3-36.81.56-54.88,7.3-14.73,16.25-21.31,30.31-22.09,40-2.23,47.52-23.26,46.19-62.12.7-1.51,3.27,3,4.81,2.21,4.77-2.51,9.83-3.18,14.88-4.18s9.4-2.18,14.31-1c2.81.67,5.75,1,8.42,1.51,1.26.17,2.53.17,3.79.34.4,0,2.86-2.91,3.2-3.23-4.29,39.17,5.12,65.69,44.44,66.48,14.08.28,23,7.36,30.31,22.09,7.86,18.07,2.25,36.14.56,54.88-1.68,16.07-5.11,30.25-4.55,47v.21H29.54a60.21,60.21,0,0,1,1.27-13.43c5-16.24-1-36.76-5.67-51.84C24.82,190.08,24.49,189.06,24.13,188Z" style="fill:#fff1e3"/></g><path d="M11.87,132.23S48.26,144,44.48,195.17c0,0,6-30.24-4.63-45.17S23,133.4,11.87,132.23Z" style="fill:#fffcfa"/><path d="M-32.72,64.88s-.08.92-.22,2.66-.33,4.27-.43,7.51-.16,7.18.1,11.68a81.35,81.35,0,0,0,2.16,15,50.57,50.57,0,0,0,2.75,8.16,37.15,37.15,0,0,0,4.69,7.89,31.1,31.1,0,0,0,7.08,6.57,36.75,36.75,0,0,0,9.1,4.36,58.32,58.32,0,0,0,10.24,2.28c1.76.25,3.55.43,5.34.59s3.61.25,5.44.43a35.72,35.72,0,0,1,10.77,2.73,30,30,0,0,1,9.2,6.39,44.43,44.43,0,0,1,6.68,9c.47.81.92,1.62,1.35,2.44.22.41.42.82.63,1.24l.16.31,0,.07,0,.11.07.16.26.64c.36.84.66,1.72,1,2.59s.58,1.76.82,2.65A52.45,52.45,0,0,1,46.31,171c.12,1.79.16,3.58.14,5.36s-.11,3.53-.23,5.27c-.5,7-1.65,13.59-2.49,19.9-.21,1.57-.41,3.13-.58,4.66s-.31,3.06-.5,4.54c-.34,3-.74,5.86-1.13,8.61-.8,5.5-1.6,10.53-2.18,15s-1,8.39-1.15,11.63c-.06.81-.1,1.57-.12,2.3s-.07,1.39-.08,2c0,1.26-.05,2.33,0,3.2,0,1.74,0,2.66,0,2.66s0-.92-.07-2.66c0-.87,0-1.94,0-3.2,0-.63,0-1.31.05-2s0-1.49.08-2.3c.15-3.24.46-7.17,1-11.66s1.23-9.54,2-15c.37-2.76.75-5.62,1.06-8.6.18-1.49.29-3,.46-4.55s.35-3.1.55-4.68c.79-6.32,1.85-13,2.35-19.87a61.54,61.54,0,0,0-1.72-21.1c-.24-.88-.53-1.74-.81-2.6s-.61-1.69-1-2.54l-.27-.64-.06-.16s0-.08,0-.05l0-.08-.16-.3c-.21-.41-.41-.82-.63-1.22-.42-.81-.87-1.61-1.33-2.4a43.4,43.4,0,0,0-6.57-8.77,29,29,0,0,0-8.91-6.23,35.09,35.09,0,0,0-10.5-2.69c-1.8-.19-3.61-.27-5.42-.45s-3.6-.35-5.38-.61a59.45,59.45,0,0,1-10.38-2.33A36.9,36.9,0,0,1-17,124.91a31.55,31.55,0,0,1-7.18-6.77,37.53,37.53,0,0,1-4.7-8.06,51.3,51.3,0,0,1-2.72-8.28,77.52,77.52,0,0,1-2-15.06c-.2-4.52-.09-8.46.07-11.7s.38-5.78.54-7.51Z" style="fill:#f9b5aa"/><path d="M4.37,141.3,3,141.55c-.89.16-2.18.43-3.82.71l-2.69.48c-1,.17-2,.32-3.15.5s-2.3.33-3.53.47c-.62.07-1.26.17-1.9.23l-2,0c-.66,0-1.35,0-2,0l-1.05,0c-.35,0-.7-.07-1.06-.1-.71-.07-1.44-.12-2.17-.22l-2.23-.28-4.61-.62c-.78-.11-1.58-.18-2.38-.27l-1.2-.12-1.23-.07-1.23-.07c-.41,0-.82,0-1.24,0l-2.44.08a38.93,38.93,0,0,0-4.92.53,21.67,21.67,0,0,0-4.71,1.4,17.21,17.21,0,0,0-4.06,2.49l1-.57c.34-.16.76-.38,1.27-.6l.82-.34.95-.33,1.08-.32c.39-.09.78-.2,1.21-.28a23.31,23.31,0,0,1,2.77-.4c1-.09,2.07-.15,3.22-.16s2.35,0,3.63,0l.95,0c.32,0,.65.05,1,.08l2,.18c1.38.17,2.8.34,4.28.56s3,.43,4.6.61,3.24.33,4.94.39c.86,0,1.72,0,2.59,0s1.77-.1,2.65-.2l2.63-.48,1.33-.24,1.32-.31,2.67-.63,2.68-.74C.76,142.44,2.55,141.86,4.37,141.3Z" style="fill:#f9b5aa"/><g id="_Group_5" data-name="&lt;Group&gt;"><path d="M-36.59,20.41l-.13.23C-50,20-65.38,10.65-72.36-2.06h0c2,8.11,8.32,17.51,16.14,21.21v.05C-76.85,15.17-89-1.88-92.56-22c-.08-.43-.15-.88-.22-1.35C-111.6-2.83-115.88,32.19-99.08,56a53.45,53.45,0,0,1-8.77-9.55,55.39,55.39,0,0,1-6.5-12l-.4,0a10.28,10.28,0,0,0-3.69.68l0-.12c-5.14-15.57-8.35-42.14,2-64,2.89-6.13,9.25-16.28,16.83-20.72l.09-.07c6.82-5.67,16.49-8,26.06-9.78a59.25,59.25,0,0,1,23.27.36,76.83,76.83,0,0,1,10.15,2.89c9.62,3.32,17.26,7.82,23.75,14.52,1.12,1.16,2.22,2.39,3.28,3.68h0c1.38,1.7,2.71,3.51,4,5.46l.43.65c1,1.49,1.9,3.05,2.82,4.7a1,1,0,0,1,.08.14C4.83-7.52,5.06,17.31-6,36.42l0,.08a9.64,9.64,0,0,0-4.92-1.39,59.45,59.45,0,0,1-4.6,9h0A58.81,58.81,0,0,1-20.65,51c2.13-7,6.49-14.65-2.5-26.15h0A41.21,41.21,0,0,1-36.59,20.41Z" style="fill:#bc875b"/></g><path d="M-11.07,35.11s3.76-.29,5.1,1.31c0,0,16.53-35.95-3-65.17,0,0,7.06,19.46,6.42,28.38,0,0-1.59-10.93-5.58-17.75C-8.1-18.12.81,12.62-11.07,35.11Z" style="fill:#aa784b"/><path d="M-92.89-23.24s3.09,36.08,36.65,42.45c0,0-13.34-7-15.71-20.54a44.4,44.4,0,0,0,35.23,22s7.93,3.74,13.57,4.23c0,0,9.82,10.44,2.5,26.15,0,0,6.66-7.41,9.58-15.91a7.07,7.07,0,0,1,5.19,1.15S16.59-.14-11.63-36.21C-38.19-70.14-83.79-62-99.72-49.58c0,0-36.44,23.77-18.77,84.63a7.35,7.35,0,0,1,4.14-.58S-109,48.77-99.08,56C-99.08,56-126.55,16.06-92.89-23.24Z" style="opacity:0.35000000000000003;mix-blend-mode:screen;fill:url(#_R_W_h_22-2)"/><path d="M-92.89-23.24s3.09,36.08,36.65,42.45c0,0-13.34-7-15.71-20.54a44.4,44.4,0,0,0,35.23,22s7.93,3.74,13.57,4.23c0,0,9.82,10.44,2.5,26.15,0,0,6.66-7.41,9.58-15.91a7.07,7.07,0,0,1,5.19,1.15S16.59-.14-11.63-36.21C-38.19-70.14-83.79-62-99.72-49.58c0,0-36.44,23.77-18.77,84.63a7.35,7.35,0,0,1,4.14-.58S-109,48.77-99.08,56C-99.08,56-126.55,16.06-92.89-23.24Z" style="opacity:0.6000000000000001;mix-blend-mode:screen;fill:url(#_R_W_h_81-2)"/><path d="M-10.64-34.82l1.05,1.54c.67,1,1.61,2.51,2.71,4.44A69.6,69.6,0,0,1-.32-12.17a70.53,70.53,0,0,1,1.78,24A68,68,0,0,1-1,24.46,65.83,65.83,0,0,1-5.86,36.28l.79-1.36c.27-.43.58-1,.92-1.66.18-.33.36-.68.57-1.06L-3,31c.44-.87.84-1.87,1.31-2.95s.9-2.3,1.32-3.61a61.14,61.14,0,0,0,2.25-9.06A63.18,63.18,0,0,0,2.78,4.11c0-2-.15-4.11-.35-6.24s-.55-4.32-1-6.53A65,65,0,0,0-2.93-22a61.94,61.94,0,0,0-3.42-6.55A62.72,62.72,0,0,0-10.64-34.82Z" style="fill:#9b6c3f"/><path d="M-11.63-36.21s.82.94,2.12,2.68c.65.87,1.43,1.94,2.28,3.19s1.78,2.7,2.73,4.3,2,3.37,2.91,5.28,1.92,4,2.8,6.12S2.9-10.19,3.57-7.83A64.31,64.31,0,0,1,5.23-.57a51.91,51.91,0,0,1,.6,7.43V8.7c0,.61-.07,1.22-.11,1.82,0,1.21-.25,2.39-.4,3.55l-.12.87c-.06.28-.12.56-.19.84-.12.57-.24,1.12-.36,1.68s-.29,1.08-.45,1.61l-.48,1.56a40.94,40.94,0,0,1-2.37,5.56c-.21.41-.41.83-.62,1.22L0,28.53c-.45.72-.86,1.42-1.29,2l-1.27,1.71a16.83,16.83,0,0,1-1.1,1.42l-2.26,2.56,2.15-2.65a17.76,17.76,0,0,0,1-1.45l1.2-1.74c.41-.63.78-1.35,1.21-2.07l.65-1.13c.2-.39.39-.81.59-1.22A40,40,0,0,0,3.2,20.46c.15-.51.29-1,.44-1.55a13.88,13.88,0,0,0,.41-1.6c.11-.54.22-1.09.34-1.65.06-.28.11-.55.17-.83L4.68,14c.14-1.15.33-2.31.36-3.5,0-.59.07-1.19.11-1.79s0-1.2,0-1.81A50.49,50.49,0,0,0,4.49-.45,63.25,63.25,0,0,0,2.9-7.63C2.25-10,1.44-12.23.61-14.4c-.45-1.07-.86-2.13-1.32-3.15l-.67-1.51c-.24-.49-.47-1-.7-1.46-.91-1.92-1.87-3.69-2.78-5.31s-1.79-3.08-2.6-4.35S-9-32.55-9.62-33.45C-10.86-35.23-11.63-36.21-11.63-36.21Z" style="fill:#9b6c3f"/></g></g></g></svg>
