<svg xmlns="http://www.w3.org/2000/svg" xmlns:xlink="http://www.w3.org/1999/xlink" viewBox="0 0 140.72 144.22"><defs><clipPath id="clip-path"><circle cx="69.89" cy="71.93" r="65.8" style="fill:none"/></clipPath><linearGradient id="linear-gradient" x1="101.41" y1="91.96" x2="101.41" y2="135.14" gradientUnits="userSpaceOnUse"><stop offset="0.33" stop-color="#f9b5aa"/><stop offset="0.76" stop-color="#ffe3e3"/><stop offset="1" stop-color="#fff1e3"/></linearGradient><linearGradient id="_R_W_h_22" x1="87.12" y1="-72.72" x2="105.48" y2="50.12" gradientTransform="translate(-1.97 8.55) rotate(0.34)" gradientUnits="userSpaceOnUse"><stop offset="0"/><stop offset="0.5" stop-color="#e9a768"/><stop offset="0.95"/></linearGradient><linearGradient id="_R_W_h_81" x1="87.12" y1="-72.72" x2="105.48" y2="50.12" gradientTransform="translate(-1.97 8.55) rotate(0.34)" gradientUnits="userSpaceOnUse"><stop offset="0"/><stop offset="0.18" stop-color="#020101"/><stop offset="0.24" stop-color="#090604"/><stop offset="0.29" stop-color="#140f09"/><stop offset="0.33" stop-color="#251b11"/><stop offset="0.36" stop-color="#3b2b1b"/><stop offset="0.39" stop-color="#573e27"/><stop offset="0.41" stop-color="#775535"/><stop offset="0.43" stop-color="#9b7045"/><stop offset="0.45" stop-color="#bc8754"/><stop offset="0.5" stop-color="#e9a768"/><stop offset="0.55" stop-color="#9f7247"/><stop offset="0.55" stop-color="#9b6f45"/><stop offset="0.57" stop-color="#765535"/><stop offset="0.6" stop-color="#573e27"/><stop offset="0.62" stop-color="#3b2b1b"/><stop offset="0.65" stop-color="#251b11"/><stop offset="0.69" stop-color="#140f09"/><stop offset="0.73" stop-color="#090604"/><stop offset="0.79" stop-color="#020101"/><stop offset="0.95"/></linearGradient><radialGradient id="_R_W_h_34" cx="70.93" cy="65.78" r="12.99" gradientTransform="translate(-1.97 8.55) rotate(0.34)" gradientUnits="userSpaceOnUse"><stop offset="0" stop-color="#ffa7b7"/><stop offset="1" stop-color="#fff1e3"/></radialGradient><radialGradient id="_R_W_h_34-2" cx="126.7" cy="65.68" r="13.24" xlink:href="#_R_W_h_34"/><radialGradient id="radial-gradient" cx="159.26" cy="200.83" r="14.26" gradientTransform="matrix(0.96, -0.02, 0.02, 0.81, -58.52, -57.14)" gradientUnits="userSpaceOnUse"><stop offset="0" stop-color="#ff8191"/><stop offset="1" stop-color="#fff1e3"/></radialGradient><radialGradient id="radial-gradient-2" cx="308.05" cy="-90.53" r="11.6" gradientTransform="translate(-188.92 128.26) rotate(3.99)" xlink:href="#radial-gradient"/><radialGradient id="radial-gradient-3" cx="-1313.25" cy="22.57" r="11.6" gradientTransform="matrix(-1, 0.07, 0.07, 1, -1244.23, 128.26)" xlink:href="#radial-gradient"/></defs><title>level</title><g style="isolation:isolate"><g id="Layer_1" data-name="Layer 1"><circle cx="69.89" cy="71.93" r="70.88" transform="translate(-12.14 129.64) rotate(-80.95)" style="fill:#ff437d"/><circle cx="69.89" cy="71.93" r="65.8" style="fill:#fff"/><g style="clip-path:url(#clip-path)"><g id="_Group_" data-name="&lt;Group&gt;"><path d="M188.36,221.84l-.21.09c-14-10-37.18-9.42-49.91-6.57-11.12,2.84-21.06,8.53-32.58,9.48-12.32,1.42-20.65-3.43-32.19-6.64-17.1-4.73-42-2.37-57.09,9L16,227c-4.64,15.1-10,34.72-6,50.88q.16.7.36,1.38s0,.05,0,.08a74.83,74.83,0,0,1,2.14,15H-1.6c1.81-23.19-3-33.06-4.82-50.12-1.79-19.9-7.75-39.1.6-58.3,7.75-15.64,17.25-22.62,32.19-23.46,42.5-2.37,50.47-24.7,49.06-66,.74-1.6,3.47,3.23,5.11,2.34,5.07-2.66,10.43-3.37,15.8-4.44,5.22-1.07,10-2.31,15.2-1.07,3,.72,6.11,1.07,8.94,1.6,1.35.18,2.69.18,4,.36.43,0,3-3.08,3.39-3.42-4.55,41.59,5.44,69.76,47.21,70.6,14.95.3,24.44,7.82,32.19,23.46,8.35,19.2,2.39,38.4.6,58.3-1.79,17.06-5.43,32.13-4.83,49.9v.22h-9a64.64,64.64,0,0,1,1.35-14.26c5.33-17.24-1.06-39-6-55C189.09,224,188.73,222.93,188.36,221.84Z" style="fill:#fff1e3"/></g><path d="M119.41,141.71S118,162.8,105.83,177.85c0,0-.39,1.47,6.06-1.69,0,0,5.63-4.19,22.14-1.55,0,0,14.45,1.73,22.12.12,0,0-25.91-7.19-40.09-4C116.06,170.74,122.76,152.18,119.41,141.71Z" style="fill:#ffe2dc"/><path d="M74.85,94.15s.14,23.83,0,26.79c0,0,20.41,30.1,53.08,2.64A170.64,170.64,0,0,1,127.9,92L76.67,96Z" style="fill:url(#linear-gradient)"/><path d="M74.85,94.15s.09,1,.25,2.79.36,4.49.49,7.9a115.43,115.43,0,0,1-.15,12.29,66.71,66.71,0,0,1-2.83,15.7,44.76,44.76,0,0,1-3.67,8.39A37,37,0,0,1,63,149a44,44,0,0,1-18.18,10.56,75,75,0,0,1-10.89,2.52c-1.86.3-3.74.53-5.64.73s-3.79.33-5.66.64a36,36,0,0,0-10.86,3.41A32.08,32.08,0,0,0,7,170a34.66,34.66,0,0,0-4.21,3.92,49.09,49.09,0,0,0-6.62,9.43c-.46.85-.92,1.7-1.35,2.56l-.16.32-.13.3-.28.67c-.18.45-.37.89-.53,1.34A49.13,49.13,0,0,0-8,194,68.25,68.25,0,0,0-9.4,216.18c.59,7.25,1.71,14.23,2.52,20.87.21,1.67.4,3.31.56,4.93.08.81.15,1.61.23,2.4s.18,1.59.27,2.37c.38,3.11.86,6.11,1.37,9S-3.4,261.36-3,264s.84,5.13,1.1,7.49a106.41,106.41,0,0,1,.73,12.28c0,.85,0,1.65,0,2.41s-.05,1.47-.08,2.13,0,1.28-.07,1.84-.07,1.07-.1,1.52l-.2,2.79s.06-1,.16-2.79c0-.46.05-1,.08-1.53s0-1.17,0-1.83,0-1.37.05-2.13,0-1.56,0-2.41a101.33,101.33,0,0,0-.91-12.24c-.6-4.7-1.69-9.93-2.77-15.68-.54-2.87-1-5.88-1.46-9-.1-.78-.19-1.57-.29-2.36s-.16-1.6-.25-2.41c-.17-1.61-.38-3.25-.6-4.91-.86-6.62-2.07-13.59-2.66-20.89a86.13,86.13,0,0,1-.27-11.16c.08-1.89.24-3.79.51-5.69a50.42,50.42,0,0,1,1.09-5.66,48.35,48.35,0,0,1,1.72-5.57c.16-.46.35-.9.54-1.35l.27-.67.07-.17,0-.08,0-.12.17-.32c.43-.87.89-1.73,1.35-2.59A49.57,49.57,0,0,1,2,173.24a36,36,0,0,1,4.34-4,32.33,32.33,0,0,1,5-3.16,36.91,36.91,0,0,1,11.14-3.48c1.91-.3,3.84-.45,5.71-.62s3.75-.42,5.6-.71a73.85,73.85,0,0,0,10.76-2.46,51.31,51.31,0,0,0,9.8-4.17,38.3,38.3,0,0,0,8.15-6.08,36.52,36.52,0,0,0,5.9-7.62,43.47,43.47,0,0,0,3.68-8.25,68,68,0,0,0,3-15.56,117.77,117.77,0,0,0,.34-12.26c-.09-3.4-.25-6.08-.38-7.9S74.85,94.15,74.85,94.15Z" style="fill:#f9b5aa"/><path d="M128,91s-.08,1-.24,2.81-.34,4.54-.45,8-.17,7.63.11,12.41a87,87,0,0,0,2.29,15.88,53.94,53.94,0,0,0,2.92,8.67,39.45,39.45,0,0,0,5,8.38,32.92,32.92,0,0,0,7.51,7,39.25,39.25,0,0,0,9.67,4.64,61.6,61.6,0,0,0,10.88,2.42c1.87.26,3.76.46,5.67.62s3.83.27,5.77.47a37.55,37.55,0,0,1,11.44,2.9A31.35,31.35,0,0,1,198.3,172a47,47,0,0,1,7.11,9.53c.49.85,1,1.72,1.42,2.59.24.43.45.87.68,1.31l.16.33,0,.08,0,.12.07.16.28.68c.38.89.71,1.84,1,2.76s.62,1.86.87,2.81a56.16,56.16,0,0,1,1.9,11.43c.11,1.9.16,3.8.14,5.69s-.12,3.75-.25,5.59c-.53,7.4-1.75,14.44-2.64,21.14-.22,1.68-.43,3.33-.62,5s-.33,3.24-.52,4.82c-.37,3.17-.79,6.22-1.21,9.14-.84,5.85-1.7,11.19-2.31,15.95s-1,8.91-1.23,12.35c-.06.86-.09,1.67-.12,2.43s-.07,1.49-.08,2.16c0,1.33-.06,2.47,0,3.39l0,2.83s0-1-.08-2.83c0-.92,0-2.06,0-3.39,0-.67,0-1.39.05-2.16s0-1.58.09-2.44c.15-3.44.49-7.62,1-12.39s1.31-10.13,2.11-16c.4-2.93.79-6,1.13-9.14.19-1.58.3-3.18.49-4.82s.36-3.3.58-5c.84-6.72,2-13.77,2.49-21.1.12-1.84.21-3.69.23-5.55s0-3.74-.16-5.63a54.92,54.92,0,0,0-1.89-11.24c-.25-.93-.56-1.84-.86-2.75s-.64-1.81-1-2.71l-.28-.67-.07-.17s0-.09,0-.06l0-.08-.16-.32c-.22-.43-.44-.87-.67-1.3-.45-.86-.93-1.71-1.41-2.55a46.1,46.1,0,0,0-7-9.31,30.77,30.77,0,0,0-9.46-6.61A36.65,36.65,0,0,0,177,163.19c-1.91-.2-3.84-.3-5.76-.48s-3.82-.38-5.71-.65a62.16,62.16,0,0,1-11-2.48,38.55,38.55,0,0,1-9.84-4.79A33.76,33.76,0,0,1,137,147.6a39.85,39.85,0,0,1-5-8.56,54.67,54.67,0,0,1-2.89-8.79,83.21,83.21,0,0,1-2.11-16c-.2-4.8-.09-9,.08-12.43s.41-6.14.57-8S128,91,128,91Z" style="fill:#f9b5aa"/><path d="M120,118.49s-.14,2-.29,5.36c-.08,1.69-.17,3.72-.28,6,0,1.15-.13,2.37-.21,3.64s-.19,2.61-.29,4-.26,2.8-.42,4.26-.35,2.95-.61,4.46c-.13.76-.23,1.52-.37,2.29l-.45,2.31c-.14.78-.33,1.56-.52,2.33s-.35,1.57-.56,2.35l-.66,2.34c-.11.39-.21.79-.33,1.17l-.39,1.16-.77,2.33-.88,2.29-.43,1.14c-.15.39-.33.75-.49,1.12-.33.75-.65,1.49-1,2.23l-.24.56-.27.54-.54,1.08c-.36.72-.71,1.44-1.06,2.16l.68-1,.82-1.19c.31-.48.71-1,1.08-1.65l1.23-2.13c.22-.39.47-.79.69-1.23l.66-1.36c.45-.95,1-1.95,1.4-3.06l.68-1.7.36-.89.31-.93c.39-1.25.88-2.55,1.21-4l.56-2.12c.18-.72.31-1.47.47-2.22.33-1.51.55-3.08.79-4.7.13-.81.19-1.63.28-2.47s.18-1.67.22-2.53.11-1.72.16-2.59.05-1.76.07-2.65,0-1.8,0-2.7,0-1.83,0-2.75C120.51,126.13,120.26,122.34,120,118.49Z" style="fill:#f9b5aa"/><path d="M77.48,125.24s-.07,1.86,0,5a111.39,111.39,0,0,0,1.22,12.8c.2,1.3.44,2.63.71,4s.58,2.76.94,4.18.76,2.85,1.21,4.3,1,2.89,1.53,4.33,1.2,2.87,1.92,4.26l.53,1.05.58,1c.37.69.81,1.34,1.23,2s.88,1.29,1.35,1.91,1,1.22,1.48,1.78A24.64,24.64,0,0,0,93.54,175l-.74-.82-.41-.45c-.14-.18-.29-.37-.46-.57l-.53-.67c-.19-.24-.37-.51-.57-.78s-.41-.56-.62-.88l-.63-1c-.23-.34-.44-.72-.67-1.11s-.46-.78-.67-1.21-.46-.87-.69-1.32l-.68-1.43c-.45-1-.91-2-1.35-3.17-.88-2.23-1.73-4.73-2.52-7.43-.39-1.36-.77-2.76-1.14-4.21s-.72-3-1.06-4.5c-.67-3.09-1.29-6.34-1.85-9.71S77.88,128.83,77.48,125.24Z" style="fill:#f9b5aa"/><path d="M74.8,98.35a.3.3,0,0,0,.07-.08.81.81,0,0,1,.23-.2.66.66,0,0,1,.21-.08.78.78,0,0,1,.27,0,2.25,2.25,0,0,1,.66.16A17.81,17.81,0,0,1,78,99a7.25,7.25,0,0,0,1.18.47,3.44,3.44,0,0,0,.76.13,1.92,1.92,0,0,0,.89-.18l1.88-.71c.68-.21,1.39-.44,2.15-.66L86,97.72c.39-.11.8-.2,1.22-.28l1.28-.26L89.84,97c.91-.17,1.86-.29,2.83-.45l3-.46c1-.16,2.09-.36,3.15-.55l1.6-.3,1.6-.27c1.07-.16,2.15-.32,3.23-.39a14.56,14.56,0,0,1,1.61-.07l.82,0,.8,0,.81.05c.27,0,.53.08.8.11l1.67.26c1.19.19,2.39.37,3.58.53s2.37.26,3.55.38l.89.08a6.6,6.6,0,0,0,.9,0h2.7l1,0a.92.92,0,0,0,.29,0,.94.94,0,0,0,.26-.14,3.16,3.16,0,0,0,.44-.38,7.47,7.47,0,0,0,.6-.7q.55-.69,1-1.41l.48-.73.23-.37.1-.18,0-.09s0,0,0,0,0,0,0,0,0,0,0,0h0l0,0,0,0h0s0,0,0,0,0,0,0,0h-.06l0,0-.07.08-.55.52c-.49.44-1.21,1.12-2.18,1.88a2,2,0,0,1-.63.38.83.83,0,0,1-.32,0l-.25,0-.29,0-2.44-.41c-.42-.06-.88-.17-1.34-.28l-1.45-.34c-1-.23-2.06-.45-3.13-.72l-3.38-.79-2-.43c-.68-.09-1.38-.15-2.09-.22s-1.43,0-2.16,0-1.46.09-2.19.18c-1.47.18-3,.45-4.42.77l-4.48,1c-1.52.33-3.09.68-4.7,1.09-.8.23-1.61.42-2.42.69l-1.21.4c-.41.14-.81.3-1.21.46a28.78,28.78,0,0,0-4.72,2.34l-.18.1a.77.77,0,0,1-.23.06,2.1,2.1,0,0,1-.61,0,9,9,0,0,1-1.42-.33,13.87,13.87,0,0,0-1.54-.37,2,2,0,0,0-.85,0A1.07,1.07,0,0,0,75,98,1,1,0,0,0,74.8,98.35Z" style="fill:#f9b5aa"/><g id="_Group_2" data-name="&lt;Group&gt;"><path d="M123.86,43.8l-.14.25c-14.14-.72-30.44-10.62-37.86-24.11h0C88,28.56,94.69,38.54,103,42.47v.05C81.1,38.23,68.16,20.12,64.41-1.26c-.08-.46-.16-.94-.23-1.44-20,21.82-24.53,59-6.7,84.3a56.74,56.74,0,0,1-9.3-10.14,58.53,58.53,0,0,1-6.91-12.72h-.43a11.06,11.06,0,0,0-3.91.72l-.06-.12C31.41,42.81,28,14.59,39-8.63c3.07-6.5,9.83-17.29,17.88-22l.1-.06c7.24-6,17.51-8.54,27.68-10.39a63,63,0,0,1,24.72.37,82.16,82.16,0,0,1,10.77,3.08c10.22,3.52,18.33,8.3,25.23,15.42q1.78,1.84,3.48,3.91h0a70,70,0,0,1,4.25,5.8l.45.69c1,1.58,2,3.24,3,5a1.19,1.19,0,0,1,.09.15c11.24,20.82,11.49,47.19-.23,67.49l-.06.08a10.41,10.41,0,0,0-5.22-1.48A62.65,62.65,0,0,1,146.22,69h0a62,62,0,0,1-5.43,7.37c2.26-7.48,6.89-15.57-2.65-27.78h0A43.81,43.81,0,0,1,123.86,43.8Z" style="fill:#bc875b"/><path d="M57.48,81.6C39.65,56.31,44.19,19.12,64.18-2.7c.07.5.15,1,.23,1.44C68.16,20.12,81.1,38.23,103,42.52v-.05C94.69,38.54,88,28.56,85.85,20h0c7.42,13.49,23.72,23.39,37.86,24.11l.14-.25a43.81,43.81,0,0,0,14.28,4.74h0c9.54,12.21,4.91,20.3,2.65,27.78A62,62,0,0,0,146.22,69c-.31,2.89-2,7.85-4.24,13.34-3.87,9.42-9.41,20.39-12.56,25-3.63,5.34-20.24,20.49-31.08,20.43s-26-15.08-31.9-20.81C63.25,103.82,58,93,53.12,82.51c-1.77-3.83-3.48-7.62-5-11l.07-.05A56.74,56.74,0,0,0,57.48,81.6Z" style="fill:#fff1e3"/><path d="M48.11,71.51c1.53,3.38,3.24,7.17,5,11-7.19-.93-13-5.56-17-11.49-1.65-2.46-3.62-6.26-2-9.21a5.32,5.32,0,0,1,2.82-2.34,11.06,11.06,0,0,1,3.91-.72h.38a59.16,59.16,0,0,0,7,12.72Z" style="fill:#fff1e3"/></g><path d="M86.65,21.3s11.69,20.07,37.07,22.75c0,0-12.61.84-20.73-1.53C103,42.52,91.72,37.93,86.65,21.3Z" style="fill:#ffd1c5"/><path d="M64.32-2.85s2.85,35.31,34.33,44.31c0,0-28.81-5.52-35.79-31.08,0,0-21.29,22.62-10.9,61.52C52,71.9,33.73,31.85,64.32-2.85Z" style="fill:#ffd1c5"/><path d="M56-14.45S24.16,15.79,39.17,58.88a22.27,22.27,0,0,1,2.7-.13S25.24,25.29,56-14.45Z" style="fill:#aa784b"/><path d="M86.46-5.46s10.32,31,32.07,47.76c1.9,1.46,1.52.35,5.37,1.65,4.27,1.44,7.29,3.17,11.51,4.08s9.64,1,14.89,1.43C150.3,49.46,101.7,40.72,86.46-5.46Z" style="fill:#aa784b"/><path d="M96.64-4.83s17.83,37,40,51c3.83,2.4,9.14,2.43,13.63,3.31C150.3,49.46,111.47,26.19,96.64-4.83Z" style="fill:#aa784b"/><path d="M90.26-18s42.88,23.9,60,67.43c0,0-5.61.63-8.11-3-2.83-4.12.75-9.52-10.85-24.38C119.05,6.35,106.93-8.12,90.26-18Z" style="fill:#aa784b"/><path d="M90.44-20.79s50.77,7,59.86,70.25c0,0-4.92-1.33-5.64-10.71C143.05,18,120.47-16.51,90.44-20.79Z" style="fill:#aa784b"/><path d="M82.17-27.79s61.2-7.4,65.44,66c.29,5-1.84,9.06-1.27,10s4-1.13,4,1.25C150.3,49.46,155.45-31.65,82.17-27.79Z" style="fill:#aa784b"/><path d="M134.34,47.88s12.21,11.86,6.45,28.44c0,0,4.06-6.55,3.16-17-.29-3.29-5.81-10.82-5.81-10.82A14.16,14.16,0,0,1,134.34,47.88Z" style="fill:#ffd1c5"/><path d="M49,73S61,101.45,65.86,106.32c0,0,12.74,13,19.76,16.64,0,0-12.32-13.74-17.35-18.69C64.66,100.73,49.51,75.05,49,73Z" style="fill:#ffe2dc"/><path d="M64.32-2.85S28.58,35.33,57.48,81.6c0,0-16.39-13.84-18.2-31.78,0,0,5.26-.66,4.75-6.82S51.37,5.73,64.32-2.85Z" style="fill:#aa784b"/><path d="M63.56-7.61S67.83,36.5,103,42.52c0,0-14.44-8.82-16.69-21.81,0,0,11.83,21.73,38,23.34l-8.24-4c.91-5.7-26.51-1.41-34.25-33.83,0,0,.57,13.22,5.27,23.9C87.11,30.15,65.83,21,63.56-7.61Z" style="fill:#aa784b"/><path d="M38.11,66.93s-.93-4,1.1-4.17,6,6,6.33,9c0,0-2.53.43-1.7,2.25s3.65,3.76,3.65,3.76A17.11,17.11,0,0,1,38.11,66.93Z" style="fill:#ffd1c5"/><path d="M38.74,29c-.53,6.34.79,12.06,2.71,12.8,1.14.44,2.44-1.09,3.16-4.68,2-10,.83,11-.13,13.74S38.35,56.65,38,49.49,38.74,29,38.74,29Z" style="fill:#aa784b"/><path d="M150.27,41.46c.2,4.72.08,7.26,3.36,7,0,0-2,2.67-10.28.66-1.74-.42-2.18-.31-3.18-.92C137,46.29,150.27,41.46,150.27,41.46Z" style="fill:#aa784b"/><path d="M156.11,38.89c-.81,4.78-3.21,18.1-8.58,17-1.75-.36-3.4-6.83-3.4-6.83l-6-.53c3.52,3.37,5.45,11.51,5.45,11.51.8,1.86.45,5-.24,8-1,3.45-2.56,8.25-2.56,8.25a58.63,58.63,0,0,0,9-14.39,76,76,0,0,0,3.55-8.84A76,76,0,0,0,156.11,38.89Z" style="fill:#aa784b"/><path d="M38.11,66.93s1.47-4.58,7.19,4.54c0,0-1.77-6.76-5.83-8.71C39.47,62.76,37.35,61.89,38.11,66.93Z" style="fill:#f4a4a4"/><path d="M94.59,35.6A31.45,31.45,0,0,1,86.3,20.71S94.59,34.29,105,38.41C105,38.41,103.2,39.52,94.59,35.6Z" style="fill:#f4a4a4"/><path d="M49,26.57S52,10.09,64.06-2.56c0,0,3.59,23.14,17.23,34.5,0,0-16.08-14-19.21-29C62.08,2.89,51.2,16.18,49,26.57Z" style="fill:#f4a4a4"/><path d="M40.88,59.56c-2.26-1.84-6.65,1-7.26,3.62-1,4.17,2.22,8,5.07,10.56,0,0,.35.2.29.12a25.08,25.08,0,0,1-3.55-6.53,9.2,9.2,0,0,1-.6-4.34c.3-2.81,3.85-2.7,5.92-3.28C40.79,59.7,41,59.63,40.88,59.56Z" style="fill:#fffcfa"/><path d="M64.06-2.56S67.35,35.76,103,42.52c0,0-14.17-7.43-16.69-21.81a47.18,47.18,0,0,0,37.42,23.34s8.42,4,14.42,4.49c0,0,10.43,11.09,2.65,27.78,0,0,7.07-7.88,10.18-16.91a7.51,7.51,0,0,1,5.51,1.23s23.87-38.66-6.11-77C122.16-52.38,73.72-43.74,56.81-30.54c0,0-38.71,25.24-19.94,89.89a7.78,7.78,0,0,1,4.4-.61S46.93,73.93,57.48,81.6C57.48,81.6,28.31,39.18,64.06-2.56Z" style="opacity:0.35000000000000003;mix-blend-mode:screen;fill:url(#_R_W_h_22)"/><path d="M64.06-2.56S67.35,35.76,103,42.52c0,0-14.17-7.43-16.69-21.81a47.18,47.18,0,0,0,37.42,23.34s8.42,4,14.42,4.49c0,0,10.43,11.09,2.65,27.78,0,0,7.07-7.88,10.18-16.91a7.51,7.51,0,0,1,5.51,1.23s23.87-38.66-6.11-77C122.16-52.38,73.72-43.74,56.81-30.54c0,0-38.71,25.24-19.94,89.89a7.78,7.78,0,0,1,4.4-.61S46.93,73.93,57.48,81.6C57.48,81.6,28.31,39.18,64.06-2.56Z" style="opacity:0.6000000000000001;mix-blend-mode:screen;fill:url(#_R_W_h_81)"/><path d="M40.84,58.76l-.43,0c-.29,0-.7.08-1.22.17a9.19,9.19,0,0,0-1.83.51A6.66,6.66,0,0,0,35.3,60.7a4.3,4.3,0,0,0-.85,1A4.67,4.67,0,0,0,34,63.08a6.58,6.58,0,0,0,.23,3.09,14.37,14.37,0,0,0,1.38,3.13c.29.51.61,1,.94,1.5s.68,1,1.05,1.47A30.41,30.41,0,0,0,39.87,75a29.53,29.53,0,0,0,2.52,2.38,24,24,0,0,0,5.16,3.32,23,23,0,0,0,4.12,1.48c.52.12.92.21,1.2.26l.43.09-.43,0c-.29,0-.71-.06-1.23-.15s-1.17-.22-1.89-.41a17,17,0,0,1-2.39-.79A22.74,22.74,0,0,1,41.93,78a28.19,28.19,0,0,1-5-5.19c-.37-.49-.73-1-1.06-1.51s-.67-1-1-1.57a14.53,14.53,0,0,1-1.39-3.32,7,7,0,0,1-.1-3.42A4.83,4.83,0,0,1,35,60.35a6.48,6.48,0,0,1,2.27-1.17,10.41,10.41,0,0,1,1.9-.38,10.58,10.58,0,0,1,1.24-.06Z" style="fill:#f9b5aa"/><path d="M38.17,67.46a10.94,10.94,0,0,1-.33-1.61,7.73,7.73,0,0,1,0-1.67,3.44,3.44,0,0,1,.22-.85,1.41,1.41,0,0,1,.25-.4,1.16,1.16,0,0,1,.4-.32,1.38,1.38,0,0,1,.49-.14,1.91,1.91,0,0,1,.48,0,3.39,3.39,0,0,1,.85.28h0l0,0a18.24,18.24,0,0,1,1.86,1.87c.3.33.58.67.85,1s.53.71.78,1.08c.13.18.24.36.36.56s.24.37.34.57l.31.59.27.62c.09.21.15.43.23.64a4.57,4.57,0,0,1,.18.66c0,.22.11.44.13.67l0,.7,0,.31-.33.06a3,3,0,0,0-.46.14,3.55,3.55,0,0,0-.44.21,1.37,1.37,0,0,0-.58.64.91.91,0,0,0-.07.41,1.56,1.56,0,0,0,.09.46,2.22,2.22,0,0,0,.2.45,4.12,4.12,0,0,0,.27.45,7.48,7.48,0,0,0,.68.83c.24.27.5.53.76.78.54.5,1.11,1,1.67,1.44-.31-.19-.64-.37-.94-.58s-.61-.42-.91-.64-.59-.45-.88-.7a10.26,10.26,0,0,1-.79-.82,5.09,5.09,0,0,1-.34-.47,2.77,2.77,0,0,1-.28-.54,1.83,1.83,0,0,1-.08-1.29,1.93,1.93,0,0,1,.81-1,4.14,4.14,0,0,1,.55-.29,3.41,3.41,0,0,1,.59-.2l-.3.38-.07-.6c0-.2-.09-.4-.13-.6a3.28,3.28,0,0,0-.17-.59,4.58,4.58,0,0,0-.22-.58l-.25-.57-.3-.55a5.89,5.89,0,0,0-.32-.54,4.86,4.86,0,0,0-.33-.54c-.23-.36-.48-.7-.74-1s-.51-.67-.79-1c-.54-.66-1.12-1.29-1.72-1.89l.08,0a3.21,3.21,0,0,0-.68-.27,1.24,1.24,0,0,0-.33,0,.72.72,0,0,0-.29.06.76.76,0,0,0-.25.16,1.18,1.18,0,0,0-.2.28,2.51,2.51,0,0,0-.24.7,6.45,6.45,0,0,0-.14,1.59C38.08,66.37,38.11,66.92,38.17,67.46Z" style="fill:#f9b5aa"/><path d="M48.1,71.51,51,77.71l3.35,7.1c1.32,2.73,2.8,5.82,4.49,9.14.85,1.66,1.75,3.38,2.72,5.14s2,3.55,3.22,5.3a16.94,16.94,0,0,0,2,2.46l2.4,2.31c1.61,1.55,3.29,3.11,5,4.66a92,92,0,0,0,11.34,8.73,40.38,40.38,0,0,0,6.48,3.4,16.63,16.63,0,0,0,7.09,1.37,21.16,21.16,0,0,0,7-1.92,46,46,0,0,0,6.43-3.52A79.13,79.13,0,0,0,123.8,113a49.25,49.25,0,0,0,4.66-5,27.7,27.7,0,0,0,1.85-2.72c.57-.93,1.11-1.87,1.63-2.8,2.09-3.72,3.89-7.34,5.5-10.7s3-6.49,4.18-9.28,2.13-5.26,2.84-7.32a46.56,46.56,0,0,0,1.44-4.84c.12-.57.22-1,.25-1.3s.07-.45.07-.45,0,.15-.05.45-.11.74-.22,1.31a45.7,45.7,0,0,1-1.33,4.88c-.67,2.08-1.58,4.57-2.7,7.39s-2.47,6-4,9.36-3.34,7-5.39,10.81c-.51.94-1,1.89-1.61,2.83a29.16,29.16,0,0,1-1.86,2.82,50.79,50.79,0,0,1-4.71,5.06,79.93,79.93,0,0,1-11.29,9,47,47,0,0,1-6.53,3.61,21.7,21.7,0,0,1-7.3,2,13.56,13.56,0,0,1-3.81-.32,21.41,21.41,0,0,1-3.62-1.13,41,41,0,0,1-6.59-3.48,91.78,91.78,0,0,1-11.41-8.85c-1.75-1.56-3.42-3.13-5-4.7l-2.38-2.34a17.34,17.34,0,0,1-2.07-2.58c-1.2-1.79-2.22-3.61-3.18-5.38s-1.84-3.52-2.67-5.19c-1.66-3.35-3.1-6.46-4.35-9.22l-3.21-7.17C49.11,73.79,48.1,71.51,48.1,71.51Z" style="fill:#f9b5aa"/><path d="M64.33-2.84,62.81-1.17C62.3-.63,61.75.08,61.07.89c-.34.4-.68.85-1,1.33s-.75,1-1.15,1.54l-1.2,1.75c-.43.6-.82,1.28-1.26,2s-.85,1.41-1.28,2.17l-.65,1.15c-.21.39-.42.8-.63,1.21l-.64,1.25c-.2.43-.41.87-.61,1.31s-.42.89-.63,1.35-.38.93-.58,1.4-.41.95-.59,1.44-.37,1-.55,1.5c-.39,1-.7,2-1,3.1s-.62,2.16-1,3.27-.56,2.25-.79,3.41-.48,2.35-.65,3.55c-.09.6-.2,1.21-.27,1.82s-.15,1.22-.22,1.84-.12,1.24-.17,1.87S46.06,40.35,46,41c0,1.27-.12,2.54-.09,3.83a68.32,68.32,0,0,0,.44,7.79,69.82,69.82,0,0,0,1.37,7.79A62.13,62.13,0,0,0,50.08,68c.44,1.24,1,2.43,1.52,3.64.28.59.57,1.18.86,1.76l.43.88.48.85c.31.57.63,1.14,1,1.7l1,1.64.51.81.55.78,1.1,1.56-1-1.6-.56-.87L55.29,78l-.72-1.26c-.25-.46-.5-1-.77-1.47-.55-1-1.08-2.23-1.67-3.52-.29-.65-.54-1.34-.83-2s-.56-1.47-.83-2.25l-.42-1.19c-.13-.41-.25-.82-.37-1.25-.26-.84-.53-1.71-.74-2.62s-.48-1.83-.66-2.8c-.1-.48-.2-1-.31-1.46s-.16-1-.25-1.51-.17-1-.26-1.55-.13-1.06-.19-1.59c-.15-1.07-.23-2.17-.32-3.3-.05-.56-.08-1.12-.1-1.7s-.05-1.15-.07-1.73c0-1.17,0-2.35,0-3.56s.07-2.44.18-3.68.23-2.5.37-3.77A74.61,74.61,0,0,1,48.74,28c.28-1.32.67-2.62,1-4s.8-2.66,1.29-4,1-2.65,1.52-4,1.15-2.65,1.81-4a66.13,66.13,0,0,1,4.41-7.71A68.89,68.89,0,0,1,64.33-2.84Z" style="fill:#9b6c3f"/><path d="M62.17-21.65l-1.94,2.09-1.06,1.14c-.38.42-.77.9-1.2,1.41-.86,1-1.88,2.17-2.9,3.54l-1.64,2.14c-.54.76-1.1,1.57-1.68,2.41l-.89,1.28L50-6.27l-.89,1.42c-.31.48-.61,1-.89,1.48-.57,1-1.17,2.07-1.76,3.16S45.34,2,44.75,3.19s-1.06,2.4-1.61,3.65-1,2.55-1.49,3.87-.92,2.7-1.32,4.1c-.2.71-.39,1.42-.59,2.13-.1.36-.19.72-.29,1.08s-.16.73-.25,1.09c-.16.74-.32,1.48-.49,2.22s-.27,1.5-.4,2.26c-.29,1.52-.46,3.07-.64,4.64-.11.78-.14,1.57-.2,2.37s-.14,1.59-.14,2.39c0,1.61-.09,3.23,0,4.86s.18,3.26.32,4.91c.08.82.21,1.63.31,2.46l.17,1.23.23,1.23a60.68,60.68,0,0,0,2.56,9.69l.42,1.19.21.59.25.58,1,2.33c.72,1.51,1.42,3,2.27,4.48A51.89,51.89,0,0,0,57.55,81.63L55.8,80l-.45-.43-.47-.5L53.79,77.9c-.41-.4-.8-.88-1.22-1.38s-.89-1-1.34-1.61L49.82,73c-.5-.65-.94-1.39-1.45-2.13s-1-1.55-1.48-2.39c-.24-.42-.51-.83-.74-1.28l-.71-1.37c-.24-.46-.5-.92-.73-1.41s-.45-1-.68-1.5c-.49-1-.89-2.08-1.33-3.18-.1-.27-.21-.55-.32-.83s-.2-.57-.3-.85c-.19-.58-.39-1.16-.59-1.75s-.36-1.2-.53-1.81-.35-1.24-.53-1.86a68.48,68.48,0,0,1-1.5-8.05,71.4,71.4,0,0,1-.58-8.82c0-1.53,0-3.08.16-4.65.06-.79.1-1.58.18-2.37s.18-1.6.28-2.4.22-1.61.35-2.42.25-1.63.42-2.45c.36-1.63.67-3.28,1.14-4.93a82.41,82.41,0,0,1,3.29-9.93l1-2.47c.33-.84.76-1.63,1.14-2.46C47.11.07,48-1.53,48.87-3.17c.43-.82.94-1.59,1.4-2.4S51.2-7.19,51.74-8c1-1.57,2-3.17,3.19-4.69A110.94,110.94,0,0,1,62.17-21.65Z" style="fill:#9b6c3f"/><path d="M138.14,48.53l1.58,2.29c.22.38.46.8.73,1.25a14.28,14.28,0,0,1,.8,1.47c.25.54.55,1.09.81,1.7s.48,1.26.71,1.94c.09.34.19.69.29,1a9.13,9.13,0,0,1,.26,1.09,17.14,17.14,0,0,1,.31,2.31,19.41,19.41,0,0,1,.06,2.42c0,.41-.07.82-.11,1.24a10.52,10.52,0,0,1-.16,1.24c-.11.83-.31,1.66-.5,2.49s-.43,1.65-.68,2.47-.5,1.62-.74,2.43-.48,1.61-.7,2.4l.21-.58c.13-.38.32-.94.58-1.66s.59-1.59.93-2.62c.17-.51.35-1.06.52-1.65s.34-1.21.49-1.87.27-1.37.4-2.09.19-1.51.18-2.31c0-.39,0-.8,0-1.21s-.07-.83-.1-1.25a11.53,11.53,0,0,0-.2-1.27l-.12-.65-.06-.32-.09-.32c-.13-.43-.25-.86-.38-1.3a11.33,11.33,0,0,0-.49-1.29,13,13,0,0,0-.55-1.28l-.66-1.27a11.17,11.17,0,0,0-.73-1.24l-.79-1.23C139.37,50.11,138.75,49.33,138.14,48.53Z" style="fill:#9b6c3f"/><path d="M56.85-30.62l-.55.3a16.32,16.32,0,0,0-1.55.93c-.33.23-.71.45-1.09.75l-1.25,1L51-26.45c-.46.46-1,.93-1.47,1.46-1,1.06-2.07,2.26-3.14,3.64s-2.17,2.89-3.25,4.56S41-13.3,40-11.35c-.51,1-1.05,2-1.51,3S37.5-6.17,37-5.07c-.12.27-.25.55-.36.83l-.3.86c-.21.58-.42,1.16-.62,1.74L35.11.13c-.18.61-.35,1.22-.53,1.84s-.34,1.23-.52,1.86c-.09.31-.18.62-.26.94l-.21,1C33.31,7,33,8.3,32.76,9.62s-.42,2.66-.63,4-.3,2.72-.45,4.1l-.1,1,0,1c0,.7-.07,1.39-.11,2.09-.1,1.4-.07,2.81-.08,4.22,0,.71,0,1.42,0,2.13s0,1.42.08,2.13.05,1.42.1,2.13l.17,2.13.19,2.13.26,2.12L32.42,41l.35,2.1c.12.7.23,1.4.35,2.1s.29,1.39.43,2.08.27,1.38.45,2.07.33,1.36.5,2c.67,2.72,1.5,5.37,2.39,7.94,0,0-.19-.68-.56-2-.19-.65-.42-1.44-.65-2.39-.11-.47-.24-1-.38-1.53q-.11-.41-.21-.84c-.06-.29-.12-.59-.19-.9-.25-1.24-.59-2.6-.83-4.12-.13-.76-.27-1.54-.42-2.36s-.24-1.68-.37-2.56C33,40.92,32.84,39,32.62,37c-.09-1-.14-2-.22-3.11,0-.53-.07-1.06-.11-1.61s0-1.1,0-1.65c0-1.12-.09-2.26-.07-3.43s0-2.36,0-3.57c.12-2.43.22-4.95.54-7.54l.21-2c.1-.65.2-1.31.31-2,.21-1.32.39-2.68.71-4,.14-.67.29-1.35.43-2,.08-.34.15-.69.22-1s.19-.68.28-1L35.5,2c.09-.35.19-.7.28-1L35.93.4l.17-.52c.48-1.37.94-2.77,1.45-4.16L39.3-8.44a75.38,75.38,0,0,1,4.43-8.15,59.32,59.32,0,0,1,5.65-7.72A28.42,28.42,0,0,1,56.85-30.62Z" style="fill:#9b6c3f"/><path d="M48.45,71.87s.1.31.27.88l.33,1c.13.4.25.88.4,1.4s.32,1.09.46,1.72.32,1.31.47,2,.31,1.49.44,2.3c.07.4.13.82.19,1.24s.14.85.18,1.29.09.89.15,1.35.06.92.09,1.39c.09.94.08,1.9.11,2.89,0,.49,0,1,0,1.49s0,1-.07,1.52-.07,1-.11,1.54-.12,1-.18,1.54l-.09.78-.13.77c-.09.52-.17,1-.26,1.56-.23,1-.41,2.07-.68,3.09-.13.51-.25,1-.39,1.53l-.43,1.51c-.28,1-.63,2-.93,3l.31-.7c.1-.23.22-.51.37-.84s.32-.73.48-1.17l.55-1.48c.21-.54.38-1.14.59-1.78s.4-1.34.58-2.08c.1-.37.2-.74.29-1.14s.16-.79.24-1.21c.19-.82.3-1.7.43-2.61.07-.46.11-.92.15-1.4s.08-1,.11-1.45c0-1,.09-2,0-3.06,0-.53,0-1.06-.07-1.6s-.09-1.08-.14-1.63S52,84.42,52,83.86L51.84,83c-.06-.28-.11-.56-.17-.84-.11-.57-.2-1.14-.35-1.71s-.29-1.14-.43-1.71c-.34-1.14-.66-2.3-1.09-3.45S48.92,73,48.45,71.87Z" style="fill:#9b6c3f"/><path d="M64.45-21.19s-.16.7-.43,2a9,9,0,0,0-.19,1.09c-.06.4-.12.84-.19,1.31s-.11,1-.15,1.52-.1,1.12-.13,1.73,0,1.25,0,1.92,0,1.37,0,2.1.07,1.48.12,2.26l.09,1.2c0,.4.08.81.13,1.22s.09.84.14,1.26L64-2.29c.11.88.28,1.77.44,2.68.36,1.82.77,3.72,1.32,5.65a62.05,62.05,0,0,0,2,5.92,57.79,57.79,0,0,0,2.71,6,50.8,50.8,0,0,0,8,11.35A44,44,0,0,0,89.73,38,44.44,44.44,0,0,0,103,42.5l-1.66-.39c-.55-.13-1.21-.34-2-.55-.39-.1-.8-.26-1.25-.4s-.92-.29-1.42-.49l-1.56-.6-1.69-.72-1.8-.87c-.61-.34-1.26-.66-1.9-1s-1.31-.76-2-1.21l-1-.66-1-.72a42.5,42.5,0,0,1-4.12-3.38,44.05,44.05,0,0,1-4-4.22,53.05,53.05,0,0,1-3.77-5.05A60.36,60.36,0,0,1,67.68,9.79a70.81,70.81,0,0,1-2.14-7.15C65.4,2,65.26,1.4,65.11.77s-.25-1.26-.37-1.9c-.22-1.27-.45-2.56-.6-3.87a57.09,57.09,0,0,1-.52-8A41.53,41.53,0,0,1,64.45-21.19Z" style="fill:#9b6c3f"/><path d="M103,42.48l-.63-.35-.75-.42c-.29-.17-.6-.39-1-.63l-.57-.37c-.19-.13-.38-.29-.59-.44-.4-.32-.86-.63-1.29-1s-.93-.77-1.39-1.24-1-.91-1.43-1.44l-.73-.79-.72-.85c-.49-.56-.94-1.18-1.42-1.81s-.92-1.29-1.38-2-.89-1.37-1.29-2.1c-.21-.36-.43-.72-.62-1.08l-.59-1.11c-.2-.37-.37-.76-.55-1.13s-.37-.76-.52-1.14c-.33-.78-.66-1.54-.93-2.32s-.53-1.56-.78-2.33c0,0,0,.21.15.59s.22,1,.46,1.67c.11.36.23.76.38,1.19l.52,1.39c.2.49.43,1,.67,1.56s.54,1.12.83,1.72.66,1.19,1,1.83.77,1.27,1.21,1.91.89,1.31,1.41,2c.25.32.5.66.78,1l.84,1c.28.34.6.65.9,1s.62.65,1,.95l1,.93,1.09.89a14,14,0,0,0,1.14.84,11.82,11.82,0,0,0,1.2.79c.42.24.82.52,1.26.73Z" style="fill:#9b6c3f"/><path d="M81.85,6.33s0,.53.1,1.51c0,.49.13,1.09.21,1.79,0,.35.12.72.2,1.12s.15.81.26,1.25.23.9.36,1.38.31,1,.47,1.48.37,1,.58,1.58l.33.82.39.83.39.86.45.85.47.88.52.88A38.36,38.36,0,0,0,89,25.12c.44.61.93,1.18,1.41,1.79s1,1.18,1.56,1.75,1.09,1.17,1.69,1.72l.88.86.93.82c.61.56,1.28,1.07,1.93,1.62s1.35,1,2.05,1.53q2.1,1.5,4.38,2.82a49.78,49.78,0,0,0,4.73,2.38,46.23,46.23,0,0,0,5,1.86,41.77,41.77,0,0,0,5.11,1.24,39,39,0,0,0,5.11.53l-1.26-.12c-.41,0-.92-.11-1.52-.2s-1.28-.21-2-.36c-.38-.07-.79-.17-1.21-.27s-.87-.19-1.32-.33l-1.43-.4-1.52-.5a51.84,51.84,0,0,1-6.88-3c-1.23-.63-2.49-1.35-3.77-2.14s-2.57-1.67-3.86-2.65l-1-.74-1-.78c-.65-.52-1.27-1.1-1.92-1.66a52.82,52.82,0,0,1-3.71-3.76c-.61-.66-1.17-1.38-1.76-2.09s-1.13-1.47-1.64-2.26-1-1.59-1.54-2.4-1-1.68-1.36-2.56a32,32,0,0,1-2.12-5.54A31.26,31.26,0,0,1,81.85,6.33Z" style="fill:#9b6c3f"/><path d="M101.19,21.37l.84,1.19c.55.77,1.35,1.9,2.37,3.31.52.7,1.09,1.47,1.72,2.3s1.32,1.71,2.07,2.63,1.58,1.89,2.46,2.87c.44.5.92,1,1.39,1.49s1,1,1.5,1.5c1,1,2.15,2,3.34,3a44.52,44.52,0,0,0,3.82,2.77c.67.45,1.38.85,2.08,1.28s1.44.8,2.19,1.16a42.77,42.77,0,0,0,4.66,2,43.32,43.32,0,0,0,4.93,1.38l1.26.27,1.26.21c.84.16,1.7.24,2.54.35s1.7.14,2.54.2,1.69.06,2.53.08l2.5,0,2.47-.14H147l-2-.08c-.75,0-1.59-.12-2.5-.18L141,48.67c-.49-.06-1-.11-1.53-.2l-1.63-.26-1.73-.35c-1.17-.26-2.41-.56-3.68-1s-2.59-.84-3.94-1.37c-.67-.27-1.34-.58-2-.88s-1.37-.65-2-1a45,45,0,0,1-4.13-2.47c-1.36-.93-2.72-1.95-4-3.06s-2.64-2.33-3.93-3.61-2.54-2.66-3.78-4.08C106.05,27.57,103.66,24.49,101.19,21.37Z" style="fill:#9b6c3f"/><g id="_x_6_" data-name="¤­©x_6_"><path d="M97.56,86c-1.29-2.22-4.74-2-6.73-3.06-.1,0-.8-.16-.63,0a3.28,3.28,0,0,0,.38.27,2.08,2.08,0,0,0-.89.38,5.47,5.47,0,0,1,.68.58l.26.3.29.26c2.08,2.1,4.29,5,4.24,8a1.36,1.36,0,0,0,1.1-.36C97.07,90.26,98.83,88.21,97.56,86Z" style="fill:#ffd1c5"/><path d="M91.74,60.42c-.06-.1-.48-.28-.47-.23,1.44,4.19,2.47,8.37,2.08,12.83-.3,3.48-1.3,7.89-4.06,10.3-.08.06.66.33.83.18C96.11,78.2,95.63,66.69,91.74,60.42Z" style="fill:#fffcfa"/><path d="M81.56,74.83A13,13,0,1,1,68.65,61.77,13,13,0,0,1,81.56,74.83Z" style="opacity:0.6000000000000001;fill:url(#_R_W_h_34)"/><path d="M137.58,75.07a13.24,13.24,0,1,1-13.16-13.32A13.24,13.24,0,0,1,137.58,75.07Z" style="opacity:0.6000000000000001;fill:url(#_R_W_h_34-2)"/><path d="M91.27,59.88a28.48,28.48,0,0,1,.89,2.85c.26,1,.47,1.94.66,2.92s.32,2,.44,3,.17,2,.21,3,0,2-.07,3a22.52,22.52,0,0,1-.42,3,15,15,0,0,1-.91,3,10.38,10.38,0,0,1-1.61,2.69l0-.76c.3.36.58.71.86,1.08s.53.73.79,1.11c.51.75,1,1.52,1.45,2.32a17.37,17.37,0,0,1,1.14,2.48q.12.33.21.66c.06.22.12.44.16.66a5.06,5.06,0,0,1,.1.68,5,5,0,0,1,0,.67,8.17,8.17,0,0,0-.87-2.5,19.28,19.28,0,0,0-1.39-2.26c-.52-.72-1.05-1.43-1.61-2.11-.29-.35-.58-.68-.87-1s-.58-.67-.88-1L89.22,83l.29-.42a11.78,11.78,0,0,0,1.23-2.49,19.22,19.22,0,0,0,.72-2.73,27.08,27.08,0,0,0,.37-2.85c.08-1,.12-1.92.13-2.89s0-1.95,0-2.92-.08-1.95-.15-2.93-.14-2-.22-2.94S91.37,60.87,91.27,59.88Z" style="fill:#f9b5aa"/><path d="M51.61,49.89a9.66,9.66,0,0,1,1-.88c.35-.26.76-.58,1.27-.9l.81-.51c.28-.18.6-.33.93-.51.64-.37,1.38-.67,2.16-1L59,45.62l.64-.22.67-.18,1.37-.37c.47-.1.94-.18,1.43-.26a28.43,28.43,0,0,1,2.94-.34,14.85,14.85,0,0,1,1.49,0l1.48,0c1,.06,1.92.22,2.85.32s1.78.39,2.6.58c.21.05.41.09.61.15l.58.19,1.08.39a13.5,13.5,0,0,1,1.87.74c.54.26,1,.5,1.38.69.76.39,1.19.63,1.19.63l-1.3-.34-1.47-.4c-.56-.19-1.22-.28-1.92-.44l-1.09-.24-.58-.12a5.4,5.4,0,0,0-.6-.09L71.7,46,69,45.79h-1.4a13.28,13.28,0,0,0-1.41,0c-.94.08-1.89.09-2.8.26-.46.08-.92.13-1.37.2l-1.32.27L60,46.7l-.62.17-1.22.32-1.13.37a9.94,9.94,0,0,0-1,.36l-1,.36-.86.36c-.53.23-1,.45-1.38.63s-.68.34-.87.45Z" style="fill:#9b6c42"/><path d="M139.43,51.54l-.31-.17c-.2-.12-.5-.27-.87-.46s-.84-.41-1.38-.65l-.85-.37-1-.37a9.94,9.94,0,0,0-1.05-.38l-1.13-.38-1.21-.33-.62-.18-.65-.14-1.31-.29-1.37-.21a25.77,25.77,0,0,0-2.8-.29,11,11,0,0,0-1.41-.06l-1.4,0-2.73.15-2.55.32c-.2,0-.4,0-.6.08l-.57.12-1.1.22c-.7.15-1.36.24-1.92.42s-1.06.28-1.47.39c-.83.21-1.31.31-1.31.31l1.19-.61c.39-.19.85-.42,1.4-.67a13.58,13.58,0,0,1,1.87-.72l1.09-.37.58-.19c.19-.06.4-.1.61-.15.82-.18,1.7-.4,2.61-.55s1.88-.23,2.85-.28h1.48a14.83,14.83,0,0,1,1.49,0,28.44,28.44,0,0,1,2.94.37c.48.08,1,.17,1.43.28l1.36.38.67.19.63.23,1.23.47a22.73,22.73,0,0,1,2.15,1c.32.18.64.34.93.52l.8.52c.5.32.91.65,1.25.91A11.09,11.09,0,0,1,139.43,51.54Z" style="fill:#9b6c42"/><path d="M91.34,106.48s7.65,5.64,15-.41c0,0-2.53,6.59-8.28,6.13A7.4,7.4,0,0,1,91.34,106.48Z" style="fill:#ffd1c5"/><path d="M80,97s18.9,6.57,36.08.4A20.91,20.91,0,0,1,98.86,108C88.78,108.69,78.8,97.22,80,97Z" style="opacity:0.6000000000000001;fill:url(#radial-gradient)"/><path d="M86,98.41s.83.27,2.28.67a10.58,10.58,0,0,0,1.2.29l1.41.27a15,15,0,0,0,1.61.26l1.77.21c.61.08,1.25.1,1.9.14l2,.08,2.1,0c.71,0,1.43,0,2.16-.1l2.17-.2c.73-.09,1.46-.21,2.18-.33s1.43-.25,2.13-.43,1.39-.35,2.07-.54c0,0-.73,0-2,.06l-1.08,0-1.27,0-1.46,0c-.52,0-1.06,0-1.63,0l-1.79,0H99.79c-.66,0-1.35,0-2.05,0l-2.17,0c-.75,0-1.5,0-2.28-.06s-1.57,0-2.36-.09-1.62-.07-2.45-.14Z" style="fill:#fffcfa"/><path d="M106,103.55a4.09,4.09,0,0,0-2.19.37l-.12,0a4.24,4.24,0,0,0-1.25.91c-.07.08-.23.24-.08.32a2.76,2.76,0,0,0,3.06-.55,1.39,1.39,0,0,0,.64-.77s0,0,0-.06l.09-.13C106.19,103.59,106.05,103.56,106,103.55Z" style="fill:#fffcfa"/><path d="M80.49,97.53s.53.26,1.48.66,2.31.92,4,1.45c.83.26,1.73.52,2.69.77s2,.45,3,.66,2.16.34,3.28.45,2.26.16,3.4.17a32,32,0,0,0,3.4-.14c.56,0,1.11-.11,1.65-.19l.82-.1.8-.15.78-.15.76-.17c.51-.11,1-.22,1.48-.36,1-.25,1.84-.55,2.67-.81l1.17-.44c.37-.13.73-.26,1-.41.65-.29,1.24-.49,1.7-.72.93-.44,1.47-.67,1.47-.67s-.46.37-1.29,1c-.41.32-1,.65-1.56,1s-1.34.76-2.13,1.19c-.41.18-.83.38-1.27.59s-.92.36-1.39.55-1,.36-1.51.52l-.78.24-.82.2-.83.2-.85.16-.86.16-.88.1a32.94,32.94,0,0,1-3.59.21,35.47,35.47,0,0,1-3.59-.25l-.88-.11L93,103c-.57-.1-1.13-.24-1.67-.36a31.6,31.6,0,0,1-5.78-2,27.28,27.28,0,0,1-3.76-2.11A12.52,12.52,0,0,1,80.49,97.53Z" style="fill:#ef9289"/><path d="M91.11,106.39a19.42,19.42,0,0,0,15.28-.2S99.16,114.15,91.11,106.39Z" style="fill:#ef9289"/><path d="M108.83,70.21s12-9.56,29.93,1.1C138.76,71.31,119.67,64.54,108.83,70.21Z" style="fill:#ffe6e3"/><path d="M109.62,60.71A17.9,17.9,0,0,1,127,52.83s12.63,1.38,12.43,10.78a148.64,148.64,0,0,1-14.87,2C116.23,66.4,111.54,64.27,109.62,60.71Z" style="opacity:0.6000000000000001;fill:url(#radial-gradient-2)"/><path d="M110.44,66.41l.22-.29c.14-.18.36-.46.66-.78a16.3,16.3,0,0,1,2.81-2.4,15.19,15.19,0,0,1,4.8-2.14,15,15,0,0,1,3-.42c.51,0,1,0,1.54,0s1,.07,1.54.17l.77.14c.25,0,.5.12.75.18s.5.12.74.2l.73.24c.48.15.94.36,1.4.55s.89.42,1.32.63l.64.33.6.36c.39.25.78.46,1.14.72l1,.73c.34.25.64.5.94.74a19.26,19.26,0,0,1,1.57,1.36l.64.59.51.52c.62.63,1,1,1,1s-.4-.31-1.08-.87l-.56-.47-.69-.51c-.49-.37-1-.79-1.66-1.2-.31-.21-.63-.44-1-.66l-1.07-.65c-.35-.24-.75-.43-1.14-.65l-.6-.32-.63-.3c-.42-.19-.84-.4-1.29-.56s-.89-.36-1.36-.5l-.69-.23c-.23-.07-.47-.12-.71-.18l-.72-.17-.72-.12a14.2,14.2,0,0,0-1.46-.18c-.49,0-1,0-1.45,0a15.11,15.11,0,0,0-2.81.32,17.27,17.27,0,0,0-2.55.77,18.89,18.89,0,0,0-2.16,1c-.64.38-1.22.74-1.72,1.1s-.91.69-1.23,1A13.52,13.52,0,0,0,110.44,66.41Z" style="fill:#f9b5aa"/><path d="M108.83,70.21s11.82-17.15,29.93,1.1C138.76,71.31,121.68,62.18,108.83,70.21Z" style="fill:#543129"/><path d="M133,67.09s4.55,1,7.74-5.27c0,0-.89,6.34-5.77,7Z" style="fill:#543129"/><path d="M129.12,64.9s5.35-.48,6.34-5c0,0,.27,3.44-4.15,6.26Z" style="fill:#543129"/><path d="M126.23,63.7c.06-.05,3.24-.54,3.7-3.06a4.07,4.07,0,0,1-2.3,3.83Z" style="fill:#543129"/><path d="M124.7,63.93a1.83,1.83,0,0,0,.47-.09.89.89,0,0,0,.24-.09,1.34,1.34,0,0,0,.26-.14,2.68,2.68,0,0,0,.54-.45A4.07,4.07,0,0,0,127,61.7a3.55,3.55,0,0,0,.19-1.76,4,4,0,0,1,0,.41,6.17,6.17,0,0,1-.26,1.07,5.71,5.71,0,0,1-.72,1.41,3.37,3.37,0,0,1-.63.68,3,3,0,0,1-.42.26A3.24,3.24,0,0,1,124.7,63.93Z" style="fill:#543129"/><path d="M131.46,66.73l.9-.18a3,3,0,0,0,.47-.12l.52-.2a5.63,5.63,0,0,0,.59-.24l.61-.34.32-.18.3-.23.62-.49c.2-.18.38-.4.57-.6a3.73,3.73,0,0,0,.54-.65c.16-.23.31-.47.48-.72l.36-.78c0-.12.11-.25.16-.38l.12-.42c.06-.25.12-.51.19-.79l-.31.71-.16.38c-.06.13-.16.27-.25.43s-.18.31-.28.48a2.73,2.73,0,0,1-.35.51c-.13.18-.26.36-.41.55s-.33.35-.49.54a5.85,5.85,0,0,1-.57.54l-.63.53c-.23.18-.48.32-.73.48l-.37.25-.42.2a6.1,6.1,0,0,1-.86.39Z" style="fill:#543129"/><path d="M83.47,70.21s-12-9.56-29.93,1.1C53.54,71.31,72.63,64.54,83.47,70.21Z" style="fill:#ffe6e3"/><path d="M82.68,60.71a17.92,17.92,0,0,0-17.39-7.88S52.66,54.21,52.85,63.61a149.2,149.2,0,0,0,14.87,2C76.07,66.4,80.76,64.27,82.68,60.71Z" style="opacity:0.6000000000000001;fill:url(#radial-gradient-3)"/><path d="M81.86,66.41a13.52,13.52,0,0,0-1-1c-.33-.29-.74-.62-1.24-1s-1.08-.72-1.72-1.1a17.4,17.4,0,0,0-2.16-1,17.14,17.14,0,0,0-2.54-.77,15.21,15.21,0,0,0-2.81-.32c-.48,0-1,0-1.46,0a14.35,14.35,0,0,0-1.45.18l-.73.12-.71.17c-.24.06-.48.11-.71.18l-.7.23c-.47.14-.91.32-1.35.5s-.88.37-1.3.56l-.62.3-.6.32c-.39.22-.79.41-1.15.65l-1.06.65c-.34.22-.66.45-1,.66-.63.41-1.18.83-1.67,1.2-.24.18-.47.36-.69.51l-.56.47c-.68.56-1.08.87-1.08.87s.34-.37,1-1l.52-.52.63-.59c.46-.42,1-.9,1.58-1.36.3-.24.6-.49.93-.74l1.05-.73c.35-.26.75-.47,1.14-.72l.6-.36.64-.33c.42-.21.86-.44,1.32-.63a14.55,14.55,0,0,1,1.4-.55l.72-.24c.25-.08.5-.13.75-.2s.49-.13.75-.18l.76-.14c.51-.1,1-.11,1.54-.17s1,0,1.55,0a14.87,14.87,0,0,1,7.76,2.56,15.79,15.79,0,0,1,2.8,2.4c.31.32.52.6.67.78Z" style="fill:#f9b5aa"/><path d="M83.47,70.21s-11.83-17.15-29.93,1.1C53.54,71.31,70.61,62.18,83.47,70.21Z" style="fill:#543129"/><path d="M59.34,67.09s-4.55,1-7.73-5.27c0,0,.89,6.34,5.76,7Z" style="fill:#543129"/><path d="M63.17,64.9s-5.34-.48-6.34-5c0,0-.27,3.44,4.16,6.26Z" style="fill:#543129"/><path d="M66.06,63.7c0-.05-3.23-.54-3.7-3.06a4.06,4.06,0,0,0,2.31,3.83Z" style="fill:#543129"/><path d="M67.6,63.93a1.83,1.83,0,0,1-.47-.09.78.78,0,0,1-.24-.09,1.4,1.4,0,0,1-.27-.14,2.65,2.65,0,0,1-.53-.45,4.09,4.09,0,0,1-.84-1.46,3.79,3.79,0,0,1-.19-1.76,3,3,0,0,0,0,.41,4.74,4.74,0,0,0,.26,1.07,5.65,5.65,0,0,0,.71,1.41,3.16,3.16,0,0,0,.64.68,2.39,2.39,0,0,0,.41.26A3.86,3.86,0,0,0,67.6,63.93Z" style="fill:#543129"/><path d="M60.83,66.73l-.9-.18a2.85,2.85,0,0,1-.46-.12l-.53-.2a5.5,5.5,0,0,1-.58-.24l-.61-.34-.32-.18c-.11-.08-.2-.16-.31-.23s-.4-.33-.62-.49-.38-.4-.57-.6a3.28,3.28,0,0,1-.53-.65q-.24-.34-.48-.72c-.13-.25-.24-.52-.36-.78s-.12-.25-.17-.38-.07-.27-.11-.42-.13-.51-.2-.79c0,0,.13.27.32.71l.16.38c.06.13.16.27.24.43l.28.48a3.31,3.31,0,0,0,.35.51l.41.55c.14.18.33.35.5.54a4.79,4.79,0,0,0,.56.54l.64.53c.22.18.48.32.72.48l.38.25.41.2a6.66,6.66,0,0,0,.86.39Z" style="fill:#543129"/></g><path d="M48.52-23.63s-.28.23-.78.68-1.22,1.14-2.11,2A76.25,76.25,0,0,0,38.81-13a68.31,68.31,0,0,0-3.92,5.75l-1,1.61C33.6-5.1,33.31-4.53,33-4c-.63,1.13-1.19,2.33-1.8,3.53a59.89,59.89,0,0,0-3,7.73c-.46,1.34-.77,2.73-1.13,4.11-.19.69-.28,1.4-.43,2.1s-.3,1.4-.38,2.12L26,17.76c0,.35-.1.71-.13,1.06l-.07,1.07c0,.72-.09,1.43-.14,2.14s0,1.41,0,2.12,0,1.41,0,2.11l.15,2.08c.06,1.39.31,2.73.49,4.07s.5,2.61.75,3.89A36.43,36.43,0,0,0,28,40c.17.6.34,1.18.5,1.76s.4,1.12.6,1.67L29.66,45c.19.53.37,1.05.6,1.54.89,2,1.6,3.82,2.45,5.36s1.47,3,2.15,4l2,3.43L34.73,56c-.72-1-1.42-2.41-2.28-4s-1.68-3.36-2.6-5.32a15,15,0,0,1-.63-1.54c-.21-.53-.41-1.07-.62-1.62L28,41.9c-.17-.58-.35-1.16-.53-1.76-.36-1.19-.77-2.41-1-3.7-.14-.63-.29-1.28-.44-1.93s-.25-1.32-.35-2c-.19-1.34-.45-2.71-.52-4.11-.05-.7-.11-1.4-.16-2.11s0-1.42-.05-2.13,0-1.44,0-2.16.08-1.44.13-2.16l.06-1.09c0-.36.09-.72.13-1.08l.27-2.16c.09-.73.27-1.43.39-2.15s.26-1.43.45-2.13c.38-1.39.7-2.8,1.17-4.15a62.07,62.07,0,0,1,3.09-7.8c.62-1.21,1.18-2.43,1.86-3.56.32-.56.63-1.13,1-1.68l1-1.61c1.34-2.09,2.71-4,4.06-5.72s2.65-3.2,3.85-4.5S44.6-20.16,45.52-21s1.68-1.51,2.2-1.95Z" style="fill:#9b6c3f"/><path d="M64.15-3.68s-.06.92,0,2.52c0,.8,0,1.77.12,2.88s.19,2.37.35,3.73.4,2.82.72,4.36c.14.77.35,1.55.53,2.35s.41,1.61.68,2.42c.13.41.25.82.38,1.24s.29.82.44,1.23c.28.83.65,1.64,1,2.47a39.21,39.21,0,0,0,2.52,4.8A35.05,35.05,0,0,0,74,28.71c.6.67,1.2,1.32,1.82,1.95l1,.88a10.93,10.93,0,0,0,1,.85,34.76,34.76,0,0,0,4,2.85c.68.38,1.33.78,2,1.12l1.93.91c.62.29,1.25.49,1.82.72a15.48,15.48,0,0,0,1.67.6l1.49.46.67.2.61.14,2.46.56-2.48-.46-.62-.12-.68-.18-1.51-.4c-.55-.13-1.1-.34-1.7-.54s-1.22-.41-1.85-.69l-2-.88c-.66-.33-1.33-.72-2-1.09a30.43,30.43,0,0,1-4.1-2.83,11.26,11.26,0,0,1-1-.85l-1-.9c-.63-.63-1.25-1.28-1.86-2a35.15,35.15,0,0,1-3.25-4.44,38.85,38.85,0,0,1-2.52-4.88c-.33-.84-.7-1.67-1-2.51-.14-.42-.29-.84-.43-1.25s-.26-.84-.38-1.25c-.26-.82-.45-1.65-.66-2.45S65,10.66,64.9,9.88c-.29-1.55-.48-3-.63-4.4A57.15,57.15,0,0,1,64-1.16C64-2.76,64.15-3.68,64.15-3.68Z" style="fill:#9b6c3f"/><path d="M86.65,21.3s.36.65,1.06,1.76,1.76,2.66,3.12,4.45c.69.89,1.44,1.84,2.29,2.8s1.78,2,2.76,2.95c.51.49,1,1,1.55,1.48s1.08,1,1.64,1.43,1.16.91,1.74,1.38,1.2.87,1.83,1.28,1.24.83,1.89,1.18l1,.56,1,.51a32.17,32.17,0,0,0,4,1.68c.65.24,1.32.41,2,.61s1.29.32,1.92.47a28.81,28.81,0,0,0,3.57.5l.82.07h.79l1.45,0c.91-.06,1.7-.07,2.36-.14l2-.25-2,.35c-.65.1-1.45.15-2.36.24-.46,0-1,0-1.47,0h-.79l-.83-.05a29.24,29.24,0,0,1-3.63-.41c-.63-.14-1.29-.26-2-.43s-1.34-.36-2-.59a33.75,33.75,0,0,1-4-1.68l-1-.5-1-.56c-.66-.36-1.29-.79-1.93-1.19s-1.23-.87-1.84-1.31-1.19-.92-1.75-1.41-1.12-1-1.65-1.47-1-1-1.55-1.5c-1-1-1.9-2-2.72-3s-1.57-2-2.24-2.88a51.83,51.83,0,0,1-3-4.58C87,22,86.65,21.3,86.65,21.3Z" style="fill:#9b6c3f"/><path d="M62.07-4.17S61.19-3,59.77-1,56.4,4.13,54.28,7.88a105.49,105.49,0,0,0-6.35,13.24A80.79,80.79,0,0,0,45.27,29a64.25,64.25,0,0,0-1.8,8.33,52.8,52.8,0,0,0-.61,8.49A44.64,44.64,0,0,0,43.73,54,41.63,41.63,0,0,0,46,61.31a40.23,40.23,0,0,0,3.22,6.11,45.76,45.76,0,0,0,3.51,4.69c1.14,1.32,2.2,2.42,3.1,3.29l1.22,1.15.94.82.78.68L58,77.4l-1-.78-1.26-1.11c-.94-.84-2-1.91-3.23-3.2a42,42,0,0,1-3.65-4.65,39.33,39.33,0,0,1-3.38-6.13,37.27,37.27,0,0,1-2.41-7.44,44.14,44.14,0,0,1-.94-8.31,52.17,52.17,0,0,1,.57-8.62,65.74,65.74,0,0,1,1.86-8.42,82.88,82.88,0,0,1,2.74-7.88c1-2.51,2.12-4.88,3.24-7.09s2.26-4.26,3.36-6.12C56.09,3.93,58.16,1,59.64-1S62.07-4.17,62.07-4.17Z" style="fill:#9b6c3f"/><path d="M149.63,49.11s-1-.6-2.8-1.73-4.27-2.75-7.19-4.84c-1.46-1-3-2.2-4.66-3.44s-3.35-2.58-5.08-4-3.49-2.93-5.26-4.49c-.88-.78-1.75-1.59-2.64-2.39s-1.74-1.63-2.6-2.46c-1.71-1.68-3.4-3.39-5-5.12l-1.2-1.29L112.05,18q-.58-.64-1.14-1.29l-1.1-1.3c-.73-.85-1.42-1.71-2.09-2.56s-1.31-1.69-1.92-2.52l-.91-1.22c-.28-.41-.57-.81-.84-1.21-.56-.8-1.1-1.56-1.58-2.32s-1-1.47-1.39-2.17l-1.18-2C99.17.18,98.59-1,98.09-1.87l-1.45-3,1.53,2.91c.53.9,1.14,2,1.9,3.26l1.24,2c.44.69.93,1.39,1.42,2.14s1,1.5,1.61,2.28l.86,1.19.92,1.21c.62.81,1.27,1.65,2,2.47s1.36,1.7,2.1,2.54l1.1,1.29,1.14,1.28L113.58,19l1.2,1.28c1.6,1.72,3.29,3.4,5,5.07l2.59,2.47c.88.8,1.74,1.61,2.62,2.39,1.75,1.57,3.49,3.09,5.22,4.51,3.44,2.87,6.73,5.45,9.62,7.58s5.32,3.85,7,5S149.63,49.11,149.63,49.11Z" style="fill:#9b6c3f"/><path d="M90.26-18s1.25.68,3.37,2,5.11,3.25,8.55,5.78c1.73,1.27,3.57,2.67,5.48,4.2s3.89,3.19,5.9,5,4,3.65,6,5.62l1.51,1.49,1.48,1.52c1,1,2,2.07,2.92,3.12s1.89,2.14,2.83,3.2l2.7,3.26c.87,1.11,1.74,2.2,2.57,3.3s1.64,2.19,2.4,3.28,1.53,2.17,2.23,3.25l2,3.18,1.83,3.06c.58,1,1.1,2,1.62,2.92s1,1.84,1.42,2.72.85,1.7,1.22,2.48c.7,1.59,1.35,3,1.83,4.11l1.46,3.63s-.56-1.31-1.55-3.59c-.5-1.14-1.18-2.5-1.92-4.06-.39-.78-.83-1.59-1.28-2.45q-.34-.65-.69-1.32c-.24-.46-.51-.9-.77-1.37-.53-.92-1.06-1.9-1.65-2.89l-1.86-3-2.07-3.14c-.72-1.06-1.48-2.12-2.24-3.22s-1.6-2.16-2.41-3.26-1.71-2.17-2.57-3.27l-2.71-3.24c-.94-1.06-1.86-2.14-2.83-3.18S123.17,9,122.18,8l-1.47-1.52L119.22,5c-2-2-4-3.85-6-5.63s-3.93-3.46-5.83-5-3.71-3-5.41-4.26c-3.41-2.56-6.33-4.6-8.42-6S90.26-18,90.26-18Z" style="fill:#9b6c3f"/><path d="M90.44-20.79a37.3,37.3,0,0,1,4.13.88c1.31.34,2.88.79,4.65,1.41s3.75,1.38,5.85,2.33,4.33,2.11,6.64,3.42l1.72,1.05.87.53.86.58c.58.39,1.17.77,1.75,1.18l1.73,1.28c.59.42,1.16.88,1.72,1.34l1.72,1.4,1.68,1.5.84.75.81.8L127-.74c.53.55,1,1.13,1.57,1.69,1.06,1.11,2,2.32,3,3.5.51.59.95,1.21,1.41,1.83l1.37,1.86c.87,1.27,1.71,2.55,2.53,3.82s1.55,2.6,2.27,3.91,1.37,2.62,2,3.92l1.74,3.88c.52,1.29,1,2.57,1.46,3.81l.36.92c.1.31.2.62.29.92l.59,1.81c.19.59.38,1.17.56,1.75s.32,1.14.47,1.7c.3,1.11.58,2.18.85,3.2.15.51.25,1,.35,1.5s.2,1,.29,1.42c.19.92.37,1.78.54,2.57s.25,1.53.37,2.2l.66,4.17s-.28-1.51-.75-4.16c-.13-.66-.22-1.4-.42-2.18s-.38-1.64-.59-2.56q-.16-.68-.33-1.41c-.11-.48-.22-1-.37-1.48-.29-1-.59-2.08-.9-3.19-.16-.55-.29-1.12-.49-1.69l-.58-1.73c-.2-.59-.4-1.19-.61-1.79l-.3-.92-.36-.91c-.49-1.23-1-2.49-1.51-3.77L140.77,20c-.64-1.28-1.33-2.57-2-3.88s-1.51-2.57-2.27-3.87S134.83,9.71,134,8.45c-.46-.61-.92-1.22-1.37-1.84s-.91-1.23-1.41-1.81c-1-1.18-1.92-2.39-3-3.49-.52-.56-1-1.13-1.55-1.68s-1.07-1.07-1.61-1.6l-.8-.79-.83-.76L121.76-5l-1.7-1.4c-.56-.46-1.13-.92-1.71-1.34L116.64-9l-1.73-1.19-.85-.59-.86-.54-1.7-1.07c-2.27-1.32-4.47-2.51-6.56-3.48s-4-1.79-5.79-2.42-3.31-1.15-4.6-1.51A36.65,36.65,0,0,0,90.44-20.79Z" style="fill:#9b6c3f"/><path d="M149.66,49.13s.11-1.84.05-5.07c0-1.61-.11-3.56-.27-5.8s-.43-4.75-.8-7.49-.9-5.67-1.59-8.75a94.66,94.66,0,0,0-2.73-9.55,72.6,72.6,0,0,0-4.14-9.76,61.37,61.37,0,0,0-5.83-9.25,54.21,54.21,0,0,0-7.46-8,51.53,51.53,0,0,0-8.7-6,54.45,54.45,0,0,0-9.08-3.95,64.73,64.73,0,0,0-8.61-2.18c-1.36-.22-2.66-.45-3.91-.59-.63-.07-1.23-.16-1.83-.21L93-27.61c-1.12-.11-2.17-.14-3.14-.19s-1.86-.05-2.66-.06c-1.62,0-2.88,0-3.74,0l-1.33,0,1.32-.06c.87,0,2.13-.11,3.75-.11.8,0,1.69,0,2.67,0s2,0,3.14.13l1.74.12c.59,0,1.2.12,1.83.18,1.26.11,2.56.34,3.93.54a65.76,65.76,0,0,1,8.69,2.11,51.52,51.52,0,0,1,9.18,3.91,51.82,51.82,0,0,1,8.8,6,54.84,54.84,0,0,1,7.57,8,62.12,62.12,0,0,1,5.85,9.35,74.66,74.66,0,0,1,4.14,9.84,88.32,88.32,0,0,1,2.66,9.62c.67,3.1,1.16,6.06,1.51,8.8a106,106,0,0,1,.86,13.33C149.81,47.29,149.66,49.13,149.66,49.13Z" style="fill:#9b6c3f"/><path d="M149.63,49.11s-1.35-.22-3.66-.8c-1.17-.29-2.56-.68-4.16-1.16s-3.38-1.07-5.29-1.81c-1-.35-2-.77-3-1.18s-2.07-.87-3.13-1.38c-2.15-1-4.35-2.1-6.6-3.33s-4.5-2.64-6.72-4.18-4.41-3.17-6.53-4.9c-1-.89-2.07-1.79-3.08-2.71L106,26.25c-.49-.47-1-.93-1.44-1.43-.92-1-1.88-1.92-2.72-2.94s-1.74-2-2.51-3-1.6-2-2.28-3l-1-1.51-.51-.74L95,12.87c-.61-1-1.24-2-1.79-2.92l-1.55-2.8c-.26-.45-.47-.9-.68-1.34l-.62-1.3c-.4-.85-.81-1.63-1.1-2.41L88.4-.06c-.27-.67-.53-1.28-.71-1.85L86.46-5.46l1.32,3.52c.19.56.46,1.17.75,1.82s.61,1.37.94,2.13.74,1.55,1.16,2.38S91.45,6.12,92,7l1.57,2.77c.57.94,1.2,1.89,1.83,2.88l.48.74.52.73,1.06,1.48c.69,1,1.5,2,2.28,3s1.65,2,2.51,3,1.8,1.93,2.72,2.91c.45.49.94.95,1.43,1.41l1.47,1.4c1,.9,2,1.8,3.07,2.68,2.11,1.72,4.25,3.4,6.47,4.9s4.46,2.9,6.67,4.18c1.12.6,2.21,1.23,3.31,1.78l1.62.84,1.6.77c1,.52,2.1,1,3.1,1.41s2,.86,2.95,1.22c1.9.75,3.67,1.37,5.24,1.91s3,.95,4.12,1.26C148.29,48.86,149.63,49.11,149.63,49.11Z" style="fill:#9b6c3f"/><path d="M76.65,85.89a5.73,5.73,0,0,0-2.18-3,1.25,1.25,0,0,0-.39-1.72,7.32,7.32,0,0,1-.68-.46l1,.24A1.23,1.23,0,0,0,75,78.63l-3.94-1a1.25,1.25,0,0,0-1.53,1.42,6.57,6.57,0,0,0-2.49-.48,1.29,1.29,0,0,0-.83.34,17.84,17.84,0,0,0-4-1.77,1.24,1.24,0,0,0-1.29.44c-.37-.2-.74-.38-1.12-.56-1-.46-2.51.59-1.69,1.68a21.41,21.41,0,0,0,2.47,2.8,3.26,3.26,0,0,0,0,.33C60.38,83.92,62,86.17,64,87.37c.06.13.14.26.21.38a5.49,5.49,0,0,0,2,1.87c.25.25.51.47.75.67a1.28,1.28,0,0,0,1.21.29,1.14,1.14,0,0,0,.11.11,4.09,4.09,0,0,0,3.51,1,20.68,20.68,0,0,0,1.32,1.84,1.24,1.24,0,0,0,2.1-.87A8.23,8.23,0,0,0,74.54,90h0a1.24,1.24,0,0,0,1.81-.73,5.43,5.43,0,0,0,0-2.28A1.23,1.23,0,0,0,76.65,85.89Z" style="fill:#efd4bb"/><path d="M76.6,85.9l-.16-.43-.2-.42-.23-.4-.26-.38-.3-.35-.32-.33-.35-.29L74.41,83,74.34,83l0-.1a1.18,1.18,0,0,0,.1-.3,1.1,1.1,0,0,0,0-.16v-.16a.77.77,0,0,0,0-.15.4.4,0,0,0,0-.15.83.83,0,0,0-.12-.27.5.5,0,0,0-.1-.11s0-.08-.1-.1L74,81.41l-.08,0-.07,0-.6-.36-1.14-.69,1.33.27.69.14c.11,0,.26.06.32.06h.18c.06,0,.08,0,.13,0a1.19,1.19,0,0,0,.23-.07,1,1,0,0,0,.21-.15,1,1,0,0,0,.26-.45,1,1,0,0,0,0-.51.65.65,0,0,0-.23-.37,1,1,0,0,0-.2-.11L74.78,79l-.69-.16c-.92-.21-1.84-.45-2.76-.69L71,78.06l-.29,0a1,1,0,0,1-.18,0c-.07,0-.15,0-.21.1l-.1.07a.73.73,0,0,0-.08.09.69.69,0,0,0-.13.2.78.78,0,0,0-.08.23c0,.08,0,.17,0,.25l0,.56-.44-.16c-.26-.09-.51-.21-.78-.28L68.25,79l-.41-.07a2.7,2.7,0,0,0-.41,0l-.2,0H67l-.2,0-.14.05-.16.07-.14.1-.16.11-.13-.08c-.42-.24-.82-.51-1.25-.72l-.65-.33-.66-.29c-.44-.2-.91-.33-1.36-.49l-.17,0h-.15a1.12,1.12,0,0,0-.31,0,1.13,1.13,0,0,0-.52.37l-.08.1-.11-.06-.92-.45-.22-.1a1.12,1.12,0,0,0-.23-.06,1.24,1.24,0,0,0-.43,0,1.41,1.41,0,0,0-.77.45,1,1,0,0,0-.17.37.7.7,0,0,0,0,.38,1.62,1.62,0,0,0,.1.18l.06.08.08.1.33.39.67.78c.22.26.48.48.71.72l.72.7.13.12,0,.19,0,.2V82a2.68,2.68,0,0,0,0,.42,1.78,1.78,0,0,0,.07.39,2.6,2.6,0,0,0,.1.4,3,3,0,0,0,.14.39,3.17,3.17,0,0,0,.17.38c.12.24.27.48.42.72a8.29,8.29,0,0,0,1.09,1.28l.64.55c.23.16.46.32.7.47l.1.06.07.13.19.32v0h0l0,0h0l0,0,.06.08.12.16a2.61,2.61,0,0,0,.23.3l.24.25a5,5,0,0,0,.55.46,2,2,0,0,0,.3.21l.3.19.06,0,.05,0,.41.36.21.19,0,0,0,0h0l-.05,0h0l.12.08.12.08a.11.11,0,0,0,.09,0l.06,0s0,0,.06,0h.17l.15,0,.38,0,.16.17.06.07h0l0,0h0l0,0,.19.16.18.13.17.1a3.18,3.18,0,0,0,.37.18,2.74,2.74,0,0,0,.4.15,3.2,3.2,0,0,0,.42.1,3,3,0,0,0,.43,0h.42l.42-.06.34,0,.18.25c.38.53.74,1.06,1.11,1.59l.13.2,0,0h0c-.06-.07,0,0,0,0h0l0,0,.08.08a1,1,0,0,0,.21.1.9.9,0,0,0,.65-.11.82.82,0,0,0,.43-.51,1,1,0,0,0,0-.15l0-.25c0-.16,0-.33,0-.49l-.07-.46c0-.16-.07-.31-.1-.47-.07-.31-.18-.61-.28-.92l-.19-.64.5.38a1.83,1.83,0,0,0,.22.13,2.09,2.09,0,0,0,.21,0h.24l.24-.06.23-.11.2-.16.16-.2.11-.22c0-.19.08-.38.11-.56s0-.37.05-.55,0-.38,0-.57L76.36,87v0l0,0,.15-.23.09-.26,0-.28Zm.09,0,.06.3,0,.3-.1.29-.16.26,0,0,.08.57,0,.58c0,.19,0,.39,0,.58s-.06.38-.09.57l-.11.3-.17.26-.23.22-.27.16-.31.11c-.11,0-.21,0-.33,0s-.25,0-.35-.07l-.28-.13.31-.25c.12.31.27.61.37.94,0,.16.12.32.16.49l.12.51c0,.17.06.32.09.49l0,.24a2,2,0,0,1,0,.35,1.54,1.54,0,0,1-.68,1,1.72,1.72,0,0,1-1.24.3,1.48,1.48,0,0,1-.68-.31l-.09-.09,0-.05h0l0,0h0l0,0-.15-.2c-.4-.54-.82-1.07-1.21-1.62l.52.22-.55.08c-.19,0-.37,0-.56,0a5,5,0,0,1-.54-.06c-.18,0-.36-.06-.54-.11s-.35-.11-.52-.18-.33-.14-.5-.25l-.26-.16a1.4,1.4,0,0,1-.22-.16L68,91.16l0,0,0,0,0,0h0l-.1-.11.53.14-.41.07-.41,0a1,1,0,0,1-.21-.06L67.05,91a.65.65,0,0,1-.17-.09l-.12-.08-.12-.08,0,0h0l0,0-.05-.05-.23-.2-.44-.4.1.08-.36-.24c-.12-.09-.25-.16-.36-.25s-.44-.36-.64-.59l-.31-.34c-.11-.12-.16-.22-.25-.33l-.11-.17-.06-.08,0,0,0,0h0v0l-.2-.38.17.19c-.26-.17-.52-.36-.77-.55s-.48-.41-.7-.63a7.32,7.32,0,0,1-1.62-2.31c-.06-.15-.13-.29-.18-.44a4.5,4.5,0,0,1-.3-1.43,2.45,2.45,0,0,1,0-.47v-.11a1.15,1.15,0,0,0,0-.14l0-.24.1.31-.7-.78c-.23-.27-.48-.51-.68-.79l-.62-.82L58,79l-.07-.1-.09-.13a1.82,1.82,0,0,1-.13-.28,1.09,1.09,0,0,1,0-.62A1.27,1.27,0,0,1,58,77.3a1.85,1.85,0,0,1,1-.53,1.68,1.68,0,0,1,.59,0,1.6,1.6,0,0,1,.26.08l.24.13.92.46-.19,0a1.53,1.53,0,0,1,.3-.27,1.55,1.55,0,0,1,.36-.19,1.35,1.35,0,0,1,.41-.07h.21l.19,0,.7.23c.24.07.47.16.7.25l.69.26.67.31c.45.19.88.43,1.33.65l-.29,0,.19-.16.23-.13a2.15,2.15,0,0,1,.27-.1l.22,0a1.14,1.14,0,0,1,.25,0h.23a3.39,3.39,0,0,1,.45,0l.46,0,.44.1a8.6,8.6,0,0,1,.87.24l-.49.4a3.39,3.39,0,0,1,0-.45,2.12,2.12,0,0,1,.11-.45,1.27,1.27,0,0,1,.23-.41l.15-.18.19-.14a1.53,1.53,0,0,1,.42-.22,2.18,2.18,0,0,1,.52-.09l.18,0h.23l.35.08c.92.23,1.84.45,2.75.69l.69.18.4.14a1.45,1.45,0,0,1,.4.26,1.47,1.47,0,0,1,.46.83,1.66,1.66,0,0,1-.09.89,1.61,1.61,0,0,1-.52.72,1.32,1.32,0,0,1-.84.31,1.58,1.58,0,0,1-.41,0c-.17,0-.24-.07-.37-.1l-.68-.2.19-.42.56.41.14.1.16.13a.64.64,0,0,1,.13.15.57.57,0,0,1,.11.16,1.09,1.09,0,0,1,.14.38.58.58,0,0,1,0,.19c0,.06,0,.13,0,.19l0,.19a1.21,1.21,0,0,1,0,.18,1.84,1.84,0,0,1-.15.35l0-.15.38.3.34.32.32.35.28.38.26.39.23.41.19.43Z" style="fill:#e8bd9a"/><g id="_Group_3" data-name="&lt;Group&gt;"><path d="M50.77,171.73a.19.19,0,0,1,.07-.08l1.23-1.37a1.51,1.51,0,0,1,.17-.2c2.31-2.62,4.44-5.34,4.5-7.83,0-3.61-1.63-7.07-2.31-11.34-.8-5.08-2.84-9.51-4.45-14.19a35.32,35.32,0,0,1-1-4.2L48.8,132c-.83-3.16-1.39-6.37-2.7-9.3l-.07-.16c-2-4.46-3-5.58-.66-10,.07-.15.14-.28.22-.43,1.93-3.71,4.2-7.2,6.15-10.72.6-1.1,1.18-2.2,1.73-3.31,1.17-2.35,2.27-4.72,3.39-7,1.12-2.43,2-5.91,3.69-7.9h0a2.53,2.53,0,0,1,1.34-.46c2.42,0,3.13,5,2.69,7.24h0a1.43,1.43,0,0,1,1.92-.8h0a3.12,3.12,0,0,1,.94.52c2.27,1.72,1.25,6.12.21,8.29,0,.09-.09.17-.12.26,0-.08.08-.16.12-.26a2.09,2.09,0,0,1,2.4-.93c2,.63,1.7,3.19,1.77,4.86,0,4.84-2.16,9.81-4.1,14.44-.1-.47-.3.29-.48,1.17s-.31,1.62-.35,1.84c0,4.17,2.75,8.9,4.56,12.51a91.78,91.78,0,0,0,8.77,14.51c1.45,1.79,3.11,3.52,3.41,6,.56,4.14-2.44,8.83-3.91,12.46a21.08,21.08,0,0,0-1.51,2.61h0c-3.38,5.09-8.7,10.59-11.81,15.24C52.52,204,31.79,232,18.49,253.92l-.18.27c-1.3,2.08-3.46,5.49-4,6.32C7.1,271.31-11,285.32-23.15,274.35c-8-7-5.3-19.67.19-27.56a82.13,82.13,0,0,1,8.26-9.26s0,0,0,0c10.2-10.87,28.57-27.86,38.25-36.84,6.59-6.14,11.89-12.69,18.71-20.34C45.69,176.5,47.55,175.21,50.77,171.73Z" style="fill:#fff1e3"/><path d="M45.54,80.71c7.25-.91,8.64,12.65,7.93,17.37-.55,1.11-1.13,2.21-1.73,3.31-2,3.52-4.22,7-6.15,10.72a40.44,40.44,0,0,0,1.12-6.89C47.8,95.93,47.38,90,45.54,80.71Z" style="fill:#fff1e3"/></g><path d="M-12.83,281.36c-3.79-1.05-8.79-4.45-12.4-9,5.67.58,19.34-1.85,27.14-9.14,12.38-11.56,66.27-90,71.67-98.23s1-23.76-4.29-31.21C63.77,126,64.08,118,65.86,113.89S71.71,99.63,69,97.13c0,0,2.84-.49,2.82,3a22.35,22.35,0,0,1-1.47,9.81c-2,5.2-4.8,9.14-2.35,14.52,0,0,7.55,15.51,11.32,20.73,0,0,6.62,5.26,3.74,12.17s-5.3,12.05-11.14,18.4c0,0-8.15,10-10.24,14.24S44.8,214.37,41.56,219.08,22.8,246.92,20.64,250.42s-8.19,18-17.45,23.76c0,0-6.07,6.6-10.25,7.92A17.22,17.22,0,0,1-12.83,281.36Z" style="fill:#ffe2dc"/><path d="M67.45,133.91l-.38-.71A1.39,1.39,0,0,1,67,133a2.15,2.15,0,0,1-.1-.27A1.57,1.57,0,0,0,65,131.67a1.62,1.62,0,0,0-.65.4A49,49,0,0,1,62.8,125a50.71,50.71,0,0,0-1.94-5.62A10.83,10.83,0,0,1,60,116.5a1.54,1.54,0,0,0,3-.59,1.6,1.6,0,0,0,.22-1.9,1.57,1.57,0,0,0-2.12-.54l-.12.08c1.57-2.27,3.43-7.31,4.45-8.53s2.24-7,2.24-7a30.75,30.75,0,0,0,1-3c1.35-4.45-2.11-5.82-2.11-5.82,3.71,2.86-9.13,22.23-8.46,27.73.58,4.78,5.05,13.1,6.2,15.19a1.49,1.49,0,0,0-.35,1.46,12,12,0,0,0,.89,1.92,1.54,1.54,0,0,0,2.12.53A1.57,1.57,0,0,0,67.45,133.91Z" style="fill:#ffe2dc"/><path d="M51.88,119s.87,3.4-.16-.5a9.26,9.26,0,0,1-.26-1.43,6.66,6.66,0,0,0,.31.85,1.55,1.55,0,0,0,2.66-1.59c.18.4,0,0,0-.12a.13.13,0,0,1,0-.06.43.43,0,0,1,0-.05.13.13,0,0,0,0-.06l.06-.11a1.54,1.54,0,0,0-2.55-1.7,15.85,15.85,0,0,1,1.88-2.79,17.55,17.55,0,0,0,2.38-4.64c.72-2,2.23-3.64,3.06-5.56s3.4-7.14,3.85-8.06c0-.1.1-.21.16-.33.5-1,1.35-2.87,1.35-2.87.75-7-2.7-7.24-2.7-7.24C65.63,86.4,51,109.07,49.19,114.1s6.24,13.5,6.24,13.5C55.06,125.51,51.88,119,51.88,119Z" style="fill:#ffe2dc"/><path d="M45.57,80.76s4.5-1,6.65,5.68c0,0,2.11,8,1.51,11.11l-7,12.44S54.6,82.63,45.57,80.76Z" style="fill:#ffe2dc"/><path d="M58.57,136.91a1.57,1.57,0,0,1-2.12-.53,4.36,4.36,0,0,1-.72-3.21A1.54,1.54,0,0,1,57.59,132a1.58,1.58,0,0,1,1.15,1.86c.06-.5,0,0,0,.14a.25.25,0,0,0,0,.08s0,.06,0,.1l.07.21a3,3,0,0,0,.24.38A1.55,1.55,0,0,1,58.57,136.91Z" style="fill:#ffe2dc"/><path d="M52.72,138.06a1.61,1.61,0,0,1-2.13-.54,4.45,4.45,0,0,1-.71-3.22,1.57,1.57,0,0,1,1.86-1.15A1.59,1.59,0,0,1,52.88,135c.07-.52,0,0,0,.13a.19.19,0,0,0,0,.07.3.3,0,0,0,0,.1,1.72,1.72,0,0,0,.07.21c.07.14.15.27.23.4A1.55,1.55,0,0,1,52.72,138.06Z" style="fill:#ffe2dc"/><path d="M47.13,117.08a1.31,1.31,0,0,1-.07-.27c0-.12,0-.26,0-.39h0s0-.06,0-.1a1.54,1.54,0,0,0-2.3-2.06,3.63,3.63,0,0,0-.6,3.68,1.55,1.55,0,1,0,3-.86Z" style="fill:#ffe2dc"/><path d="M45.57,80.76s3.1-.19,3.93,5.84c0,0-1.16,2.79-2.73,1.45Z" style="fill:#fffcfa"/><path d="M61.89,82.74s1.64,2.51-1.29,6.37c0,0-2.23,2.94-3.19.21,0,0,2.05-6.37,4.21-6.55Z" style="fill:#fffcfa"/><path d="M66.51,89.2s2.32,2-1.65,7.59c0,0-3,2.09-3.33-.33s-.07.12-.07.12,2.58-5.08,2.94-6,.08-.15.08-.15.14-.73.35-.89A1.4,1.4,0,0,1,66.51,89.2Z" style="fill:#fffcfa"/><path d="M68.87,97.07s1.58.38,1,4.71a10.94,10.94,0,0,1-1.55,4s-2.73,1.21-3-.71A31,31,0,0,0,67,100.85a11.09,11.09,0,0,1,.44-2.45C67.66,98,68.45,97,68.87,97.07Z" style="fill:#fffcfa"/><path d="M46.9,89.11s.34,18.83-1.31,23C45.59,112.11,51,94.72,46.9,89.11Z" style="fill:#fffcfa"/><path d="M56.57,91.68c0-.31-5.58,11.92-7.64,14.87s-4.33,6.14-4.91,8.92C44,115.47,57.58,97.41,56.57,91.68Z" style="fill:#fffcfa"/><path d="M61.24,97.33c-.35-.46-4.83,11-8.27,15.48l-.34.42C49.15,117.4,64.45,101.6,61.24,97.33Z" style="fill:#fffcfa"/><path d="M44.85,119.9c-.19-.17,2.48,6.11,3.08,8.52s1.35,5,1.58,6.24C49.51,134.66,50.19,124.66,44.85,119.9Z" style="fill:#fffcfa"/><path d="M51.88,119s3.58,7.4,3.76,9.41c0,0,0,2.24,0,4C55.66,132.36,59.16,127,51.88,119Z" style="fill:#fffcfa"/><path d="M60.32,117.47s1.27,3.61,1.72,5c0,0,1.49,3.06,1,4.81a15.16,15.16,0,0,0,1.32,5,11.14,11.14,0,0,1-.54-4.62C64.2,125.67,62,118.59,60.32,117.47Z" style="fill:#fffcfa"/><path d="M-18.68,241.45c4.4-4.89,9.38-9.5,9.38-9.5,2.14-2.17,17.48-16.92,19.69-19s7.51-7,10.86-10.22,15.22-15.79,15.22-15.79c2.72-3.09,15.6-16.66,18.4-20.13s1.81-5.89,1.81-5.89c.24-3-2.14-9.38-2.78-12.65a52.84,52.84,0,0,0-2.61-8l1,.56s10.93,11.4,6.7,24.21S13,218.76-4.72,233.4c-6.68,5.53-15.86,10.65-19.42,15.36C-24.08,246.13-19.46,243.93-18.68,241.45Z" style="fill:#fffcfa"/><path d="M46,80.8s3.87-.88,5.82,4.47C51.78,85.27,48.43,80.77,46,80.8Z" style="fill:#ffc3c3"/><path d="M64.83,89.54s-.14-6-2.42-6.67C62.41,82.87,65.67,88.3,64.83,89.54Z" style="fill:#ffc3c3"/><path d="M66.51,89.2s3.61.81,2.06,6.23l-.74,2.15S68.33,90.56,66.51,89.2Z" style="fill:#ffc3c3"/><path d="M68.87,97.07s3.86-1.58,2.91,6.21a22,22,0,0,1-1,5.3S72,97.59,68.87,97.07Z" style="fill:#ffc3c3"/><path d="M78,143.16s5.2,6.25,5.49,8.3c0,0,2.53,5.23-6.7,18.16C76.74,169.62,86.61,152.55,78,143.16Z" style="fill:#ffc3c3"/><path d="M67.51,98.26l.09-.14a1.68,1.68,0,0,1,.3-.38,1.19,1.19,0,0,1,.26-.23,1.46,1.46,0,0,1,.35-.2,1.75,1.75,0,0,1,.44-.15,2.15,2.15,0,0,1,.51,0,2.05,2.05,0,0,1,.55.1l.27.13c.09.05.17.12.25.17a2.19,2.19,0,0,1,.7,1.11,6.37,6.37,0,0,1,.19,1.57c0,.57,0,1.19,0,1.82,0,.31,0,.62,0,.94s-.07.64-.1,1-.11.66-.16,1-.13.67-.2,1c-.15.67-.33,1.36-.52,2.06s-.42,1.39-.65,2.1c-.93,2.81-2.08,5.69-2.87,8.5l.94-1.88c.59-1.22,1.47-3,2.38-5.18.23-.55.46-1.14.68-1.76s.43-1.27.62-2c.1-.34.19-.69.27-1s.17-.72.23-1.1a10.63,10.63,0,0,0,.18-1.13c.06-.39.09-.78.12-1.18a19.69,19.69,0,0,0,0-2.43,7.82,7.82,0,0,0-.43-2.56A2.6,2.6,0,0,0,71,97.28a2.25,2.25,0,0,0-1.33-.48,2.22,2.22,0,0,0-1.33.38A2.27,2.27,0,0,0,67.51,98.26Z" style="fill:#f9b5aa"/><path d="M67.74,116.48l0-.09a.26.26,0,0,0,0-.11s-.06,0-.09,0a4.35,4.35,0,0,0-.32,1q-.16.67-.36,1.65a2.55,2.55,0,0,0-.09.52c0,.18,0,.36,0,.55a10.76,10.76,0,0,0,.12,1.21A22.88,22.88,0,0,0,68.78,127c.47,1.06,1,2.17,1.57,3.32.29.57.58,1.16.87,1.76l.94,1.83,1,1.9,1.06,1.92c.36.65.72,1.32,1.1,2l1.22,2,.62,1,.31.5.35.48,1.4,2,.72,1,.77.94a18.48,18.48,0,0,1,1.45,1.91,8.4,8.4,0,0,1,1,2.13,8.82,8.82,0,0,1,.25,2.35,13,13,0,0,1-.37,2.39,24.29,24.29,0,0,1-.75,2.33c-.57,1.53-1.27,3-1.92,4.52-.16.37-.32.75-.47,1.12l-.22.56-.3.52a15.35,15.35,0,0,0-1.1,2.13l.14-.27a8,8,0,0,1,.43-.77c.2-.34.48-.73.79-1.21a3.93,3.93,0,0,0,.24-.39c.06-.13.13-.28.19-.43s.29-.61.45-.94c.64-1.32,1.49-2.91,2.3-4.85a18.56,18.56,0,0,0,1-3.23,9.48,9.48,0,0,0,0-3.83,9.65,9.65,0,0,0-1.93-3.73c-.44-.58-.91-1.13-1.37-1.7l-1.29-1.82c-.43-.62-.91-1.22-1.33-1.89l-1.26-2c-.88-1.35-1.65-2.82-2.5-4.29s-1.64-3-2.48-4.59-1.69-3.17-2.47-4.82a24.56,24.56,0,0,1-1.9-5.21,10.6,10.6,0,0,1-.23-1.39l0-.7c0-.19.07-.46.1-.69.07-.47.15-1,.24-1.42,0-.23.09-.47.15-.7a1.31,1.31,0,0,1,.12-.33C67.68,116.17,67.72,116.38,67.74,116.48Z" style="fill:#f9b5aa"/><path d="M64.57,90l.05-.07a1.64,1.64,0,0,1,.13-.19,1.48,1.48,0,0,1,.25-.26,1.38,1.38,0,0,1,.42-.22,1.73,1.73,0,0,1,1.21.16,3.52,3.52,0,0,1,.64.42,2.62,2.62,0,0,1,.3.28l.15.14.12.18a3.14,3.14,0,0,1,.41.77c0,.15.1.3.14.45s.07.31.1.47a6.54,6.54,0,0,1,.07,1,4.34,4.34,0,0,1,0,.51,4.41,4.41,0,0,1,0,.52c0,.35-.08.71-.14,1.06s-.13.7-.21,1a17,17,0,0,1-.62,2s0-.08.13-.22.2-.37.35-.67a11.86,11.86,0,0,0,.85-2.61c.06-.29.09-.59.13-.91a8,8,0,0,0,0-1,4.73,4.73,0,0,0,0-.53,2.54,2.54,0,0,0-.09-.54,3.7,3.7,0,0,0-.14-.55,3.65,3.65,0,0,0-.23-.54,3.16,3.16,0,0,0-.33-.51L68,90l-.23-.2a3.37,3.37,0,0,0-1.07-.66,1.9,1.9,0,0,0-1.29,0A1.52,1.52,0,0,0,64.57,90Z" style="fill:#f9b5aa"/><path d="M60.54,83.19l.24-.11a1.55,1.55,0,0,1,.28-.12,1.8,1.8,0,0,1,.39-.12,2,2,0,0,1,.24,0,.76.76,0,0,1,.26,0,.84.84,0,0,1,.27,0,.94.94,0,0,1,.28.1,1.78,1.78,0,0,1,.53.36,2.8,2.8,0,0,1,.44.56,8.28,8.28,0,0,1,1,3.16,13.35,13.35,0,0,1,.13,1.79,6.77,6.77,0,0,1,0,.9,4.18,4.18,0,0,1-.16.87l.08-.21a3.32,3.32,0,0,0,.17-.6,9.15,9.15,0,0,0,.11-2.3,10.51,10.51,0,0,0-.23-1.56A7.16,7.16,0,0,0,64,84.2a4.2,4.2,0,0,0-.55-.82,2.26,2.26,0,0,0-.85-.6,1.88,1.88,0,0,0-1,0A3.4,3.4,0,0,0,60.54,83.19Z" style="fill:#f9b5aa"/><path d="M60.65,83.17l-.23.26-.29.31-.18.2-.17.26-.41.61-.42.78c-.29.56-.59,1.23-.9,2l-1,2.46c-.37.87-.87,1.79-1.37,2.77l-1.59,3.1-1.8,3.37c-.31.58-.63,1.18-.94,1.78l-1.06,1.8c-.7,1.21-1.46,2.45-2.22,3.72s-1.54,2.57-2.25,3.94a24.25,24.25,0,0,0-2,4.3,6.07,6.07,0,0,0-.26,2.52,8.57,8.57,0,0,0,.69,2.39c.64,1.47,1.4,2.86,2,4.28a40.16,40.16,0,0,1,1.47,4.42c.44,1.48.85,3,1.33,4.4,0,0-.09-.38-.24-1.1s-.38-1.8-.66-3.18c-.14-.69-.31-1.45-.52-2.29L47.28,125c-.14-.45-.29-.91-.45-1.39-.36-1-.78-1.93-1.22-3a12.31,12.31,0,0,1-1.06-3.24,6.47,6.47,0,0,1,.75-3.5c.55-1.19,1.28-2.41,2-3.68l2.25-3.88q1.18-2,2.38-4.13c.78-1.43,1.49-3,2.25-4.47s1.46-3.09,2.2-4.69c.18-.4.36-.8.55-1.2l.27-.61.25-.63c.33-.84.6-1.7.88-2.56A14.2,14.2,0,0,1,60.65,83.17Z" style="fill:#f9b5aa"/><path d="M48.83,132l.23,1.11c.08.36.17.8.28,1.32s.29,1.1.46,1.76.4,1.36.63,2.14.5,1.6.78,2.48l.88,2.79c.15.48.28,1,.43,1.5s.32,1,.43,1.56.27,1.08.4,1.63.21,1.12.33,1.69.21,1.17.32,1.77c0,.3.11.61.16.92s.14.6.22.91c.28,1.23.63,2.44.95,3.67a28.28,28.28,0,0,1,.78,3.72,11.31,11.31,0,0,1,0,1.83,6.73,6.73,0,0,1-.52,1.75,18,18,0,0,1-2,3.29c-1.54,2.11-3.3,4.07-4.78,6.14,0,0,.89-1,2.55-2.64.82-.85,1.83-1.87,2.91-3.17A20.91,20.91,0,0,0,55.94,166a8.81,8.81,0,0,0,1.22-2.89c0-.28.08-.58.1-.87l0-.84a12.52,12.52,0,0,0-.17-1.72c-.09-.57-.21-1.15-.34-1.74s-.28-1.17-.44-1.76c-.32-1.18-.64-2.38-.93-3.62s-.52-2.57-.79-3.91-.7-2.7-1.17-4.05c-.23-.68-.47-1.36-.72-2l-.78-2.05c-.54-1.37-1.08-2.76-1.61-4.17-.25-.71-.52-1.42-.76-2.14Z" style="fill:#f9b5aa"/><path d="M67.45,98.39s0,.15-.1.42-.14.68-.29,1.18c-.07.25-.15.52-.25.81s-.2.61-.33.94-.25.68-.41,1-.31.74-.49,1.12c-.69,1.55-1.59,3.27-2.52,5.06a48.37,48.37,0,0,0-2.55,5.48l.73-1.21c.47-.77,1.16-1.88,2-3.27a43.7,43.7,0,0,0,2.59-5c.21-.49.4-1,.59-1.51l.27-.79c.08-.27.15-.54.23-.82s.14-.56.21-.84.12-.57.16-.86A14.79,14.79,0,0,0,67.45,98.39Z" style="fill:#f9b5aa"/><path d="M60.15,115s0,.16,0,.46c0,.14,0,.33,0,.54s0,.45,0,.73a6.16,6.16,0,0,0,.11.89c0,.16,0,.33.08.5l.12.53c.09.37.19.75.32,1.14s.26.8.41,1.22.32.85.48,1.29a12.67,12.67,0,0,1,.47,1.35c.06.23.13.47.2.7s.1.49.15.73c.11.49.18,1,.27,1.51s.15,1,.24,1.56.19,1.05.34,1.56a9.93,9.93,0,0,0,.51,1.51,14.74,14.74,0,0,0,.74,1.36s-.05-.12-.13-.36l-.15-.43a3.26,3.26,0,0,1-.2-.58q-.09-.34-.18-.75a7.21,7.21,0,0,1-.17-.9c0-.16-.05-.33-.08-.5l-.06-.54c0-.37-.08-.77-.12-1.18s-.08-.85-.14-1.31-.14-.92-.24-1.41a12.72,12.72,0,0,0-.4-1.49c-.17-.5-.38-1-.59-1.5-.42-1-.88-2-1.25-3.13a8,8,0,0,1-.26-.83c-.07-.29-.17-.57-.21-.86s-.12-.59-.15-.89Z" style="fill:#f9b5aa"/><path d="M64.42,90.6s-.48.78-1.28,2.15c-.41.67-.85,1.51-1.36,2.46s-1.06,2-1.63,3.19-1.19,2.4-1.81,3.7l-1,2c-.33.66-.65,1.35-1,2s-.68,1.36-1,2l-1.1,2-.54,1-.6,1c-.39.64-.77,1.29-1.14,1.93,0,0,.5-.57,1.38-1.64l.72-.89c.25-.34.5-.72.78-1.12l.87-1.29c.32-.45.59-1,.91-1.49l1-1.66c.32-.59.62-1.21.94-1.84s.66-1.29,1-2l1-2.12c.65-1.44,1.28-3,2-4.55.34-.79.64-1.6,1-2.4Z" style="fill:#f9b5aa"/><path d="M51.12,116s0,.19.07.55c0,.18.06.4.1.65a7.26,7.26,0,0,0,.18.88c.08.32.15.68.27,1.06s.25.79.39,1.23c.31.86.67,1.81,1.1,2.81l.65,1.55c.2.54.45,1.08.65,1.64s.42,1.14.58,1.71a9.55,9.55,0,0,1,.29,1.79c0,.62,0,1.25,0,1.89a14.62,14.62,0,0,0,.07,2,6.21,6.21,0,0,0,.51,1.91,7.34,7.34,0,0,0,1,1.61l-.21-.41a3.6,3.6,0,0,1-.23-.51,5.15,5.15,0,0,1-.26-.71,6.46,6.46,0,0,1-.21-.91,7.34,7.34,0,0,1-.08-1.09c0-.8.1-1.7.16-2.74a13,13,0,0,0,0-1.65,9.55,9.55,0,0,0-.35-1.77c-.17-.61-.41-1.17-.63-1.78s-.51-1.2-.8-1.8l-.88-1.84c-.31-.63-.6-1.26-.91-1.91s-.58-1.32-.82-2A21.15,21.15,0,0,1,51.12,116Z" style="fill:#f9b5aa"/><path d="M45.33,112.87l.25-.76c.08-.25.18-.56.3-.91s.18-.79.29-1.26c0-.23.11-.48.17-.74s.09-.53.13-.82c.09-.56.2-1.18.28-1.83.18-1.29.36-2.75.54-4.33.09-.78.13-1.6.2-2.44s.09-1.71.11-2.6l0-1.34c0-.45,0-.9,0-1.36s0-.92,0-1.38-.07-.93-.11-1.39c-.08-.93-.16-1.87-.3-2.8s-.26-1.87-.44-2.79-.34-1.84-.55-2.74l-.63-2.67s.14.93.38,2.58c.14.83.25,1.84.41,3q.06.44.12.9l.09,1q.1,1,.21,2.1c.05.73.1,1.5.15,2.3s0,1.64.07,2.5,0,1.74,0,2.66-.06,1.85-.11,2.81L46.73,102c0,.49-.08,1-.13,1.49-.08,1-.17,2-.26,3.06,0,.52-.1,1-.16,1.56s-.1,1.06-.19,1.58-.15,1.07-.27,1.6Z" style="fill:#f9b5aa"/><path d="M45.53,80.69h.54a5.86,5.86,0,0,1,.64.06,1.89,1.89,0,0,1,.38.09,2.35,2.35,0,0,1,.43.13l.46.18.46.26c.16.1.31.23.47.34s.3.27.46.41.29.31.44.48l.41.55A10.33,10.33,0,0,1,51,84.47a14.94,14.94,0,0,1,.64,1.46c.19.51.36,1.06.52,1.61a30.89,30.89,0,0,1,.77,3.5c.21,1.21.36,2.45.46,3.69a24,24,0,0,1,.08,3.69l.11-.45c.06-.29.14-.72.21-1.28s.12-1.25.13-2,0-1.71-.09-2.71a24.79,24.79,0,0,0-.5-3.23,17,17,0,0,0-.47-1.76,13.4,13.4,0,0,0-.69-1.81,11.76,11.76,0,0,0-1-1.79,7.9,7.9,0,0,0-1.43-1.58,5.11,5.11,0,0,0-2-1A5,5,0,0,0,45.53,80.69Z" style="fill:#f9b5aa"/><path d="M61.71,82.68a.29.29,0,0,1,.16.07.32.32,0,0,1,.13.15,1.2,1.2,0,0,1,.09.25,4,4,0,0,1,0,.73v.45c0,.15,0,.31,0,.48s0,.34,0,.52-.07.35-.1.53-.09.36-.14.55a4,4,0,0,1-.19.55,4.2,4.2,0,0,1-.22.55,5.36,5.36,0,0,1-.26.54c-.09.18-.17.36-.27.54l-.29.52.38-.43a6.16,6.16,0,0,0,.39-.53c.16-.21.29-.48.46-.76l.2-.47c.08-.16.12-.35.19-.53a3.51,3.51,0,0,0,.13-.58,3.2,3.2,0,0,0,.07-.63,3.53,3.53,0,0,0,0-.65c0-.23,0-.46-.06-.68a3.52,3.52,0,0,0-.14-.69,1.15,1.15,0,0,0-.17-.33A.43.43,0,0,0,61.71,82.68Z" style="fill:#f9b5aa"/><path d="M66.52,89.18l.13.16a1.38,1.38,0,0,1,.2.51,5.7,5.7,0,0,1,0,.86c0,.33,0,.7,0,1.09,0,.19-.07.39-.09.59a4.66,4.66,0,0,1-.15.62,5.17,5.17,0,0,1-.21.63c-.08.21-.15.43-.25.63s-.18.43-.3.64-.2.42-.32.63c-.21.42-.44.84-.64,1.25l.42-.51c.14-.17.29-.38.47-.62s.17-.26.27-.41.19-.29.28-.46l.28-.53c.09-.2.17-.4.25-.61A5.88,5.88,0,0,0,67,93a5.55,5.55,0,0,0,.13-.73,4,4,0,0,0,0-.77,7,7,0,0,0,0-.79,3.94,3.94,0,0,0-.15-.82A1.17,1.17,0,0,0,66.52,89.18Z" style="fill:#f9b5aa"/><path d="M69,97.12a.49.49,0,0,1,.2.12,1.28,1.28,0,0,1,.3.54,4.83,4.83,0,0,1,.2.93c.07.38.1.78.16,1.21v.67a4.34,4.34,0,0,1-.06.71,6,6,0,0,1-.13.72l-.09.37c0,.12-.07.25-.11.37s-.15.5-.25.74-.17.5-.27.75c-.18.49-.36,1-.52,1.48l.38-.63c.13-.2.27-.46.43-.76s.32-.65.5-1l.24-.64a6.46,6.46,0,0,0,.19-.7,4,4,0,0,0,.12-.78c0-.13,0-.27,0-.41s0-.28,0-.42,0-.28,0-.43-.06-.29-.09-.43a7.71,7.71,0,0,0-.21-.86,4.76,4.76,0,0,0-.31-.87A1.09,1.09,0,0,0,69,97.12Z" style="fill:#f9b5aa"/><path d="M45.57,80.75l.17.07.21.08a1.57,1.57,0,0,1,.26.13,2.68,2.68,0,0,1,.31.18,3,3,0,0,1,.33.24c.11.1.24.18.35.3s.23.23.34.37.22.28.33.43.2.32.3.49a8.44,8.44,0,0,1,.52,1.09,14.34,14.34,0,0,1,.72,2.42s0-.22,0-.6a7.73,7.73,0,0,0-.27-1.61,6,6,0,0,0-1.09-2.16,5.75,5.75,0,0,0-.49-.5l-.27-.23L47,81.24a4,4,0,0,0-1.41-.49Z" style="fill:#f9b5aa"/><path d="M97.25,49.83A2.19,2.19,0,0,0,96.1,48.4a2.23,2.23,0,0,0-2.67-1.08,4.49,4.49,0,0,0-2,.33,5.17,5.17,0,0,0-.87.18,2.34,2.34,0,0,0-1.48,1,2,2,0,0,0,.39,2.21,5,5,0,0,0,1.38,1.12,4.52,4.52,0,0,0,1.39.81l.11.09a1.91,1.91,0,0,0,2,0l.19,0a4.83,4.83,0,0,0,.92-.18,1.29,1.29,0,0,0,.81-.77A2.54,2.54,0,0,0,97.25,49.83Z" style="fill:#efd4bb"/><path d="M97.2,49.85l-.06-.23-.09-.21a1.93,1.93,0,0,0-.28-.36,1.59,1.59,0,0,0-.36-.28,3,3,0,0,0-.4-.21h0l-.07-.07-.23-.27L95.42,48l-.29-.16-.31-.11-.32-.07h-.31l-.31,0-.31.07-.1,0H93.4a3.55,3.55,0,0,1-.46,0l-.47,0-.47,0-.47.11-.07,0-.83.08a2.6,2.6,0,0,0-.4.1,2.53,2.53,0,0,0-.37.18,1.86,1.86,0,0,0-.32.23,1.22,1.22,0,0,0-.25.31l-.05.08s0,0,0,0l0,.05-.07.21a1.14,1.14,0,0,0,0,.37,1.59,1.59,0,0,0,.06.37,1.54,1.54,0,0,0,.15.35,2.2,2.2,0,0,0,.21.32,3.58,3.58,0,0,0,.26.28,3.92,3.92,0,0,0,.31.28l.31.22a7.84,7.84,0,0,0,.69.41l.07.05.6.4.66.28.1,0,.07,0,.09.07h0l0,0h0l0,0,.06,0,.11.07.06,0,.07,0,.1,0a1.23,1.23,0,0,0,.2,0,1.48,1.48,0,0,0,.21,0l.21,0a1.51,1.51,0,0,0,.41-.13l.09,0h0l.17,0h.1l.46,0,.23,0,.12,0h0l0,0h0l.06,0,.13,0,.06,0,0,0s.08,0,.13-.07l.15-.12.12-.17.08-.11a3.65,3.65,0,0,0,.49-.39,2.68,2.68,0,0,0,.4-.48c.05-.09.09-.19.14-.28l.09-.31,0-.32,0-.32Zm.1,0,0,.33v.34c0,.11,0,.23,0,.34l-.1.33a4.12,4.12,0,0,1-.3.64,3.8,3.8,0,0,1-.42.57l.08-.11-.11.3a2.68,2.68,0,0,1-.18.28,1.72,1.72,0,0,1-.27.27l-.08.06-.06,0-.11.06-.06,0h0l-.08,0-.13,0-.28.09a5.22,5.22,0,0,1-.57.11l.09,0-.21.06.12,0a3,3,0,0,1-.64.26l-.34.06a2.17,2.17,0,0,1-.36,0,2.33,2.33,0,0,1-.36,0l-.17,0a.8.8,0,0,1-.2-.07l-.2-.08c-.06,0-.08-.06-.13-.08L92,53.51l-.13-.11.17.09-.81-.4-.71-.55.07.05a6.46,6.46,0,0,1-.75-.54,3.85,3.85,0,0,1-.35-.35,2.2,2.2,0,0,1-.28-.34,2.4,2.4,0,0,1-.26-.42,2.92,2.92,0,0,1-.19-.44,1.89,1.89,0,0,1-.11-.47,2,2,0,0,1,0-.49,2.42,2.42,0,0,1,.13-.48l.09-.19,0,0,0-.06.06-.1a1.83,1.83,0,0,1,.31-.36A3.27,3.27,0,0,1,89.7,48l.4-.22a3.69,3.69,0,0,1,.42-.17l.87-.26-.07,0,.5-.23.53-.17a4.85,4.85,0,0,1,.55-.09,5.42,5.42,0,0,1,.57,0l-.17,0,.45-.11a3.54,3.54,0,0,1,.46,0,3.4,3.4,0,0,1,.46.07l.44.17c.13.07.26.16.38.24l.33.31.25.36.19.39-.07-.08c.13.11.26.21.38.33a3.8,3.8,0,0,1,.33.37,2.22,2.22,0,0,1,.25.42l.09.23.06.23Z" style="fill:#e8bd9a"/><path d="M124.37,87.16a2.64,2.64,0,0,0-.31-1.12,5.49,5.49,0,0,0-1.41-2.47,3.48,3.48,0,0,0-5.45.72,4.87,4.87,0,0,0,1,6.12,3.74,3.74,0,0,0,5.45-.87,2.91,2.91,0,0,0,.55-1.52A3.24,3.24,0,0,0,124.37,87.16Z" style="fill:#efd4bb"/><path d="M124.32,87.16l0-.29c0-.09-.05-.18-.07-.27a1.9,1.9,0,0,0-.24-.52h0v0c-.09-.23-.19-.45-.29-.67s-.26-.41-.4-.6-.31-.36-.47-.53-.34-.33-.5-.45l-.29-.22a2.26,2.26,0,0,1-.26-.16,5.15,5.15,0,0,0-.59-.27,3.7,3.7,0,0,0-1.28-.21,3.08,3.08,0,0,0-1.32.31,2.94,2.94,0,0,0-1.09.89c-.06.1-.15.19-.2.29s-.12.22-.17.33l-.13.32-.09.35a4.17,4.17,0,0,0,0,1.41,5.17,5.17,0,0,0,1,2.5,3,3,0,0,0,.46.48l.23.19.31.21a3.81,3.81,0,0,0,1.17.43,3.39,3.39,0,0,0,1.27,0,3.93,3.93,0,0,0,1.21-.48,4,4,0,0,0,1.07-.86,3.07,3.07,0,0,0,.39-.6c0-.11.09-.22.12-.33l.07-.35v0c0-.14.07-.28.1-.42l0-.42Zm.1,0,0,.44c0,.15-.06.29-.07.44h0l0,.38-.07.38a3.94,3.94,0,0,1-.27.73,4.43,4.43,0,0,1-1,1.28,3.63,3.63,0,0,1-1.45.8,3.81,3.81,0,0,1-1.68.1,3.77,3.77,0,0,1-1.58-.65l-.3-.22c-.14-.11-.22-.19-.33-.29a5.46,5.46,0,0,1-.53-.64,4.74,4.74,0,0,1-.68-1.46,5.23,5.23,0,0,1-.18-1.57,5.65,5.65,0,0,1,.27-1.53l.14-.36.16-.36.18-.33c.07-.12.15-.21.22-.32a4.78,4.78,0,0,1,1.1-1.1,3.77,3.77,0,0,1,1.46-.64,3.3,3.3,0,0,1,1.65.1c.13,0,.27.09.39.15s.25.13.37.2l.35.26a3.44,3.44,0,0,1,.27.27,4.83,4.83,0,0,1,.5.64,6.7,6.7,0,0,1,.37.7c.1.24.18.49.27.72s.11.5.18.75v0l.11.28.08.28.06.3,0,.29Z" style="fill:#e8bd9a"/><path d="M105.51,113.66a4.47,4.47,0,0,0-5.26-.43,4.13,4.13,0,0,0-.35,6.83,2.38,2.38,0,0,0,.7.41,3.85,3.85,0,0,0,1.4.36,4.15,4.15,0,0,0,2.83-.91,3.74,3.74,0,0,0,2.07-1.7C107.74,116.6,106.81,114.71,105.51,113.66Z" style="fill:#efd4bb"/><path d="M105.48,113.7a4.48,4.48,0,0,0-1-.58,2.18,2.18,0,0,0-.27-.11l-.28-.06a1.88,1.88,0,0,0-.57-.09,4.1,4.1,0,0,0-1.11.06c-.18,0-.36.1-.53.13s-.34.14-.51.2a3.07,3.07,0,0,0-.48.24l-.22.1-.24.17-.24.17-.2.16a4.19,4.19,0,0,0-.38.36,3.92,3.92,0,0,0-.63.88,3.61,3.61,0,0,0-.34,1.07,3.37,3.37,0,0,0,0,1.14,3.32,3.32,0,0,0,.4,1.06,2.17,2.17,0,0,0,.32.47,3.71,3.71,0,0,0,.39.4,3.46,3.46,0,0,0,.44.34,2.33,2.33,0,0,0,.49.26l.22.08.29.08a2,2,0,0,0,.55.12c.17,0,.35.05.49.05h.3l.24,0a3.7,3.7,0,0,0,1-.3,5.56,5.56,0,0,0,.9-.55l0,0,.1,0c.13-.06.27-.1.39-.17a5.14,5.14,0,0,0,.72-.47,2.06,2.06,0,0,0,.31-.28,2.1,2.1,0,0,0,.26-.33l.12-.17s0,0,0,0l0,0,0,0,.06-.11.06-.11,0-.09c0-.06,0-.11.07-.18a2.73,2.73,0,0,0,.1-.41,3.29,3.29,0,0,0-.2-1.79c-.07-.15-.13-.3-.21-.44s-.17-.27-.26-.4a4.51,4.51,0,0,0-.67-.71Zm.06-.07h0a3.79,3.79,0,0,1,.38.32c.12.11.23.24.35.35s.23.25.33.39a3,3,0,0,1,.3.4,4,4,0,0,1,.71,2,5.46,5.46,0,0,1,0,.56,3.47,3.47,0,0,1-.15.56l0,.11,0,.06v0l0,.06-.14.25a3.83,3.83,0,0,1-.33.46,3.78,3.78,0,0,1-.4.4,3.08,3.08,0,0,1-.44.35,5.46,5.46,0,0,1-.48.27,4.61,4.61,0,0,1-.51.22l.14-.08a4.94,4.94,0,0,1-2.44.94h-.35l-.3,0a6.38,6.38,0,0,1-.68-.12,2.27,2.27,0,0,1-.59-.21l-.27-.12a2.4,2.4,0,0,1-.32-.17,3.28,3.28,0,0,1-.5-.38c-.15-.16-.32-.29-.45-.46a4.63,4.63,0,0,1-.66-1,5.72,5.72,0,0,1-.24-.57c-.06-.2-.11-.39-.15-.59a4.49,4.49,0,0,1-.09-.61l0-.31v-.31a4.77,4.77,0,0,1,.18-1.24,4.6,4.6,0,0,1,.56-1.16,2.91,2.91,0,0,1,.43-.51l.25-.24.24-.18.24-.17.31-.17a3.16,3.16,0,0,1,.6-.25q.31-.09.63-.15c.21,0,.43,0,.64,0a4.38,4.38,0,0,1,1.25.22,2.8,2.8,0,0,1,.57.22,3.51,3.51,0,0,1,.55.27,11.52,11.52,0,0,1,1,.66Z" style="fill:#e8bd9a"/></g></g></g></svg>