<svg xmlns="http://www.w3.org/2000/svg" xmlns:xlink="http://www.w3.org/1999/xlink" viewBox="0 0 141.76 142.81"><defs><clipPath id="clip-path"><circle cx="-98.75" cy="71.93" r="65.8" style="fill:none"/></clipPath><radialGradient id="radial-gradient" cx="23.92" cy="130.03" r="14.96" gradientUnits="userSpaceOnUse"><stop offset="0" stop-color="#ff8191"/><stop offset="1" stop-color="#fff1e3"/></radialGradient><clipPath id="clip-path-2"><circle cx="70.88" cy="71.93" r="65.8" style="fill:none"/></clipPath><linearGradient id="linear-gradient" x1="82.51" y1="70.88" x2="82.51" y2="107.75" gradientUnits="userSpaceOnUse"><stop offset="0.33" stop-color="#f9b5aa"/><stop offset="0.76" stop-color="#ffe3e3"/><stop offset="1" stop-color="#fff1e3"/></linearGradient><linearGradient id="_R_W_h_22" x1="70.35" y1="-74.94" x2="86.03" y2="29.93" gradientTransform="translate(-1.97 12.56) rotate(0.34)" gradientUnits="userSpaceOnUse"><stop offset="0"/><stop offset="0.5" stop-color="#e9a768"/><stop offset="0.95"/></linearGradient><linearGradient id="_R_W_h_81" x1="70.35" y1="-74.94" x2="86.03" y2="29.93" gradientTransform="translate(-1.97 12.56) rotate(0.34)" gradientUnits="userSpaceOnUse"><stop offset="0"/><stop offset="0.18" stop-color="#020101"/><stop offset="0.24" stop-color="#090604"/><stop offset="0.29" stop-color="#140f09"/><stop offset="0.33" stop-color="#251b11"/><stop offset="0.36" stop-color="#3b2b1b"/><stop offset="0.39" stop-color="#573e27"/><stop offset="0.41" stop-color="#775535"/><stop offset="0.43" stop-color="#9b7045"/><stop offset="0.45" stop-color="#bc8754"/><stop offset="0.5" stop-color="#e9a768"/><stop offset="0.55" stop-color="#9f7247"/><stop offset="0.55" stop-color="#9b6f45"/><stop offset="0.57" stop-color="#765535"/><stop offset="0.6" stop-color="#573e27"/><stop offset="0.62" stop-color="#3b2b1b"/><stop offset="0.65" stop-color="#251b11"/><stop offset="0.69" stop-color="#140f09"/><stop offset="0.73" stop-color="#090604"/><stop offset="0.79" stop-color="#020101"/><stop offset="0.95"/></linearGradient><radialGradient id="radial-gradient-2" cx="56.78" cy="28" r="9.46" gradientTransform="translate(-1.97 12.56) rotate(0.34)" xlink:href="#radial-gradient"/><radialGradient id="_R_W_h_34" cx="56.53" cy="43.3" r="11.09" gradientTransform="translate(-1.97 12.56) rotate(0.34)" gradientUnits="userSpaceOnUse"><stop offset="0" stop-color="#ffa7b7"/><stop offset="1" stop-color="#fff1e3"/></radialGradient><radialGradient id="_R_W_h_34-2" cx="104.14" cy="43.22" r="11.31" xlink:href="#_R_W_h_34"/><linearGradient id="_R_W_h_2" x1="-669.47" y1="26.98" x2="-669.47" y2="38.88" gradientTransform="translate(722.96 16.88) rotate(0.34)" gradientUnits="userSpaceOnUse"><stop offset="0.47" stop-color="#54312f"/><stop offset="0.85" stop-color="#913b37"/><stop offset="1" stop-color="#ff9b7f"/></linearGradient><radialGradient id="radial-gradient-3" cx="169.94" cy="186.54" r="12.17" gradientTransform="matrix(0.96, -0.02, 0.02, 0.81, -87.04, -68.03)" xlink:href="#radial-gradient"/><radialGradient id="radial-gradient-5" cx="282.79" cy="-151.71" r="9.91" gradientTransform="translate(-190.45 174.74) rotate(3.99)" xlink:href="#radial-gradient"/></defs><title>level</title><g style="isolation:isolate"><g id="Layer_1" data-name="Layer 1"><g style="clip-path:url(#clip-path)"><g id="_Group_" data-name="&lt;Group&gt;"><path d="M6.93,195.74l-.18.07c-11.55-6.68-30.59-6.29-41.06-4.39-9.16,1.9-17.34,5.69-26.82,6.33-10.14.95-17-2.29-26.49-4.43-14.07-3.16-34.55-1.58-47,6l-.31-.11c-3.81,10.08-8.25,23.17-5,34,.09.3.19.61.3.92,0,0,0,0,0,.05a41.15,41.15,0,0,1,1.76,10h-11.6c1.49-15.48-2.5-22.06-4-33.45-1.47-13.29-6.38-26.1.49-38.91,6.38-10.44,14.21-15.1,26.5-15.66,35-1.58,41.53-16.49,40.37-44,.61-1.07,2.86,2.16,4.21,1.56,4.17-1.78,8.58-2.25,13-3s8.22-1.54,12.51-.71c2.45.47,5,.71,7.36,1.06,1.1.12,2.21.12,3.31.24.35,0,2.5-2.06,2.8-2.28-3.75,27.76,4.47,46.56,38.84,47.12,12.31.2,20.12,5.22,26.5,15.66,6.87,12.81,2,25.62.49,38.91-1.47,11.39-4.47,21.44-4,33.3v.15H11.65a35.44,35.44,0,0,1,1.11-9.52c4.39-11.51-.87-26.06-4.95-36.74C7.53,197.2,7.24,196.47,6.93,195.74Z" style="fill:#fff1e3"/></g><path d="M-42.77,108.45s-.07.69-.21,2-.3,3.22-.39,5.66a72.83,72.83,0,0,0,.17,8.79A44.64,44.64,0,0,0-40.9,136a26.42,26.42,0,0,0,7.29,11.09,26.6,26.6,0,0,0,6.07,4,37.9,37.9,0,0,0,7.19,2.59,82.22,82.22,0,0,0,15.92,2.09,45,45,0,0,1,8.28,1.12,28.68,28.68,0,0,1,7.84,3.12,27.85,27.85,0,0,1,6.52,5.36,37.37,37.37,0,0,1,2.64,3.27c.4.57.8,1.15,1.18,1.73.19.29.37.59.55.88a4.87,4.87,0,0,1,.28.47l.24.46c.32.6.6,1.25.88,1.88s.52,1.28.74,1.94a29.32,29.32,0,0,1,1.06,4,36.28,36.28,0,0,1,.6,8,105,105,0,0,1-1.95,15c-.42,2.37-.8,4.67-1.08,6.9s-.62,4.41-1,6.47c-.7,4.14-1.46,7.9-2,11.26s-.93,6.3-1.12,8.73c-.11,1.22-.14,2.31-.2,3.26s0,1.75,0,2.41c0,1.31,0,2,0,2s0-.69-.07-2c0-.66,0-1.47,0-2.42s.05-2,.14-3.26c.16-2.44.48-5.39,1-8.76s1.2-7.15,1.87-11.28c.34-2.07.66-4.23.91-6.47s.63-4.56,1-6.93.81-4.79,1.16-7.28a65.68,65.68,0,0,0,.7-7.65,36.08,36.08,0,0,0-.61-7.86,29.17,29.17,0,0,0-1.06-3.87c-.21-.64-.47-1.27-.72-1.89s-.54-1.23-.87-1.84a32.17,32.17,0,0,0-11.16-11.87,28.36,28.36,0,0,0-7.65-3.06,43.2,43.2,0,0,0-8.15-1.12,83.21,83.21,0,0,1-16-2.16A31.54,31.54,0,0,1-34,147.49a25.1,25.1,0,0,1-4.5-5.4,29.12,29.12,0,0,1-2.81-5.94,43,43,0,0,1-2.17-11.24,72.72,72.72,0,0,1-.05-8.82c.13-2.44.35-4.35.48-5.65S-42.77,108.45-42.77,108.45Z" style="fill:#f9b5aa"/><path d="M-15.83,9.39A6.41,6.41,0,0,1-15,9.17c.27-.05.61-.11,1-.16a10.31,10.31,0,0,1,1.3-.08A13.88,13.88,0,0,1-11.15,9l.84.11.43.06.43.1.89.22.89.31.45.16.43.2.86.41c.56.32,1.09.68,1.62,1s1,.78,1.43,1.17.82.85,1.2,1.25.65.84,1,1.21l.41.55c.13.17.22.36.32.52l.51.87.44.75-.5-.72-.55-.82c-.12-.16-.22-.34-.36-.5l-.43-.52c-.31-.36-.61-.78-1-1.17L-3.09,13-4.5,11.84c-.53-.33-1-.67-1.59-1l-.85-.42c-.14-.06-.27-.14-.42-.2l-.43-.16-.86-.31-.87-.23-.42-.11-.42-.07-.82-.14c-.54,0-1.05-.11-1.52-.1s-.9,0-1.29,0-.71,0-1,.09A7.17,7.17,0,0,0-15.83,9.39Z" style="fill:#9b6c3f"/><polygon points="15.8 139.91 15.8 140.88 52.99 129.83 52.99 129.08 15.8 139.91" style="fill:#f4607f"/><polygon points="15.8 139.91 -0.08 129.08 49.26 116.08 52.99 129.08 15.8 139.91" style="fill:#fff"/><polygon points="-0.08 129.08 15.8 139.91 15.8 140.88 -0.08 129.77 -0.08 129.08" style="fill:#f4607f"/><polygon points="4.58 129.51 34.06 121.45 43.26 130 17.45 138.6 4.58 129.51" style="opacity:0.5;fill:url(#radial-gradient)"/><path d="M15.81,139.91,53,129.08l.44-27.45s.06-2.26-2-1.79l-33.75,7.67s-2.34,0-2.31,4.23Z" style="fill:#fcacac"/><path d="M-.2,129.18l.39-.12c.25-.07.61-.19,1.08-.3.94-.23,2.27-.48,3.83-.75.78-.14,1.62-.29,2.5-.5s1.75-.43,2.65-.67a27.58,27.58,0,0,0,5.3-1.9l-1.27.3c-.41.12-.91.21-1.49.33l-2,.42c-1.46.29-3.18.74-5.05,1.17A24.47,24.47,0,0,0-.2,129.18Z" style="fill:#f4607f"/><path d="M33.61,118.62c-.64-2.6-2-5.28-5-4.6-2,.46-2.92,2-3.22,4a4.57,4.57,0,0,0-2.69.29c-1.77.65-2.44,2.32-2.55,4.36a3.39,3.39,0,0,0-1.25.09,2.81,2.81,0,0,0-2.41,2.93c-.26,3.8,1,8.62,2.05,12.23.23.79,3.45-.11,3.23-.86a59,59,0,0,1-1.94-11.15c.23.5.45,1,.63,1.51s.38,1,.55,1.51c.54,2.11,1.2,4,1.52,5.1.24.79,3.45-.11,3.23-.87-.38-1.26-.79-3.54-1.51-5.66a28,28,0,0,1-.65-5.35c-.06-4.43,1.12-.71,1.43.47.48,1.8.78,3.63,1.12,5.47.13.73,3.26,0,3.22-.86-.14-3.38-1.33-7.43-.51-10.84a4,4,0,0,0,.51.35,9.87,9.87,0,0,1,.75,1.81,24.24,24.24,0,0,1,.89,3.67c.84,4.12,3.14,7.73,3.95,11.81.15.74,3.39,0,3.23-.87C37.18,128.24,34.81,123.53,33.61,118.62Z" style="fill:#fcacac;mix-blend-mode:multiply"/><path d="M48.11,126.28a7.66,7.66,0,0,0-4.23,2c-1,.86-2.19,2.13-2.19,3.53,0,1.66,3.26,1.15,3.26-.26a3,3,0,0,1,1.16-1.95,4.56,4.56,0,0,1,1.69-1c.7-.06,1.68-.48,1.79-1.28S48.72,126.23,48.11,126.28Z" style="fill:#fcacac;mix-blend-mode:multiply"/><g id="_Group_2" data-name="&lt;Group&gt;"><path d="M29.75,114.22c-1.44,0-2.24,5.69-2.25,7.49a25.17,25.17,0,0,0,.28,3.08h-.06c-.14-1-.61-2.28-.84-3.21s-.54-3.41-1.49-3.48c-1.24-.23-2,1.87-2.15,2.9-.64,3.86,0,8.2.62,12.38h0c-1.12-3-1.58-6.49-3.26-8.94-3.17-4.33-3,3.49-2.62,5.38,1.67,7.14,2.14,11.75-1.36,18.45-2.78,5.13-6.36,10.93-9.55,16-3.64,5.83-5.15,12.3-5.73,19.1-.35,2.78-.77,5.74-.95,8.67-.14,4.77-.57,9.39-1,14.21a50.14,50.14,0,0,0,0,8.92c.12,2.8-1.66,7.95-1,10.54l-.68,14.46c.69,3.18,3.16,2.26,5.44,4.86,10.25,11.77,16.58,2.83,17.2,2.69l1.88,1c-.47-3.46-1.64-15.52-2.32-19.64a154.5,154.5,0,0,1-1.41-16.59c-.33-10.3-2.14-20.41,3.81-29.05,6.14-8.77,12-16.66,18.2-25.24,2.62-3.67,6.85-6.21,6.47-11.09-.32-5.18-.45-8.25.71-13.64.41-2.16,1.86-4.77,1.21-6.49-5.93.8-7,9.56-7.58,14.26-.76,7.54-2.83,10.3-9.49,16.86,1.53-3,2.57-6.21,3.89-9.27,1.68-3.85,4-6.51,2.74-10.69s-3.17-8.28-4.63-12.5c-1-3.08-1.25-6.53-2.61-9.56-.54-1.35-1-1.89-1.48-1.9Z" style="fill:#fff1e3"/></g><path d="M48.91,127s-6.69,5.79-6.56,21c0,0-.94,6.13-10.51,10.16,0,0,6.54-6.2,8.25-10.82s1.4-13.78,4.37-17.32S48.91,127,48.91,127Z" style="fill:#ffe2dc"/><path d="M29.75,114.22s-5,3,.4,19.68l1.55,6.19s.47,2.09-2.09,7.39a55.37,55.37,0,0,0-3.71,10.16s7.82-10.2,7.55-16S27.1,123.82,29.75,114.22Z" style="fill:#ffe2dc"/><path d="M25.2,118.22s-3.52-.2-1.46,14.37c0,0,1.05,5.58,1.46,8.45S20,156.27,19.44,157.72c0,0,9-12.55,7.62-17.37S22.55,124.89,25.2,118.22Z" style="fill:#ffe2dc"/><path d="M38.2,138.3a1.64,1.64,0,0,1,.63,1.29v0a5.83,5.83,0,0,1-1.15,4.69.56.56,0,0,1-.88-.11c-.51-1.09,0-2.06,0-3.18,0-.9-.15-2.05.62-2.71A.57.57,0,0,1,38.2,138.3Z" style="fill:#ffe2dc"/><path d="M30.87,139.38a1.15,1.15,0,0,1,.76,1.39.51.51,0,0,1-.15.33,4.08,4.08,0,0,1-.93,3.19.57.57,0,0,1-.94-.24,5.11,5.11,0,0,1-.29-1.82,4.9,4.9,0,0,1,.27-2C29.81,139.77,30.27,139.24,30.87,139.38Z" style="fill:#ffe2dc"/><path d="M24.47,140.38a1.69,1.69,0,0,1,.71,1,.47.47,0,0,1-.11.48,5.62,5.62,0,0,1-.8,2.63.56.56,0,0,1-.87.13c-1-1-.77-3.56.51-4.22A.56.56,0,0,1,24.47,140.38Z" style="fill:#ffe2dc"/><path d="M46.56,128s0,0,.09,0a8.6,8.6,0,0,1,1.85-1c.11,0,.5.36.44.41a16.49,16.49,0,0,0-4.48,4.13,17.54,17.54,0,0,0-2.3,5.53c0,.08-.2-.23-.18-.36a16.86,16.86,0,0,1,2-5.83l0,0A5,5,0,0,1,46.56,128Z" style="fill:#ffc5bb"/><path d="M29.76,114.44c-1.6,2.36-2.21,6-2.14,8.86,0,0-.43-.18-.43-.32a19.68,19.68,0,0,1,.5-4.46c.28-1.26.65-3.48,1.73-4.31C29.51,114.14,29.84,114.34,29.76,114.44Z" style="fill:#ffc5bb"/><path d="M25.14,118.83A8.24,8.24,0,0,0,23.59,122c-.22,1-.17,2-.47,3,0,.1-.49-.3-.46-.44.23-1.27.42-2.57.74-3.82.18-.73.84-2.28,1.6-2.63C25.14,118,25.23,118.71,25.14,118.83Z" style="fill:#ffc5bb"/><path d="M19,123.21s.28.06.27.12a5.28,5.28,0,0,1-.66,1,3.47,3.47,0,0,0-.38,1.37,29.16,29.16,0,0,1-.23,3.64,14.73,14.73,0,0,1-.32-1.45,19.68,19.68,0,0,1,.11-2.87C17.88,124.46,18.25,123.16,19,123.21Z" style="fill:#ffc5bb"/><path d="M29.91,114.36a7.63,7.63,0,0,0,.77,7s1.4.71,1.81-.46C32.49,120.89,32,116.06,29.91,114.36Z" style="fill:#fffcfa"/><path d="M25.39,118.11a6.42,6.42,0,0,0-.28,6.4s2.22.3,2.41-.7C27.52,123.81,26.45,118.27,25.39,118.11Z" style="fill:#fffcfa"/><path d="M46.84,147.48s-.25-1.77-.58-4.07c0-.29-.07-.6-.1-.93,0-.17,0-.33,0-.5s0-.33,0-.5,0-.35,0-.52,0-.35,0-.52a8.84,8.84,0,0,1,.17-1.05c.06-.36.15-.7.23-1s.17-.68.26-1,.17-.68.26-1,.15-.67.24-1c0,0,0,.37-.07,1s-.19,1.55-.39,2.65c-.05.27-.08.56-.13.86s-.07.61-.1.93,0,.65,0,1,0,.69,0,1.05c0,.72.11,1.49.16,2.29S46.84,146.66,46.84,147.48Z" style="fill:#fffcfa"/><path d="M38.33,138.57v-.12a2,2,0,0,0,0-.34,6.29,6.29,0,0,0-.47-1.18c-.24-.5-.51-1.11-.81-1.8s-.64-1.46-1-2.29l-.53-1.3-.62-1.35c-.41-.93-.82-1.9-1.19-2.91-.18-.5-.36-1-.52-1.54s-.3-1-.42-1.57-.22-1.06-.32-1.58-.12-1.06-.17-1.57c0,0,.14.52.4,1.44.16.45.31,1,.55,1.65.11.31.22.66.36,1s.29.73.44,1.13l.5,1.22c.18.42.37.86.56,1.32s.41.92.62,1.41.44,1,.62,1.5c.38,1,.76,2.14,1.14,3.28.18.57.37,1.15.56,1.74a6.72,6.72,0,0,1,.28.9A2.53,2.53,0,0,1,38.33,138.57Z" style="fill:#fffcfa"/><path d="M31.37,139.36l-.07-.06-.17-.23a4.63,4.63,0,0,1-.53-1,5.23,5.23,0,0,1-.22-.76c-.06-.27-.12-.56-.19-.87s-.14-.63-.22-1-.17-.69-.29-1-.23-.7-.39-1.09-.31-.77-.43-1.19a13,13,0,0,1-.36-1.26q-.18-.64-.3-1.32c-.18-.89-.29-1.8-.38-2.7s-.14-1.8-.16-2.68c0,0,.09.46.26,1.24.08.4.18.88.29,1.44s.24,1.19.4,1.89l.25,1.08c.09.38.2.76.3,1.16s.25.8.37,1.22.29.84.44,1.28a10,10,0,0,1,.37,1.43c.1.48.17,1,.23,1.48s.11,1,.2,1.51A4.72,4.72,0,0,0,31.37,139.36Z" style="fill:#fffcfa"/><path d="M24.92,141s-.51-1.64-1.09-4c-.28-1.17-.6-2.49-.92-3.86s-.6-2.79-.79-4.16c0,0,.47,1.34,1.08,3.51.15.54.31,1.13.47,1.77s.31,1.32.46,2C24.42,137.78,24.69,139.36,24.92,141Z" style="fill:#fffcfa"/><path d="M24.63,139.8l-.18-1.05c-.05-.33-.11-.73-.18-1.17,0-.22-.06-.46-.11-.71s-.12-.5-.18-.76c-.12-.53-.24-1.1-.36-1.7-.06-.3-.17-.59-.25-.89s-.16-.61-.25-.92l-.24-.94-.3-.92c-.19-.62-.37-1.24-.53-1.85l.38.82c.12.28.26.6.43,1l.26.61a5.72,5.72,0,0,1,.24.7c.16.49.33,1,.5,1.61a8.46,8.46,0,0,1,.23.9l.18,1c.05.34.11.67.17,1a7.32,7.32,0,0,1,.11,1.06C24.59,138.29,24.62,139,24.63,139.8Z" style="fill:#fffcfa"/><path d="M22.34,249.52c-.34-2.73-.6-5.46-.9-8.19s-.57-5.47-.89-8.2-.78-5.45-1-8.18-.45-5.46-.59-8.2l-.36-8.24c-.14-2.74-.3-5.48-.3-8.22a40.92,40.92,0,0,1,.73-8.13,23.48,23.48,0,0,1,3-7.54c.36-.58.73-1.13,1.14-1.68l1.2-1.68,2.39-3.35,4.8-6.7,4.85-6.65,2.42-3.33L40,159.56c.41-.56.79-1.11,1.23-1.62,1.71-2.1,3.8-4,5.13-6.5a8,8,0,0,0,.95-4.12c-.08-1.38-.16-2.74-.2-4.11a36.46,36.46,0,0,1,.62-8.14c.13-.66.25-1.35.4-2s.37-1.3.58-1.95a18.73,18.73,0,0,0,.55-2,4.08,4.08,0,0,0-.07-2.16l-.07-.18-.19,0a6.1,6.1,0,0,0-2.27.8,7.23,7.23,0,0,0-1.81,1.58,13.2,13.2,0,0,0-2.14,4.19,28.69,28.69,0,0,0-1,4.56c-.26,1.54-.41,3.09-.58,4.63-.1.76-.22,1.53-.37,2.28a21.76,21.76,0,0,1-.6,2.24c-.12.36-.27.72-.4,1.08s-.31.7-.49,1.05a17.36,17.36,0,0,1-1.18,2c-.43.64-.9,1.26-1.39,1.86s-1,1.18-1.52,1.75c-1.06,1.14-2.14,2.25-3.24,3.35,1.11-1.08,2.22-2.17,3.29-3.3.53-.57,1-1.14,1.56-1.73s1-1.21,1.43-1.84a19.41,19.41,0,0,0,1.22-2c.18-.34.34-.7.51-1.05s.29-.72.42-1.09a19.84,19.84,0,0,0,.64-2.25c.17-.76.3-1.53.42-2.31A46.31,46.31,0,0,1,43,133.48a12.65,12.65,0,0,1,2.1-4,6.76,6.76,0,0,1,1.7-1.46,5.57,5.57,0,0,1,2.11-.72l-.26-.16a3.73,3.73,0,0,1,0,1.91,17.86,17.86,0,0,1-.56,2c-.21.65-.44,1.3-.61,2s-.28,1.35-.42,2a37.51,37.51,0,0,0-.66,8.26c0,1.37.12,2.75.19,4.12a7.24,7.24,0,0,1-.9,3.8c-1.25,2.38-3.32,4.25-5.08,6.38-.45.53-.85,1.11-1.25,1.65l-1.22,1.67-2.43,3.32-4.85,6.66-4.77,6.72-2.38,3.36-1.19,1.67c-.4.56-.8,1.14-1.17,1.73a23.89,23.89,0,0,0-3,7.73,38.8,38.8,0,0,0-.69,8.25c0,2.76.2,5.51.36,8.24l.44,8.23c.16,2.75.37,5.49.69,8.22s.84,5.44,1.15,8.17.66,5.45,1,8.18S22,246.8,22.34,249.52Z" style="fill:#f9b5aa"/><path d="M31.84,158.14l.35-.68c.23-.44.55-1.1.93-2s.82-1.9,1.32-3.1,1.05-2.56,1.71-4,1.59-2.92,2.28-4.65a9,9,0,0,0,.66-2.81,8,8,0,0,0-.4-3c-.58-1.91-1.32-3.88-2.08-5.84s-1.55-4-2.26-6A49.17,49.17,0,0,1,32.78,120a25.91,25.91,0,0,0-.89-3c-.09-.25-.19-.49-.29-.73s-.19-.46-.31-.71a4,4,0,0,0-.94-1.35,1,1,0,0,0-.46-.22.86.86,0,0,0-.55.09,1.62,1.62,0,0,0-.62.63,6.31,6.31,0,0,0-.59,1.41,20.75,20.75,0,0,0-.59,2.79,23,23,0,0,0-.25,2.69,24.52,24.52,0,0,0,.2,2.52,29.55,29.55,0,0,0,.92,4.3c.36,1.25.71,2.33,1,3.23.57,1.78.89,2.8.89,2.8s-.26-1-.77-2.84c-.25-.9-.56-2-.87-3.26a35.61,35.61,0,0,1-.79-4.27c-.08-.79-.13-1.63-.14-2.47a24.76,24.76,0,0,1,.3-2.62,20.45,20.45,0,0,1,.64-2.71,6.58,6.58,0,0,1,.55-1.27,1.09,1.09,0,0,1,.4-.42c.12-.06.22,0,.38.08a7.11,7.11,0,0,1,1.33,2.54,22.37,22.37,0,0,1,.85,3,48.72,48.72,0,0,0,1.55,6.22c.73,2,1.54,4,2.31,6s1.51,3.88,2.11,5.79a7.83,7.83,0,0,1,.41,2.81,8.84,8.84,0,0,1-.57,2.66c-.63,1.69-1.52,3.2-2.17,4.68s-1.15,2.85-1.6,4.07-.85,2.28-1.21,3.14-.63,1.54-.84,2Z" style="fill:#f9b5aa"/><path d="M27.73,125.7a4.57,4.57,0,0,0,.05-.52,4.89,4.89,0,0,0,0-.54c0-.35-.12-.7-.19-1s-.16-.69-.25-1l-.25-1v0a13.74,13.74,0,0,0-.36-2,5.27,5.27,0,0,0-.36-1c-.05-.08-.09-.16-.15-.24a1.74,1.74,0,0,0-.18-.22.75.75,0,0,0-.26-.2.91.91,0,0,0-.34-.11h0a1.35,1.35,0,0,0-.84.12,2.15,2.15,0,0,0-.61.5,4.75,4.75,0,0,0-.7,1.26,6.1,6.1,0,0,0-.38,1.38l-.16,1.34-.07.67,0,.69,0,1.38c0,.45.05.91.08,1.36s0,.91.1,1.36c.11.9.19,1.8.35,2.69s.3,1.79.47,2.67.33,1.78.51,2.66.34,1.77.54,2.65c-.17-1.79-.4-3.59-.64-5.37-.13-.89-.24-1.79-.34-2.68-.05-.45-.11-.89-.15-1.34l-.12-1.34c-.05-.44-.05-.89-.08-1.33s-.05-.9-.06-1.34l0-1.32v-.67l.07-.67.14-1.34a6.38,6.38,0,0,1,.32-1.23,4.26,4.26,0,0,1,.58-1.1,1.6,1.6,0,0,1,.42-.37.85.85,0,0,1,.47-.09h0s.09,0,.13.05a.31.31,0,0,1,.14.09,1,1,0,0,1,.14.15l.12.18a4.55,4.55,0,0,1,.37.87,13.13,13.13,0,0,1,.44,1.9h0c.19.69.46,1.34.66,2,.1.33.2.67.27,1a4.5,4.5,0,0,1,.08.51A4.73,4.73,0,0,1,27.73,125.7Z" style="fill:#f9b5aa"/><path d="M23.83,133.4s-.11-.3-.28-.86-.4-1.39-.68-2.46a31.53,31.53,0,0,0-1.19-3.79,9.67,9.67,0,0,0-1.18-2.17,3.63,3.63,0,0,0-1-1,1,1,0,0,0-.8-.12,1.15,1.15,0,0,0-.59.56,4.54,4.54,0,0,0-.43,1.43,12.45,12.45,0,0,0-.15,1.51,17.23,17.23,0,0,0,.15,3.18,54.36,54.36,0,0,1,1.14,6.66,18.94,18.94,0,0,1-.61,7.07,24.61,24.61,0,0,1-1.3,3.43c-.28.55-.53,1.12-.84,1.65l-.93,1.63c-.6,1.1-1.21,2.2-1.85,3.26s-1.25,2.15-1.89,3.21c-1.28,2.11-2.54,4.18-3.79,6.17l-.92,1.49c-.29.5-.59,1-.85,1.5s-.54,1-.76,1.51-.47,1-.67,1.51a38.54,38.54,0,0,0-1.88,5.8,46.39,46.39,0,0,0-.93,5.06c-.19,1.52-.31,2.84-.38,3.94s-.11,2-.12,2.55,0,.9,0,.9,0-.32.06-.9.12-1.45.22-2.54A56.73,56.73,0,0,1,2.9,174.7a38,38,0,0,1,2-5.7c.2-.5.44-1,.68-1.48s.51-1,.77-1.47.58-1,.87-1.47.61-1,.92-1.47c1.27-2,2.54-4.06,3.84-6.16.64-1,1.27-2.13,1.91-3.2s1.27-2.17,1.88-3.26l.91-1.64c.33-.56.57-1.13.86-1.7a25.42,25.42,0,0,0,1.31-3.53,19.72,19.72,0,0,0,.59-7.29,48.48,48.48,0,0,0-1.25-6.69,17,17,0,0,1-.19-3.08,11.82,11.82,0,0,1,.11-1.47,4.15,4.15,0,0,1,.37-1.31.78.78,0,0,1,.38-.4.6.6,0,0,1,.51.08,3.49,3.49,0,0,1,.91.85,9.79,9.79,0,0,1,1.21,2.07,34.17,34.17,0,0,1,1.28,3.74C23.35,132.23,23.83,133.4,23.83,133.4Z" style="fill:#f9b5aa"/><path d="M30.32,134.72s.3.8.76,2.15c.11.34.24.72.37,1.13l.21.64.18.69a10,10,0,0,1,.29,1.57,5.58,5.58,0,0,1-.15,1.8,8.57,8.57,0,0,1-.28.9c-.12.29-.23.57-.34.86-.24.58-.48,1.18-.72,1.79-.51,1.21-1,2.47-1.54,3.74-.28.63-.53,1.28-.79,1.92s-.54,1.29-.82,1.93l-.79,1.91c-.27.64-.54,1.26-.82,1.88,0,0,.16-.68.47-1.89l.27-1c.1-.37.2-.77.34-1.19.26-.84.57-1.79.93-2.84.17-.52.38-1.06.59-1.62s.44-1.15.68-1.75c.46-1.2,1-2.46,1.59-3.78.07-.16.15-.33.21-.49l.18-.48a5.39,5.39,0,0,0,.23-1,7.7,7.7,0,0,0-.12-2.17c-.1-.77-.3-1.53-.45-2.31S30.49,135.53,30.32,134.72Z" style="fill:#f9b5aa"/><path d="M24.78,139l.18.48a4.9,4.9,0,0,1,.18.57,6.83,6.83,0,0,1,.16.81c0,.15,0,.31.05.48a4.6,4.6,0,0,1,0,.53,3.63,3.63,0,0,1,0,.57c0,.2,0,.41-.08.61-.07.42-.18.85-.3,1.3s-.28.89-.45,1.36c-.66,1.87-1.45,4-2.33,6.17s-1.88,4.33-2.93,6.35c0,0,.65-2.25,1.91-5.75.63-1.76,1.38-3.81,2.3-6.05.23-.56.46-1.13.71-1.72a17.9,17.9,0,0,0,.6-1.79A7.16,7.16,0,0,0,25,141a6.63,6.63,0,0,0-.06-1C24.93,139.63,24.84,139.3,24.78,139Z" style="fill:#f9b5aa"/><path d="M48.89,127.39l-.15.12a3.83,3.83,0,0,0-.4.37,2.29,2.29,0,0,0-.27.27c-.1.1-.21.2-.31.32s-.21.25-.31.39a5,5,0,0,0-.32.44,8.59,8.59,0,0,0-.6,1l-.24.59c-.06.21-.13.41-.18.63a4.64,4.64,0,0,0-.11.65c0,.22,0,.44,0,.67s0,.22,0,.33,0,.22,0,.33.1.43.14.65a1.15,1.15,0,0,1-.07-.15,2.72,2.72,0,0,1-.17-.44c0-.1-.06-.21-.1-.33s0-.26-.06-.41a4.85,4.85,0,0,1,0-1,4.15,4.15,0,0,1,.1-.58,5.69,5.69,0,0,1,.18-.6,4.06,4.06,0,0,1,.27-.61,5.55,5.55,0,0,1,.35-.61A6.64,6.64,0,0,1,48.89,127.39Z" style="fill:#f9b5aa"/><path d="M29.77,114.13s-.05.28-.13.7a3.37,3.37,0,0,0-.06.36c0,.13,0,.28,0,.42s0,.31-.05.48,0,.34,0,.52a3.51,3.51,0,0,0,0,.56l0,.58c0,.2.07.4.1.61s0,.2,0,.3l.09.31c.06.2.1.41.17.61l.24.6a3.11,3.11,0,0,0,.26.59c.08.19.17.38.27.58,0,0-.14-.19-.35-.5a3.16,3.16,0,0,0-.18-.27,2.71,2.71,0,0,1-.18-.34c-.07-.13-.13-.26-.2-.4a2.76,2.76,0,0,1-.19-.46c-.06-.17-.11-.34-.17-.52a4.93,4.93,0,0,1-.13-.58,4.34,4.34,0,0,1-.08-.63c0-.22,0-.44,0-.67s0-.46.05-.69a6,6,0,0,1,.12-.72c.06-.24.1-.48.18-.72S29.68,114.39,29.77,114.13Z" style="fill:#f9b5aa"/><path d="M25.39,118.11a1.1,1.1,0,0,0-.09.14,2.84,2.84,0,0,0-.22.41,4.17,4.17,0,0,0-.26.65,6.17,6.17,0,0,0-.21.87c0,.16-.05.32-.08.49s0,.35,0,.53c0,.36,0,.73,0,1.11a7.21,7.21,0,0,0,.19,1.13,5,5,0,0,0,.17.55c.06.19.15.35.22.53L25,124.4a3.52,3.52,0,0,1-.21-.35,5.48,5.48,0,0,1-.27-.58,6.4,6.4,0,0,1-.22-.82,7.66,7.66,0,0,1-.1-1,6,6,0,0,1,.09-1.16,4.84,4.84,0,0,1,.14-.61,5,5,0,0,1,.22-.61,3.8,3.8,0,0,1,.31-.6A3.49,3.49,0,0,1,25.39,118.11Z" style="fill:#f9b5aa"/><path d="M19.2,123.4l-.09.13a1.11,1.11,0,0,0-.11.16l-.1.24c0,.09,0,.19-.08.3s0,.24-.05.37a8.05,8.05,0,0,0,0,.86,9.36,9.36,0,0,0,.12,1c.06.35.12.71.21,1.07a9.72,9.72,0,0,0,.72,2.13l-.09-.12a2.82,2.82,0,0,1-.21-.33,6.66,6.66,0,0,1-.57-1.32,8.47,8.47,0,0,1-.39-2.08,4.14,4.14,0,0,1,0-.61c0-.21,0-.42.07-.64s.05-.21.08-.31.07-.21.11-.32.12-.19.17-.29S19.13,123.48,19.2,123.4Z" style="fill:#f9b5aa"/><path d="M16.82,107.7l.88-.14,1-.18,1.39-.18.82-.1.89-.09c.62-.07,1.29-.13,2-.19,1.43-.14,3-.27,4.76-.5.87-.11,1.77-.26,2.69-.43l2.79-.61,2.83-.66c1-.23,1.94-.45,2.92-.7s2-.51,3-.8,2-.58,3-.92,2-.69,2.89-1.1a27.68,27.68,0,0,0,2.74-1.32l-.74.12c-.48.07-1.17.21-2.08.33l-1.5.23-1.79.25c-1.27.19-2.72.4-4.32.66s-3.34.56-5.21,1c-.93.19-1.9.43-2.89.68s-1.92.53-2.94.76-2,.49-3.11.73-2.17.5-3.28.8c-.56.14-1.12.29-1.68.47s-1.13.33-1.7.54-1.12.4-1.68.64Z" style="fill:#f46767"/><path d="M53.32,100.73s-.1,1-.2,2.68c0,.42,0,.88-.09,1.38s-.11,1-.16,1.6-.1,1.17-.16,1.8-.14,1.29-.21,2-.14,1.39-.21,2.12-.15,1.48-.21,2.24-.11,1.56-.16,2.35-.09,1.61-.08,2.43,0,1.65,0,2.48.13,1.66.21,2.49l.15,1.23.25,1.21c.17.81.36,1.59.57,2.36,0,0,.07-.83.13-2.29,0-.36,0-.76,0-1.21s.08-.92.12-1.43.07-1.06.11-1.63.11-1.19.16-1.83c.11-1.28.22-2.68.35-4.18s.22-3.12.28-4.81c0-.85,0-1.72,0-2.61s-.07-1.8-.13-2.72a27,27,0,0,0-.3-2.79C53.67,102.63,53.5,101.68,53.32,100.73Z" style="fill:#f46767"/><path d="M16.39,108.07l-.15.13s-.12.1-.18.17l-.22.27a4.84,4.84,0,0,0-.44.86,7.72,7.72,0,0,0-.36,1.24,19.53,19.53,0,0,0-.31,3.43c0,.64,0,1.33,0,2s0,1.47-.06,2.25c0,1.56-.06,3.22-.06,5s0,3.52.12,5.38c0,.93.08,1.86.18,2.78s.19,1.86.31,2.77.25,1.83.38,2.74.26,1.8.4,2.68c0,0,.07-.92.13-2.58,0-.83,0-1.84,0-3,0-.58,0-1.2,0-1.86s0-1.36,0-2.08c0-1.46,0-3.05,0-4.74s0-3.54-.09-5.45c0-1-.08-1.93-.12-2.92,0-.5,0-1-.09-1.52l-.15-1.52a24.33,24.33,0,0,1-.13-3.08,7.91,7.91,0,0,1,.19-1.54A3,3,0,0,1,16.39,108.07Z" style="fill:#f46767"/></g><circle cx="70.88" cy="71.93" r="70.88" transform="translate(-12.72 128.59) rotate(-79.55)" style="fill:#fff"/><circle cx="70.88" cy="71.93" r="65.8" style="fill:#fff"/><g style="clip-path:url(#clip-path-2)"><g id="_Group_3" data-name="&lt;Group&gt;"><path d="M156.73,181.77l-.17.08c-12-8.55-31.75-8-42.61-5.61-9.5,2.42-18,7.28-27.82,8.09-10.52,1.22-17.62-2.93-27.48-5.67-14.59-4-35.84-2-48.74,7.69l-.32-.14c-4,12.89-8.56,29.64-5.15,43.44.1.39.2.79.31,1.18a.11.11,0,0,1,0,.06,64.14,64.14,0,0,1,1.84,12.82h-12c1.54-19.8-2.59-28.22-4.12-42.79-1.53-17-6.62-33.38.51-49.77,6.62-13.35,14.73-19.32,27.48-20,36.28-2,43.09-21.09,41.88-56.32.64-1.37,3,2.76,4.37,2C69,74.53,73.6,73.92,78.18,73s8.52-2,13-.91c2.54.6,5.21.91,7.63,1.36,1.15.16,2.29.16,3.43.31.37,0,2.6-2.64,2.9-2.93-3.88,35.52,4.65,59.57,40.3,60.28,12.77.26,20.87,6.68,27.49,20,7.12,16.39,2,32.78.51,49.77-1.53,14.57-4.63,27.43-4.13,42.6v.19h-7.66a54.9,54.9,0,0,1,1.16-12.17c4.55-14.73-.91-33.34-5.14-47C157.36,183.63,157.05,182.7,156.73,181.77Z" style="fill:#fff1e3"/></g><path d="M97.87,113.36s-1.24,18-11.59,30.85c0,0-.33,1.26,5.18-1.44,0,0,4.8-3.57,18.89-1.32,0,0,12.34,1.48,18.89.1,0,0-22.12-6.14-34.23-3.41C95,138.14,100.74,122.3,97.87,113.36Z" style="fill:#ffe2dc"/><path d="M64.37,117.46s5.16,19.47,11.39,24.33c0,0,.26,4.55-2.86,2.42,0,0-5.82-5.26-21-2.82,0,0-11.43,3.05-16.91.4a57.36,57.36,0,0,0,13.87-3.34c6.49-2.66,14.93-.82,19.79.15C68.7,138.6,63.77,124.21,64.37,117.46Z" style="fill:#ffe2dc"/><path d="M59.83,72.76s.12,20.34,0,22.87c0,0,17.42,25.7,45.31,2.25a146.64,146.64,0,0,1-.06-27L61.38,74.35Z" style="fill:url(#linear-gradient)"/><path d="M18.44,131.16s-33,10.67-29.57,57.08c0,0-5.44-27.42,4.21-41S8.32,132.23,18.44,131.16Z" style="fill:#fffcfa"/><path d="M59.83,72.76s.08.83.22,2.38.3,3.83.42,6.74a99.86,99.86,0,0,1-.13,10.5,56.82,56.82,0,0,1-2.42,13.4A38.93,38.93,0,0,1,54.79,113a32,32,0,0,1-5.07,6.65,37.54,37.54,0,0,1-15.53,9,64.37,64.37,0,0,1-9.29,2.15c-1.59.25-3.2.45-4.82.62s-3.23.28-4.83.54A31.29,31.29,0,0,0,6,134.85a27,27,0,0,0-4.12,2.64,29.13,29.13,0,0,0-3.59,3.35,41.49,41.49,0,0,0-5.65,8c-.4.72-.78,1.44-1.15,2.18l-.14.27-.11.26-.24.57c-.16.38-.32.77-.45,1.15A39.78,39.78,0,0,0-10.93,158a58.59,58.59,0,0,0-1.17,19c.51,6.19,1.46,12.14,2.16,17.82.17,1.42.34,2.82.48,4.2.06.69.13,1.38.19,2.06s.15,1.35.23,2c.33,2.65.73,5.21,1.17,7.67s.89,4.79,1.28,7,.71,4.37.93,6.39A88.43,88.43,0,0,1-5,234.62c0,.73,0,1.42,0,2.06s0,1.26-.07,1.82,0,1.09-.06,1.57-.06.91-.08,1.3l-.17,2.38s0-.83.13-2.38c0-.39,0-.83.07-1.3s0-1,0-1.57,0-1.17,0-1.82,0-1.33,0-2.06a87.09,87.09,0,0,0-.77-10.44c-.52-4-1.45-8.49-2.37-13.39-.46-2.45-.89-5-1.25-7.69l-.24-2c-.07-.68-.15-1.37-.22-2.06-.15-1.38-.32-2.77-.51-4.19-.73-5.65-1.76-11.6-2.27-17.83a58.82,58.82,0,0,1,1.13-19.22A40.71,40.71,0,0,1-10.2,153c.13-.4.29-.78.45-1.16l.23-.57c0-.11.07-.17.14-.31l.14-.28c.37-.74.76-1.48,1.15-2.21a42.82,42.82,0,0,1,5.75-8.23,30.81,30.81,0,0,1,3.7-3.43,27.36,27.36,0,0,1,4.26-2.7,31.67,31.67,0,0,1,9.51-3c1.63-.26,3.28-.38,4.88-.53s3.2-.36,4.78-.6A63,63,0,0,0,34,127.93a43.26,43.26,0,0,0,8.36-3.56,32.62,32.62,0,0,0,7-5.19,31.55,31.55,0,0,0,5-6.5,38,38,0,0,0,3.14-7,59,59,0,0,0,2.57-13.28,98.33,98.33,0,0,0,.28-10.47c-.07-2.91-.21-5.19-.32-6.75S59.83,72.76,59.83,72.76Z" style="fill:#f9b5aa"/><path d="M105.18,70.1l-.2,2.41c-.12,1.57-.29,3.87-.39,6.81s-.14,6.51.1,10.59a73.89,73.89,0,0,0,2,13.56A38.39,38.39,0,0,0,113.39,118a27.88,27.88,0,0,0,6.42,6,33.46,33.46,0,0,0,8.25,4,53.11,53.11,0,0,0,9.29,2.06c1.6.22,3.21.39,4.84.53s3.27.23,4.93.4a32.08,32.08,0,0,1,9.76,2.47,27,27,0,0,1,8.35,5.8,40,40,0,0,1,6.06,8.13c.42.73.83,1.47,1.22,2.21.2.37.38.75.57,1.12l.14.28,0,.07,0,.1.06.14.24.58c.32.76.6,1.57.89,2.36s.52,1.58.74,2.39a56.51,56.51,0,0,1,1.53,19.4c-.46,6.31-1.49,12.32-2.25,18q-.3,2.14-.54,4.23c-.16,1.39-.27,2.77-.44,4.12-.31,2.7-.67,5.31-1,7.8-.72,5-1.45,9.56-2,13.62s-.87,7.61-1,10.54c-.1,1.47-.14,2.78-.18,3.92s0,2.11,0,2.9c0,1.57,0,2.41,0,2.41s0-.84-.06-2.41c0-.79,0-1.76,0-2.9s0-2.46.12-3.93c.13-2.94.41-6.5.89-10.57s1.12-8.65,1.81-13.64c.34-2.5.67-5.1,1-7.8.16-1.35.26-2.72.41-4.12s.32-2.81.5-4.25c.72-5.73,1.68-11.75,2.13-18a55.61,55.61,0,0,0-1.56-19.14c-.21-.79-.47-1.57-.73-2.35s-.55-1.54-.88-2.31l-.24-.58-.06-.14,0,0,0-.07-.14-.27c-.2-.37-.38-.75-.57-1.11-.39-.73-.8-1.46-1.21-2.18a40.29,40.29,0,0,0-6-7.95,26.34,26.34,0,0,0-8.08-5.64A31.29,31.29,0,0,0,147,131.7c-1.63-.17-3.28-.25-4.92-.41s-3.26-.32-4.88-.55a54.44,54.44,0,0,1-9.41-2.12,32.9,32.9,0,0,1-8.4-4.09,28.89,28.89,0,0,1-6.51-6.14,34,34,0,0,1-4.27-7.31,47.21,47.21,0,0,1-2.46-7.5,70.75,70.75,0,0,1-1.8-13.65c-.17-4.1-.08-7.68.06-10.62s.35-5.24.49-6.81S105.18,70.1,105.18,70.1Z" style="fill:#f9b5aa"/><path d="M98.38,93.53s-.1,1.7-.21,4.58c-.06,1.44-.13,3.18-.21,5.15,0,1-.1,2-.16,3.11s-.15,2.22-.23,3.4-.21,2.39-.35,3.63-.29,2.53-.51,3.82c-.11.65-.2,1.3-.32,2s-.26,1.31-.39,2-.28,1.33-.44,2-.3,1.34-.48,2l-.57,2c-.1.33-.18.67-.29,1l-.34,1-.66,2-.77,1.94c-.47,1.32-1.11,2.56-1.65,3.83l-.21.48-.24.46-.47.91c-.31.61-.62,1.22-.92,1.83l.57-.84c.18-.28.41-.62.68-1s.6-.86.91-1.41l1-1.83c.19-.34.39-.68.58-1.05l.56-1.17c.38-.81.83-1.66,1.18-2.61.19-.47.38-1,.58-1.45.09-.25.19-.51.29-.76s.18-.52.26-.79c.34-1.07.75-2.18,1-3.37.15-.59.31-1.19.47-1.81s.26-1.25.4-1.89c.28-1.29.47-2.63.67-4,.12-.69.16-1.39.25-2.1s.15-1.43.19-2.16.09-1.47.14-2.21l.06-2.26c0-.76,0-1.53,0-2.31s0-1.55,0-2.34C98.75,100.06,98.57,96.83,98.38,93.53Z" style="fill:#f9b5aa"/><path d="M62.07,99.3s0,1.59.08,4.29a94.77,94.77,0,0,0,1.09,10.91c.18,1.1.38,2.24.62,3.4s.5,2.36.81,3.57.64,2.43,1,3.66.82,2.47,1.3,3.7,1,2.45,1.62,3.64l.45.89.49.87c.32.59.68,1.15,1,1.71A27.85,27.85,0,0,0,73,139.1a21.24,21.24,0,0,0,2.8,2.66l-.64-.7-.35-.38-.39-.48c-.29-.35-.62-.75-1-1.23-.17-.24-.36-.48-.54-.75l-.55-.85c-.2-.29-.38-.61-.57-.94s-.4-.67-.59-1l-.59-1.12L70,133.05c-.39-.85-.79-1.74-1.16-2.7-.77-1.91-1.49-4-2.17-6.36-.34-1.15-.66-2.36-1-3.6s-.62-2.52-.9-3.84c-.57-2.64-1.09-5.42-1.55-8.31S62.38,102.37,62.07,99.3Z" style="fill:#f9b5aa"/><path d="M23,139.33l1.21.36c.79.23,1.93.6,3.38,1l2.4.65c.88.23,1.82.44,2.83.68s2.09.44,3.22.64c.57.1,1.15.22,1.75.3l1.86.14c.63.06,1.27,0,1.92,0s1.31,0,2-.06,1.34-.08,2-.16l2-.22,4.19-.55c.7-.1,1.41-.18,2.12-.26l1.07-.13,1.07-.09,1.07-.09c.35,0,.72,0,1.08,0l2.19,0c1.46,0,2.91,0,4.35.17a21.55,21.55,0,0,1,4.22.81,18,18,0,0,1,3.91,1.72l-.86-.63c-.3-.19-.65-.43-1.1-.69l-.73-.39-.85-.4c-.3-.13-.63-.26-1-.39s-.72-.25-1.1-.36a22.83,22.83,0,0,0-2.57-.58,47,47,0,0,0-6.33-.49h-.9c-.3,0-.6,0-.91,0l-1.89.12c-1.27.12-2.59.25-3.94.43s-2.73.37-4.15.54-2.88.32-4.37.41c-.74,0-1.5.08-2.25.07s-1.52,0-2.29-.08l-2.35-.3-1.2-.15-1.2-.2-2.43-.39-2.47-.46C26.39,140,24.73,139.63,23,139.33Z" style="fill:#f9b5aa"/><path d="M138.81,139.39l-1.24.24c-.8.14-2,.39-3.46.65l-2.44.45c-.88.16-1.84.3-2.85.46s-2.08.31-3.21.44c-.56.07-1.13.16-1.72.21l-1.78,0c-.6,0-1.22,0-1.85,0s-1.27,0-1.92-.12-1.3-.11-2-.2l-2-.25-4.18-.56c-.71-.1-1.43-.17-2.15-.24l-1.1-.11-1.11-.07-1.11-.06c-.37,0-.75,0-1.12,0l-2.22.07a35.33,35.33,0,0,0-4.45.46A20.15,20.15,0,0,0,92.64,142,15.77,15.77,0,0,0,89,144.24l.92-.52c.31-.15.69-.35,1.15-.55l.74-.31.86-.31,1-.3,1.1-.25a23.81,23.81,0,0,1,2.51-.38,53.58,53.58,0,0,1,6.22-.13h.87c.29,0,.58.05.88.07l1.82.17c1.24.15,2.53.31,3.88.5s2.73.39,4.17.55,2.94.3,4.47.36c.78,0,1.55,0,2.35,0s1.6-.09,2.4-.18l2.38-.42,1.2-.22,1.2-.27,2.42-.57,2.43-.65C135.54,140.4,137.16,139.89,138.81,139.39Z" style="fill:#f9b5aa"/><path d="M59.79,76.36a1.26,1.26,0,0,1,.21-.22.93.93,0,0,1,.84-.06,9.7,9.7,0,0,1,1.29.56A5.89,5.89,0,0,0,64,77.3a1.73,1.73,0,0,0,.67,0l.56-.22,1.14-.45c.39-.16.8-.26,1.22-.4l.64-.21.68-.17c.91-.25,1.9-.45,2.94-.66s2.14-.37,3.28-.55,2.35-.36,3.58-.58,2.47-.47,3.72-.68a37.22,37.22,0,0,1,3.8-.48A18.68,18.68,0,0,1,90,73l4.09.64c1.39.21,2.76.33,4.14.48a9.18,9.18,0,0,0,1.06,0l1.07,0h1.91a1.11,1.11,0,0,0,.31-.15,5.14,5.14,0,0,0,.81-.82q.33-.39.63-.81c.21-.27.4-.54.6-.82l.28-.42.13-.21.06-.11s0-.07.07,0l0,0a0,0,0,0,0,0,0c-.1-.1-.08,0-.11,0l-.07.08c-.11.12-.29.3-.53.52s-.53.5-.88.82l-.58.49a5.46,5.46,0,0,1-.64.49.46.46,0,0,1-.27.11l-.36-.07-1.09-.17L99.54,73,99,72.87l-.63-.14-2.72-.6-3-.69L91,71.07l-.9-.18-.46-.09-.47,0a13.56,13.56,0,0,0-1.92-.13h-1l-1,.07a33.32,33.32,0,0,0-4,.59l-4.08.88c-1.38.3-2.82.6-4.28,1a38.13,38.13,0,0,0-4.43,1.37c-.74.26-1.48.63-2.21,1-.36.18-.69.38-1,.57l-.51.29-.25.14a.54.54,0,0,1-.17.07,2.26,2.26,0,0,1-1,0c-.37-.08-.75-.2-1.13-.32a8.91,8.91,0,0,0-1.21-.29,1.65,1.65,0,0,0-.66,0A.81.81,0,0,0,59.79,76.36Z" style="fill:#f9b5aa"/><g id="_Group_4" data-name="&lt;Group&gt;"><path d="M101.51,29.77l-.12.22c-12.07-.62-26-9.07-32.32-20.59h0c1.85,7.35,7.54,15.87,14.63,19.23v0C65,25,54,9.56,50.75-8.7c-.06-.39-.13-.8-.19-1.22-17.07,18.62-21,50.37-5.72,72a48.41,48.41,0,0,1-7.94-8.65A50.15,50.15,0,0,1,31,42.53h-.37a9.45,9.45,0,0,0-3.34.61L27.24,43C22.58,28.93,19.67,4.84,29-15c2.62-5.56,8.39-14.77,15.26-18.8l.09,0C50.56-39,59.33-41.12,68-42.7a53.61,53.61,0,0,1,21.1.32,70.53,70.53,0,0,1,9.2,2.62c8.72,3,15.65,7.09,21.53,13.17,1,1.05,2,2.16,3,3.34h0c1.25,1.54,2.45,3.18,3.62,4.95l.39.59c.87,1.35,1.73,2.76,2.56,4.26a.75.75,0,0,1,.07.12c9.6,17.78,9.82,40.29-.19,57.62l-.05.07a8.86,8.86,0,0,0-4.46-1.26,51.68,51.68,0,0,1-4.17,8.14h0A51.06,51.06,0,0,1,116,57.53c1.93-6.38,5.88-13.28-2.26-23.71h0A37.38,37.38,0,0,1,101.51,29.77Z" style="fill:#bc875b"/><path d="M129.22,44.36c1.85,1.28,2.87,3.86-.4,9.06-5.1,8.11-10.34,9.1-11.85,9.21,1.93-4.68,3.36-8.92,3.62-11.39h0a51.68,51.68,0,0,0,4.17-8.14A8.86,8.86,0,0,1,129.22,44.36Z" style="fill:#fff1e3"/><path d="M44.84,62C29.61,40.45,33.49,8.7,50.56-9.92c.06.42.13.83.19,1.22C54,9.56,65,25,83.69,28.68v0C76.6,25.28,70.91,16.76,69.06,9.41h0c6.33,11.52,20.25,20,32.32,20.59l.12-.22a37.38,37.38,0,0,0,12.19,4.05h0c8.14,10.43,4.19,17.33,2.26,23.71a51.06,51.06,0,0,0,4.63-6.29c-.26,2.47-1.69,6.71-3.62,11.39-3.29,8.05-8,17.41-10.72,21.38-3.1,4.56-17.27,17.49-26.53,17.44S57.48,88.58,52.49,83.69C49.77,81,45.26,71.81,41.11,62.82c-1.51-3.27-3-6.51-4.27-9.39l.06,0A48.41,48.41,0,0,0,44.84,62Z" style="fill:#fff1e3"/><path d="M36.84,53.43c1.3,2.88,2.76,6.12,4.27,9.39C35,62,30,58.07,26.64,53c-1.41-2.1-3.09-5.34-1.75-7.86a4.53,4.53,0,0,1,2.4-2,9.45,9.45,0,0,1,3.34-.61H31A50.31,50.31,0,0,0,36.9,53.39Z" style="fill:#fff1e3"/></g><path d="M69.74,10.56A43.65,43.65,0,0,0,101.39,30s-10.76.72-17.7-1.31C83.69,28.68,74.07,24.76,69.74,10.56Z" style="fill:#ffd1c5"/><path d="M50.68-10S53.11,20.09,80,27.77c0,0-24.6-4.7-30.56-26.53,0,0-18.18,19.31-9.3,52.52C40.13,53.76,24.56,19.57,50.68-10Z" style="fill:#ffd1c5"/><path d="M43.57-20S16.4,5.86,29.21,42.65a19,19,0,0,1,2.3-.11S17.32,14,43.57-20Z" style="fill:#aa784b"/><path d="M69.58-12.28S78.39,14.17,97,28.49c1.62,1.25,1.3.3,4.58,1.41,3.65,1.23,6.23,2.71,9.83,3.48s8.22.85,12.71,1.23C124.08,34.61,82.59,27.15,69.58-12.28Z" style="fill:#aa784b"/><path d="M78.27-11.74s15.22,31.6,34.18,43.51c3.27,2.06,7.79,2.09,11.63,2.84C124.08,34.61,90.93,14.74,78.27-11.74Z" style="fill:#aa784b"/><path d="M72.83-23s36.6,20.4,51.25,57.57c0,0-4.79.53-6.92-2.57-2.42-3.51.63-8.13-9.27-20.81C97.4-2.2,87.05-14.56,72.83-23Z" style="fill:#aa784b"/><path d="M73-25.37s43.35,6,51.11,60c0,0-4.2-1.14-4.82-9.15C117.89,7.73,98.61-21.72,73-25.37Z" style="fill:#aa784b"/><path d="M65.92-31.34S118.16-37.66,121.78,25c.25,4.29-1.57,7.74-1.08,8.56s3.41-1,3.38,1.07C124.08,34.61,128.48-34.64,65.92-31.34Z" style="fill:#aa784b"/><path d="M110.45,33.26S120.88,43.38,116,57.53c0,0,3.47-5.58,2.69-14.47-.24-2.82-5-9.24-5-9.24A12.19,12.19,0,0,1,110.45,33.26Z" style="fill:#ffd1c5"/><path d="M37.58,54.68S47.87,79,52,83.15c0,0,10.88,11.13,16.87,14.2,0,0-10.51-11.73-14.81-15.95C51,78.37,38,56.45,37.58,54.68Z" style="fill:#ffe2dc"/><path d="M120.5,51.72s-5.8,20.69-13.88,31.73c0,0-7.29,9.87-16.75,14.6,0,0,11.62-11.51,15.28-17.06,3.78-5.72,15.35-29.6,15.35-29.6Z" style="fill:#ffe2dc"/><path d="M50.68-10S20.16,22.54,44.84,62c0,0-14-11.81-15.54-27.13,0,0,4.49-.56,4.05-5.82S39.62-2.72,50.68-10Z" style="fill:#aa784b"/><path d="M50-14.11s3.65,37.65,33.66,42.79c0,0-12.32-7.53-14.24-18.62,0,0,10.09,18.55,32.46,19.93l-7-3.39c.78-4.87-22.63-1.21-29.23-28.89,0,0,.48,11.29,4.49,20.41C70.13,18.12,52,10.33,50-14.11Z" style="fill:#aa784b"/><path d="M124.65,43.1s3.41-.26,4.62,1.19c0,0,15-32.6-2.69-59.09,0,0,6.4,17.65,5.82,25.73,0,0-1.44-9.91-5.06-16.09C127.34-5.16,135.42,22.71,124.65,43.1Z" style="fill:#aa784b"/><path d="M28.3,49.52s-.79-3.38.94-3.56,5.15,5.1,5.4,7.72c0,0-2.15.36-1.45,1.92a10.83,10.83,0,0,0,3.12,3.21A14.64,14.64,0,0,1,28.3,49.52Z" style="fill:#ffd1c5"/><path d="M127.22,50.56s.56-2.89-.2-3.73-3.81.42-5.79,7.37c0,0,3.85,1.25-1.48,5A13,13,0,0,0,127.22,50.56Z" style="fill:#ffd1c5"/><path d="M28.84,17.15c-.45,5.41.67,10.29,2.32,10.92,1,.38,2.07-.93,2.69-4,1.73-8.5.71,9.36-.11,11.73s-5.24,4.93-5.5-1.18S28.84,17.15,28.84,17.15Z" style="fill:#aa784b"/><path d="M124.05,27.78c.18,4,.07,6.19,2.87,6,0,0-1.71,2.27-8.78.56a8,8,0,0,1-2.71-.79C112.71,31.89,124.05,27.78,124.05,27.78Z" style="fill:#aa784b"/><path d="M129,25.58c-.69,4.08-2.74,15.45-7.33,14.52-1.49-.3-2.9-5.83-2.9-5.83-1.15-.09-5.11-.45-5.11-.45,3,2.88,4.65,9.83,4.65,9.83.69,1.58.38,4.26-.2,6.84-.82,2.95-2.19,7-2.19,7a50.12,50.12,0,0,0,7.68-12.28,64.31,64.31,0,0,0,3-7.55A64.08,64.08,0,0,0,129,25.58Z" style="fill:#aa784b"/><path d="M28.3,49.52s1.25-3.91,6.14,3.88c0,0-1.51-5.77-5-7.44C29.47,46,27.66,45.22,28.3,49.52Z" style="fill:#f4a4a4"/><path d="M121.81,52c1.18-2.9,3.8-5.92,4.88-5.43,1.35.61.59,3.67.59,3.67S125.84,47,121.81,52Z" style="fill:#f4a4a4"/><path d="M76.52,22.77a26.8,26.8,0,0,1-7.07-12.71s7.07,11.59,16,15.11C85.44,25.17,83.87,26.12,76.52,22.77Z" style="fill:#f4a4a4"/><path d="M37.59,15.07S40.15,1,50.46-9.8c0,0,3.06,19.75,14.71,29.45,0,0-13.74-11.91-16.4-24.81C48.77-5.16,39.48,6.19,37.59,15.07Z" style="fill:#f4a4a4"/><path d="M30.67,43.23c-1.94-1.57-5.68.87-6.2,3.08-.83,3.57,1.9,6.8,4.33,9,0,0,.3.17.24.1a21.51,21.51,0,0,1-3-5.57,7.92,7.92,0,0,1-.51-3.7c.26-2.4,3.29-2.31,5.06-2.81C30.59,43.35,30.74,43.29,30.67,43.23Z" style="fill:#fffcfa"/><path d="M130.25,45.45c-.79-1.71-3.08-2.41-4.81-2.2-.22,0-.72.23-.21.26a5.07,5.07,0,0,1,4.09,2.79,5.25,5.25,0,0,1,.22,2.75,15.38,15.38,0,0,0-.55,2.54c0,.11.48.3.54.2A7,7,0,0,0,130.25,45.45Z" style="fill:#fffcfa"/><path d="M50.46-9.8s2.8,32.71,33.23,38.48c0,0-12.09-6.35-14.24-18.62A40.28,40.28,0,0,0,101.39,30s7.19,3.38,12.31,3.83c0,0,8.9,9.46,2.26,23.71,0,0,6-6.72,8.69-14.43a6.41,6.41,0,0,1,4.7,1s20.38-33-5.21-65.71C100.06-52.34,58.71-45,44.27-33.69c0,0-33.05,21.55-17,76.73A6.68,6.68,0,0,1,31,42.53s4.83,13,13.84,19.51C44.84,62,19.94,25.83,50.46-9.8Z" style="opacity:0.35000000000000003;mix-blend-mode:screen;fill:url(#_R_W_h_22)"/><path d="M50.46-9.8s2.8,32.71,33.23,38.48c0,0-12.09-6.35-14.24-18.62A40.28,40.28,0,0,0,101.39,30s7.19,3.38,12.31,3.83c0,0,8.9,9.46,2.26,23.71,0,0,6-6.72,8.69-14.43a6.41,6.41,0,0,1,4.7,1s20.38-33-5.21-65.71C100.06-52.34,58.71-45,44.27-33.69c0,0-33.05,21.55-17,76.73A6.68,6.68,0,0,1,31,42.53s4.83,13,13.84,19.51C44.84,62,19.94,25.83,50.46-9.8Z" style="opacity:0.6000000000000001;mix-blend-mode:screen;fill:url(#_R_W_h_81)"/><path d="M30.63,42.54l-.37,0c-.24,0-.6.06-1,.14a9,9,0,0,0-1.56.44,5.55,5.55,0,0,0-1.76,1.06,3.6,3.6,0,0,0-1.14,2A5.73,5.73,0,0,0,25,48.88a12.73,12.73,0,0,0,1.18,2.66c.25.43.52.87.8,1.28s.59.86.91,1.26a27.58,27.58,0,0,0,2,2.34,25.37,25.37,0,0,0,2.16,2c.36.32.75.58,1.11.88s.74.53,1.12.76.73.47,1.1.66.72.39,1.08.54a9.67,9.67,0,0,0,1,.44c.33.13.63.26.94.36.59.21,1.12.35,1.56.46s.79.17,1,.23l.36.07-.37,0c-.24,0-.6,0-1-.12s-1-.18-1.61-.35c-.31-.07-.64-.18-1-.29s-.69-.24-1.06-.39a12.21,12.21,0,0,1-1.12-.51c-.39-.17-.76-.4-1.16-.61s-.78-.48-1.19-.73-.79-.55-1.17-.87a22.53,22.53,0,0,1-2.25-2,27.61,27.61,0,0,1-2-2.39c-.33-.42-.61-.85-.91-1.28s-.57-.88-.82-1.34A12.5,12.5,0,0,1,24.35,49a5.91,5.91,0,0,1-.09-2.92,4.11,4.11,0,0,1,1.38-2.21,5.37,5.37,0,0,1,1.94-1,8.62,8.62,0,0,1,1.62-.33,9.26,9.26,0,0,1,1.06,0Z" style="fill:#f9b5aa"/><path d="M28.35,50a9.25,9.25,0,0,1-.28-1.37,6.73,6.73,0,0,1,0-1.42,2.69,2.69,0,0,1,.18-.73,1.46,1.46,0,0,1,.22-.35,1.16,1.16,0,0,1,.34-.27,1,1,0,0,1,.41-.12,1.79,1.79,0,0,1,.41,0,3.91,3.91,0,0,1,.73.24l0,0,0,0A18.35,18.35,0,0,1,32,47.61a15,15,0,0,1,1.39,1.79c.11.15.21.31.31.47s.2.32.29.49l.26.51.23.53a5,5,0,0,1,.2.54c.06.19.12.37.16.56a5.86,5.86,0,0,1,.1.58l0,.59,0,.27L34.7,54a2.33,2.33,0,0,0-.39.11,2.15,2.15,0,0,0-.37.19,1.13,1.13,0,0,0-.5.54,1.05,1.05,0,0,0,0,.74,2.2,2.2,0,0,0,.17.39,3.85,3.85,0,0,0,.23.38,9.29,9.29,0,0,0,1.23,1.37c.46.43.94.83,1.43,1.23-.27-.16-.55-.31-.81-.49l-.78-.55c-.25-.19-.5-.39-.74-.6a6.44,6.44,0,0,1-.68-.7,4.1,4.1,0,0,1-.29-.4,2.22,2.22,0,0,1-.24-.46,1.59,1.59,0,0,1-.07-1.1,1.69,1.69,0,0,1,.7-.87,2.94,2.94,0,0,1,.46-.25,3.81,3.81,0,0,1,.51-.17l-.26.32-.06-.51a4.64,4.64,0,0,0-.11-.51,3.17,3.17,0,0,0-.15-.5,4.09,4.09,0,0,0-.18-.49l-.22-.49-.25-.47c-.08-.16-.18-.31-.27-.47l-.29-.46A19.67,19.67,0,0,0,31.49,48c-.46-.56-1-1.1-1.47-1.61l.06,0a2.72,2.72,0,0,0-.57-.23.71.71,0,0,0-.28,0,.51.51,0,0,0-.25,0,1.28,1.28,0,0,0-.6,1,6.81,6.81,0,0,0-.12,1.36Q28.28,49.28,28.35,50Z" style="fill:#f9b5aa"/><path d="M124.65,43.1a8.07,8.07,0,0,1,1.33,0,9.08,9.08,0,0,1,1.52.23,5.73,5.73,0,0,1,1.86.81,4,4,0,0,1,1.48,1.93,5.62,5.62,0,0,1,.16,2.71,11.86,11.86,0,0,1-.84,2.74,22,22,0,0,1-1.34,2.6c-.24.41-.52.83-.78,1.24s-.55.8-.85,1.19a21.38,21.38,0,0,1-1.85,2.14,16,16,0,0,1-2,1.72,14.44,14.44,0,0,1-2,1.22,10.32,10.32,0,0,1-3.39,1,5.46,5.46,0,0,1-1.33,0,6.58,6.58,0,0,0,1.31-.16,11.58,11.58,0,0,0,3.21-1.25,16.33,16.33,0,0,0,3.8-3,26.47,26.47,0,0,0,1.77-2.1c.56-.76,1.08-1.54,1.58-2.37a24.29,24.29,0,0,0,1.34-2.51,12.14,12.14,0,0,0,.86-2.57,5.1,5.1,0,0,0,0-2.46,3.44,3.44,0,0,0-1.24-1.78,5.53,5.53,0,0,0-1.7-.88,8.85,8.85,0,0,0-1.47-.34A9,9,0,0,0,124.65,43.1Z" style="fill:#f9b5aa"/><path d="M127.22,50.56c0-.46.08-.91.09-1.36a6.61,6.61,0,0,0-.1-1.34,2.32,2.32,0,0,0-.18-.6.87.87,0,0,0-.15-.25.7.7,0,0,0-.19-.16.6.6,0,0,0-.23-.06.82.82,0,0,0-.27,0,2.88,2.88,0,0,0-.56.23l.07,0c-.49.5-1,1-1.42,1.61-.22.27-.44.56-.65.85s-.41.58-.6.88-.37.61-.53.92l-.25.47-.21.48c-.07.16-.12.33-.18.49a2.85,2.85,0,0,0-.14.5c0,.16-.09.33-.11.5l0,.5-.26-.32a2.79,2.79,0,0,1,.49.18,2.56,2.56,0,0,1,.45.27l.21.17.18.21a1,1,0,0,1,.14.24.82.82,0,0,1,.1.26l.06.28c0,.09,0,.18,0,.28a1.42,1.42,0,0,1-.13.5,1.71,1.71,0,0,1-.22.45l-.13.21-.15.19-.31.36-.33.33-.35.31-.37.29-.37.28-.38.26-.77.5.69-.61c.11-.1.24-.19.34-.3l.33-.32.32-.32c.11-.11.2-.23.3-.34l.3-.34.25-.36.12-.18.1-.19a2.05,2.05,0,0,0,.16-.38,1.06,1.06,0,0,0,.07-.38v-.19l0-.17a.34.34,0,0,0-.07-.15.49.49,0,0,0-.1-.15l-.12-.13-.16-.11a1.31,1.31,0,0,0-.35-.19,2.05,2.05,0,0,0-.37-.13l-.27-.07,0-.25,0-.58a5.22,5.22,0,0,1,.11-.57,3.44,3.44,0,0,1,.15-.55,4.93,4.93,0,0,1,.19-.54l.22-.52.25-.5a4.76,4.76,0,0,1,.28-.49c.09-.16.19-.32.29-.48a18.78,18.78,0,0,1,2.88-3.37l0,0,0,0a3,3,0,0,1,.72-.24,1.48,1.48,0,0,1,.42,0,.93.93,0,0,1,.41.15,1.22,1.22,0,0,1,.3.3,1.29,1.29,0,0,1,.18.35,2.64,2.64,0,0,1,.15.72,7.12,7.12,0,0,1-.06,1.39A10.1,10.1,0,0,1,127.22,50.56Z" style="fill:#f9b5aa"/><path d="M36.83,53.43l2.48,5.29c.79,1.68,1.76,3.72,2.86,6.07s2.4,5,3.84,7.8a86.19,86.19,0,0,0,5.07,8.91,14.34,14.34,0,0,0,1.72,2.1l2.05,2c1.38,1.32,2.81,2.66,4.3,4A78.76,78.76,0,0,0,68.83,97a34.23,34.23,0,0,0,5.53,2.9,14.28,14.28,0,0,0,6,1.17,18.1,18.1,0,0,0,6-1.63,40,40,0,0,0,5.49-3,67.33,67.33,0,0,0,9.57-7.58,42.68,42.68,0,0,0,4-4.24,42.11,42.11,0,0,0,3-4.71c1.78-3.18,3.32-6.27,4.69-9.14s2.56-5.54,3.57-7.92,1.83-4.49,2.43-6.25a40.07,40.07,0,0,0,1.23-4.13c.1-.49.18-.86.21-1.12l.06-.38s0,.13,0,.39-.1.63-.19,1.12a39.11,39.11,0,0,1-1.14,4.16c-.57,1.77-1.34,3.9-2.3,6.31s-2.1,5.1-3.44,8-2.85,6-4.6,9.23c-.44.8-.89,1.61-1.38,2.42a23.71,23.71,0,0,1-1.59,2.4,41.82,41.82,0,0,1-4,4.32A67.49,67.49,0,0,1,92.25,97a39.57,39.57,0,0,1-5.57,3.08,19,19,0,0,1-6.23,1.71,11.52,11.52,0,0,1-3.26-.28,20,20,0,0,1-3.08-1,35.67,35.67,0,0,1-5.64-3A78.67,78.67,0,0,1,58.74,90q-2.24-2-4.31-4l-2-2a13.55,13.55,0,0,1-1.77-2.2,84.87,84.87,0,0,1-5-9c-1.42-2.86-2.65-5.51-3.71-7.87l-2.74-6.12Z" style="fill:#f9b5aa"/><path d="M50.69-10l-1.3,1.42c-.43.46-.9,1.07-1.48,1.76-.29.34-.58.73-.89,1.14s-.65.85-1,1.32c-.65.94-1.38,2-2.09,3.16C43.57-.66,43.22,0,42.86.61c-.19.32-.37.65-.56,1l-.53,1L41.22,3.7,40.7,4.82,40.17,6l-.5,1.19c-.35.81-.65,1.65-1,2.51s-.59,1.75-.89,2.65-.53,1.84-.8,2.79S36.53,17,36.33,18s-.41,2-.55,3c-.08.51-.17,1-.23,1.55l-.18,1.57c-.14,1-.18,2.12-.27,3.2S35,29.54,35,30.64a62.14,62.14,0,0,0,.37,6.64,58.6,58.6,0,0,0,1.17,6.65,51.33,51.33,0,0,0,2,6.46c.37,1.07.86,2.08,1.29,3.12l.73,1.5.37.75.4.73.81,1.45.87,1.4.43.69.47.67L44.85,62,44,60.68l-.48-.75q-.26-.42-.54-.93l-.62-1.07c-.22-.39-.43-.82-.66-1.26-.48-.88-.92-1.9-1.43-3-.25-.55-.47-1.15-.72-1.75s-.48-1.25-.71-1.92l-.35-1c-.12-.34-.22-.7-.33-1.06-.22-.72-.45-1.46-.63-2.24s-.41-1.56-.57-2.39-.35-1.67-.48-2.54c-.07-.44-.15-.88-.22-1.33s-.11-.9-.17-1.35c-.13-.92-.19-1.86-.27-2.82s-.1-1.94-.15-2.93,0-2,0-3.05.06-2.08.15-3.14.2-2.13.32-3.22a64.93,64.93,0,0,1,1.19-6.64c.24-1.13.58-2.25.88-3.39s.69-2.27,1.11-3.4.85-2.26,1.3-3.4,1-2.26,1.55-3.37a55.76,55.76,0,0,1,3.78-6.58A56.35,56.35,0,0,1,50.69-10Z" style="fill:#9b6c3f"/><path d="M48.84-26.11l-1.65,1.8-.9,1c-.33.36-.66.77-1,1.21-.73.87-1.6,1.85-2.46,3l-1.4,1.82c-.46.66-.93,1.35-1.43,2.06l-.76,1.1-.73,1.17c-.49.8-1,1.6-1.51,2.48s-1,1.76-1.5,2.69-1,1.91-1.45,2.9L32.64-1.76l-1.26,3.3C31,2.69,30.6,3.85,30.25,5c-.16.6-.33,1.21-.5,1.82-.08.3-.16.61-.25.92s-.13.62-.2.93l-.42,1.89c-.14.64-.23,1.29-.35,1.93-.24,1.3-.38,2.62-.54,4-.1.66-.12,1.34-.17,2s-.11,1.35-.12,2c0,1.37-.07,2.75,0,4.14s.16,2.78.27,4.18c.07.7.18,1.4.27,2.1L28.39,32l.19,1a51.9,51.9,0,0,0,2.17,8.27c.45,1.36,1,2.68,1.57,4s1.22,2.59,1.93,3.83a45.48,45.48,0,0,0,4.77,7,44.67,44.67,0,0,0,5.88,5.87l-1.5-1.4c-.25-.22-.51-.49-.79-.79l-.94-1c-.34-.35-.68-.75-1-1.18s-.76-.88-1.15-1.38l-1.2-1.59c-.43-.56-.81-1.19-1.25-1.82s-.83-1.33-1.26-2c-.21-.36-.44-.71-.64-1.1l-.61-1.16c-.2-.4-.43-.79-.62-1.21l-.59-1.28c-.41-.86-.76-1.78-1.13-2.71s-.69-1.93-1-2.93-.6-2.07-.91-3.14a56.36,56.36,0,0,1-1.29-6.88,58.93,58.93,0,0,1-.5-7.54c0-1.3,0-2.63.14-4,.05-.67.08-1.35.15-2L29,14.89c.06-.69.19-1.38.3-2.07s.21-1.39.36-2.09c.31-1.39.57-2.81,1-4.21A68.49,68.49,0,0,1,33.43-2c.29-.7.59-1.41.89-2.11s.65-1.4,1-2.1c.64-1.42,1.41-2.78,2.15-4.17a78,78,0,0,1,5.19-8.09A93,93,0,0,1,48.84-26.11Z" style="fill:#9b6c3f"/><path d="M113.7,33.82s.51.72,1.35,2l.63,1c.22.39.48.79.69,1.26s.47.93.69,1.45.42,1.08.61,1.66c.08.29.17.59.25.89a7.15,7.15,0,0,1,.22.94,14,14,0,0,1,.27,2,15.82,15.82,0,0,1,0,2.07c0,.35-.06.7-.09,1.06a9.62,9.62,0,0,1-.14,1.06c-.1.71-.27,1.42-.43,2.13s-.37,1.41-.59,2.1c-.42,1.4-.87,2.77-1.24,4.12l.17-.49c.11-.33.28-.81.5-1.42s.49-1.36.78-2.24c.15-.43.3-.9.44-1.4s.29-1,.42-1.6.22-1.17.34-1.79.16-1.28.15-2c0-.34,0-.69,0-1l-.09-1.06a8.48,8.48,0,0,0-.17-1.09,7.18,7.18,0,0,0-.23-1.1c-.1-.36-.21-.73-.32-1.1a9.13,9.13,0,0,0-.41-1.1,11.72,11.72,0,0,0-.47-1.1c-.18-.36-.37-.72-.56-1.08a11.27,11.27,0,0,0-.62-1.06l-.67-1C114.74,35.16,114.21,34.5,113.7,33.82Z" style="fill:#9b6c3f"/><path d="M127.44,1.7l.25,1.45q.12.71.3,1.71c.13.67.2,1.46.32,2.32s.27,1.81.34,2.85.22,2.16.27,3.35q0,.88.09,1.83c0,.63.07,1.28.06,1.94v2c0,.35,0,.7,0,1s0,.7-.05,1.06c0,.72-.06,1.45-.1,2.19s-.14,1.48-.2,2.24c-.12,1.52-.38,3.07-.61,4.64-.1.8-.31,1.58-.46,2.38-.08.4-.17.8-.25,1.2s-.17.8-.28,1.2c-.22.79-.44,1.59-.65,2.4-.1.41-.23.8-.37,1.2s-.27.8-.4,1.2c-.49,1.61-1.19,3.16-1.82,4.74-.34.78-.73,1.53-1.1,2.3l-.55,1.15c-.2.38-.42.74-.63,1.11l-1.26,2.21-1.4,2.1c-.23.35-.45.7-.69,1.05l-.76,1-1.51,2,.78-.95c.26-.31.58-.69,1-1.15l.6-.73c.21-.26.41-.57.63-.87l1.46-2.08c.51-.77,1-1.65,1.56-2.57s1.06-2,1.62-3,1.05-2.28,1.58-3.52c.13-.32.26-.63.4-1l.34-1,.71-2c.25-.69.41-1.42.62-2.16s.43-1.48.59-2.25c.31-1.55.69-3.14.9-4.81.06-.41.12-.83.19-1.25s.12-.84.15-1.27q.12-1.29.24-2.61c.08-.88.08-1.77.12-2.67,0-.45,0-.9.05-1.36s0-.91,0-1.37c0-.92,0-1.85-.06-2.79l-.18-2.82c-.05-.95-.19-1.9-.29-2.86,0-.48-.11-1-.16-1.44s-.16-1-.23-1.45-.16-1-.23-1.45l-.12-.73L128,4.62C127.84,3.66,127.64,2.68,127.44,1.7Z" style="fill:#9b6c3f"/><path d="M44.3-33.76l-.47.26a12.74,12.74,0,0,0-1.32.79c-.28.19-.61.38-.93.64l-1.06.84-1.17,1c-.4.39-.82.8-1.25,1.24a40.81,40.81,0,0,0-2.67,3.12c-.92,1.16-1.85,2.47-2.77,3.9s-1.86,3-2.75,4.64c-.43.83-.89,1.69-1.29,2.59l-1.21,2.77c-.1.23-.21.47-.3.71s-.17.49-.26.73c-.17.49-.35,1-.53,1.49S26-8,25.79-7.49l-.45,1.56c-.14.53-.29,1.06-.44,1.59l-.23.8-.18.82c-.23,1.1-.48,2.2-.7,3.32L23.25,4c-.16,1.16-.25,2.33-.38,3.5l-.08.89-.05.89-.09,1.78c-.09,1.19-.07,2.4-.08,3.6,0,.61,0,1.21,0,1.81s.05,1.21.07,1.82.05,1.21.08,1.82L22.88,22,23,23.76l.23,1.81.22,1.81.3,1.8.3,1.79.36,1.78c.22,1.18.51,2.35.8,3.51.57,2.32,1.27,4.58,2,6.78l-.49-1.68c-.16-.54-.36-1.22-.55-2s-.47-1.73-.68-2.79S25,34.32,24.83,33q-.18-1-.36-2c-.12-.7-.21-1.43-.32-2.19-.25-1.51-.39-3.13-.57-4.84-.09-.86-.13-1.75-.2-2.65L23.29,20c0-.47,0-.94,0-1.41,0-1-.08-1.93-.06-2.93s0-2,0-3c.11-2.07.2-4.23.47-6.44.06-.55.12-1.11.17-1.68s.18-1.12.27-1.69c.18-1.13.33-2.29.61-3.44.12-.58.24-1.16.37-1.74l.18-.89c.07-.29.16-.58.24-.87L26-6c.17-.59.29-1.19.52-1.78.41-1.17.8-2.36,1.24-3.56s1-2.35,1.5-3.54a63.1,63.1,0,0,1,3.79-7,50.56,50.56,0,0,1,4.83-6.59A24.4,24.4,0,0,1,44.3-33.76Z" style="fill:#9b6c3f"/><path d="M125-20.31l.93,1.42,1.1,1.68.34.51.32.58.69,1.25a60.38,60.38,0,0,1,6,15.1A63.31,63.31,0,0,1,136,22l-.15,1.45-.07.73-.12.72c-.17,1-.33,1.93-.5,2.89a14.19,14.19,0,0,1-.31,1.44l-.35,1.43c-.23.95-.44,1.91-.76,2.84s-.6,1.86-.89,2.79-.72,1.81-1.08,2.71c-.18.45-.36.9-.53,1.34l-.64,1.3c-.42.86-.83,1.72-1.25,2.57l.69-1.24.84-1.5c.16-.3.34-.62.53-1l.51-1.14,1.2-2.67c.38-1,.76-2.11,1.18-3.28a57.27,57.27,0,0,0,2-8.21,59.38,59.38,0,0,0-.43-21.73c-.08-.51-.23-1-.35-1.51s-.25-1-.38-1.51l-.39-1.52c-.15-.51-.33-1-.5-1.52-.34-1-.64-2-1-3s-.84-2-1.26-3A60.85,60.85,0,0,0,125-20.31Z" style="fill:#9b6c3f"/><path d="M37.13,53.74s.08.26.24.74c.07.24.17.54.28.88s.22.75.34,1.2.28.93.41,1.47.27,1.11.41,1.73.26,1.27.38,2,.25,1.41.32,2.16.18,1.53.22,2.34.07,1.63.09,2.47c0,.43,0,.85,0,1.28s0,.86,0,1.3-.07.87-.1,1.31-.1.88-.16,1.32l-.08.67-.11.66c-.07.44-.15.88-.22,1.33-.2.88-.36,1.77-.6,2.63-.11.44-.21.88-.33,1.31l-.38,1.29c-.24.85-.55,1.68-.81,2.51l.26-.6.31-.72c.12-.29.27-.62.4-1l.47-1.27c.17-.46.31-1,.49-1.52s.34-1.14.49-1.77c.08-.31.17-.64.24-1s.14-.68.21-1c.15-.7.24-1.45.35-2.22s.16-1.6.23-2.44.07-1.71,0-2.61-.09-1.81-.17-2.75c0-.46-.12-.93-.19-1.41,0-.24-.06-.48-.1-.72s-.09-.48-.13-.72c-.17-1-.42-1.93-.66-2.92s-.56-2-.92-2.94S37.53,54.72,37.13,53.74Z" style="fill:#9b6c3f"/><path d="M120.51,51.73l-.48.7c-.13.24-.32.53-.49.89l-.28.58c-.09.21-.18.44-.27.67s-.19.49-.28.76-.18.55-.26.84c-.18.59-.33,1.23-.48,1.91a35.79,35.79,0,0,0-.63,4.6c-.06.84-.1,1.71-.11,2.6s0,1.82,0,2.76.12,1.89.22,2.85.24,1.94.41,2.92.38,2,.64,2.92a27.92,27.92,0,0,0,.9,2.86,18,18,0,0,0,1.26,2.7,10.06,10.06,0,0,0,1.74,2.32l-.44-.56-.47-.71c-.16-.3-.38-.63-.56-1s-.39-.84-.59-1.34-.39-1-.57-1.63-.37-1.23-.54-1.92c-.08-.34-.17-.69-.24-1s-.16-.73-.23-1.12q-.22-1.14-.39-2.4c-.12-.84-.22-1.72-.3-2.63s-.14-1.84-.18-2.81-.06-2,0-3,.06-2.06.13-3.11.2-2.14.38-3.22a27.1,27.1,0,0,1,.73-3.25A12.82,12.82,0,0,1,120.51,51.73Z" style="fill:#9b6c3f"/><path d="M50.78-25.71s-.12.6-.36,1.71c-.13.55-.19,1.24-.32,2.05-.06.4-.09.83-.12,1.3s-.09.95-.11,1.47,0,1.07,0,1.64,0,1.17,0,1.79.05,1.27.1,1.93c0,.34.05.67.07,1l.12,1c.07.71.16,1.44.28,2.18s.24,1.51.39,2.28.29,1.57.49,2.38.42,1.61.63,2.44c.1.42.23.83.37,1.25s.27.83.4,1.25l.42,1.28c.16.42.33.84.5,1.26a50.23,50.23,0,0,0,2.3,5.13c.46.84.94,1.68,1.41,2.53s1.08,1.64,1.62,2.47a14.77,14.77,0,0,0,.88,1.2l.92,1.19.46.59.51.56,1,1.13c.65.77,1.44,1.42,2.17,2.13a25.83,25.83,0,0,0,2.34,2c.41.31.79.65,1.22.93l1.28.84,1.29.84,1.34.71,1.35.72c.45.23.93.4,1.39.61A26.81,26.81,0,0,0,78,27.18l1.42.46a12.32,12.32,0,0,0,1.44.4l2.87.63-1.41-.37-1.71-.44c-.67-.18-1.42-.48-2.28-.77-.42-.15-.88-.29-1.34-.48L75.52,26c-.5-.23-1-.45-1.56-.71l-1.61-.9a36,36,0,0,1-3.42-2.19,7.77,7.77,0,0,1-.88-.66l-.87-.71a17.72,17.72,0,0,1-1.76-1.52c-.58-.55-1.18-1.1-1.76-1.69L62,15.68c-.3-.32-.56-.67-.83-1s-.53-.71-.81-1.06-.56-.71-.81-1.09l-.76-1.16L58,10.17c-.25-.4-.47-.82-.71-1.24-.46-.84-1-1.67-1.37-2.58-.22-.44-.43-.89-.65-1.35s-.43-.9-.61-1.38c-.37-.94-.79-1.89-1.13-2.87s-.67-2-1-3S52-4.31,51.68-5.36,51.23-7.5,51-8.58s-.38-2.19-.51-3.31a48.18,48.18,0,0,1-.43-6.83A36.14,36.14,0,0,1,50.78-25.71Z" style="fill:#9b6c3f"/><path d="M83.68,28.64l-.53-.3L82.5,28c-.25-.14-.51-.33-.82-.53a12,12,0,0,1-1-.69c-.35-.27-.74-.53-1.11-.87s-.79-.66-1.18-1.06-.83-.78-1.23-1.23l-.63-.67-.61-.72c-.42-.48-.81-1-1.22-1.55s-.78-1.1-1.18-1.67-.76-1.18-1.1-1.8c-.17-.31-.36-.61-.53-.92l-.49-1c-.33-.63-.63-1.29-.92-1.94s-.56-1.31-.78-2-.45-1.33-.66-2c0,0,0,.18.13.5s.19.82.39,1.43c.1.3.2.65.33,1l.45,1.19c.17.42.37.86.58,1.33s.46,1,.71,1.46.56,1,.86,1.56.66,1.08,1,1.63.76,1.12,1.21,1.67.89,1.12,1.38,1.68c.24.29.51.55.77.83s.52.55.81.81l.86.8.93.75a11.6,11.6,0,0,0,1,.72,10.18,10.18,0,0,0,1,.68c.35.21.7.44,1.07.63Z" style="fill:#9b6c3f"/><path d="M65.64-2.21s0,.45.09,1.28c0,.42.11.93.19,1.53s.23,1.27.39,2,.4,1.57.71,2.44c.14.44.32.89.5,1.35.1.23.19.46.29.7l.32.71c.11.24.23.48.34.73l.39.73.4.74c.14.25.29.5.44.75a33.12,33.12,0,0,0,2,3c.38.51.8,1,1.21,1.52s.86,1,1.33,1.5.93,1,1.44,1.46l.75.73.8.7a41.28,41.28,0,0,0,3.39,2.69,43.34,43.34,0,0,0,3.74,2.4,41.11,41.11,0,0,0,4,2,38.55,38.55,0,0,0,4.23,1.59A33.8,33.8,0,0,0,97,29.51a32.62,32.62,0,0,0,4.36.47l-1.08-.1c-.35,0-.78-.1-1.29-.17s-1.1-.18-1.76-.3-1.37-.3-2.16-.5l-1.22-.35-1.3-.42a43.8,43.8,0,0,1-5.88-2.51c-1-.54-2.13-1.16-3.22-1.83s-2.2-1.43-3.3-2.26-2.2-1.74-3.3-2.72a43.76,43.76,0,0,1-3.17-3.21c-.52-.57-1-1.19-1.5-1.79s-1-1.26-1.41-1.93-.87-1.36-1.31-2.05-.8-1.44-1.15-2.19a26.19,26.19,0,0,1-1.8-4.74A26.38,26.38,0,0,1,65.64-2.21Z" style="fill:#9b6c3f"/><path d="M82.15,10.63l.72,1,2,2.81c.43.61.94,1.25,1.47,2s1.14,1.45,1.78,2.24,1.37,1.59,2.1,2.45c.37.43.79.83,1.2,1.26s.81.87,1.27,1.28c.91.82,1.81,1.72,2.86,2.51.52.4,1,.84,1.57,1.23l1.68,1.14c.56.41,1.18.72,1.78,1.08l.92.51a7,7,0,0,0,.94.49,34,34,0,0,0,4,1.65l1,.36a9,9,0,0,0,1,.32l2.13.52c.35.08.7.19,1.06.25l1.09.16,2.16.32c1.45.14,2.9.18,4.32.26l4.24-.13-4-.08c-.64,0-1.35-.11-2.13-.18l-1.22-.11a12.63,12.63,0,0,1-1.31-.16L112,33.27c-1-.21-2-.53-3.15-.81a16,16,0,0,1-1.65-.55l-1.71-.62c-.58-.22-1.14-.51-1.73-.77l-.88-.41-.45-.2-.43-.24a37.35,37.35,0,0,1-3.51-2.13c-1.2-.75-2.31-1.69-3.49-2.6s-2.26-2-3.34-3.1L90.8,21l-.8-.87c-.53-.58-1.08-1.16-1.6-1.78-1.06-1.21-2.09-2.48-3.13-3.78Z" style="fill:#9b6c3f"/><g id="_x_5_" data-name="x_5_"><path d="M79.05,65.81c-1.1-1.9-4-1.7-5.74-2.61-.09-.05-.68-.14-.54,0l.32.23a2,2,0,0,0-.76.32,4.1,4.1,0,0,1,.58.5c.08.08.15.17.23.26a1.7,1.7,0,0,1,.24.22C75.16,66.49,77.05,69,77,71.48a1.19,1.19,0,0,0,1-.3C78.64,69.44,80.14,67.68,79.05,65.81Z" style="fill:#ffd1c5"/><path d="M42.46,44.52S52,34,66.8,46.47c0,0-2.27-12.21-14.35-11C41.43,36.6,42.46,44.52,42.46,44.52Z" style="opacity:0.6000000000000001;fill:url(#radial-gradient-2)"/><path d="M63.7,51.28a32.56,32.56,0,0,1-18.63-.81c-.14,0-.31,0-.11.09a18.46,18.46,0,0,0,9.44,2.95c3.64.11,6.37-1.38,9.81-2.3Z" style="fill:#fff"/><path d="M74.09,44a1,1,0,0,0-.4-.2,26.33,26.33,0,0,1,1.77,11c-.26,3-1.11,6.75-3.47,8.8-.06.06.57.28.71.15C77.82,59.14,77.4,49.31,74.09,44Z" style="fill:#fffcfa"/><path d="M65.4,56.27a11.09,11.09,0,1,1-11-11.16A11.1,11.1,0,0,1,65.4,56.27Z" style="opacity:0.6000000000000001;fill:url(#_R_W_h_34)"/><path d="M113.22,56.47A11.31,11.31,0,1,1,102,45.1,11.29,11.29,0,0,1,113.22,56.47Z" style="opacity:0.6000000000000001;fill:url(#_R_W_h_34-2)"/><path d="M73.68,43.5c.3.8.55,1.61.77,2.43s.39,1.66.56,2.49c.08.42.14.84.2,1.27s.12.84.17,1.27c.09.85.15,1.7.18,2.56s0,1.72-.06,2.58c0,.43-.06.87-.13,1.3s-.14.86-.23,1.28-.19.86-.32,1.28a9.91,9.91,0,0,1-.46,1.25,8.78,8.78,0,0,1-.59,1.19c-.12.19-.24.39-.37.57L73,63.5l0-.65.73.92c.23.31.46.63.68.95a22.49,22.49,0,0,1,1.23,2,15.61,15.61,0,0,1,1,2.12A6.23,6.23,0,0,1,77,71.11,7,7,0,0,0,76.26,69,16.56,16.56,0,0,0,75.07,67c-.43-.62-.89-1.23-1.37-1.81-.24-.29-.49-.57-.74-.86s-.5-.57-.75-.83L72,63.26l.23-.38.31-.5c.1-.17.18-.35.28-.52a10.63,10.63,0,0,0,.46-1.1,10.93,10.93,0,0,0,.35-1.15l.15-.59.12-.59c.07-.4.14-.8.18-1.21s.09-.81.13-1.22c.07-.82.1-1.64.11-2.47s0-1.66,0-2.49-.07-1.67-.13-2.5C74,46.86,73.85,45.19,73.68,43.5Z" style="fill:#f9b5aa"/><path d="M39.83,35l.21-.2a8.08,8.08,0,0,1,.65-.55c.29-.22.65-.5,1.08-.77l.69-.44.8-.43c.55-.32,1.18-.57,1.84-.87l1-.38.55-.2.57-.15,1.17-.31,1.22-.23c.82-.16,1.67-.2,2.51-.28a10.8,10.8,0,0,1,1.27,0l1.26,0c.84.05,1.65.19,2.44.28s1.52.33,2.22.49a6.25,6.25,0,0,1,1,.3l.93.33a11,11,0,0,1,1.59.63c.46.22.86.42,1.18.59l1,.53S64.68,33.22,64,33l-1.25-.35a16.24,16.24,0,0,0-1.64-.37l-.93-.2L59.66,32c-.17,0-.34-.05-.51-.08L57,31.62l-2.33-.15h-1.2a9.62,9.62,0,0,0-1.2,0,23.31,23.31,0,0,0-2.39.23l-1.17.16-1.13.24-.55.11-.53.15-1,.27-1,.31c-.31.09-.61.2-.9.31A25.5,25.5,0,0,0,39.83,35Z" style="fill:#9b6c42"/><path d="M114.8,36.38a26,26,0,0,0-3.73-1.73c-.28-.11-.58-.22-.9-.32l-1-.32-1-.29-.53-.15-.55-.12L106,33.21,104.8,33a23.09,23.09,0,0,0-2.38-.26c-.4-.05-.81,0-1.21-.05l-1.19,0-2.34.12-2.17.28-.51.07-.49.1-.94.19c-.6.13-1.16.2-1.64.36l-1.26.33-1.11.27s.36-.2,1-.52l1.19-.58a11.67,11.67,0,0,1,1.6-.61l.93-.32a6.35,6.35,0,0,1,1-.28c.7-.16,1.45-.35,2.23-.47s1.6-.21,2.43-.25h1.27a10.82,10.82,0,0,1,1.27,0,23.26,23.26,0,0,1,2.51.32l1.21.23,1.17.33.57.16.54.2,1,.4a17.36,17.36,0,0,1,1.83.89c.28.15.55.29.79.44s.47.31.69.44c.43.28.78.56,1.07.78s.5.43.64.56A2.46,2.46,0,0,1,114.8,36.38Z" style="fill:#9b6c42"/><path d="M44.2,50.3s4.06,3.75,20.07.73a20.19,20.19,0,0,1-11.14,2.6C46.47,53.3,44.2,50.3,44.2,50.3Z" style="fill:#ffe6e3"/><path d="M58.88,40.71c.16.08,9.78,3.51,6.24,10.23,0,0-11.65,3.07-18.81.08,0,0-5.7-1.33-2.85-7.09C43.46,43.93,50,36.56,58.88,40.71Z" style="fill:#fff"/><path d="M66.8,46.47S55.51,29.76,41.73,44.05c0,0,.2,3.85,1.27,5.11a8.79,8.79,0,0,1,.26-3.8C43.88,43.86,54.75,35,66.8,46.47Z" style="fill:#543129"/><path d="M61,41.77s3.64,5.3-.4,9.45c0,0-7.34,1.05-12.93.18,0,0-4.38-1.21-3.37-7.12,0,0,2.81-4.08,9.83-4.39S61,41.77,61,41.77Z" style="fill:url(#_R_W_h_2)"/><path d="M65.12,50.94c.52-.16-15.34,1.3-20.8-.77C44.32,50.17,49.36,55.74,65.12,50.94Z" style="fill:#543129"/><path d="M43.16,48.35s.62-2.84,2.85-1.1C46,47.25,44.93,50.63,43.16,48.35Z" style="fill:#fff"/><path d="M49.43,46.87a3.17,3.17,0,1,0,3.18-3.16A3.17,3.17,0,0,0,49.43,46.87Z" style="fill:#543129"/><path d="M61.14,45.37s-3.14-4.81-7.35.76C53.79,46.13,58.35,51.5,61.14,45.37Z" style="fill:#fff;opacity:0.9"/><path d="M51.18,47.42s-4.73,0-4,2S50.81,47.61,51.18,47.42Z" style="fill:#ffe0dc"/><path d="M51.38,46.13s-3.74-2.9-4.36-.82S51,46.06,51.38,46.13Z" style="fill:#ffe0dc"/><path d="M65.88,43.51s-.26-.31-.74-.8A22.19,22.19,0,0,0,63,40.79a20.24,20.24,0,0,0-3.31-2.22,14.91,14.91,0,0,0-2-.91A13,13,0,0,0,55.49,37a13.59,13.59,0,0,0-2.28-.25,10.61,10.61,0,0,0-1.13,0,7.9,7.9,0,0,0-1.09.12,8.85,8.85,0,0,0-1.05.19c-.34.06-.67.16-1,.25a8.27,8.27,0,0,0-.92.31c-.3.11-.59.2-.86.32-.53.25-1,.44-1.45.68a12.11,12.11,0,0,0-1.08.6l-.94.55.86-.66c.27-.22.63-.44,1-.71A13.59,13.59,0,0,1,47,37.64a14,14,0,0,1,1.78-.76,8.07,8.07,0,0,1,1-.31,7.69,7.69,0,0,1,1.08-.24A11,11,0,0,1,52,36.17c.19,0,.39,0,.58,0h.6a14,14,0,0,1,2.4.24,15,15,0,0,1,2.31.68,16.17,16.17,0,0,1,2.09,1,16.55,16.55,0,0,1,1.8,1.2A17.91,17.91,0,0,1,63.3,40.5a18.1,18.1,0,0,1,1.94,2.12C65.67,43.17,65.88,43.51,65.88,43.51Z" style="fill:#f9b5aa"/><path d="M46.49,40.68s-4.13.44-5.57-2.87c0,0,.32,2.65,4.1,4.13Z" style="fill:#543129"/><path d="M48.5,39.34s-2.53.07-3.26-1.77a3.12,3.12,0,0,0,2.32,2.56Z" style="fill:#543129"/><path d="M49.71,39.29a1.93,1.93,0,0,1-.37,0,.7.7,0,0,1-.18-.05L49,39.1a1.81,1.81,0,0,1-.43-.29,3.83,3.83,0,0,1-.81-1,4.74,4.74,0,0,1-.54-1.22,1.77,1.77,0,0,0,0,.31,3.06,3.06,0,0,0,.29.83,3.39,3.39,0,0,0,.77,1,2.23,2.23,0,0,0,.64.4,1.4,1.4,0,0,0,.39.1A1.78,1.78,0,0,0,49.71,39.29Z" style="fill:#543129"/><path d="M45,42.43l-.7-.1a1.55,1.55,0,0,1-.35-.07l-.41-.11a2.64,2.64,0,0,1-.46-.13l-.48-.2-.26-.1-.24-.14-.52-.28c-.17-.1-.33-.23-.5-.35a3.65,3.65,0,0,1-.49-.39l-.47-.42-.43-.49-.21-.24-.19-.26-.37-.52s.11.21.27.55c0,.09.1.18.15.29s.14.2.22.32l.26.36a2.83,2.83,0,0,0,.33.37l.39.39a5.82,5.82,0,0,0,.47.36,3.24,3.24,0,0,0,.53.35l.6.31a6.4,6.4,0,0,0,.66.23l.34.11.36.07a4.67,4.67,0,0,0,.74.09Z" style="fill:#543129"/><path d="M43.48,42.74S40.4,44.36,37,40.07c0,0,1.62,4.69,5.42,4.45Z" style="fill:#543129"/><path d="M73.74,83.28s6.54,4.82,12.86-.35c0,0-2.16,5.63-7.08,5.23A6.33,6.33,0,0,1,73.74,83.28Z" style="fill:#ffd1c5"/><path d="M64.08,75.18s16.13,5.6,30.8.33a17.88,17.88,0,0,1-14.72,9.11C71.56,85.17,63,75.38,64.08,75.18Z" style="opacity:0.6000000000000001;fill:url(#radial-gradient-3)"/><path d="M64.08,75.18s16.13,5.6,30.8.33a17.88,17.88,0,0,1-14.72,9.11C71.56,85.17,63,75.38,64.08,75.18Z" style="opacity:0.6000000000000001;fill:url(#radial-gradient-3)"/><path d="M69.16,76.4l2,.55a8.64,8.64,0,0,0,1,.22l1.21.23c.43.08.89.16,1.37.21l1.51.16c1,.12,2.18.13,3.35.18l1.79,0c.61,0,1.22,0,1.84-.09l1.86-.16c.62-.07,1.23-.17,1.85-.26s1.23-.2,1.82-.35,1.2-.28,1.77-.43l-1.72.08-.92.06-1.09,0-1.24,0c-.44,0-.91,0-1.39,0l-1.53,0H81c-.56,0-1.15,0-1.75,0l-1.86,0c-.64,0-1.28,0-1.94-.06s-1.34,0-2-.09-1.39-.08-2.09-.15S69.88,76.47,69.16,76.4Z" style="fill:#fffcfa"/><path d="M86.25,80.79a3.59,3.59,0,0,0-1.87.3l-.1,0a3.52,3.52,0,0,0-1.07.78c-.06.07-.2.2-.06.27a2.34,2.34,0,0,0,2.6-.47,1.19,1.19,0,0,0,.56-.65s0,0,0,0a.5.5,0,0,0,.08-.12C86.42,80.82,86.31,80.79,86.25,80.79Z" style="fill:#fffcfa"/><path d="M64.48,75.64s.45.23,1.26.57,2,.78,3.39,1.24c.7.22,1.48.44,2.29.65s1.7.38,2.6.56,1.84.29,2.8.39a27.88,27.88,0,0,0,2.9.14,25.38,25.38,0,0,0,2.9-.12c.48,0,.95-.09,1.42-.16l.69-.09.68-.12.67-.13.65-.15c.44-.09.86-.18,1.26-.3.82-.22,1.57-.47,2.28-.7l1-.37a9.38,9.38,0,0,0,.9-.35c.55-.24,1.06-.42,1.45-.62l1.26-.57s-.4.32-1.11.84c-.35.28-.81.55-1.33.89s-1.14.65-1.82,1a24.53,24.53,0,0,1-2.27,1c-.41.16-.84.3-1.28.44s-.9.27-1.37.38l-.71.17-.72.13-.74.14-.75.09a28.43,28.43,0,0,1-3.07.18c-1,0-2.06-.09-3.06-.21l-.75-.1-.74-.14c-.48-.08-1-.2-1.43-.3a25.65,25.65,0,0,1-2.64-.8,24.28,24.28,0,0,1-5.49-2.73A11.47,11.47,0,0,1,64.48,75.64Z" style="fill:#ef9289"/><path d="M73.55,83.21a16.53,16.53,0,0,0,13-.18S80.42,89.83,73.55,83.21Z" style="fill:#ef9289"/><path d="M88.67,52.32s10.26-8.16,25.56.94C114.23,53.26,97.93,47.48,88.67,52.32Z" style="fill:#ffe6e3"/><path d="M89.35,44.21a15.28,15.28,0,0,1,14.84-6.73s10.79,1.18,10.62,9.21c0,0-5.57,1.12-12.69,1.75S91,47.25,89.35,44.21Z" style="opacity:0.6000000000000001;fill:url(#radial-gradient-5)"/><path d="M90.05,49.08a8.76,8.76,0,0,1,.75-.92,14,14,0,0,1,2.4-2,13.27,13.27,0,0,1,4.1-1.83,12.86,12.86,0,0,1,2.53-.35c.43,0,.87,0,1.31,0s.88.06,1.32.15a11.37,11.37,0,0,1,1.29.27l.64.17.61.21a11.5,11.5,0,0,1,1.2.47c.4.16.76.35,1.13.54l.54.28c.18.1.35.2.51.31.34.2.68.39,1,.61l.89.62c.29.21.55.43.8.63.52.4,1,.81,1.34,1.16s.72.68,1,1l.82.86-.93-.75c-.28-.24-.64-.53-1.06-.83s-.89-.67-1.42-1L110,48l-.91-.56c-.31-.2-.65-.36-1-.55l-.51-.27-.53-.26c-.36-.17-.73-.34-1.11-.48s-.76-.31-1.16-.43l-.59-.19c-.2-.06-.4-.1-.61-.15a9.92,9.92,0,0,0-1.23-.25c-.41-.09-.83-.1-1.24-.16s-.83,0-1.24,0a13.46,13.46,0,0,0-2.4.27,14.9,14.9,0,0,0-2.17.66,15.14,15.14,0,0,0-1.85.88c-.54.32-1,.63-1.46.94a11.23,11.23,0,0,0-1.06.84A10.55,10.55,0,0,0,90.05,49.08Z" style="fill:#f9b5aa"/><path d="M88.67,52.32s10.1-14.64,25.56.94C114.23,53.26,99.65,45.46,88.67,52.32Z" style="fill:#543129"/><path d="M109.27,49.66s3.88.86,6.6-4.5c0,0-.75,5.41-4.92,6Z" style="fill:#543129"/><path d="M106,47.79s4.56-.41,5.41-4.3c0,0,.23,2.94-3.54,5.35Z" style="fill:#543129"/><path d="M103.54,46.76s2.76-.46,3.15-2.61a3.46,3.46,0,0,1-2,3.27Z" style="fill:#543129"/><path d="M102.22,47a2.57,2.57,0,0,0,.41-.08.6.6,0,0,0,.2-.07,2.39,2.39,0,0,0,.22-.12,2.33,2.33,0,0,0,.46-.39,3.44,3.44,0,0,0,.72-1.24,3.24,3.24,0,0,0,.16-1.5,2.81,2.81,0,0,1,0,.34,4.14,4.14,0,0,1-.23.91,4.3,4.3,0,0,1-.61,1.21,2.93,2.93,0,0,1-.54.58,2.07,2.07,0,0,1-.35.22A2.83,2.83,0,0,1,102.22,47Z" style="fill:#543129"/><path d="M108,49.35l.77-.16a2.34,2.34,0,0,0,.4-.1l.44-.17a3.47,3.47,0,0,0,.5-.2l.52-.29.28-.16.25-.19.54-.42c.17-.16.32-.34.48-.51a3.12,3.12,0,0,0,.46-.56l.41-.61c.1-.22.2-.45.31-.67s.09-.21.14-.33l.09-.35c.06-.22.11-.44.17-.68l-.27.61c0,.1-.08.21-.13.32s-.14.23-.21.37-.16.26-.24.41a2.86,2.86,0,0,1-.3.44l-.35.46c-.12.16-.28.3-.43.47a4.23,4.23,0,0,1-.48.46l-.54.45c-.19.15-.41.27-.62.41l-.32.21-.35.17a6.16,6.16,0,0,1-.74.33Z" style="fill:#543129"/></g><path d="M37.19-27.79s-.24.19-.66.58-1.05,1-1.81,1.73a65.64,65.64,0,0,0-5.82,6.75c-1.12,1.47-2.24,3.12-3.35,4.91-.27.46-.55.91-.82,1.38s-.53.95-.8,1.44c-.54,1-1,2-1.53,3a52.56,52.56,0,0,0-2.57,6.6c-.39,1.14-.65,2.33-1,3.51-.16.59-.24,1.2-.37,1.79s-.25,1.2-.32,1.81c-.14,1.22-.37,2.42-.41,3.64l-.12,1.82c0,.61,0,1.22,0,1.82s0,1.2,0,1.8.08,1.19.13,1.77c0,1.19.26,2.34.41,3.48s.43,2.23.64,3.32.52,2.12.8,3.14c.15.5.29,1,.43,1.5l.51,1.42.5,1.38a12.73,12.73,0,0,0,.51,1.31c.76,1.68,1.37,3.26,2.1,4.58s1.25,2.51,1.83,3.42L27.24,43l-1.83-2.85c-.61-.89-1.21-2.06-1.94-3.38S22,34,21.25,32.27A13.83,13.83,0,0,1,20.71,31l-.53-1.38c-.18-.47-.36-.94-.54-1.43s-.31-1-.46-1.5c-.31-1-.66-2.06-.88-3.16s-.53-2.2-.67-3.35-.39-2.32-.44-3.51c-.05-.6-.1-1.2-.14-1.8s0-1.22,0-1.83,0-1.22,0-1.84.08-1.23.11-1.84l.06-.93c0-.31.07-.62.11-.92l.23-1.85c.07-.62.23-1.22.34-1.83s.21-1.22.38-1.82c.32-1.19.59-2.4,1-3.55a51,51,0,0,1,2.64-6.66,55.57,55.57,0,0,1,3.26-5.84A58.22,58.22,0,0,1,28.6-19c1.13-1.47,2.26-2.74,3.28-3.85s2-2,2.75-2.76,1.43-1.3,1.87-1.67S37.19-27.79,37.19-27.79Z" style="fill:#9b6c3f"/><path d="M124.14-21.56s.74.84,1.93,2.42c.58.79,1.29,1.76,2.06,2.9s1.61,2.44,2.48,3.89,1.76,3.06,2.64,4.79S135-4,135.79-2s1.53,4,2.13,6.18a57.15,57.15,0,0,1,1.51,6.58,46.62,46.62,0,0,1,.54,6.74c0,.56,0,1.12,0,1.67s-.07,1.1-.11,1.65c0,1.09-.22,2.16-.36,3.21,0,.27-.07.53-.11.79s-.11.51-.17.77l-.33,1.51a13.79,13.79,0,0,1-.4,1.47c-.15.47-.3,1-.44,1.41a36.88,36.88,0,0,1-2.15,5c-.19.38-.37.75-.56,1.11l-.62,1c-.42.66-.78,1.29-1.18,1.86l-1.14,1.55c-.37.47-.66.93-1,1.29l-2.06,2.32,2-2.4c.33-.37.61-.84,1-1.32l1.08-1.58c.37-.57.72-1.22,1.1-1.88.2-.33.39-.67.59-1s.36-.73.54-1.11a36.44,36.44,0,0,0,2-5c.13-.46.26-.93.4-1.41a13.81,13.81,0,0,0,.37-1.44c.1-.5.2-1,.31-1.5.05-.25.1-.51.16-.76s.06-.52.1-.77c.13-1,.3-2.1.33-3.18q0-.8.09-1.62V17.5a46.64,46.64,0,0,0-.58-6.64,56.94,56.94,0,0,0-1.45-6.52c-.58-2.12-1.32-4.17-2.07-6.13s-1.58-3.82-2.44-5.55-1.69-3.35-2.52-4.82-1.62-2.79-2.36-3.94-1.4-2.15-2-3C124.84-20.68,124.14-21.56,124.14-21.56Z" style="fill:#9b6c3f"/><path d="M50.53-10.76s-.05.78,0,2.15A54.59,54.59,0,0,0,50.9-3c.15,1.16.34,2.41.61,3.72.13.66.31,1.33.46,2s.35,1.38.58,2.07a36.5,36.5,0,0,0,1.54,4.22,32.55,32.55,0,0,0,2.15,4.09,29,29,0,0,0,2.7,3.75c.51.57,1,1.13,1.55,1.66s1.07,1,1.65,1.48a29.52,29.52,0,0,0,3.41,2.44c.58.32,1.13.66,1.69,1l1.65.78c.53.25,1.06.42,1.56.62s1,.38,1.42.51l1.27.38.57.18.52.12,2.1.48-2.12-.39L73.68,26l-.57-.15-1.29-.35A11.49,11.49,0,0,1,70.37,25c-.51-.18-1.05-.35-1.59-.59l-1.67-.75c-.57-.27-1.14-.61-1.74-.93a25.78,25.78,0,0,1-3.5-2.41c-.58-.45-1.11-1-1.68-1.49s-1.06-1.1-1.58-1.68a29,29,0,0,1-2.77-3.79,32.31,32.31,0,0,1-2.16-4.17A42.17,42.17,0,0,1,52.15,5c-.22-.71-.38-1.41-.56-2.1s-.3-1.37-.41-2c-.26-1.33-.41-2.59-.54-3.76a45.84,45.84,0,0,1-.23-5.67C50.44-10,50.53-10.76,50.53-10.76Z" style="fill:#9b6c3f"/><path d="M69.74,10.56s.31.56.91,1.51,1.49,2.27,2.66,3.8c.59.75,1.23,1.57,2,2.39s1.51,1.67,2.35,2.52,1.76,1.68,2.73,2.48c.47.41,1,.78,1.48,1.18s1,.74,1.56,1.09,1.06.71,1.61,1l.82.48.84.43A28.09,28.09,0,0,0,90,28.89c.56.2,1.13.34,1.68.52s1.1.27,1.63.4a25.82,25.82,0,0,0,3.05.42l.7.06h.67l1.24,0c.78,0,1.46-.06,2-.12l1.74-.22L101,30.3c-.56.08-1.24.12-2,.2-.39,0-.81,0-1.25,0h-.68l-.7,0a25.81,25.81,0,0,1-3.1-.35c-.55-.12-1.11-.22-1.67-.36s-1.14-.31-1.71-.51a26.71,26.71,0,0,1-3.44-1.44l-.86-.43-.84-.47c-.56-.31-1.1-.67-1.64-1s-1-.74-1.58-1.12-1-.78-1.49-1.2c-1-.82-1.88-1.68-2.73-2.53S75.71,19.34,75,18.48,73.67,16.8,73.09,16a43.13,43.13,0,0,1-2.52-3.9C70,11.14,69.74,10.56,69.74,10.56Z" style="fill:#9b6c3f"/><path d="M48.76-11.18s-.75,1-2,2.74S43.92-4.09,42.1-.9a93.18,93.18,0,0,0-5.42,11.31,69.8,69.8,0,0,0-2.27,6.68,56.3,56.3,0,0,0-1.53,7.12,44.17,44.17,0,0,0-.52,7.24,37.89,37.89,0,0,0,.74,7A34.9,34.9,0,0,0,35,44.72a34.05,34.05,0,0,0,2.75,5.22,41.2,41.2,0,0,0,3,4c1,1.13,1.88,2.07,2.65,2.81l1,1,.8.7.67.58-.69-.55-.83-.67-1.08-.94c-.8-.72-1.73-1.64-2.75-2.74a35.79,35.79,0,0,1-3.12-4,34.44,34.44,0,0,1-2.89-5.24,33.5,33.5,0,0,1-2.06-6.35,38.21,38.21,0,0,1-.79-7.1,44.35,44.35,0,0,1,.48-7.35,56.75,56.75,0,0,1,1.59-7.19,69.07,69.07,0,0,1,2.34-6.73C37,8,38,6,38.9,4.13S40.84.5,41.77-1.09c1.88-3.18,3.65-5.69,4.92-7.43S48.76-11.18,48.76-11.18Z" style="fill:#9b6c3f"/><path d="M123.51,34.3s-.89-.5-2.39-1.46-3.65-2.36-6.14-4.15c-1.25-.88-2.58-1.87-4-2.93s-2.86-2.2-4.33-3.43-3-2.5-4.49-3.84c-.76-.66-1.5-1.35-2.26-2s-1.49-1.4-2.22-2.11c-1.46-1.43-2.9-2.89-4.27-4.36-.69-.74-1.36-1.47-2-2.22S90.13,6.3,89.51,5.56,88.3,4.1,87.73,3.37s-1.12-1.44-1.64-2.14l-.78-1-.72-1c-.47-.68-.93-1.33-1.34-2s-.83-1.25-1.19-1.85l-1-1.71c-.63-1.08-1.12-2-1.55-2.83l-1.23-2.52,1.31,2.48c.45.77,1,1.72,1.62,2.78l1,1.68c.38.58.8,1.18,1.22,1.82s.89,1.28,1.37,2l.74,1,.78,1c.54.69,1.08,1.41,1.67,2.11s1.17,1.45,1.8,2.17,1.25,1.46,1.91,2.19,1.32,1.47,2,2.19C95.12,11.15,96.57,12.59,98,14c.72.71,1.47,1.41,2.2,2.11s1.49,1.38,2.24,2c1.5,1.34,3,2.64,4.46,3.86,2.93,2.44,5.75,4.64,8.21,6.46s4.55,3.28,6,4.28S123.51,34.3,123.51,34.3Z" style="fill:#9b6c3f"/><path d="M72.83-23s1.06.58,2.87,1.7,4.36,2.78,7.3,4.94c1.47,1.08,3,2.28,4.68,3.59S91-10,92.72-8.5s3.43,3.12,5.14,4.8l1.28,1.27,1.26,1.3c.86.86,1.67,1.77,2.5,2.66s1.61,1.83,2.41,2.73l2.31,2.79c.74,1,1.49,1.87,2.19,2.81s1.4,1.87,2.06,2.81,1.3,1.85,1.9,2.77l1.73,2.71c.54.9,1.06,1.77,1.56,2.62s.94,1.69,1.38,2.49.85,1.57,1.21,2.32.73,1.45,1,2.12c.6,1.35,1.15,2.52,1.56,3.51l1.25,3.09-1.32-3.06c-.44-1-1-2.13-1.65-3.47-.33-.66-.7-1.35-1.09-2.09s-.78-1.51-1.24-2.29-.91-1.63-1.41-2.47-1-1.7-1.59-2.59l-1.77-2.68c-.61-.9-1.26-1.81-1.91-2.75s-1.36-1.84-2.06-2.78S108,8.27,107.28,7.33L105,4.56c-.81-.9-1.59-1.82-2.42-2.71s-1.63-1.8-2.48-2.66c-.41-.44-.83-.87-1.25-1.31L97.55-3.38c-1.69-1.69-3.42-3.29-5.11-4.82s-3.36-3-5-4.27S84.3-15,82.84-16.1c-2.91-2.19-5.4-3.93-7.18-5.09S72.83-23,72.83-23Z" style="fill:#9b6c3f"/><path d="M73-25.37a31.7,31.7,0,0,1,3.53.75c1.12.29,2.46.68,4,1.21s3.2,1.17,5,2,3.7,1.81,5.66,2.92l1.47.9c.5.29,1,.61,1.48.95s1,.66,1.5,1l1.47,1.09c.5.36,1,.75,1.47,1.15L100-12.22l1.43,1.28.72.64.69.68,1.39,1.37c.46.47.89,1,1.34,1.44.91.95,1.73,2,2.57,3,.43.5.82,1,1.21,1.56l1.17,1.59c.74,1.08,1.45,2.18,2.16,3.26S114,4.81,114.6,5.93s1.17,2.23,1.71,3.34l1.49,3.32c.44,1.1.84,2.19,1.25,3.25l.3.78c.08.27.17.53.25.79.17.52.34,1,.5,1.55.33,1,.65,2,.88,2.94s.5,1.87.73,2.73.37,1.71.55,2.5c.32,1.56.62,2.93.77,4.07.36,2.27.56,3.56.56,3.56s-.23-1.29-.64-3.55c-.17-1.13-.5-2.49-.86-4.05-.19-.77-.35-1.61-.6-2.47s-.5-1.77-.76-2.72-.58-1.92-.92-2.92q-.25-.75-.51-1.53l-.27-.78c-.1-.26-.2-.52-.31-.78-.41-1.05-.83-2.13-1.28-3.22l-1.5-3.29c-.54-1.1-1.13-2.2-1.71-3.32s-1.29-2.19-1.94-3.3S110.87.67,110.14-.41L109-2c-.39-.53-.78-1.06-1.2-1.55-.84-1-1.65-2-2.55-3-.44-.48-.87-1-1.32-1.44L102.53-9.3l-.69-.68-.71-.64-1.42-1.27c-.48-.41-1-.8-1.45-1.2s-1-.79-1.46-1.14l-1.46-1.09-1.47-1c-.49-.34-1-.66-1.46-1L91-18.21c-1.94-1.13-3.82-2.15-5.6-3s-3.44-1.53-5-2.07-2.82-1-3.93-1.29A32.06,32.06,0,0,0,73-25.37Z" style="fill:#9b6c3f"/><path d="M123.53,34.32s.1-1.57,0-4.32a96,96,0,0,0-.92-11.35A82.79,82.79,0,0,0,119,3a62.83,62.83,0,0,0-3.54-8.33,52.5,52.5,0,0,0-5-7.89,46.27,46.27,0,0,0-6.38-6.8,44.27,44.27,0,0,0-7.42-5.15,47.16,47.16,0,0,0-7.75-3.37,55.14,55.14,0,0,0-7.36-1.86c-1.16-.19-2.27-.39-3.34-.5-.53-.06-1-.14-1.55-.19l-1.48-.12c-1-.1-1.85-.12-2.67-.16s-1.59,0-2.28-.06c-1.38,0-2.46,0-3.19,0l-1.13,0,1.13-.05c.73,0,1.81-.1,3.19-.1.69,0,1.45,0,2.28,0s1.73,0,2.68.11l1.49.1c.5,0,1,.1,1.56.15,1.07.1,2.19.29,3.36.46A57.63,57.63,0,0,1,89-28.85a45.33,45.33,0,0,1,7.84,3.34,44.47,44.47,0,0,1,7.51,5.17,46.63,46.63,0,0,1,6.46,6.85,53.16,53.16,0,0,1,5,8,63.66,63.66,0,0,1,3.54,8.4,77,77,0,0,1,2.27,8.21c.57,2.65,1,5.17,1.29,7.52A91.7,91.7,0,0,1,123.66,30C123.66,32.75,123.53,34.32,123.53,34.32Z" style="fill:#9b6c3f"/><path d="M123.51,34.3s-1.15-.18-3.13-.68c-1-.24-2.18-.58-3.55-1s-2.88-.91-4.52-1.54c-.82-.3-1.66-.66-2.54-1s-1.77-.74-2.67-1.17c-1.83-.82-3.71-1.8-5.63-2.86s-3.85-2.25-5.74-3.56S92,19.78,90.15,18.31c-.89-.76-1.77-1.53-2.63-2.31s-1.7-1.59-2.48-2.43A67.32,67.32,0,0,1,80.57,8.5c-.67-.87-1.36-1.69-1.94-2.58l-.9-1.28L77.3,4l-.4-.64c-.53-.86-1.06-1.68-1.54-2.49S74.47-.75,74-1.52s-.76-1.54-1.11-2.25S72.24-5.16,72-5.83l-.75-1.84c-.24-.57-.46-1.09-.61-1.58l-1-3,1.12,3c.17.48.4,1,.65,1.56l.8,1.82c.27.66.63,1.32,1,2s.7,1.47,1.14,2.23L75.63.72c.48.81,1,1.61,1.55,2.46l.41.63.45.62c.29.42.6.84.9,1.27.6.86,1.28,1.69,2,2.54a66.57,66.57,0,0,0,4.46,5c.79.83,1.65,1.59,2.48,2.4S89.57,17.2,90.45,18c1.8,1.47,3.63,2.9,5.53,4.18s3.8,2.48,5.69,3.57,3.76,2.05,5.57,2.89c.9.45,1.8.82,2.65,1.21s1.7.73,2.52,1c1.62.64,3.13,1.17,4.48,1.63s2.53.81,3.51,1.07C122.36,34.09,123.51,34.3,123.51,34.3Z" style="fill:#9b6c3f"/><path d="M67.92,101.63a2.8,2.8,0,0,1-.79-3.49l8.92-16.39c.62-1.15,1.51-1.09,2,.14l1.83,4.89a5.92,5.92,0,0,1-.3,4.32l-6.26,11.51a2,2,0,0,1-3.06.69Z" style="fill:#f99"/><path d="M67.9,101.65l-.11-.1a3,3,0,0,1-.33-.32,2.92,2.92,0,0,1-.67-1.6,3.92,3.92,0,0,1,0-.59A2.84,2.84,0,0,1,67,98.4a4.76,4.76,0,0,1,.29-.65l.35-.67c.47-.92,1-2,1.59-3.11s1.24-2.35,1.95-3.63,1.48-2.62,2.27-4S75,83.5,75.8,82a2.74,2.74,0,0,1,.77-1,.84.84,0,0,1,.67-.14,1,1,0,0,1,.55.41,5.38,5.38,0,0,1,.55,1.17l.47,1.19L79.75,86l.23.59c.09.22.13.41.2.61a6.76,6.76,0,0,1,.15,1.32,6,6,0,0,1-.51,2.52c-.37.75-.76,1.45-1.14,2.16-.75,1.41-1.5,2.76-2.2,4s-1.38,2.5-2,3.61l-.92,1.59-.11.18,0,.05,0,.06-.07.08a1.68,1.68,0,0,1-.27.34,2.88,2.88,0,0,1-.33.28l-.37.21a2.05,2.05,0,0,1-1.48,0,1.82,1.82,0,0,1-.59-.3c-.18-.11-.33-.23-.48-.34l-1.89-1.4Zm0,0,1.9,1.36a3.18,3.18,0,0,0,1.06.58,1.83,1.83,0,0,0,1.35-.11,3.28,3.28,0,0,0,.31-.2,2.16,2.16,0,0,0,.27-.25,1.4,1.4,0,0,0,.24-.33l.06-.09,0,0,0-.05.1-.2c.27-.51.55-1.06.84-1.63C74.7,99.53,75.34,98.3,76,97s1.42-2.65,2.2-4c.38-.7.79-1.42,1.16-2.13a5.77,5.77,0,0,0,.49-2.32,6.67,6.67,0,0,0-.09-1.19c-.06-.2-.11-.42-.18-.6l-.22-.59-.84-2.41-.43-1.21a4.9,4.9,0,0,0-.49-1.14A.88.88,0,0,0,77.2,81a.67.67,0,0,0-.54.11,2.54,2.54,0,0,0-.72,1c-.8,1.47-1.58,2.93-2.31,4.35s-1.43,2.8-2.13,4.08-1.36,2.5-2,3.62-1.23,2.12-1.75,3l-.37.65a4.08,4.08,0,0,0-.32.62,2.74,2.74,0,0,0-.18.6,3.77,3.77,0,0,0,0,.58,2.78,2.78,0,0,0,.61,1.56,2.37,2.37,0,0,0,.32.32Z" style="fill:#f27777"/><path d="M66.46,97.15a1.63,1.63,0,0,0,.65,2.22l5.63,3a1.62,1.62,0,0,0,2.21-.65h0a1.63,1.63,0,0,0-.65-2.22l-5.62-3.06a1.63,1.63,0,0,0-2.22.66Z" style="fill:#b22d53"/><path d="M55.23,115.45a3.58,3.58,0,0,0,1.43,4.84l4.19,2.28a3.58,3.58,0,0,0,4.84-1.44l8.61-15.82a3.59,3.59,0,0,0-1.43-4.85l-4.18-2.27a3.59,3.59,0,0,0-4.85,1.43Z" style="fill:#d8214d"/><path d="M55.25,115.46l-.08.18a3,3,0,0,0-.2.52,3.52,3.52,0,0,0,.06,2.1,3.28,3.28,0,0,0,.78,1.28,5.07,5.07,0,0,0,1.49,1l3.86,2a3.35,3.35,0,0,0,2.28.16,3.44,3.44,0,0,0,2-1.46l2.82-5c1-1.73,2-3.53,3-5.37s2-3.72,3-5.59a3.44,3.44,0,0,0-.77-4.15,3.14,3.14,0,0,0-.6-.43l-.69-.37-2.74-1.47A10.24,10.24,0,0,0,68,98.18,3.17,3.17,0,0,0,66.67,98a3.4,3.4,0,0,0-2.32,1.28,10.36,10.36,0,0,0-.7,1.19c-.22.41-.45.82-.66,1.22-.87,1.6-1.72,3.11-2.5,4.49S59,108.87,58.33,110s-1.21,2.1-1.66,2.92Zm0,0,1.37-2.58c.45-.82,1-1.83,1.55-3s1.26-2.45,2-3.86,1.54-2.94,2.41-4.54l.66-1.22A9.82,9.82,0,0,1,63.94,99a3.81,3.81,0,0,1,2.68-1.48,3.77,3.77,0,0,1,1.59.19,11.46,11.46,0,0,1,1.4.71l2.72,1.5.68.39a3.6,3.6,0,0,1,.67.49,3.87,3.87,0,0,1,.94,1.36,3.76,3.76,0,0,1-.2,3.21q-1.58,2.79-3.08,5.54c-1,1.84-2,3.66-2.89,5.43s-1.79,3.47-2.69,5.08A3.74,3.74,0,0,1,61,122.85c-1.42-.76-2.66-1.51-3.79-2.15a5.19,5.19,0,0,1-1.49-1.06,3.87,3.87,0,0,1-.77-1.35,3.64,3.64,0,0,1,0-2.15,4.84,4.84,0,0,1,.21-.53Z" style="fill:#b22d53"/><g id="_Group_5" data-name="&lt;Group&gt;"><path d="M61.83,98.3c1.27.24.83,5.09.47,6.56a18.4,18.4,0,0,1-.86,2.47l.05,0c.33-.8,1-1.75,1.38-2.47s1.16-2.69,2-2.57c1.14,0,1.35,1.9,1.31,2.78-.21,3.27-1.6,6.72-3,10h0c1.57-2.22,2.68-5,4.66-6.71,3.65-3,2,3.42,1.22,4.89-2.91,5.54-4.24,9.23-2.51,15.37,1.42,4.72,3.4,10.14,5.19,14.88,2,5.46,2.06,11,1.2,16.72-.25,2.34-.47,4.84-.91,7.27-.84,3.94-1.38,7.8-1.94,11.83a39.48,39.48,0,0,1-1.82,7.31c-.67,2.26-.14,6.81-1.58,8.57l-2.31,12c-.94,2.7-7.27,28.85-9.79,30.56-11.38,7.73-19.25-1.41-19.77-1.64l-3.26-.66c1.11-2.75,14.41-38,15.83-41.24A122.63,122.63,0,0,0,52,180.92c2.36-8.38,6-16.31,2.48-24.51s-7.15-15.87-10.94-24.07c-1.56-3.5-4.77-6.36-3.46-10.29,1.33-4.18,2.06-6.68,2.12-11.3.08-1.85-.67-4.26.24-5.55,5.06,1.77,4.26,9.15,3.8,13.1-.84,6.32.42,9,5,15.59-.73-2.76-1-5.57-1.56-8.33-.71-3.46-2.21-6.07-.26-9.26s4.45-6.19,6.59-9.38c1.52-2.32,2.4-5.11,4.21-7.34.75-1,1.29-1.35,1.68-1.28Z" style="fill:#fff1e3"/></g><path d="M42.41,105.2s4.73,6,1.56,18.4c0,0-.4,5.19,7.2,10.29,0,0-4.51-6.31-5.08-10.41s1.54-11.55-.36-15S42.41,105.2,42.41,105.2Z" style="fill:#ffe2dc"/><path d="M61.83,98.3s3.81,3.44-4.3,16l-2.61,4.78s-.83,1.62.36,6.44a43.67,43.67,0,0,1,1.21,9s-4.82-9.81-3.43-14.49S62.23,106.67,61.83,98.3Z" style="fill:#ffe2dc"/><path d="M65,102.44s3.14.49-1.6,12c0,0-2,4.37-3,6.64s1.56,13.45,1.72,14.74c0,0-5.39-12-3.21-15.65S66,108.39,65,102.44Z" style="fill:#ffe2dc"/><path d="M69.26,107.8s2.27-.88-.44,6c0,0-3.37,5.54-3,11.21,0,0,1.72,7.18,3.39,11.74,0,0,6.14,12.82,3.47,25,0,0-10.09,62.05-16.95,78.47,0,0-8.11,14.89-13.21,9.22,0,0,28.51-69.79,25.69-91.47s-7.11-34.5-1.95-42.37c4.29-6.55,3-7.45,3-7.45S68.68,107.72,69.26,107.8Z" style="fill:#ffe2dc"/><path d="M56.58,135.79a.53.53,0,0,0-.73.31,2,2,0,0,0,.24,1.53.43.43,0,0,0,.2.18.55.55,0,0,0,.65-.06A1.17,1.17,0,0,0,56.58,135.79Z" style="fill:#ffe2dc"/><path d="M62.44,137.06a.52.52,0,0,0-.9.17,2.18,2.18,0,0,0,.39,1.74.53.53,0,0,0,.88,0,1.59,1.59,0,0,0-.2-1.73A.44.44,0,0,0,62.44,137.06Z" style="fill:#ffe2dc"/><path d="M49.57,116.44a1.42,1.42,0,0,0-.82.94v0a4.58,4.58,0,0,0,.06,4,.53.53,0,0,0,.8.08c.67-.79.42-1.69.64-2.6.18-.74.55-1.66,0-2.34A.54.54,0,0,0,49.57,116.44Z" style="fill:#ffe2dc"/><path d="M55.79,118.7a1,1,0,0,0-.94,1,.43.43,0,0,0,.06.3,3.21,3.21,0,0,0,.18,2.78.53.53,0,0,0,.88,0,4.26,4.26,0,0,0,.61-1.44,3.66,3.66,0,0,0,.16-1.67C56.65,119.22,56.35,118.69,55.79,118.7Z" style="fill:#ffe2dc"/><path d="M61.22,120.72a1.48,1.48,0,0,0-.82.67.4.4,0,0,0,0,.42,4.54,4.54,0,0,0,.18,2.31.51.51,0,0,0,.74.26c1.08-.61,1.39-2.77.4-3.55A.51.51,0,0,0,61.22,120.72Z" style="fill:#ffe2dc"/><path d="M40.25,122.23a1.24,1.24,0,0,0-.4.84,4.37,4.37,0,0,0,.25,2.69.53.53,0,0,0,.75.27c1.11-.49,1.14-2.41.78-3.32C41.42,122.2,40.76,121.78,40.25,122.23Z" style="fill:#ffe2dc"/><path d="M44.29,106.42a.14.14,0,0,0-.09,0,7.47,7.47,0,0,0-1.42-1.16c-.09-.06-.52.21-.47.26a14.08,14.08,0,0,1,3.11,4.22,13.86,13.86,0,0,1,.91,5c0,.08.22-.14.23-.25a13.3,13.3,0,0,0-.61-5.15s0,0,0,0A4.12,4.12,0,0,0,44.29,106.42Z" style="fill:#ffc5bb"/><path d="M61.77,98.49a12.69,12.69,0,0,1,.11,7.64c0,.05.42-.06.45-.17a15.26,15.26,0,0,0,.44-3.75c0-1.08.14-3-.64-3.85C62.06,98.29,61.73,98.39,61.77,98.49Z" style="fill:#ffc5bb"/><path d="M65,103a6.59,6.59,0,0,1,.74,2.84c0,.82-.26,1.7-.18,2.51,0,.09.48-.15.49-.27,0-1.09.14-2.18.12-3.27a3.85,3.85,0,0,0-.88-2.45C65.13,102.23,64.9,102.83,65,103Z" style="fill:#ffc5bb"/><path d="M69.47,107.68s-.26,0-.26,0a4.18,4.18,0,0,0,.37,1,3,3,0,0,1,.06,1.19,21.62,21.62,0,0,0-.53,3s.55-1.06.57-1.13a14.86,14.86,0,0,0,.48-2.37C70.22,108.91,70.15,107.78,69.47,107.68Z" style="fill:#ffc5bb"/><path d="M42.35,105.51s3.28,2.87,1.21,5.89a.89.89,0,0,1-1.41.06s-.52-4.85.07-6.07Z" style="fill:#fffcfa"/><path d="M61.67,98.39s.72,2.83-2.09,5.58c0,0-1.37.32-1.5-.71C58.08,103.26,59.52,99.4,61.67,98.39Z" style="fill:#fffcfa"/><path d="M64.88,102.31a5.09,5.09,0,0,1-1,5.29s-2-.17-2-1C61.87,106.58,63.92,102.24,64.88,102.31Z" style="fill:#fffcfa"/><path d="M69.26,107.8s1.09,1.42-1.79,5c0,0-2.41.6-2.16-1.14,0,0,2.38-3.93,3.9-4Z" style="fill:#fffcfa"/><path d="M42.13,207.67s4.64-11.49,6-15.31,7.31-21.92,7.68-27.18c.33-4.72-2.12-10.81-5.17-16.64l-6.45-15.41s9.16,15.71,10,18.32,5.08,8.6,3.62,16.16C55.77,178.27,42.13,207.67,42.13,207.67Z" style="fill:#fffcfa"/><path d="M40.12,122.35l1.33-3.23c.09-.23.19-.48.27-.74s.1-.27.14-.4.07-.28.1-.42.07-.28.1-.42,0-.29.06-.44a8.67,8.67,0,0,0,.06-.89c0-.3,0-.6,0-.9l0-.9c0-.28,0-.58,0-.89v-.87s0,.31-.14.83-.14,1.3-.19,2.24c0,.23,0,.48-.06.73a7.58,7.58,0,0,1-.1.78,6.24,6.24,0,0,1-.16.82c-.05.29-.16.56-.24.85l-.6,1.85C40.45,121,40.29,121.67,40.12,122.35Z" style="fill:#fffcfa"/><path d="M40.45,126.14l.54,1.12c.18.35.4.77.63,1.24.12.24.27.48.38.75l.38.84c.26.59.55,1.2.85,1.84.15.33.29.67.44,1s.3.68.45,1,.31.69.47,1l.47,1c.31.69.64,1.37,1,2l-.3-1c-.1-.33-.23-.72-.37-1.17-.08-.23-.16-.47-.24-.73s-.2-.52-.31-.8c-.22-.56-.46-1.17-.73-1.82-.14-.32-.27-.66-.45-1s-.34-.68-.51-1-.37-.71-.56-1.08l-.3-.55-.35-.53C41.46,127.62,41,126.88,40.45,126.14Z" style="fill:#fffcfa"/><path d="M51.09,134.09l0-.08a1.54,1.54,0,0,0,.12-.23,1.86,1.86,0,0,0,.08-.41,3.44,3.44,0,0,0,0-.55c0-.21-.06-.43-.11-.67s-.06-.49-.09-.77,0-.57-.08-.88,0-.63-.12-1c-.12-.66-.24-1.38-.37-2.12s-.29-1.49-.44-2.26L49.87,124a7.32,7.32,0,0,0-.4-1.17c-.16-.37-.32-.73-.44-1.1a3.35,3.35,0,0,1-.23-1.13s0,.1,0,.29a2,2,0,0,0,0,.35,3,3,0,0,0,.05.48,11.37,11.37,0,0,0,.33,1.26,7.84,7.84,0,0,1,.2.77c.06.26.09.57.14.88.09.62.18,1.29.32,2,.07.37.14.75.22,1.13s.16.77.24,1.17.2.8.26,1.22.16.85.24,1.29a12.17,12.17,0,0,0,.34,1.32A1.9,1.9,0,0,1,51.09,134.09Z" style="fill:#fffcfa"/><path d="M49.39,116.64l0-.09a.9.9,0,0,1,.11-.27,5.18,5.18,0,0,1,.66-.89l1.07-1.31,1.33-1.7.73-1c.26-.33.53-.65.81-1,.55-.68,1.1-1.4,1.63-2.16.27-.38.52-.77.76-1.16s.48-.8.69-1.21.41-.83.6-1.24.32-.84.47-1.25l-.65,1.1c-.23.34-.47.78-.81,1.25-.16.24-.33.5-.52.76l-.61.84-.69.91-.76,1-.82,1c-.28.37-.58.72-.85,1.12-.54.79-1.1,1.61-1.66,2.47l-.85,1.32a7.92,7.92,0,0,0-.42.69A2.06,2.06,0,0,0,49.39,116.64Z" style="fill:#fffcfa"/><path d="M55.35,118.59l.08,0,.2-.15a4.48,4.48,0,0,0,.66-.69,4,4,0,0,0,.34-.58c.1-.21.22-.43.34-.67s.25-.5.39-.76.29-.54.47-.8.34-.53.56-.82.43-.58.62-.9.4-.63.57-1,.36-.68.52-1a20,20,0,0,0,.88-2.14c.26-.72.49-1.45.68-2.16,0,0-.17.35-.48,1L60.64,109c-.21.44-.46.93-.73,1.47l-.44.84c-.15.29-.33.58-.5.89s-.37.62-.57.94l-.64,1a9.76,9.76,0,0,0-.62,1.1c-.18.38-.34.77-.5,1.17s-.3.83-.47,1.2A4,4,0,0,1,55.35,118.59Z" style="fill:#fffcfa"/><path d="M55.2,122.66l.08.29c0,.09.06.21.09.34a1.83,1.83,0,0,1,.11.46c0,.18.05.37.08.58s0,.44.06.68c.05.47.07,1,.1,1.61.06,1.16.15,2.49.29,3.87.09.69.21,1.38.32,2.06,0,.34.1.68.12,1s0,.68.06,1c0,0,0-.35.12-1,0-.16,0-.33,0-.52v-.62c0-.44-.07-.94-.12-1.49s-.08-1.14-.13-1.77-.1-1.32-.17-2-.15-1.46-.29-2.23c0-.19-.08-.39-.11-.59s-.11-.38-.17-.58l-.08-.29-.13-.28C55.37,123,55.29,122.85,55.2,122.66Z" style="fill:#fffcfa"/><path d="M60.62,124.41s0,.1.09.28.06.21.11.33a2.63,2.63,0,0,1,.1.46c0,.17.08.36.11.56s.06.43.09.66.06.49.09.75,0,.54.07.82a8.18,8.18,0,0,1,0,.88c0,.3,0,.61,0,.93,0,.64,0,1.3.08,2s.15,1.37.25,2,.32,1.34.5,2l-.08-.95c0-.3-.07-.67-.12-1.09s0-.92,0-1.45,0-1.12-.06-1.75,0-1.3-.1-2c0-.36-.09-.72-.14-1.08s-.14-.74-.22-1.11-.18-.75-.32-1.13A6.72,6.72,0,0,0,60.62,124.41Z" style="fill:#fffcfa"/><path d="M60.7,121.15s.77-1.25,1.75-3.05c.48-.91,1-1.92,1.59-3s1.08-2.17,1.52-3.25c0,0-.68,1-1.64,2.66-.24.42-.51.88-.78,1.37s-.53,1-.81,1.58C61.79,118.59,61.23,119.83,60.7,121.15Z" style="fill:#fffcfa"/><path d="M61.2,120.21l.36-.82.4-.93c.08-.17.14-.36.24-.55l.31-.6c.21-.41.43-.86.66-1.32.11-.23.26-.45.39-.68l.41-.71c.13-.24.26-.48.4-.72s.29-.47.45-.7c.29-.47.57-1,.84-1.42l-.5.61-.58.71-.35.45a5.23,5.23,0,0,0-.35.52c-.24.37-.49.78-.76,1.23a5.21,5.21,0,0,0-.38.7c-.12.24-.23.5-.36.76l-.35.8a5.84,5.84,0,0,0-.31.86C61.54,119,61.36,119.59,61.2,120.21Z" style="fill:#fffcfa"/><path d="M35.31,224.09c3.51-8.82,7.87-19,8.3-20.14.8-2.18,1.6-4.36,2.43-6.54s1.78-4.32,2.56-6.5,1.49-4.39,2.17-6.62l2-6.67c.67-2.22,1.36-4.44,1.91-6.68a32.08,32.08,0,0,0,1-6.79,18.41,18.41,0,0,0-1.08-6.73c-.2-.54-.42-1.06-.66-1.59l-.72-1.6L51.74,151l-2.86-6.38-2.94-6.36-1.45-3.18-.74-1.59c-.24-.53-.47-1.05-.75-1.56-1.08-2-2.55-4-3.2-6.28a6.22,6.22,0,0,1,0-3.55c.35-1.12.7-2.22,1-3.33A28.46,28.46,0,0,0,41.87,112c0-.56.06-1.16.06-1.72s-.07-1.13-.12-1.7a14.62,14.62,0,0,1-.08-1.76,3.3,3.3,0,0,1,.5-1.76l.1-.13.16.05a5.46,5.46,0,0,1,1.83,1.09,6,6,0,0,1,1.27,1.62,10.29,10.29,0,0,1,1,3.84,23.44,23.44,0,0,1,0,3.93c-.09,1.3-.26,2.6-.43,3.9-.06.64-.11,1.29-.13,1.93a18.17,18.17,0,0,0,.08,2c0,.32.09.64.13,1s.14.64.22,1a13.48,13.48,0,0,0,.64,1.85,19.35,19.35,0,0,0,.85,1.78c.31.59.65,1.16,1,1.73.69,1.13,1.43,2.24,2.17,3.35-.76-1.1-1.51-2.2-2.23-3.32-.35-.57-.7-1.13-1-1.72a18.22,18.22,0,0,1-.88-1.77,13,13,0,0,1-.68-1.86c-.09-.32-.16-.64-.24-1s-.11-.65-.15-1a16.15,16.15,0,0,1-.11-2c0-.65,0-1.31.1-2a36.81,36.81,0,0,0,.32-7.77,10.13,10.13,0,0,0-1-3.7,5.48,5.48,0,0,0-1.2-1.51,5.18,5.18,0,0,0-1.54-.91,3.24,3.24,0,0,0-.32,1.4,14,14,0,0,0,.1,1.7c.06.57.12,1.15.14,1.74s0,1.16,0,1.74a29.19,29.19,0,0,1-1.08,6.88c-.3,1.12-.65,2.24-1,3.34a5.67,5.67,0,0,0,0,3.29c.63,2.18,2.07,4.09,3.19,6.17.29.52.53,1.06.77,1.59l.74,1.59,1.46,3.18,2.93,6.36,2.85,6.39,1.42,3.2.71,1.59c.24.53.48,1.08.68,1.63a18.9,18.9,0,0,1,1.08,6.89,30.79,30.79,0,0,1-1,6.89c-.57,2.25-1.29,4.47-2,6.68l-2,6.66c-.69,2.22-1.42,4.43-2.26,6.61s-1.82,4.29-2.64,6.46-1.68,4.35-2.51,6.52c-.44,1.18-4.56,10-8.09,18.85C35.58,222.82,34.59,224.4,35.31,224.09Z" style="fill:#f9b5aa"/><path d="M51.17,133.89l-.17-.63c-.11-.4-.26-1-.42-1.78s-.34-1.71-.54-2.78-.41-2.3-.71-3.61-.8-2.69-1.06-4.23a7.07,7.07,0,0,1,0-2.43,6.4,6.4,0,0,1,1-2.39c.9-1.46,1.94-2.93,3-4.39s2.16-3,3.18-4.46A38.94,38.94,0,0,0,58,102.46a20.93,20.93,0,0,1,1.39-2.32c.13-.18.26-.37.41-.54l.41-.53a3.36,3.36,0,0,1,1.1-.92,1,1,0,0,1,.45-.1.88.88,0,0,1,.46.17,1.51,1.51,0,0,1,.42.64,4.8,4.8,0,0,1,.23,1.26,14.7,14.7,0,0,1,0,2.4,17.92,17.92,0,0,1-.32,2.25,18.57,18.57,0,0,1-.68,2,25.32,25.32,0,0,1-1.67,3.34c-.57,1-1.09,1.78-1.52,2.46-.86,1.35-1.34,2.13-1.34,2.13s.43-.8,1.23-2.18c.41-.69.9-1.53,1.43-2.5a29.67,29.67,0,0,0,1.55-3.36,16.53,16.53,0,0,0,.62-2,16.93,16.93,0,0,0,.26-2.21,15.12,15.12,0,0,0,0-2.33A4.89,4.89,0,0,0,62.16,99a1,1,0,0,0-.27-.42c-.1-.07-.19-.07-.35,0a6,6,0,0,0-1.68,1.83,19.62,19.62,0,0,0-1.34,2.27,40.34,40.34,0,0,1-2.62,4.8c-1,1.52-2.15,3-3.22,4.45s-2.11,2.89-3,4.35a6.42,6.42,0,0,0-.92,2.21,6.84,6.84,0,0,0,0,2.3c.22,1.5.69,2.9,1,4.23s.43,2.55.59,3.64.29,2,.43,2.79.24,1.38.34,1.79Z" style="fill:#f9b5aa"/><path d="M61.3,108.09c0-.15,0-.3.06-.44a4.34,4.34,0,0,1,.14-.43,8.58,8.58,0,0,1,.37-.82c.14-.27.28-.54.43-.8l.43-.78h0a10.87,10.87,0,0,1,.71-1.56,4.44,4.44,0,0,1,.52-.73l.17-.16a1.06,1.06,0,0,1,.21-.16.81.81,0,0,1,.27-.11.83.83,0,0,1,.32,0h0a1.3,1.3,0,0,1,.72.25,1.65,1.65,0,0,1,.43.53,3.92,3.92,0,0,1,.37,1.16,4.76,4.76,0,0,1,.06,1.2l-.14,1.12-.07.57-.12.57-.26,1.13c-.1.37-.23.74-.34,1.1s-.21.74-.36,1.1c-.28.71-.53,1.43-.85,2.14s-.62,1.4-.95,2.1-.64,1.39-1,2.08-.66,1.38-1,2.07c.51-1.44,1.07-2.87,1.64-4.28.3-.71.57-1.42.84-2.13.13-.36.28-.71.39-1.07l.38-1.08c.14-.35.22-.72.34-1.08s.23-.72.32-1.08l.24-1.09.13-.54.07-.57.15-1.12a5.53,5.53,0,0,0,0-1.07,3.1,3.1,0,0,0-.29-1,1.13,1.13,0,0,0-.29-.38.83.83,0,0,0-.4-.16h0s-.08,0-.13,0l-.14.06a.6.6,0,0,0-.15.09l-.14.13a3.54,3.54,0,0,0-.5.64,10.28,10.28,0,0,0-.77,1.47h0c-.3.53-.67,1-1,1.52-.16.26-.31.52-.44.78s-.12.27-.18.41S61.34,107.94,61.3,108.09Z" style="fill:#f9b5aa"/><path d="M63.19,115.12s.15-.22.42-.65.63-1.07,1.09-1.88a27.54,27.54,0,0,1,1.8-2.89A8.87,8.87,0,0,1,68,108.14a3.68,3.68,0,0,1,1.07-.6.94.94,0,0,1,.73,0,1,1,0,0,1,.4.57,3.59,3.59,0,0,1,.1,1.26,10.92,10.92,0,0,1-.18,1.26,13.73,13.73,0,0,1-.77,2.58A46.23,46.23,0,0,0,67,118.49a14.88,14.88,0,0,0-.88,5.91,19,19,0,0,0,.45,3.06c.14.49.25,1,.42,1.5l.48,1.52c.31,1,.63,2,1,3s.67,2,1,3c.7,2,1.39,3.9,2.1,5.76.16.47.34.93.51,1.4s.32.91.44,1.38.27.92.37,1.38.21.91.28,1.36a30.35,30.35,0,0,1,.49,5.1,38.05,38.05,0,0,1-.19,4.32c-.14,1.28-.31,2.39-.46,3.3s-.31,1.62-.41,2.11-.15.74-.15.74,0-.26.12-.75.19-1.2.32-2.12a44.52,44.52,0,0,0,.44-7.59,31.26,31.26,0,0,0-.59-5c-.08-.44-.19-.89-.3-1.33s-.26-.9-.39-1.35-.31-.91-.47-1.37-.33-.92-.51-1.38c-.71-1.86-1.42-3.79-2.13-5.76-.36-1-.69-2-1-3s-.68-2-1-3l-.47-1.51c-.18-.52-.28-1-.42-1.55a22.4,22.4,0,0,1-.45-3.14,15.62,15.62,0,0,1,1-6.08,40.45,40.45,0,0,1,2.44-5.25,13.06,13.06,0,0,0,.79-2.49,10.68,10.68,0,0,0,.2-1.22,3.32,3.32,0,0,0-.06-1.14.64.64,0,0,0-.26-.4.6.6,0,0,0-.46,0,3.27,3.27,0,0,0-1,.53,8.24,8.24,0,0,0-1.48,1.47,29.21,29.21,0,0,0-1.88,2.82A29.28,29.28,0,0,1,63.19,115.12Z" style="fill:#f9b5aa"/><path d="M57.21,115s-.42.6-1.09,1.62l-.56.85c-.1.15-.21.32-.31.49l-.3.53a8.27,8.27,0,0,0-.57,1.23,4.62,4.62,0,0,0-.24,1.5,6.82,6.82,0,0,0,.08.79c0,.26.08.51.13.77.08.52.18,1,.27,1.6.2,1.08.38,2.21.6,3.35.12.57.2,1.15.31,1.72s.22,1.16.33,1.73l.31,1.72c.11.57.23,1.13.35,1.69,0,0,0-.58,0-1.63,0-.26,0-.56,0-.88s0-.66-.06-1c-.06-.74-.15-1.58-.25-2.5,0-.46-.12-.94-.2-1.44s-.16-1-.24-1.56c-.17-1.07-.4-2.2-.64-3.39,0-.15-.07-.3-.09-.44l-.06-.43a4.94,4.94,0,0,1,0-.86,6.12,6.12,0,0,1,.54-1.76c.25-.61.57-1.19.86-1.8S56.9,115.62,57.21,115Z" style="fill:#f9b5aa"/><path d="M61.23,119.5l-.25.35a3.86,3.86,0,0,0-.27.44,4.1,4.1,0,0,0-.3.63l-.15.38c0,.14-.07.29-.11.44a3.55,3.55,0,0,0-.09.47,4.36,4.36,0,0,0-.05.52,8.22,8.22,0,0,0,0,1.11c0,.39.07.79.12,1.21.2,1.65.47,3.54.81,5.48s.78,3.9,1.3,5.75c0,0-.12-2-.52-5.06-.2-1.56-.45-3.39-.81-5.39-.09-.5-.18-1-.28-1.54a13.87,13.87,0,0,1-.17-1.58,6,6,0,0,1,.15-1.62,5,5,0,0,1,.26-.8C61,120,61.11,119.77,61.23,119.5Z" style="fill:#f9b5aa"/><path d="M42.35,105.51l.11.13a4.3,4.3,0,0,1,.28.37,3.15,3.15,0,0,1,.19.27c.06.11.13.21.2.33s.14.24.2.37.13.27.19.43a5.4,5.4,0,0,1,.31,1,4.51,4.51,0,0,1,.09.53,3.27,3.27,0,0,1,0,.54,5.25,5.25,0,0,1,0,.56,5.35,5.35,0,0,1-.11.55,2.76,2.76,0,0,0-.08.27l-.11.26a4.89,4.89,0,0,1-.26.51l.09-.11a3.06,3.06,0,0,0,.25-.33l.14-.25c0-.1.09-.21.15-.32a2.38,2.38,0,0,0,.11-.38,2.15,2.15,0,0,0,.09-.44,3.75,3.75,0,0,0,0-.48,4.73,4.73,0,0,0,0-.53,3.57,3.57,0,0,0-.11-.55c0-.19-.12-.38-.19-.57A5.6,5.6,0,0,0,42.35,105.51Z" style="fill:#f9b5aa"/><path d="M61.83,98.23s0,.24,0,.6c0,.09,0,.19,0,.3s0,.23,0,.36,0,.26-.05.4l-.09.43a1.85,1.85,0,0,1-.11.45l-.15.48-.21.47L61,102l-.14.23c-.09.16-.17.32-.28.48l-.33.45a4.58,4.58,0,0,1-.34.43c-.12.13-.23.27-.36.43l.41-.35.21-.19a2.84,2.84,0,0,0,.23-.25l.26-.29a1.76,1.76,0,0,0,.25-.34l.26-.39a3.81,3.81,0,0,0,.23-.45,4.34,4.34,0,0,0,.2-.5l.15-.55a5,5,0,0,0,.09-.58,3,3,0,0,0,0-.6c0-.21,0-.41,0-.63S61.85,98.45,61.83,98.23Z" style="fill:#f9b5aa"/><path d="M64.89,102.3l0,.14c0,.09.07.21.11.38a3,3,0,0,1,.09.58,3.66,3.66,0,0,1,0,.75c0,.13,0,.27,0,.42s-.05.29-.07.44a6.4,6.4,0,0,1-.25.9,5.86,5.86,0,0,1-.39.89c-.09.14-.16.29-.26.42s-.2.26-.3.39l.09-.08a2.74,2.74,0,0,0,.26-.25,2.8,2.8,0,0,0,.35-.43,3.91,3.91,0,0,0,.36-.62,7.07,7.07,0,0,0,.3-.82,5.63,5.63,0,0,0,.15-1,3,3,0,0,0,0-.52,3.86,3.86,0,0,0-.22-1.09A2.84,2.84,0,0,0,64.89,102.3Z" style="fill:#f9b5aa"/><path d="M69.26,107.8l.06.12s.05.09.06.16,0,.13,0,.21,0,.17,0,.26,0,.2,0,.31a4.51,4.51,0,0,1-.17.71c-.08.25-.18.52-.29.8s-.26.55-.41.83a8.57,8.57,0,0,1-1,1.61l.09-.08a2.2,2.2,0,0,0,.25-.23,5.86,5.86,0,0,0,.77-1,6.5,6.5,0,0,0,.76-1.63,2.83,2.83,0,0,0,.13-.5,4.51,4.51,0,0,0,.07-.53v-.27c0-.09,0-.19,0-.28a2.76,2.76,0,0,0-.08-.27A1.43,1.43,0,0,0,69.26,107.8Z" style="fill:#f9b5aa"/></g></g></g></svg>
