<svg xmlns="http://www.w3.org/2000/svg" xmlns:xlink="http://www.w3.org/1999/xlink" viewBox="0 0 141.76 143.57"><defs><clipPath id="clip-path"><circle cx="70.88" cy="71.93" r="65.8" style="fill:none"/></clipPath><linearGradient id="linear-gradient" x1="105" y1="109.06" x2="105" y2="136.79" gradientUnits="userSpaceOnUse"><stop offset="0.33" stop-color="#f9b5aa"/><stop offset="0.76" stop-color="#ffe3e3"/><stop offset="1" stop-color="#fff1e3"/></linearGradient><linearGradient id="_R_W_h_22" x1="95.6" y1="-48.26" x2="111.3" y2="56.8" gradientTransform="translate(-1.97 11.54) rotate(0.34)" gradientUnits="userSpaceOnUse"><stop offset="0"/><stop offset="0.5" stop-color="#e9a768"/><stop offset="0.95"/></linearGradient><linearGradient id="_R_W_h_81" x1="95.6" y1="-48.26" x2="111.3" y2="56.8" gradientTransform="translate(-1.97 11.54) rotate(0.34)" gradientUnits="userSpaceOnUse"><stop offset="0"/><stop offset="0.18" stop-color="#020101"/><stop offset="0.24" stop-color="#090604"/><stop offset="0.29" stop-color="#140f09"/><stop offset="0.33" stop-color="#251b11"/><stop offset="0.36" stop-color="#3b2b1b"/><stop offset="0.39" stop-color="#573e27"/><stop offset="0.41" stop-color="#775535"/><stop offset="0.43" stop-color="#9b7045"/><stop offset="0.45" stop-color="#bc8754"/><stop offset="0.5" stop-color="#e9a768"/><stop offset="0.55" stop-color="#9f7247"/><stop offset="0.55" stop-color="#9b6f45"/><stop offset="0.57" stop-color="#765535"/><stop offset="0.6" stop-color="#573e27"/><stop offset="0.62" stop-color="#3b2b1b"/><stop offset="0.65" stop-color="#251b11"/><stop offset="0.69" stop-color="#140f09"/><stop offset="0.73" stop-color="#090604"/><stop offset="0.79" stop-color="#020101"/><stop offset="0.95"/></linearGradient><linearGradient id="linear-gradient-2" x1="136.1" y1="-60.43" x2="142.59" y2="-5.59" gradientTransform="translate(-1.97 11.54) rotate(0.34)" gradientUnits="userSpaceOnUse"><stop offset="0"/><stop offset="0.06" stop-color="#040302"/><stop offset="0.12" stop-color="#100c07"/><stop offset="0.18" stop-color="#251a10"/><stop offset="0.24" stop-color="#412f1d"/><stop offset="0.3" stop-color="#664a2e"/><stop offset="0.35" stop-color="#936a42"/><stop offset="0.4" stop-color="#bc8754"/><stop offset="0.48" stop-color="#e6a567"/><stop offset="0.49" stop-color="#e9a768"/><stop offset="0.54" stop-color="#be8855"/><stop offset="0.58" stop-color="#9f7247"/><stop offset="0.59" stop-color="#946a42"/><stop offset="0.65" stop-color="#674a2e"/><stop offset="0.71" stop-color="#422f1e"/><stop offset="0.77" stop-color="#251b11"/><stop offset="0.83" stop-color="#110c07"/><stop offset="0.89" stop-color="#040302"/><stop offset="0.95"/></linearGradient><linearGradient id="_R_W_h_81-2" x1="136.1" y1="-60.43" x2="142.59" y2="-5.59" xlink:href="#_R_W_h_81"/><radialGradient id="_R_W_h_34" cx="81.76" cy="70.19" r="11.11" gradientTransform="translate(-1.97 11.54) rotate(0.34)" gradientUnits="userSpaceOnUse"><stop offset="0" stop-color="#ffa7b7"/><stop offset="1" stop-color="#fff1e3"/></radialGradient><radialGradient id="_R_W_h_34-2" cx="129.03" cy="72.09" r="10.89" xlink:href="#_R_W_h_34"/><radialGradient id="radial-gradient" cx="187.89" cy="216.63" r="12.17" gradientTransform="matrix(0.96, -0.02, 0.02, 0.81, -79.8, -65.26)" gradientUnits="userSpaceOnUse"><stop offset="0" stop-color="#ff8191"/><stop offset="1" stop-color="#fff1e3"/></radialGradient><radialGradient id="radial-gradient-2" cx="-3727.73" cy="71.57" r="9.32" gradientTransform="matrix(-1, 0, 0, 1, -3649.59, 0)" xlink:href="#radial-gradient"/><radialGradient id="radial-gradient-3" cx="-784.88" cy="73.18" r="9.32" gradientTransform="translate(911.48)" xlink:href="#radial-gradient"/><clipPath id="clip-path-2"><circle cx="-92.64" cy="71.93" r="65.8" transform="translate(-1.31 -1.66) rotate(-1.03)" style="fill:none"/></clipPath><radialGradient id="radial-gradient-4" cx="29.85" cy="109.25" r="14.96" gradientTransform="matrix(1, 0, 0, 1, 0, 0)" xlink:href="#radial-gradient"/></defs><title>level</title><g style="isolation:isolate"><g id="Layer_1" data-name="Layer 1"><circle cx="70.88" cy="71.93" r="70.88" transform="translate(-11.48 130.38) rotate(-80.78)" style="fill:#fff"/><circle cx="70.88" cy="71.93" r="65.8" style="fill:#fff"/><g style="clip-path:url(#clip-path)"><path d="M5.27,132l.07.13c.06.09.14.22.26.37a2.66,2.66,0,0,0,.51.48,3.39,3.39,0,0,0,.38.2,3.5,3.5,0,0,0,.46.14l.51,0a2.45,2.45,0,0,0,.54,0,2.55,2.55,0,0,0,.54-.15,3.11,3.11,0,0,0,.52-.25,5.45,5.45,0,0,0,.9-.68c.27-.26.52-.52.76-.79l-.44.26-.51.32c-.2.11-.41.26-.66.39a3.55,3.55,0,0,1-.39.2,3.16,3.16,0,0,1-.43.16l-.23.07-.24,0-.25,0H7l-.27,0-.27-.07-.26-.1A3.3,3.3,0,0,1,5.27,132Z" style="fill:#a00d23"/><path d="M15.08,122.92c-.13-.9-3.37-.19-3.23.86a7.83,7.83,0,0,1-.8,5.08c-.71,1.14,2.49.7,3-.07A8.81,8.81,0,0,0,15.08,122.92Z" style="fill:#d8214d;mix-blend-mode:multiply"/><g id="_Group_" data-name="&lt;Group&gt;"><path d="M176.55,195.74l-.17.07c-11.55-6.68-30.6-6.29-41.07-4.39-9.15,1.9-17.33,5.69-26.82,6.33-10.14.95-17-2.29-26.49-4.43-14.07-3.16-34.55-1.58-47,6l-.32-.11c-3.81,10.08-8.25,23.17-5,34,.09.3.19.61.29.92a.08.08,0,0,1,0,.05,41.16,41.16,0,0,1,1.77,10H20.23c1.48-15.48-2.5-22.06-4-33.45-1.47-13.29-6.38-26.1.49-38.91,6.38-10.44,14.2-15.1,26.49-15.66,35-1.58,41.54-16.49,40.37-44,.62-1.07,2.86,2.16,4.21,1.56,4.17-1.78,8.59-2.25,13-3s8.22-1.54,12.52-.71c2.45.47,5,.71,7.36,1.06,1.1.12,2.2.12,3.31.24A20.8,20.8,0,0,0,126.8,109c-3.75,27.76,4.48,46.56,38.85,47.12,12.3.2,20.12,5.22,26.49,15.66,6.87,12.81,2,25.62.49,38.91-1.47,11.39-4.46,21.44-4,33.3v.15h-7.38a35,35,0,0,1,1.11-9.52c4.39-11.51-.87-26.06-4.95-36.74C177.16,197.2,176.86,196.47,176.55,195.74Z" style="fill:#fff1e3"/></g><path d="M119.81,142.26s-1.2,14.08-11.17,24.12c0,0-.33,1,5-1.12,0,0,4.62-2.8,18.21-1,0,0,11.9,1.15,18.2.07,0,0-21.31-4.8-33-2.66C117.06,161.64,122.57,149.25,119.81,142.26Z" style="fill:#ffe2dc"/><path d="M83.14,110.52s.55,10.47.47,12.45c0,0,16.36,25.52,43.25,7.2a92.5,92.5,0,0,1-.06-21.11l-42.17,2.71Z" style="fill:url(#linear-gradient)"/><path d="M83.14,110.52s.08.69.22,2,.3,3.19.4,5.61a60.09,60.09,0,0,1-.26,8.74,34.9,34.9,0,0,1-2.87,11,26.13,26.13,0,0,1-3.44,5.53,27.27,27.27,0,0,1-5.08,4.78,40.21,40.21,0,0,1-13.68,6.09,87.23,87.23,0,0,1-15.87,2.36,41.65,41.65,0,0,0-8,1.38,27.49,27.49,0,0,0-7.45,3.31,28.67,28.67,0,0,0-6.14,5.38,37.11,37.11,0,0,0-2.5,3.23c-.38.56-.76,1.13-1.12,1.71l-.27.43-.22.43c-.15.3-.32.61-.46.91A28.63,28.63,0,0,0,14,181a36.67,36.67,0,0,0-.45,7.81,71.38,71.38,0,0,0,.78,7.56c.35,2.47.77,4.88,1.16,7.23s.73,4.64,1,6.87.64,4.34,1.06,6.36.88,4,1.29,5.82.75,3.61,1,5.28a59,59,0,0,1,.75,8.71c0,1.21,0,2.29-.06,3.23s-.08,1.74-.14,2.39l-.17,2s0-.69.13-2c.06-.65.08-1.45.11-2.39s0-2,0-3.23a60.8,60.8,0,0,0-.9-8.67c-.59-3.31-1.57-7-2.47-11.05-.44-2-.83-4.17-1.13-6.4s-.63-4.49-1-6.83a119.17,119.17,0,0,1-2-14.86,38.7,38.7,0,0,1,.43-7.94,29.9,29.9,0,0,1,2.43-7.8c.14-.32.3-.62.45-.92l.25-.48.27-.44c.36-.59.75-1.16,1.14-1.73a36.52,36.52,0,0,1,2.53-3.3,28.1,28.1,0,0,1,6.29-5.52,28.61,28.61,0,0,1,7.66-3.37,41.56,41.56,0,0,1,8.16-1.38,87.25,87.25,0,0,0,15.76-2.29,40.28,40.28,0,0,0,13.54-5.91,26.35,26.35,0,0,0,5-4.65,25.59,25.59,0,0,0,3.43-5.41,35.43,35.43,0,0,0,3-10.83,60.17,60.17,0,0,0,.39-8.7c-.06-2.42-.21-4.32-.32-5.61S83.14,110.52,83.14,110.52Z" style="fill:#f9b5aa"/><path d="M126.86,108.45s-.08.69-.21,2-.3,3.22-.4,5.66a71,71,0,0,0,.18,8.79A44.6,44.6,0,0,0,128.72,136a25.68,25.68,0,0,0,13.37,15.12,37.81,37.81,0,0,0,7.18,2.59,82.33,82.33,0,0,0,15.92,2.09,45,45,0,0,1,8.28,1.12,28.87,28.87,0,0,1,7.85,3.12,28.05,28.05,0,0,1,6.52,5.36,37.25,37.25,0,0,1,2.63,3.27c.41.57.8,1.15,1.18,1.73l.56.88c.09.16.18.27.28.47l.23.46c.32.6.6,1.25.89,1.88s.52,1.28.73,1.94a29.36,29.36,0,0,1,1.07,4,36.89,36.89,0,0,1,.6,8,103.6,103.6,0,0,1-2,15c-.41,2.37-.8,4.67-1.08,6.9s-.62,4.41-1,6.47c-.71,4.14-1.46,7.9-2,11.26s-.92,6.3-1.12,8.73c-.11,1.22-.14,2.31-.19,3.26s0,1.75,0,2.41c0,1.31,0,2,0,2s0-.69-.06-2c0-.66,0-1.47,0-2.42s.05-2,.14-3.26c.15-2.44.47-5.39,1-8.76s1.19-7.15,1.87-11.28c.33-2.07.65-4.23.91-6.47s.63-4.56,1-6.93.81-4.79,1.16-7.28a63.58,63.58,0,0,0,.69-7.65,36.08,36.08,0,0,0-.61-7.86,27.69,27.69,0,0,0-1-3.87c-.21-.64-.47-1.27-.72-1.89s-.55-1.23-.88-1.84A32,32,0,0,0,181,160.67a28.43,28.43,0,0,0-7.64-3.06,43.2,43.2,0,0,0-8.15-1.12,83.21,83.21,0,0,1-16-2.16,31.49,31.49,0,0,1-13.45-6.84,25.44,25.44,0,0,1-4.51-5.4,29.66,29.66,0,0,1-2.81-5.94,43.43,43.43,0,0,1-2.17-11.24,70.52,70.52,0,0,1,0-8.82c.13-2.44.34-4.35.47-5.65S126.86,108.45,126.86,108.45Z" style="fill:#f9b5aa"/><path d="M120.29,126.77s-.07,1.34-.14,3.64c0,1.14-.08,2.52-.15,4.09,0,.78-.09,1.6-.14,2.47s-.14,1.76-.21,2.7-.19,1.9-.34,2.88c-.08.49-.15,1-.23,1.5s-.19,1-.28,1.52c-.17,1-.45,2.05-.69,3.1-.13.52-.31,1-.45,1.55s-.29,1.06-.49,1.57-.37,1-.56,1.55-.42,1-.63,1.54-.41,1-.67,1.52l-.73,1.5c-.13.24-.25.5-.38.74l-.41.72L113,160.8c-.57.94-1.19,1.84-1.76,2.75l.51-.62.62-.76c.24-.3.53-.64.83-1l.94-1.37.54-.79c.18-.28.34-.58.52-.89.35-.62.77-1.26,1.11-2s.74-1.48,1.09-2.31l.5-1.27c.17-.44.36-.88.49-1.35.29-.93.63-1.88.85-2.9.13-.51.26-1,.38-1.55s.19-1.07.3-1.62.18-1.1.25-1.66.16-1.13.2-1.72l.15-1.75c0-.6.06-1.2.08-1.8s0-1.22,0-1.83,0-1.24,0-1.87C120.57,132,120.42,129.38,120.29,126.77Z" style="fill:#f9b5aa"/><path d="M85.29,131.27s0,1.28.14,3.46a65.69,65.69,0,0,0,1.2,8.76c.19.88.39,1.79.64,2.72s.51,1.87.82,2.83.65,1.93,1,2.89.81,1.94,1.29,2.89c.24.48.48,1,.75,1.42s.54.93.82,1.39.59.89.89,1.34.64.87,1,1.28.68.83,1.06,1.2l.55.58.58.54a18.47,18.47,0,0,0,2.47,1.9l-.58-.5c-.19-.17-.42-.37-.68-.63s-.57-.53-.87-.89-.67-.73-1-1.18-.72-.94-1.12-1.47-.77-1.13-1.15-1.78c-.19-.32-.39-.65-.57-1s-.4-.7-.58-1.07A46.39,46.39,0,0,1,89.76,151c-.35-.91-.67-1.86-1-2.85s-.61-2-.9-3.05c-.56-2.1-1.07-4.32-1.51-6.64S85.56,133.74,85.29,131.27Z" style="fill:#f9b5aa"/><g id="_Group_2" data-name="&lt;Group&gt;"><path d="M126.65,55.75l-.12.21c-12.09-.61-26-9.08-32.37-20.62h0c1.85,7.37,7.55,15.9,14.65,19.26v0C90.08,51,79,35.5,75.81,17.21c-.07-.39-.13-.8-.2-1.22-17.09,18.65-21,50.46-5.72,72.09a48,48,0,0,1-8-8.68A50.1,50.1,0,0,1,56,68.52l-.36,0a9.56,9.56,0,0,0-3.36.61l0-.11c-4.67-14.14-7.58-38.27,1.79-58.13,2.62-5.56,8.4-14.78,15.29-18.82L69.42-8c6.2-5.15,15-7.29,23.67-8.88a53.81,53.81,0,0,1,21.14.32,69.85,69.85,0,0,1,9.21,2.63c8.74,3,15.68,7.1,21.58,13.19,1,1.05,2,2.17,3,3.34h0q1.88,2.31,3.63,5l.39.59q1.3,2,2.57,4.27s0,.08.07.13c9.61,17.8,9.83,40.35-.2,57.71l0,.07A8.83,8.83,0,0,0,150,69.1a52.26,52.26,0,0,1-4.18,8.15h0a52,52,0,0,1-4.64,6.3c1.94-6.4,5.89-13.31-2.27-23.76h0A37.58,37.58,0,0,1,126.65,55.75Z" style="fill:#bc875b"/><path d="M69.89,88.08C54.63,66.45,58.52,34.64,75.61,16c.07.42.13.83.2,1.22C79,35.5,90.08,51,108.8,54.66v0C101.7,51.25,96,42.72,94.15,35.35h0c6.34,11.54,20.28,20,32.37,20.62l.12-.21a37.58,37.58,0,0,0,12.21,4h0c8.16,10.45,4.21,17.36,2.27,23.76a52,52,0,0,0,4.64-6.3c-.26,2.46-1.7,6.71-3.62,11.41-3.31,8-8.05,17.44-10.75,21.41-3.1,4.57-17.3,17.52-26.57,17.47s-22.29-12.89-27.28-17.79c-2.73-2.68-7.24-11.9-11.4-20.91-1.51-3.27-3-6.51-4.28-9.4l.06,0A48,48,0,0,0,69.89,88.08Z" style="fill:#fff1e3"/><path d="M61.9,79.44c1.32,2.9,2.78,6.14,4.29,9.41C60,88.06,55.09,84.1,51.69,79c-1.41-2.1-3.09-5.34-1.76-7.87a4.59,4.59,0,0,1,2.41-2,9.25,9.25,0,0,1,3.35-.61l.33,0A50.21,50.21,0,0,0,62,79.4Z" style="fill:#fff1e3"/></g><path d="M94.83,36.5A43.71,43.71,0,0,0,126.53,56s-10.78.72-17.73-1.3C108.8,54.66,99.17,50.73,94.83,36.5Z" style="fill:#ffd1c5"/><path d="M75.73,15.86s2.44,30.19,29.36,37.89c0,0-24.64-4.72-30.6-26.58,0,0-18.21,19.34-9.32,52.61C65.17,79.78,49.57,45.53,75.73,15.86Z" style="fill:#ffd1c5"/><path d="M68.61,5.93S41.39,31.8,54.23,68.65a20.65,20.65,0,0,1,2.3-.12S42.32,39.92,68.61,5.93Z" style="fill:#aa784b"/><path d="M94.67,13.62s8.82,26.5,27.43,40.84c1.62,1.25,1.3.3,4.59,1.41,3.65,1.24,6.23,2.72,9.84,3.5s8.24.84,12.73,1.22C149.26,60.59,107.7,53.12,94.67,13.62Z" style="fill:#aa784b"/><path d="M103.37,14.16s15.25,31.66,34.24,43.59c3.27,2.06,7.81,2.09,11.65,2.84C149.26,60.59,116.06,40.68,103.37,14.16Z" style="fill:#aa784b"/><path d="M97.92,2.92s36.67,20.44,51.34,57.67c0,0-4.79.54-6.93-2.57-2.42-3.52.64-8.14-9.28-20.85C122.54,23.72,112.17,11.34,97.92,2.92Z" style="fill:#aa784b"/><path d="M98.07.51s43.42,6,51.19,60.08c0,0-4.2-1.14-4.82-9.16C143.06,33.67,123.75,4.17,98.07.51Z" style="fill:#aa784b"/><path d="M91-5.47S143.34-11.8,147,51c.25,4.3-1.57,7.75-1.08,8.57s3.42-1,3.38,1.07C149.26,60.59,153.67-8.78,91-5.47Z" style="fill:#aa784b"/><path d="M135.61,59.24s10.45,10.14,5.52,24.32c0,0,3.47-5.6,2.7-14.5-.24-2.82-5-9.26-5-9.26A11.71,11.71,0,0,1,135.61,59.24Z" style="fill:#ffd1c5"/><path d="M62.61,80.7s10.31,24.35,14.44,28.51c0,0,10.9,11.16,16.9,14.23,0,0-10.53-11.74-14.84-16C76,104.43,63.07,82.47,62.61,80.7Z" style="fill:#ffe2dc"/><path d="M75.73,15.86S45.17,48.51,69.89,88.08c0,0-14-11.84-15.57-27.19,0,0,4.5-.55,4.06-5.82S64.66,23.2,75.73,15.86Z" style="fill:#aa784b"/><path d="M75.08,11.79s3.66,37.72,33.72,42.87c0,0-12.34-7.55-14.27-18.65,0,0,10.12,18.58,32.53,20l-7-3.4c.77-4.88-22.68-1.21-29.29-28.94,0,0,.48,11.31,4.5,20.45C95.22,44.08,77,36.27,75.08,11.79Z" style="fill:#aa784b"/><path d="M53.32,75.53s-.8-3.38.94-3.57,5.16,5.11,5.41,7.74c0,0-2.16.36-1.45,1.92a10.78,10.78,0,0,0,3.12,3.22A14.65,14.65,0,0,1,53.32,75.53Z" style="fill:#ffd1c5"/><path d="M53.86,43.1c-.46,5.42.67,10.31,2.32,10.95,1,.37,2.08-.94,2.7-4,1.73-8.52.71,9.38-.12,11.74s-5.24,4.95-5.5-1.18S53.86,43.1,53.86,43.1Z" style="fill:#aa784b"/><path d="M149.23,53.75c.18,4,.07,6.21,2.88,6,0,0-1.72,2.28-8.79.56-1.49-.36-1.86-.26-2.72-.79C137.87,57.87,149.23,53.75,149.23,53.75Z" style="fill:#aa784b"/><path d="M154.23,51.55c-.69,4.08-2.75,15.48-7.34,14.54-1.49-.3-2.9-5.84-2.9-5.84-1.16-.09-5.13-.45-5.13-.45,3,2.88,4.66,9.85,4.66,9.85.69,1.58.39,4.26-.2,6.85-.82,3-2.19,7.06-2.19,7.06a50.33,50.33,0,0,0,7.69-12.31,62.73,62.73,0,0,0,3-7.56A64.42,64.42,0,0,0,154.23,51.55Z" style="fill:#aa784b"/><path d="M53.32,75.53s1.25-3.91,6.14,3.88c0,0-1.5-5.78-5-7.45C54.49,72,52.67,71.22,53.32,75.53Z" style="fill:#f4a4a4"/><path d="M101.62,48.73A26.83,26.83,0,0,1,94.53,36s7.09,11.6,16,15.13C110.56,51.14,109,52.09,101.62,48.73Z" style="fill:#f4a4a4"/><path d="M62.62,41s2.57-14.1,12.9-24.92c0,0,3.06,19.79,14.73,29.51,0,0-13.76-11.93-16.43-24.85C73.82,20.76,64.52,32.13,62.62,41Z" style="fill:#f4a4a4"/><path d="M55.69,69.23c-1.94-1.57-5.69.88-6.21,3.09-.83,3.57,1.9,6.81,4.34,9,0,0,.3.17.24.1a21.44,21.44,0,0,1-3-5.58,8,8,0,0,1-.51-3.71c.26-2.4,3.29-2.31,5.07-2.81C55.61,69.34,55.76,69.29,55.69,69.23Z" style="fill:#fffcfa"/><path d="M75.52,16.1s2.8,32.78,33.28,38.56c0,0-12.11-6.36-14.27-18.65a40.33,40.33,0,0,0,32,20s7.21,3.39,12.33,3.84c0,0,8.92,9.48,2.27,23.76,0,0,6.05-6.74,8.7-14.46a6.46,6.46,0,0,1,4.72,1.05S175,37.09,149.32,4.32C125.2-26.5,83.77-19.12,69.31-7.83c0,0-33.1,21.59-17.05,76.87A6.74,6.74,0,0,1,56,68.52s4.84,13,13.87,19.56C69.89,88.08,44.94,51.8,75.52,16.1Z" style="opacity:0.35000000000000003;mix-blend-mode:screen;fill:url(#_R_W_h_22)"/><path d="M75.52,16.1s2.8,32.78,33.28,38.56c0,0-12.11-6.36-14.27-18.65a40.33,40.33,0,0,0,32,20s7.21,3.39,12.33,3.84c0,0,8.92,9.48,2.27,23.76,0,0,6.05-6.74,8.7-14.46a6.46,6.46,0,0,1,4.72,1.05S175,37.09,149.32,4.32C125.2-26.5,83.77-19.12,69.31-7.83c0,0-33.1,21.59-17.05,76.87A6.74,6.74,0,0,1,56,68.52s4.84,13,13.87,19.56C69.89,88.08,44.94,51.8,75.52,16.1Z" style="opacity:0.6000000000000001;mix-blend-mode:screen;fill:url(#_R_W_h_81)"/><path d="M114.32-16.67A8.14,8.14,0,0,1,113-26.58c2.85-5.28,6.08-5.48,9.54-5.69,0,0-.36-4.76,5.11-6.45s11.27-1.66,19.58,3.83a7.47,7.47,0,0,1,6,1.79c2.85,2.43,9.24,6.84,9.53,17.87,0,0,8,14.26-9.41,25.06C153.29,9.83,141.65-10.51,114.32-16.67Z" style="opacity:0.35000000000000003;mix-blend-mode:screen;fill:url(#linear-gradient-2)"/><path d="M114.32-16.67A8.14,8.14,0,0,1,113-26.58c2.85-5.28,6.08-5.48,9.54-5.69,0,0-.36-4.76,5.11-6.45s11.27-1.66,19.58,3.83a7.47,7.47,0,0,1,6,1.79c2.85,2.43,9.24,6.84,9.53,17.87,0,0,8,14.26-9.41,25.06C153.29,9.83,141.65-10.51,114.32-16.67Z" style="opacity:0.45;mix-blend-mode:screen;fill:url(#_R_W_h_81-2)"/><path d="M55.66,68.54l-.38,0c-.24,0-.59.06-1,.14a8.77,8.77,0,0,0-1.56.44,5.55,5.55,0,0,0-1.76,1.06,3.56,3.56,0,0,0-1.15,2A5.72,5.72,0,0,0,50,74.88a12.14,12.14,0,0,0,1.19,2.67c.24.44.52.88.8,1.29s.59.86.91,1.26a27.58,27.58,0,0,0,2,2.34,27.25,27.25,0,0,0,2.16,2c.36.32.76.58,1.12.87s.74.54,1.12.77.73.47,1.1.66.72.39,1.08.54l.51.24.5.2c.33.13.64.27.94.36.59.21,1.13.35,1.56.46s.8.17,1,.23l.36.08-.37,0c-.24,0-.6,0-1-.13s-1-.18-1.62-.35c-.31-.07-.63-.17-1-.28s-.69-.25-1.06-.4-.74-.32-1.12-.51-.77-.4-1.16-.61-.79-.49-1.19-.74S57,85.27,56.59,85a22.72,22.72,0,0,1-2.27-2,27.61,27.61,0,0,1-2-2.39c-.33-.43-.6-.86-.9-1.28s-.57-.89-.83-1.35a12.32,12.32,0,0,1-1.19-2.84,5.92,5.92,0,0,1-.09-2.92,4.11,4.11,0,0,1,1.39-2.22,5.53,5.53,0,0,1,1.93-1,9.46,9.46,0,0,1,1.63-.32,7.34,7.34,0,0,1,1.06,0Z" style="fill:#f9b5aa"/><path d="M53.37,76a9.25,9.25,0,0,1-.28-1.37,6.2,6.2,0,0,1,0-1.43,2.72,2.72,0,0,1,.18-.72,1,1,0,0,1,.22-.35,1,1,0,0,1,.33-.27,1.06,1.06,0,0,1,.42-.12,1.18,1.18,0,0,1,.42,0,2.9,2.9,0,0,1,.72.24h0l0,0A20,20,0,0,1,57,73.62a16.15,16.15,0,0,1,1.39,1.79,4.66,4.66,0,0,1,.3.47c.1.17.21.32.3.49l.26.51.23.53c.08.18.13.37.2.55a5.15,5.15,0,0,1,.16.56,5.4,5.4,0,0,1,.1.58l0,.59L60,80l-.28.05a3.43,3.43,0,0,0-.39.12,2.12,2.12,0,0,0-.37.18,1.19,1.19,0,0,0-.5.55,1,1,0,0,0,0,.74,2.26,2.26,0,0,0,.18.39,2.14,2.14,0,0,0,.23.38,9.36,9.36,0,0,0,1.23,1.38c.46.43,1,.82,1.43,1.23-.27-.16-.55-.31-.81-.5s-.52-.35-.78-.54-.51-.39-.75-.6a7.57,7.57,0,0,1-.67-.71,3.21,3.21,0,0,1-.3-.4,2.2,2.2,0,0,1-.23-.46,1.64,1.64,0,0,1-.08-1.1,1.7,1.7,0,0,1,.7-.87,3,3,0,0,1,.47-.25,2.54,2.54,0,0,1,.51-.17l-.26.32-.06-.51c0-.17-.08-.34-.11-.51a2.88,2.88,0,0,0-.15-.5,4.24,4.24,0,0,0-.18-.5l-.22-.49-.26-.47c-.08-.16-.18-.31-.27-.47s-.18-.31-.28-.46c-.4-.6-.85-1.18-1.31-1.74A20.49,20.49,0,0,0,55,72.44l.06,0a2.19,2.19,0,0,0-.58-.23.88.88,0,0,0-.27,0,.75.75,0,0,0-.26.05.6.6,0,0,0-.21.14,1.46,1.46,0,0,0-.17.24,2.12,2.12,0,0,0-.21.6,6,6,0,0,0-.12,1.35C53.29,75.05,53.32,75.52,53.37,76Z" style="fill:#f9b5aa"/><path d="M61.87,79.45s.9,1.92,2.47,5.3c.8,1.68,1.76,3.73,2.87,6.07s2.4,5,3.85,7.82a83.65,83.65,0,0,0,5.08,8.92,13.91,13.91,0,0,0,1.72,2.11l2,2c1.39,1.33,2.82,2.67,4.31,4a78.36,78.36,0,0,0,9.7,7.47,34.75,34.75,0,0,0,5.54,2.9,14.18,14.18,0,0,0,6.06,1.17,17.94,17.94,0,0,0,6-1.64,39.06,39.06,0,0,0,5.5-3,66.77,66.77,0,0,0,9.58-7.59,42.81,42.81,0,0,0,4-4.25,42.87,42.87,0,0,0,3-4.72c1.78-3.18,3.32-6.28,4.7-9.15s2.56-5.56,3.57-7.94,1.83-4.5,2.44-6.26a39.38,39.38,0,0,0,1.23-4.14c.1-.48.18-.86.21-1.11l.06-.39s0,.13-.05.39-.1.63-.19,1.12a41.78,41.78,0,0,1-1.14,4.18c-.57,1.77-1.35,3.9-2.31,6.31s-2.1,5.11-3.45,8-2.85,6-4.6,9.24c-.45.81-.9,1.62-1.38,2.43a25.66,25.66,0,0,1-1.6,2.4,41,41,0,0,1-4,4.33,67,67,0,0,1-9.65,7.7,41.38,41.38,0,0,1-5.58,3.09,18.79,18.79,0,0,1-6.24,1.71,14.84,14.84,0,0,1-6.36-1.24,35.67,35.67,0,0,1-5.64-3,79,79,0,0,1-9.75-7.57c-1.5-1.33-2.93-2.68-4.31-4l-2-2a13.55,13.55,0,0,1-1.77-2.2,83.48,83.48,0,0,1-5-9.05C69.27,96,68,93.3,67,90.94L64.23,84.8C62.72,81.39,61.87,79.45,61.87,79.45Z" style="fill:#f9b5aa"/><path d="M75.74,15.87l-1.3,1.42c-.43.46-.9,1.07-1.48,1.76-.29.35-.58.73-.89,1.15s-.65.84-1,1.31c-.65.95-1.38,2-2.09,3.17-.38.58-.73,1.21-1.1,1.85-.18.33-.37.65-.55,1l-.54,1-.55,1.07c-.17.37-.34.75-.52,1.13L65.2,31.9c-.17.39-.33.79-.5,1.2-.35.8-.66,1.65-1,2.51s-.6,1.75-.9,2.65-.53,1.85-.8,2.8S61.55,43,61.35,44s-.41,2-.55,3c-.08.51-.17,1-.24,1.55l-.18,1.57c-.07.53-.11,1.06-.14,1.6l-.12,1.61c0,1.08-.11,2.17-.08,3.27a57.55,57.55,0,0,0,.37,6.66,58.39,58.39,0,0,0,1.17,6.66,52.18,52.18,0,0,0,2,6.48c.37,1.06.86,2.08,1.29,3.12l.74,1.5.37.75.4.73L67.19,84l.87,1.4.44.69.47.68.93,1.33s-.31-.47-.88-1.37L68.54,86,68,85,67.38,84c-.21-.39-.42-.81-.65-1.26-.48-.88-.93-1.9-1.43-3-.25-.56-.47-1.15-.72-1.76s-.48-1.25-.71-1.92q-.18-.49-.36-1c-.12-.35-.22-.7-.33-1.06-.21-.73-.45-1.47-.63-2.25s-.41-1.57-.57-2.39c-.08-.42-.17-.83-.26-1.26s-.15-.85-.22-1.29-.14-.88-.22-1.32-.11-.91-.17-1.37c-.12-.91-.19-1.85-.27-2.81s-.09-1.94-.15-2.94,0-2,0-3,.06-2.08.16-3.15.19-2.13.32-3.23a62.94,62.94,0,0,1,1.19-6.65c.24-1.13.58-2.25.88-3.39s.68-2.27,1.1-3.4.86-2.27,1.31-3.41,1-2.26,1.55-3.37A56,56,0,0,1,71,22.05,59.05,59.05,0,0,1,75.74,15.87Z" style="fill:#9b6c3f"/><path d="M73.89-.23l-1.66,1.8c-.26.29-.57.61-.89,1s-.66.77-1,1.21c-.73.88-1.61,1.86-2.47,3l-1.4,1.83C66,9.27,65.5,10,65,10.68l-.76,1.09-.73,1.17-.76,1.22c-.26.41-.52.83-.76,1.27-.49.87-1,1.76-1.5,2.69S59.53,20,59,21s-.91,2.05-1.37,3.11l-1.27,3.32c-.37,1.15-.78,2.3-1.13,3.5-.17.6-.33,1.21-.5,1.82-.09.31-.17.61-.25.92l-.21.94-.42,1.89c-.14.64-.23,1.29-.34,1.94-.25,1.29-.39,2.62-.55,4-.09.66-.12,1.34-.17,2s-.11,1.36-.12,2c0,1.37-.07,2.75,0,4.15s.16,2.79.27,4.19c.07.7.18,1.4.27,2.1L53.39,58l.19,1.05a52,52,0,0,0,2.18,8.28c.45,1.37,1,2.68,1.58,4s1.21,2.6,1.93,3.84A44.55,44.55,0,0,0,69.94,88.1l-1.49-1.4-.39-.37-.41-.43c-.28-.3-.6-.62-.93-1s-.69-.75-1-1.18-.76-.88-1.15-1.38l-1.2-1.6c-.43-.56-.81-1.19-1.25-1.82s-.84-1.33-1.26-2c-.21-.36-.44-.72-.64-1.1s-.41-.77-.61-1.17-.43-.79-.63-1.21-.38-.85-.58-1.28c-.42-.86-.76-1.78-1.14-2.72s-.68-1.93-1-2.93-.6-2.08-.91-3.15A60,60,0,0,1,54,56.46a59.24,59.24,0,0,1-.49-7.55c0-1.31,0-2.64.13-4,0-.67.08-1.35.15-2L54,40.84c.07-.69.19-1.38.3-2.07s.22-1.4.37-2.09c.3-1.4.57-2.81,1-4.22A68.63,68.63,0,0,1,58.46,24l.9-2.12c.29-.72.65-1.4,1-2.1.64-1.42,1.41-2.79,2.15-4.18a82.85,82.85,0,0,1,5.19-8.11A97.15,97.15,0,0,1,73.89-.23Z" style="fill:#9b6c3f"/><path d="M138.87,59.8l1.35,2,.62,1.06a12.29,12.29,0,0,1,.7,1.26c.21.46.47.94.69,1.46s.42,1.07.61,1.65c.08.3.16.6.25.9a7.15,7.15,0,0,1,.22.94,14,14,0,0,1,.27,2,18,18,0,0,1,0,2.08c0,.35-.06.7-.09,1.06a9.62,9.62,0,0,1-.14,1.06c-.1.72-.27,1.42-.43,2.13s-.37,1.41-.59,2.11c-.42,1.39-.87,2.77-1.24,4.13l.17-.5c.11-.33.28-.81.5-1.42s.5-1.36.79-2.24c.14-.43.3-.9.44-1.41s.29-1,.42-1.6.23-1.17.34-1.79.16-1.28.15-2c0-.34,0-.68,0-1l-.09-1.07a10.62,10.62,0,0,0-.16-1.09,8.66,8.66,0,0,0-.24-1.1c-.1-.37-.21-.73-.32-1.11a11.22,11.22,0,0,0-.41-1.1c-.16-.36-.28-.75-.47-1.1s-.38-.72-.56-1.08a10.68,10.68,0,0,0-.63-1.07c-.22-.34-.45-.69-.67-1.05C139.91,61.15,139.38,60.48,138.87,59.8Z" style="fill:#9b6c3f"/><path d="M152.63,27.63s.09.51.25,1.45c.08.47.18,1,.3,1.72s.2,1.45.32,2.31.26,1.82.34,2.87c0,.51.09,1.05.14,1.61s.12,1.14.13,1.73.06,1.21.09,1.84.07,1.28.05,1.94v2c0,.35,0,.7,0,1s0,.7-.05,1.06c0,.72-.07,1.45-.1,2.19s-.14,1.49-.21,2.25c-.11,1.52-.38,3.07-.61,4.65-.1.8-.31,1.58-.46,2.38-.08.4-.17.8-.25,1.2l-.12.6-.16.6c-.22.8-.43,1.6-.65,2.41-.1.4-.23.8-.37,1.2s-.27.8-.4,1.2c-.49,1.61-1.19,3.17-1.82,4.75-.34.78-.74,1.54-1.1,2.31l-.56,1.15c-.2.37-.42.74-.62,1.11-.43.74-.85,1.47-1.26,2.21l-1.41,2.11c-.23.35-.45.7-.69,1s-.51.67-.76,1c-.51.65-1,1.31-1.51,2l.79-.94c.25-.32.57-.7.94-1.15l.61-.74c.21-.26.4-.57.63-.87l1.46-2.08c.51-.77,1-1.65,1.57-2.57s1.06-2,1.62-3,1.05-2.29,1.58-3.53c.14-.32.27-.63.4-.95s.23-.66.35-1c.23-.67.46-1.36.7-2s.41-1.43.63-2.17.43-1.48.59-2.26c.31-1.55.7-3.14.9-4.81.06-.42.12-.83.19-1.26s.12-.84.15-1.27q.12-1.29.24-2.61c.09-.88.08-1.78.12-2.68,0-.45,0-.9,0-1.36s0-.92,0-1.38c0-.92,0-1.85-.06-2.78l-.18-2.83c0-1-.2-1.91-.29-2.87-.06-.48-.11-1-.17-1.45s-.15-1-.23-1.44-.15-1-.23-1.46l-.12-.73-.14-.72Z" style="fill:#9b6c3f"/><path d="M69.35-7.9l-.46.28c-.3.19-.75.44-1.3.85s-1.2.9-2,1.53c-.36.33-.74.68-1.16,1s-.81.81-1.24,1.26C62.39-2,61.47-1,60.55.17S58.68,2.62,57.73,4,55.83,7,54.92,8.64c-.45.84-.91,1.69-1.31,2.6L52.4,14a13.2,13.2,0,0,0-.56,1.45c-.17.49-.35,1-.53,1.48s-.35,1-.53,1.52-.3,1-.44,1.56c-.65,2.09-1.1,4.3-1.56,6.54q-.27,1.7-.54,3.42c-.15,1.16-.25,2.33-.38,3.51,0,.29-.06.59-.08.88l-.05.89-.09,1.79c-.09,1.2-.06,2.4-.07,3.61,0,.6,0,1.2,0,1.81s0,1.21.07,1.82,0,1.21.08,1.82l.15,1.82L48,49.75l.23,1.81.23,1.81.29,1.8c.1.59.19,1.2.3,1.79s.24,1.19.37,1.78c.22,1.18.51,2.35.8,3.51.57,2.32,1.27,4.59,2,6.79,0,0-.16-.58-.48-1.68-.16-.55-.36-1.22-.55-2s-.47-1.73-.68-2.79-.51-2.22-.71-3.52c-.12-.64-.24-1.32-.36-2s-.21-1.43-.33-2.18c-.24-1.51-.38-3.14-.56-4.85-.09-.86-.13-1.75-.2-2.65l-.09-1.38c0-.47,0-.94,0-1.42,0-.95-.08-1.93-.06-2.93s0-2,0-3c.1-2.07.19-4.23.46-6.45.06-.55.11-1.11.17-1.67l.27-1.69c.18-1.14.33-2.3.6-3.45.13-.58.25-1.16.37-1.75.07-.29.13-.58.19-.88s.16-.58.23-.87c.34-1.17.63-2.37,1-3.55s.81-2.37,1.24-3.57,1-2.35,1.5-3.55a57,57,0,0,1,3.86-6.91,54.65,54.65,0,0,1,4.91-6.56A28,28,0,0,1,69.35-7.9Z" style="fill:#9b6c3f"/><path d="M69.3-7.84l.5-.38.61-.46c.24-.19.54-.37.86-.6l.52-.35.6-.35.65-.4.72-.39a38.35,38.35,0,0,1,3.52-1.65C78.63-13,80.14-13.51,81.8-14s3.47-1,5.41-1.39,4-.83,6.18-1.2a55.82,55.82,0,0,1,6.83-.73,55.28,55.28,0,0,1,15,1.45,74.57,74.57,0,0,1,7.79,2.28,71.71,71.71,0,0,1,7.7,3.17A56.11,56.11,0,0,1,138-6.11a49.07,49.07,0,0,1,6.51,5.43,60.5,60.5,0,0,1,5.56,6.34,78.17,78.17,0,0,1,4.6,6.91l-1-1.79c-.31-.59-.76-1.3-1.27-2.13s-1.15-1.77-1.86-2.83c-.35-.53-.77-1.05-1.18-1.62-.22-.28-.43-.57-.65-.87s-.48-.58-.72-.88c-.49-.6-1-1.22-1.57-1.84s-1.14-1.27-1.79-1.9l-1-1c-.33-.32-.69-.64-1-1s-.71-.66-1.09-1l-1.16-1-.6-.49-.63-.46-1.28-.95c-.44-.32-.9-.61-1.36-.91s-.92-.63-1.41-.91l-1.47-.88c-.5-.29-1-.55-1.54-.83-1-.58-2.14-1.07-3.25-1.6a75.7,75.7,0,0,0-7.14-2.74,60.56,60.56,0,0,0-16.48-3.15,52,52,0,0,0-9,.41c-3.06.42-6.11,1.06-9.2,1.8a60.44,60.44,0,0,0-9.21,2.95A32,32,0,0,0,69.3-7.84Z" style="fill:#9b6c3f"/><path d="M62.16,79.76s.09.26.24.74c.07.24.17.54.28.89s.22.74.35,1.19.27.93.4,1.47.27,1.12.41,1.74.26,1.27.38,2,.25,1.41.32,2.17c0,.38.08.76.13,1.15s0,.79.08,1.19c.07.8.07,1.63.09,2.48,0,.42,0,.85,0,1.28s0,.86-.06,1.29l-.09,1.32c-.06.44-.11.88-.16,1.32l-.08.67-.11.66c-.08.44-.15.89-.23,1.33-.19.88-.35,1.78-.59,2.65-.11.43-.21.87-.34,1.3s-.25.86-.37,1.29c-.24.86-.55,1.69-.81,2.52l.26-.6c.09-.19.19-.44.32-.72s.27-.62.4-1l.47-1.27c.18-.46.32-1,.49-1.52s.34-1.14.5-1.78c.08-.31.17-.63.24-1s.14-.68.21-1c.15-.7.24-1.45.35-2.23s.16-1.6.23-2.44.07-1.71,0-2.61-.09-1.82-.17-2.76c0-.47-.12-.94-.19-1.42,0-.23-.06-.48-.1-.71s-.09-.48-.14-.73c-.16-1-.41-1.94-.66-2.92s-.56-2-.92-3S62.56,80.74,62.16,79.76Z" style="fill:#9b6c3f"/><path d="M75.84.17s-.13.6-.36,1.71c-.14.55-.2,1.24-.32,2.05A12.43,12.43,0,0,0,75,5.23c0,.47-.09,1-.11,1.48s0,1.07,0,1.64,0,1.17,0,1.8.06,1.27.11,1.93c0,.34,0,.68.07,1s.08.69.12,1.05.08.71.12,1.08l.15,1.1c.09.75.25,1.51.4,2.28s.29,1.58.49,2.38.42,1.62.63,2.45c.1.42.23.84.37,1.25s.27.83.4,1.26l.42,1.28c.16.42.33.84.5,1.27A52.51,52.51,0,0,0,81,33.63l1.42,2.54c.52.83,1.08,1.64,1.62,2.48.26.42.59.8.89,1.2L85.84,41c.15.2.3.4.46.59l.51.56,1,1.13c.66.77,1.44,1.43,2.18,2.14a25.83,25.83,0,0,0,2.34,2c.41.31.8.65,1.22.93l1.29.84c.43.28.85.57,1.28.84l1.36.72,1.34.71c.46.23.94.41,1.4.61a24.84,24.84,0,0,0,2.82,1.09l1.43.45a11.65,11.65,0,0,0,1.43.4l2.88.63-1.41-.36-1.71-.45c-.68-.18-1.43-.48-2.28-.77-.43-.16-.88-.3-1.35-.49l-1.43-.64c-.5-.23-1-.46-1.56-.72l-1.61-.9A36.22,36.22,0,0,1,94,48.11a7.87,7.87,0,0,1-.87-.65l-.88-.71a20.82,20.82,0,0,1-1.77-1.53c-.57-.55-1.17-1.1-1.76-1.69s-1.12-1.26-1.7-1.91a11.79,11.79,0,0,1-.82-1l-.82-1.06c-.26-.36-.56-.71-.81-1.09s-.5-.78-.76-1.17l-.77-1.17c-.25-.4-.47-.83-.71-1.25-.46-.84-1-1.67-1.38-2.58-.21-.45-.43-.89-.64-1.35s-.44-.9-.62-1.38c-.37-.95-.78-1.89-1.13-2.87s-.67-2-1-3-.56-2.07-.84-3.12-.46-2.14-.69-3.22-.37-2.2-.5-3.32a48.22,48.22,0,0,1-.44-6.84A36.24,36.24,0,0,1,75.84.17Z" style="fill:#9b6c3f"/><path d="M108.8,54.62l-.54-.3-.64-.36c-.25-.14-.52-.33-.83-.53a12,12,0,0,1-1-.69c-.35-.27-.74-.54-1.11-.88s-.8-.65-1.19-1-.82-.78-1.22-1.23l-.63-.68-.61-.72c-.43-.48-.81-1-1.23-1.55S99,45.52,98.64,45s-.77-1.17-1.11-1.8c-.17-.31-.36-.61-.53-.92s-.33-.64-.5-1c-.32-.63-.62-1.29-.91-1.94s-.56-1.32-.79-2-.45-1.34-.66-2c0,0,0,.18.13.51s.19.81.39,1.42c.1.31.2.65.33,1l.45,1.19c.17.42.37.86.57,1.33s.47,1,.72,1.47.56,1,.86,1.56.66,1.08,1,1.63.77,1.12,1.21,1.68.9,1.12,1.39,1.68c.23.29.51.55.77.82s.52.56.81.82l.87.8.92.75c.31.27.65.49,1,.73s.67.47,1,.68.7.44,1.07.62Z" style="fill:#9b6c3f"/><path d="M90.73,23.7s0,.46.08,1.29c0,.42.12.93.19,1.53,0,.3.1.62.17,1s.13.7.22,1.07c.19.75.41,1.58.72,2.45a13.86,13.86,0,0,0,.5,1.34c.09.23.18.47.28.71s.21.47.32.71.23.48.34.73l.39.73.4.75c.15.25.3.49.44.75a35.45,35.45,0,0,0,2.06,3c.38.52.8,1,1.21,1.53s.86,1,1.33,1.5.93,1,1.44,1.47l.76.72.79.71c1.07.94,2.21,1.83,3.4,2.69s2.45,1.66,3.75,2.41a40.13,40.13,0,0,0,4,2,38,38,0,0,0,4.24,1.6,36,36,0,0,0,4.36,1.07,32.88,32.88,0,0,0,4.38.46l-1.08-.1c-.36,0-.79-.09-1.3-.16s-1.1-.18-1.76-.31c-.33-.05-.67-.14-1-.23s-.75-.16-1.13-.27L119,54.53l-1.3-.42a43.29,43.29,0,0,1-5.89-2.52c-1-.54-2.13-1.16-3.23-1.83s-2.2-1.43-3.3-2.27-2.21-1.74-3.3-2.72a40.26,40.26,0,0,1-3.17-3.22c-.53-.56-1-1.18-1.51-1.79s-1-1.26-1.41-1.93-.88-1.36-1.31-2.06-.81-1.43-1.16-2.19a27,27,0,0,1-1.81-4.74A27.35,27.35,0,0,1,90.73,23.7Z" style="fill:#9b6c3f"/><path d="M107.26,36.57l.72,1c.48.65,1.17,1.61,2,2.81.44.61.94,1.26,1.48,2s1.14,1.45,1.78,2.24,1.36,1.59,2.1,2.46c.37.42.79.83,1.2,1.26s.81.87,1.27,1.28c.91.83,1.82,1.73,2.87,2.52.52.4,1,.84,1.57,1.23L124,54.51a18.64,18.64,0,0,0,1.78,1.07l.92.52a8.39,8.39,0,0,0,.94.49,34.13,34.13,0,0,0,4,1.65l1,.36a9,9,0,0,0,1,.33l2.13.52c.36.08.71.18,1.07.24l1.09.16,2.17.32c.72.1,1.45.1,2.17.15l2.16.11,4.24-.14-4-.08c-.64,0-1.36-.12-2.14-.18l-1.22-.11a10.46,10.46,0,0,1-1.31-.17l-2.87-.5c-1-.22-2-.54-3.16-.82a16,16,0,0,1-1.65-.55l-1.72-.62c-.58-.22-1.14-.51-1.72-.77l-.89-.41-.45-.21-.43-.24a38.81,38.81,0,0,1-3.52-2.13,43.06,43.06,0,0,1-3.48-2.6c-1.11-1-2.27-2-3.35-3.11l-.83-.82-.8-.87c-.54-.59-1.09-1.17-1.61-1.79-1.06-1.21-2.1-2.48-3.14-3.78Z" style="fill:#9b6c3f"/><g id="_x_3_" data-name="¤­©x_3_"><path d="M104.16,91.85c-1.11-1.9-4.06-1.7-5.76-2.62-.08,0-.68-.14-.54,0s.22.16.33.24a1.27,1.27,0,0,0-.62.23c.21.15.27.4.44.59a2,2,0,0,0,.47.47c1.78,1.8,3.67,4.27,3.63,6.8a1.18,1.18,0,0,0,.94-.3C103.74,95.48,105.25,93.73,104.16,91.85Z" style="fill:#ffd1c5"/><path d="M99.18,70a.92.92,0,0,0-.4-.2,26.3,26.3,0,0,1,1.78,11c-.26,3-.9,6.56-3.26,8.62-.06.05.35.48.5.35C102.93,85.16,102.51,75.32,99.18,70Z" style="fill:#fffcfa"/><path d="M90.48,82.29a11.11,11.11,0,1,1-11-11.18A11.11,11.11,0,0,1,90.48,82.29Z" style="opacity:0.6000000000000001;fill:url(#_R_W_h_34)"/><path d="M137.52,84.48a10.89,10.89,0,1,1-10.83-11A10.88,10.88,0,0,1,137.52,84.48Z" style="opacity:0.6000000000000001;fill:url(#_R_W_h_34-2)"/><path d="M98.78,69.5a23,23,0,0,1,.76,2.44c.23.82.4,1.65.56,2.49.09.42.15.84.21,1.27s.13.84.17,1.27c.09.85.15,1.71.18,2.57s0,1.72-.06,2.59c0,.43-.07.86-.13,1.29s-.14.86-.23,1.29-.19.86-.32,1.28a11.75,11.75,0,0,1-.46,1.25,11.11,11.11,0,0,1-.59,1.2c-.12.19-.24.38-.37.56l-.41.54,0-.65c.26.3.5.61.73.92s.46.63.69,1a22.49,22.49,0,0,1,1.23,2,15.19,15.19,0,0,1,1,2.13,6.18,6.18,0,0,1,.42,2.28,6.74,6.74,0,0,0-.75-2.14,15.87,15.87,0,0,0-1.19-1.93c-.44-.62-.89-1.23-1.38-1.81l-.73-.86c-.25-.29-.51-.57-.76-.84L97,89.3l.24-.38.31-.5c.1-.17.18-.36.27-.53a10.69,10.69,0,0,0,.47-1.1c.14-.37.24-.76.35-1.15l.14-.59.12-.6c.07-.4.15-.8.19-1.21s.08-.81.13-1.22c.07-.82.1-1.65.11-2.47s0-1.67,0-2.5-.07-1.67-.13-2.5S99.09,72.87,99,72,98.87,70.35,98.78,69.5Z" style="fill:#f9b5aa"/><path d="M64.86,61l.22-.21c.15-.13.36-.32.65-.55s.65-.49,1.08-.77L67.5,59c.25-.15.52-.29.8-.44.55-.31,1.19-.57,1.85-.87l1-.38.55-.2.57-.15,1.17-.31c.4-.09.81-.16,1.22-.23a23.68,23.68,0,0,1,2.52-.28,10.94,10.94,0,0,1,1.28,0l1.26,0c.83,0,1.65.19,2.43.27s1.53.34,2.23.5a7.59,7.59,0,0,1,1,.29l.93.34a12.25,12.25,0,0,1,1.59.63c.46.22.86.42,1.18.59.66.33,1,.53,1,.53s-.41-.09-1.12-.28l-1.25-.35c-.48-.16-1-.24-1.64-.37l-.94-.2L84.73,58c-.16,0-.34,0-.51-.08L82,57.6l-2.33-.15h-1.2a9.62,9.62,0,0,0-1.2,0,23.5,23.5,0,0,0-2.4.23l-1.17.16-1.13.24-.55.11-.54.15-1,.27-1,.31a9.46,9.46,0,0,0-.9.31A25.14,25.14,0,0,0,64.86,61Z" style="fill:#9b6c42"/><path d="M140,62.37a24.1,24.1,0,0,0-3.73-1.73,7.3,7.3,0,0,0-.9-.32l-1-.33-1-.28-.53-.15-.55-.12-1.13-.25L130,59a20.56,20.56,0,0,0-2.39-.25,9.63,9.63,0,0,0-1.2,0l-1.2,0-2.34.12-2.18.27-.51.07-.49.11-.94.18a16.4,16.4,0,0,0-1.64.36c-.49.14-.91.24-1.26.33l-1.12.27,1-.52c.33-.16.73-.36,1.19-.57a13.08,13.08,0,0,1,1.6-.62l.94-.32a7.87,7.87,0,0,1,1-.28c.71-.16,1.45-.35,2.24-.47s1.6-.21,2.44-.25h1.26a10.77,10.77,0,0,1,1.27,0,23.13,23.13,0,0,1,2.52.32l1.22.23,1.17.33.56.16.55.2,1.05.4c.66.3,1.29.57,1.84.89.27.16.54.29.79.45l.68.44c.43.28.79.56,1.08.78s.5.42.64.56Z" style="fill:#9b6c42"/><path d="M98.79,110s6.54,4.82,12.86-.35c0,0-2.16,5.63-7.08,5.23A6.32,6.32,0,0,1,98.79,110Z" style="fill:#ffd1c5"/><path d="M89.13,101.94s16.13,5.6,30.8.34a17.89,17.89,0,0,1-14.72,9.1C96.61,111.93,88.09,102.14,89.13,101.94Z" style="opacity:0.6000000000000001;fill:url(#radial-gradient)"/><path d="M94.21,103.16s.71.22,2,.55c.31.09.65.16,1,.23l1.21.22c.43.08.89.16,1.37.21l1.51.16c1,.12,2.18.13,3.35.18l1.79,0c.61,0,1.22,0,1.84-.09l1.86-.16c.62-.07,1.23-.17,1.85-.26s1.23-.2,1.82-.35,1.2-.27,1.77-.42c0,0-.62,0-1.72.07l-.92.06-1.09,0-1.24.05c-.44,0-.91,0-1.39,0l-1.53,0H106c-.56,0-1.15,0-1.75,0l-1.86,0c-.64,0-1.28,0-1.94-.06s-1.34,0-2-.09-1.39-.08-2.09-.15Z" style="fill:#fffcfa"/><path d="M111.3,107.55a3.5,3.5,0,0,0-1.87.31l-.1,0a3.52,3.52,0,0,0-1.07.78c-.06.07-.2.2-.06.27a2.35,2.35,0,0,0,2.6-.46,1.24,1.24,0,0,0,.56-.66s0,0,0,0a.5.5,0,0,0,.08-.12C111.47,107.58,111.36,107.56,111.3,107.55Z" style="fill:#fffcfa"/><path d="M89.53,102.41s.45.22,1.26.56,2,.78,3.39,1.24c.7.22,1.48.44,2.29.65s1.7.39,2.6.57,1.84.28,2.8.38a27.88,27.88,0,0,0,2.9.14,25.39,25.39,0,0,0,2.9-.11l1.42-.16.69-.09.68-.13.67-.12.65-.15c.43-.1.86-.19,1.26-.31.82-.21,1.57-.47,2.28-.69l1-.38a9.38,9.38,0,0,0,.9-.35c.55-.24,1.06-.42,1.45-.61.79-.37,1.26-.57,1.26-.57l-1.11.84c-.35.27-.81.54-1.33.88s-1.14.65-1.82,1a22.09,22.09,0,0,1-2.27,1c-.41.17-.84.3-1.28.44s-.9.27-1.37.38L110,107l-.72.14-.74.13-.75.09a28.43,28.43,0,0,1-3.07.18c-1,0-2.06-.09-3.06-.21l-.75-.1-.74-.14c-.48-.08-1-.2-1.43-.3-.93-.23-1.82-.5-2.64-.79a24.09,24.09,0,0,1-2.29-.94,22,22,0,0,1-3.2-1.8A12.83,12.83,0,0,1,89.53,102.41Z" style="fill:#ef9289"/><path d="M98.6,110a16.53,16.53,0,0,0,13-.18S105.47,116.59,98.6,110Z" style="fill:#ef9289"/><path d="M89.75,71.41a8.88,8.88,0,0,0-.68-.85,18.7,18.7,0,0,0-2-2c-.46-.39-1-.78-1.54-1.17a18.43,18.43,0,0,0-1.87-1.1,15.39,15.39,0,0,0-2.15-.9,14,14,0,0,0-2.34-.56,13.05,13.05,0,0,0-2.41-.11l-.6,0-.59.08c-.19,0-.38,0-.57.09l-.56.12a7.33,7.33,0,0,0-1.07.3,9.81,9.81,0,0,0-1,.36,8.58,8.58,0,0,0-.92.42c-.29.15-.57.28-.83.43-.51.32-1,.59-1.37.89s-.74.53-1,.76l-.82.71s.33-.21.9-.6c.28-.21.65-.41,1.06-.66s.9-.48,1.41-.75c.27-.13.55-.24.84-.37s.59-.24.91-.35a9.36,9.36,0,0,1,1-.31,8.74,8.74,0,0,1,1-.24l.53-.11c.18,0,.37,0,.55-.06.37-.05.75-.07,1.13-.09a13.54,13.54,0,0,1,2.29.13,15.17,15.17,0,0,1,2.24.51c.37.11.72.25,1.07.38s.69.27,1,.44a20.58,20.58,0,0,1,3.43,2A21.54,21.54,0,0,1,89,70.65C89.48,71.12,89.75,71.41,89.75,71.41Z" style="fill:#f9b5aa"/><path d="M89.75,72.38a13.9,13.9,0,0,0-13-7s-9.85.39-10.2,7.68a26.9,26.9,0,0,0,11.09,4.61A11.83,11.83,0,0,0,89.75,72.38Z" style="opacity:0.6000000000000001;fill:url(#radial-gradient-2)"/><path d="M66.53,73s11.88,7.4,23.22.08c0,0-5.86,8.64-12.91,7.2C70.75,79.05,66.53,73,66.53,73Z" style="fill:#ffe6e3"/><path d="M89.75,73.1S81,86.69,66.53,73C66.53,73,80,79.65,89.75,73.1Z" style="fill:#543129"/><path d="M71.14,76.14s-3.55-.68-5.86,4.28c0,0,.52-5,4.29-5.57Z" style="fill:#543129"/><path d="M74.16,77.73s-4.13.51-4.79,4.06c0,0-.29-2.65,3.06-5Z" style="fill:#543129"/><path d="M76.43,78.59s-2.5.5-2.79,2.46a3.14,3.14,0,0,1,1.69-3Z" style="fill:#543129"/><path d="M77.62,78.37a1.73,1.73,0,0,0-.37.08.71.71,0,0,0-.18.08.78.78,0,0,0-.2.11,2.33,2.33,0,0,0-.41.37,3.08,3.08,0,0,0-.61,1.15,2.91,2.91,0,0,0-.1,1.37,1.53,1.53,0,0,1,0-.32,3.92,3.92,0,0,1,.17-.83,4.62,4.62,0,0,1,.52-1.12,2.64,2.64,0,0,1,.47-.54,1.77,1.77,0,0,1,.32-.21A2,2,0,0,1,77.62,78.37Z" style="fill:#543129"/><path d="M72.3,76.38l-.7.16a2,2,0,0,0-.35.11l-.4.16a4.43,4.43,0,0,0-.45.2l-.46.28-.25.15-.23.19L69,78c-.15.15-.28.31-.42.48a2.57,2.57,0,0,0-.4.52c-.12.18-.23.37-.35.56s-.18.41-.26.62l-.12.3c0,.11,0,.21-.08.32s-.08.41-.13.63l.22-.56q.06-.14.12-.3c.05-.11.12-.22.18-.34l.2-.38a4.65,4.65,0,0,1,.26-.41l.3-.43c.11-.15.25-.28.38-.43a3.45,3.45,0,0,1,.42-.44l.48-.42c.17-.15.36-.26.55-.4l.28-.19.32-.17a5.59,5.59,0,0,1,.65-.32Z" style="fill:#543129"/><path d="M88.85,72.52a1.83,1.83,0,0,1-.19.18,6.24,6.24,0,0,1-.58.43,7.89,7.89,0,0,1-1,.54l-.63.29c-.23.09-.47.16-.73.24l-.8.26-.87.18-.93.18a7.93,7.93,0,0,1-1,.1l-1,.08a7.18,7.18,0,0,1-1,0L78,75a9.26,9.26,0,0,1-1.07-.09l-1-.12-1-.12c-.33,0-.67-.13-1-.19a14.43,14.43,0,0,1-1.88-.42l-.86-.25a7.29,7.29,0,0,1-.79-.27,10.09,10.09,0,0,1-1.34-.59,8.63,8.63,0,0,1-1-.57l-.34-.25-.22-.2a.94.94,0,0,1-.18-.19,1.07,1.07,0,0,0,.19.16l.25.18.36.21a6.57,6.57,0,0,0,1,.48l.3.14.34.11.71.24a6.55,6.55,0,0,0,.79.22l.86.21.44.11.47.07.95.16,1,.17,1,.1c.69.06,1.41.17,2.09.18l2.09.08a7.06,7.06,0,0,0,1,0l1-.06c.32,0,.65,0,1-.07l.92-.14.87-.13.79-.21.73-.19.63-.24A6.69,6.69,0,0,0,88,73a5.82,5.82,0,0,0,.61-.36Z" style="fill:#f9b5aa"/><path d="M115,73s.23-.32.68-.85a21.1,21.1,0,0,1,2.06-2A17.17,17.17,0,0,1,119.26,69a15.88,15.88,0,0,1,1.87-1.1,13.21,13.21,0,0,1,2.14-.9,14.36,14.36,0,0,1,2.35-.56A13,13,0,0,1,128,66.3l.6,0c.19,0,.39,0,.58.07s.39,0,.58.09l.56.12c.37.08.72.19,1.07.3a9.84,9.84,0,0,1,1,.37,9.58,9.58,0,0,1,.91.41c.29.15.58.28.83.44a12.54,12.54,0,0,1,1.37.89,11.18,11.18,0,0,1,1,.76c.53.44.83.71.83.71l-.91-.61c-.28-.2-.64-.41-1-.65s-.9-.48-1.42-.76c-.26-.13-.55-.24-.83-.37s-.6-.24-.91-.35a10.14,10.14,0,0,0-1-.3c-.34-.09-.68-.19-1-.25l-.54-.1-.55-.07A10.36,10.36,0,0,0,128,67a11.88,11.88,0,0,0-2.3.13,14.51,14.51,0,0,0-2.24.51c-.36.11-.71.25-1.07.37s-.69.28-1,.44a20.18,20.18,0,0,0-3.43,2,23.12,23.12,0,0,0-2.2,1.8C115.25,72.73,115,73,115,73Z" style="fill:#f9b5aa"/><path d="M115,74a13.89,13.89,0,0,1,13-7s9.84.39,10.2,7.67a27.07,27.07,0,0,1-11.09,4.62A11.87,11.87,0,0,1,115,74Z" style="opacity:0.6000000000000001;fill:url(#radial-gradient-3)"/><path d="M138.21,74.63S126.33,82,115,74.71c0,0,5.87,8.64,12.92,7.2C134,80.67,138.21,74.63,138.21,74.63Z" style="fill:#ffe6e3"/><path d="M115,74.71s8.73,13.59,23.23-.08C138.21,74.63,124.74,81.27,115,74.71Z" style="fill:#543129"/><path d="M133.6,77.75s3.55-.67,5.86,4.28c0,0-.53-4.94-4.29-5.57Z" style="fill:#543129"/><path d="M130.58,79.35s4.12.51,4.78,4.06c0,0,.3-2.66-3.06-5Z" style="fill:#543129"/><path d="M128.31,80.21s2.49.5,2.79,2.46a3.16,3.16,0,0,0-1.69-3Z" style="fill:#543129"/><path d="M127.12,80a2,2,0,0,1,.37.08l.18.07.2.12a2.17,2.17,0,0,1,.4.36,3.22,3.22,0,0,1,.62,1.16,3,3,0,0,1,.1,1.36s0-.11,0-.32a4.68,4.68,0,0,0-.17-.83,4.8,4.8,0,0,0-.52-1.12,2.65,2.65,0,0,0-.48-.53,1.3,1.3,0,0,0-.31-.21A1.66,1.66,0,0,0,127.12,80Z" style="fill:#543129"/><path d="M132.44,78l.69.17a2,2,0,0,1,.36.1l.4.17a3.46,3.46,0,0,1,.45.2l.46.28.24.15a2,2,0,0,1,.23.18l.47.4c.15.14.29.31.43.47a2.88,2.88,0,0,1,.4.52c.11.19.23.37.35.57s.17.41.26.61l.12.31c0,.1,0,.21.07.32s.09.4.14.62l-.23-.56c0-.09-.07-.19-.11-.3l-.18-.33-.21-.38a2.33,2.33,0,0,0-.26-.41c-.09-.14-.2-.28-.3-.43s-.25-.28-.37-.43a5.77,5.77,0,0,0-.42-.44l-.49-.43c-.16-.14-.36-.25-.54-.39l-.29-.2-.31-.16a4.07,4.07,0,0,0-.66-.33Z" style="fill:#543129"/><path d="M115.89,74.14a1.31,1.31,0,0,0,.2.15,5.48,5.48,0,0,0,.62.36,5.39,5.39,0,0,0,1,.45l.64.24.73.2.79.21.87.13.91.13c.31,0,.64,0,1,.08l1,.06a6.93,6.93,0,0,0,1,0l2.1-.07c.68,0,1.4-.13,2.09-.18l1-.11c.34,0,.66-.11,1-.16s.64-.12.95-.16l.46-.08.45-.11.85-.2a5.65,5.65,0,0,0,.79-.23l.72-.24a4.6,4.6,0,0,0,.63-.24,7.26,7.26,0,0,0,1-.48l.35-.21.25-.18c.14-.09.19-.17.2-.16s0,.07-.18.18l-.23.21-.34.24a6.54,6.54,0,0,1-1,.58,11.44,11.44,0,0,1-1.34.58,6.67,6.67,0,0,1-.79.27l-.86.26a16.46,16.46,0,0,1-1.89.42c-.32.06-.66.13-1,.18l-1,.12-1,.12a9.45,9.45,0,0,1-1.07.1l-2.13,0a7.19,7.19,0,0,1-1,0l-1-.08c-.33,0-.67,0-1-.1l-.93-.19-.88-.18-.8-.25-.73-.24-.63-.3a6.15,6.15,0,0,1-1-.54,4.14,4.14,0,0,1-.59-.43A1.64,1.64,0,0,1,115.89,74.14Z" style="fill:#f9b5aa"/></g><path d="M73.81,14.72s-.75,1-2,2.75S69,21.82,67.14,25a91.9,91.9,0,0,0-5.42,11.32,70.23,70.23,0,0,0-2.28,6.7,56.33,56.33,0,0,0-1.54,7.12,45.64,45.64,0,0,0-.52,7.26,37.24,37.24,0,0,0,.75,7,34.76,34.76,0,0,0,1.94,6.29A34.17,34.17,0,0,0,62.82,76a41.4,41.4,0,0,0,3,4c1,1.13,1.88,2.07,2.66,2.81l1,1,.8.7L71,85s-.23-.2-.68-.56l-.83-.66-1.08-.95c-.8-.72-1.74-1.64-2.76-2.74a36,36,0,0,1-3.13-4,34.44,34.44,0,0,1-2.89-5.24,32.33,32.33,0,0,1-2.06-6.37,37.48,37.48,0,0,1-.8-7.11,44.59,44.59,0,0,1,.48-7.37,55.6,55.6,0,0,1,1.6-7.2,70.21,70.21,0,0,1,2.34-6.74C62,34,63,32,63.94,30.07s1.94-3.64,2.87-5.23c1.88-3.19,3.65-5.71,4.92-7.45S73.81,14.72,73.81,14.72Z" style="fill:#9b6c3f"/><path d="M148.69,60.29s-.88-.51-2.39-1.47-3.66-2.36-6.15-4.15c-1.25-.89-2.59-1.88-4-2.94s-2.86-2.21-4.34-3.44-3-2.51-4.5-3.84c-.76-.66-1.5-1.36-2.26-2l-2.23-2.11c-1.46-1.44-2.9-2.89-4.27-4.37l-1-1.11-1-1.11c-.66-.73-1.3-1.48-1.91-2.21s-1.22-1.47-1.79-2.2-1.12-1.44-1.64-2.15c-.27-.35-.53-.7-.78-1s-.49-.7-.72-1c-.48-.68-.94-1.33-1.35-2s-.83-1.26-1.19-1.86l-1-1.71c-.63-1.07-1.12-2-1.55-2.83l-1.24-2.53,1.32,2.49c.45.77,1,1.72,1.62,2.78.33.53.68,1.09,1.06,1.68s.79,1.19,1.21,1.83.89,1.29,1.38,1.95l.73,1,.79,1c.53.7,1.08,1.41,1.67,2.12s1.17,1.45,1.8,2.17,1.25,1.47,1.92,2.2l1,1.1c.34.36.68.73,1,1.09,1.37,1.47,2.81,2.92,4.28,4.34.72.71,1.47,1.41,2.21,2.11s1.48,1.38,2.24,2c1.49,1.34,3,2.64,4.46,3.86,2.94,2.45,5.76,4.65,8.23,6.47s4.55,3.29,6,4.29S148.69,60.29,148.69,60.29Z" style="fill:#9b6c3f"/><path d="M97.92,2.92S99,3.5,100.8,4.63s4.37,2.78,7.32,5c1.47,1.08,3,2.28,4.68,3.59s3.33,2.73,5,4.24,3.45,3.12,5.15,4.81l1.29,1.27c.42.43.84.87,1.27,1.3.85.87,1.67,1.77,2.5,2.66s1.61,1.84,2.42,2.75L132.78,33c.74.95,1.48,1.87,2.19,2.81s1.4,1.88,2.06,2.81,1.3,1.86,1.9,2.78,1.18,1.83,1.74,2.72,1.06,1.77,1.56,2.62.94,1.7,1.39,2.49.84,1.58,1.21,2.33.73,1.45,1,2.12c.6,1.36,1.15,2.53,1.56,3.51.8,2,1.25,3.11,1.25,3.11l-1.32-3.07c-.44-1-1-2.13-1.65-3.47-.33-.67-.71-1.36-1.09-2.1s-.79-1.51-1.25-2.3-.9-1.62-1.41-2.47-1.05-1.7-1.59-2.59l-1.77-2.68c-.61-.91-1.27-1.82-1.92-2.76s-1.36-1.85-2.06-2.79-1.46-1.85-2.19-2.79l-2.32-2.78c-.81-.9-1.6-1.82-2.42-2.72s-1.64-1.8-2.48-2.66L124,23.8l-1.28-1.27c-1.69-1.69-3.42-3.29-5.11-4.82s-3.37-3-5-4.27-3.17-2.55-4.62-3.65c-2.92-2.19-5.42-3.93-7.2-5.09S97.92,2.92,97.92,2.92Z" style="fill:#9b6c3f"/><path d="M98.07.51a31.7,31.7,0,0,1,3.53.75c1.12.29,2.46.68,4,1.21s3.21,1.18,5,2,3.7,1.81,5.67,2.92l1.47.9.75.46.73.49,1.5,1,1.48,1.1c.5.36,1,.75,1.47,1.15l1.47,1.19L126.57,15l.72.65.69.68,1.39,1.37c.46.47.89,1,1.34,1.44.91.95,1.73,2,2.58,3,.43.5.81,1,1.21,1.56l1.17,1.59q1.11,1.63,2.16,3.27c.65,1.13,1.33,2.23,1.94,3.34s1.17,2.24,1.71,3.35,1,2.24,1.49,3.32.85,2.2,1.25,3.26l.3.79c.09.26.18.52.26.79.17.52.33,1,.5,1.54.33,1,.65,2,.88,3s.5,1.87.73,2.74.37,1.71.55,2.5c.32,1.57.62,2.93.77,4.08.36,2.27.56,3.57.56,3.57l-.63-3.56c-.18-1.14-.51-2.5-.87-4.06-.19-.77-.34-1.61-.6-2.47s-.5-1.78-.76-2.72S145.33,46,145,45c-.17-.51-.34-1-.52-1.54-.09-.26-.17-.52-.26-.78s-.21-.52-.31-.78c-.42-1-.84-2.13-1.29-3.22l-1.5-3.3c-.54-1.1-1.14-2.2-1.72-3.33s-1.28-2.19-1.93-3.3-1.42-2.17-2.16-3.24l-1.18-1.58c-.39-.52-.77-1.05-1.2-1.55-.84-1-1.64-2-2.55-3-.44-.48-.87-1-1.32-1.44l-1.38-1.36-.68-.68-.72-.65L124.86,14l-1.46-1.2c-.48-.4-1-.79-1.46-1.15l-1.46-1.09-1.48-1-.73-.5-.74-.47-1.45-.91c-1.94-1.13-3.82-2.15-5.6-3s-3.45-1.53-5-2.07-2.83-1-3.93-1.29A32.47,32.47,0,0,0,98.07.51Z" style="fill:#9b6c3f"/><path d="M148.72,60.31s.1-1.58,0-4.33a98.14,98.14,0,0,0-.91-11.37c-.33-2.34-.77-4.85-1.37-7.49A79.6,79.6,0,0,0,144.15,29a62.39,62.39,0,0,0-3.54-8.34,52.75,52.75,0,0,0-5-7.91,46.41,46.41,0,0,0-6.39-6.81A43.76,43.76,0,0,0,121.81.74,45.76,45.76,0,0,0,114-2.64a55.64,55.64,0,0,0-7.36-1.87c-1.17-.19-2.28-.39-3.35-.5-.54-.06-1-.14-1.56-.19l-1.48-.12c-1-.1-1.85-.12-2.68-.16s-1.59,0-2.28-.06c-1.38,0-2.46,0-3.2,0L91-5.47l1.13,0c.74,0,1.82-.1,3.2-.1.69,0,1.45,0,2.28,0s1.74,0,2.69.11l1.49.1c.51,0,1,.1,1.57.15,1.07.1,2.19.29,3.36.46A56.25,56.25,0,0,1,114.15-3a44,44,0,0,1,15.38,8.52A46.77,46.77,0,0,1,136,12.41a52.61,52.61,0,0,1,5,8,62.46,62.46,0,0,1,3.54,8.41A75,75,0,0,1,146.82,37c.57,2.66,1,5.19,1.29,7.53A92.24,92.24,0,0,1,148.84,56C148.85,58.73,148.72,60.31,148.72,60.31Z" style="fill:#9b6c3f"/><path d="M148.69,60.29s-1.15-.19-3.13-.69c-1-.24-2.19-.58-3.56-1s-2.89-.91-4.52-1.55c-.83-.3-1.67-.65-2.55-1s-1.77-.75-2.68-1.18c-1.83-.82-3.72-1.8-5.64-2.85s-3.85-2.26-5.75-3.57-3.77-2.72-5.59-4.19c-.89-.76-1.76-1.54-2.63-2.32l-1.26-1.21c-.42-.4-.84-.8-1.23-1.23a67.32,67.32,0,0,1-4.47-5.07c-.67-.87-1.37-1.7-2-2.58l-.89-1.29-.44-.63-.4-.64c-.53-.86-1.06-1.68-1.54-2.5s-.9-1.63-1.32-2.4c-.22-.38-.4-.77-.58-1.14s-.36-.75-.54-1.11c-.33-.73-.68-1.4-.93-2.07s-.53-1.27-.76-1.84-.46-1.09-.61-1.58l-1-3,1.12,3c.17.48.4,1,.65,1.56s.52,1.17.8,1.82.64,1.32,1,2,.71,1.47,1.15,2.23l1.35,2.37c.48.8,1,1.61,1.56,2.46.13.21.27.42.41.63l.44.63.91,1.26c.59.87,1.28,1.69,2,2.55a66.85,66.85,0,0,0,4.47,5c.39.42.81.81,1.23,1.21L113,41.61c.86.77,1.74,1.54,2.63,2.29,1.8,1.48,3.63,2.91,5.53,4.19s3.82,2.48,5.7,3.58,3.77,2.06,5.59,2.9c.9.44,1.8.82,2.65,1.21s1.71.73,2.52,1c1.63.64,3.14,1.17,4.49,1.63s2.53.81,3.52,1.08C147.54,60.07,148.69,60.29,148.69,60.29Z" style="fill:#9b6c3f"/><path d="M74.76-5.09h-.45a9.67,9.67,0,0,0-1.24,0,10.65,10.65,0,0,0-4.19,1l-.61.3-.59.37a12.78,12.78,0,0,0-1.19.83A18.88,18.88,0,0,0,64.31-.46a40.5,40.5,0,0,0-3.6,5l.88-1.14c.56-.73,1.37-1.79,2.44-3a18,18,0,0,1,4.21-3.74,12.39,12.39,0,0,1,3-1.3A15.4,15.4,0,0,1,74.76-5.09Z" style="fill:#9b6c3f"/><path d="M62.22-1.92l-.66.59c-.43.38-1.05,1-1.81,1.73a65.83,65.83,0,0,0-5.83,6.76c-1.12,1.47-2.25,3.12-3.36,4.92-.27.46-.54.92-.82,1.38s-.53,1-.8,1.44c-.54,1-1,2-1.54,3a51.18,51.18,0,0,0-2.56,6.61c-.4,1.15-.66,2.34-1,3.52-.16.59-.24,1.2-.37,1.8s-.25,1.2-.32,1.81l-.24,1.82c0,.3-.09.6-.11.91l-.06.91-.12,1.83c0,.6,0,1.21,0,1.81s0,1.21,0,1.81l.12,1.78c.05,1.18.27,2.33.42,3.47s.43,2.24.64,3.33a30.21,30.21,0,0,0,.81,3.15q.21.77.42,1.5c.18.48.35,1,.52,1.43l.49,1.38c.17.45.32.89.52,1.31.75,1.69,1.37,3.27,2.09,4.58S50,65.2,50.54,66.12L52.26,69l-1.84-2.86c-.61-.89-1.2-2.06-1.94-3.38S47,59.93,46.25,58.25c-.2-.42-.36-.86-.54-1.31s-.35-.92-.53-1.38-.36-1-.54-1.43-.3-1-.46-1.51c-.31-1-.66-2.06-.88-3.16s-.53-2.2-.67-3.36-.39-2.32-.45-3.52c0-.6-.09-1.2-.14-1.81s0-1.21,0-1.82,0-1.23,0-1.84.08-1.24.11-1.85l.06-.93c0-.31.07-.62.1-.93l.24-1.85c.07-.62.23-1.22.34-1.83s.21-1.23.38-1.82c.32-1.2.59-2.4,1-3.56a52.61,52.61,0,0,1,2.64-6.67,57.64,57.64,0,0,1,3.27-5.85C51.3,10,52.46,8.38,53.62,6.93s2.27-2.74,3.29-3.85,2-2,2.75-2.77S61.09-1,61.53-1.36Z" style="fill:#9b6c3f"/><path d="M75.58,15.15s0,.78,0,2.15A49.76,49.76,0,0,0,76,23c.15,1.16.33,2.42.61,3.73.12.66.3,1.32.46,2s.35,1.38.58,2.07c.1.35.21.7.32,1.06l.38,1c.24.71.55,1.41.84,2.12a32.13,32.13,0,0,0,2.16,4.1A28.89,28.89,0,0,0,84,42.85c.51.57,1,1.12,1.55,1.66l.82.76a11,11,0,0,0,.83.72,30.5,30.5,0,0,0,3.42,2.44c.58.33,1.14.67,1.7,1l1.65.78c.53.24,1.06.41,1.56.61a11.65,11.65,0,0,0,1.42.51l1.28.39.57.18.52.12,2.1.48-2.12-.39L98.78,52l-.58-.15-1.29-.35A13.38,13.38,0,0,1,95.46,51c-.5-.19-1-.35-1.59-.59l-1.68-.75c-.57-.28-1.14-.61-1.74-.93A26.17,26.17,0,0,1,87,46.31c-.3-.22-.57-.48-.85-.73l-.84-.77c-.53-.54-1.06-1.1-1.58-1.67a29.17,29.17,0,0,1-2.78-3.8,33.09,33.09,0,0,1-2.16-4.18c-.28-.72-.59-1.42-.83-2.14-.13-.36-.25-.72-.37-1.07l-.33-1.07c-.22-.7-.38-1.41-.56-2.1s-.31-1.37-.42-2c-.25-1.32-.41-2.59-.54-3.76a48.07,48.07,0,0,1-.23-5.68C75.5,15.93,75.58,15.15,75.58,15.15Z" style="fill:#9b6c3f"/><path d="M94.83,36.5s.31.57.91,1.52,1.5,2.27,2.66,3.8c.59.76,1.24,1.57,2,2.4s1.51,1.67,2.36,2.52a36.46,36.46,0,0,0,2.73,2.48c.47.42,1,.79,1.48,1.18s1,.75,1.56,1.1,1.06.71,1.62,1l.82.48.84.43a26.09,26.09,0,0,0,3.39,1.44c.56.21,1.13.35,1.67.53s1.11.26,1.64.39a24.14,24.14,0,0,0,3.06.43l.7.06h.67c.44,0,.85,0,1.24,0,.78,0,1.46-.06,2-.12l1.75-.21-1.74.3c-.56.09-1.24.13-2,.21-.39,0-.81,0-1.25,0h-.68l-.71,0a24,24,0,0,1-3.1-.36c-.54-.12-1.11-.21-1.68-.36s-1.13-.31-1.71-.51a29.63,29.63,0,0,1-3.45-1.43l-.85-.43-.84-.48c-.57-.31-1.1-.67-1.65-1s-1-.75-1.58-1.12-1-.79-1.49-1.21A37,37,0,0,1,102.44,47c-.85-.86-1.63-1.74-2.34-2.59S98.76,42.75,98.19,42a42.65,42.65,0,0,1-2.53-3.92C95.1,37.09,94.83,36.5,94.83,36.5Z" style="fill:#9b6c3f"/><path d="M71.54,78.26s12.41-4.9,8.57-9.77-7.39-3.73-12.52,5.17.36,4.41.36,4.41Z" style="fill:#724d49"/><path d="M64.39,75.42c1.73-1.52,4-1.83,5-.67l1.33,1.5c1,1.15.44,3.33-1.29,4.86L10.47,131.68c-1.73,1.53-3.78,2-4.8.88l-.16-.19c-1-1.15-.12-2.9,1.61-4.43Z" style="fill:#d8214d"/><path d="M66.78,73.32c.41-.37,1.57.27,2.59,1.43l1.33,1.5c1,1.15,1.51,2.39,1.1,2.75L58,91.23c-.41.36-1.57-.28-2.59-1.43L54,88.29c-1-1.15-1.51-2.38-1.1-2.75Z" style="fill:#d1d1d1"/><path d="M56.87,89.9l.57-.51,1.49-1.32,2.14-1.83,2.47-2.08L66,82.09l1.13-1c.36-.3.69-.6,1-.87L69,79.5c.23-.24.44-.44.61-.61l.49-.57-.1.17c-.07.11-.16.28-.3.47l-.54.69-.76.85c-.57.6-1.26,1.28-2,2-.39.34-.78.71-1.19,1.06l-1.25,1.07c-.85.71-1.7,1.4-2.52,2s-1.59,1.21-2.26,1.7-1.24.87-1.63,1.14S56.87,89.9,56.87,89.9Z" style="fill:#fff"/><path d="M52.84,86.24l-1.3,1c-.43.31-.91.75-1.5,1.24s-1.24,1.07-2,1.72-1.54,1.33-2.45,2l-2.94,2.34c-1,.83-2.11,1.78-3.24,2.74-.57.49-1.16,1-1.73,1.5L36,100.43l-3.64,3.38-3.87,3.53c-1.31,1.22-2.69,2.4-4.06,3.63s-2.79,2.44-4.22,3.66c-.71.61-1.43,1.23-2.15,1.87s-1.44,1.27-2.13,1.94c-1.41,1.3-2.76,2.68-4.06,4.08l-1.89,2.14c-.61.67-1.32,1.31-2,2a14.66,14.66,0,0,0-1.85,2.16,4.89,4.89,0,0,0-.93,2.59l.07-.34a2.59,2.59,0,0,1,.13-.4,3.87,3.87,0,0,1,.24-.53,6.3,6.3,0,0,1,.94-1.31,16.7,16.7,0,0,1,1.63-1.51c.65-.54,1.4-1.11,2.19-1.8s1.56-1.49,2.43-2.33,1.83-1.66,2.84-2.56,2.1-1.81,3.27-2.73l3.67-3c1.29-1,2.57-2.15,3.9-3.32l2-1.78,2-1.89c1.36-1.28,2.78-2.58,4.17-4L39,99.69c1.48-1.39,2.95-2.84,4.5-4.28s3.17-2.88,4.7-4.46S51.2,87.75,52.84,86.24Z" style="fill:#a00d23"/><path d="M57.46,91.4,54.3,93.79,52.66,95c-.59.45-1.2,1-1.86,1.51l-4.36,3.62c-1.59,1.29-3.28,2.68-5,4.14s-3.63,2.94-5.49,4.49c-.92.8-1.82,1.64-2.69,2.49l-2.62,2.55-1.32,1.23L28,116.26l-1.4,1.11-1.45,1,.78-.39c.25-.14.58-.29.94-.51l1.23-.78c.45-.31.94-.67,1.48-1.06s1.09-.85,1.69-1.34c1.18-1,2.49-2.15,3.94-3.41l1.11-.94c.38-.32.79-.63,1.2-1L40,107c.87-.71,1.79-1.42,2.7-2.2l2.79-2.41c1-.82,1.94-1.66,2.89-2.56l2.92-2.72c1-.94,2-1.86,3-2.8S56.41,92.37,57.46,91.4Z" style="fill:#a00d23"/><path d="M52.81,85.77l0,.19a1.5,1.5,0,0,0,0,.24,3,3,0,0,1,0,.32,3.1,3.1,0,0,0,.09.39,3,3,0,0,0,.16.44,6.33,6.33,0,0,0,.54,1c.12.16.24.32.38.48l.41.46c.28.31.58.64.92,1a5.75,5.75,0,0,0,.54.44,4.17,4.17,0,0,0,.61.38,3.15,3.15,0,0,0,.67.24,2.63,2.63,0,0,0,.68,0l-.15-.07a2.47,2.47,0,0,1-.41-.2l-.26-.18c-.1-.06-.19-.16-.3-.24s-.21-.18-.32-.29S56.08,90.1,56,90l-.76-.85c-.27-.3-.6-.65-.91-1-.16-.16-.32-.33-.47-.5s-.3-.36-.44-.55A4.28,4.28,0,0,1,53,86.5c0-.11-.09-.23-.14-.35Z" style="fill:#a3a6af"/><path d="M52.77,85.76l.35-.33c.11-.1.24-.23.41-.36s.36-.31.59-.47c.44-.33,1-.72,1.62-1.15.32-.22.66-.44,1-.7s.7-.54,1.06-.85c.7-.59,1.45-1.23,2.22-1.91s1.54-1.44,2.32-2.2c.38-.38.79-.78,1.14-1.16s.77-.74,1.16-1.12.79-.78,1.16-1.17l.55-.57.58-.55-.34.2-.41.25-.53.4-.64.49c-.23.18-.5.36-.77.56s-.58.44-.89.68l-1,.83c-.64.57-1.34,1.19-2.07,1.87S58.78,79.9,58,80.68l-1.23,1.18c-.43.39-.88.77-1.34,1.17s-.93.81-1.38,1.26A10.37,10.37,0,0,0,52.77,85.76Z" style="fill:#a3a6af"/><path d="M58,91.19,58,91.1l.27-.22.45-.33.58-.47a6.77,6.77,0,0,1,.74-.52,10.18,10.18,0,0,0,.89-.64l.94-.78,1-.84,2.25-1.88c.78-.65,1.56-1.33,2.39-2.06l1.21-1.11c.39-.38.77-.77,1.15-1.16s.75-.78,1.12-1.18a3.63,3.63,0,0,0,.89-1.32,1.55,1.55,0,0,1-.22.31,5.49,5.49,0,0,1-.82.73l-1.39,1.1c-.54.43-1.14.94-1.81,1.47S66.29,83.31,65.51,84s-1.58,1.36-2.41,2.11c-.42.37-.84.77-1.26,1.19l-1.26,1.27c-.39.42-.91.78-1.36,1.24l-.33.36c-.1.11-.19.23-.3.34A7.46,7.46,0,0,0,58,91.19Z" style="fill:#a3a6af"/><path d="M55.21,91.31s-.76.5-2,1.39-3,2.17-5.07,3.66-4.34,3.29-6.61,5.23c-.57.48-1.14,1-1.71,1.48s-1.1,1-1.64,1.56c-1.08,1.06-2.13,2.14-3.1,3.22,0,0,.63-.42,1.72-1.21.55-.39,1.21-.88,2-1.45l1.21-.92c.42-.33.88-.66,1.35-1,1.91-1.42,4.12-3.16,6.51-5.15,1.19-1,2.43-2,3.66-3.2S54,92.56,55.21,91.31Z" style="fill:#fff"/><path d="M68.87,74.09l.08-.18a5.15,5.15,0,0,1,.24-.51,7.62,7.62,0,0,1,.42-.72c.18-.26.38-.55.61-.85.93-1.22,2.29-2.61,3.38-4.08a5.92,5.92,0,0,0-.57.33,10.66,10.66,0,0,0-1.41,1.06,10.17,10.17,0,0,0-1.73,2,7.05,7.05,0,0,0-.7,1.37,5.14,5.14,0,0,0-.23.79A4.57,4.57,0,0,0,68.87,74.09Z" style="fill:#4c2c2a"/><path d="M69.27,74.66l.17-.34a3,3,0,0,1,.21-.36,4,4,0,0,1,.28-.45c.2-.32.46-.67.71-1.05a12.67,12.67,0,0,0,.74-1.16l-.26.2a4.83,4.83,0,0,0-.63.61,3.7,3.7,0,0,0-.38.47,5.29,5.29,0,0,0-.38.58c-.06.11-.11.23-.16.34a2.35,2.35,0,0,0-.14.37,2.38,2.38,0,0,0-.11.38C69.3,74.39,69.28,74.53,69.27,74.66Z" style="fill:#4c2c2a"/><path d="M69.86,75.27s0-.1.1-.22.08-.15.13-.24a3.23,3.23,0,0,1,.18-.28,10.27,10.27,0,0,0,.92-1.42,6.75,6.75,0,0,0-.55.53,4.31,4.31,0,0,0-.49.67,2.66,2.66,0,0,0-.2.45,1.83,1.83,0,0,0-.06.25C69.88,75.09,69.87,75.17,69.86,75.27Z" style="fill:#4c2c2a"/><path d="M70.21,75.68a9.56,9.56,0,0,0,.84-.83,5,5,0,0,0,.36-.41c.13-.14.26-.28.39-.44a6.37,6.37,0,0,0,.68-1,8.68,8.68,0,0,0-.8.69l-.37.38a4.84,4.84,0,0,0-.38.47A9,9,0,0,0,70.21,75.68Z" style="fill:#4c2c2a"/><path d="M70.72,76l.38-.3c.24-.18.54-.47.94-.77.19-.15.39-.32.59-.51s.42-.35.64-.55a11.21,11.21,0,0,0,1.2-1.28l-.36.2a8,8,0,0,0-.94.6l-.6.46a7,7,0,0,0-.64.59,7.61,7.61,0,0,0-.64.72C71.1,75.41,70.9,75.7,70.72,76Z" style="fill:#4c2c2a"/><path d="M71.06,76.4s.26-.08.68-.24a5.71,5.71,0,0,0,.74-.34,3.09,3.09,0,0,0,.43-.24l.46-.29a10.78,10.78,0,0,0,1.89-1.58,11,11,0,0,0,1.58-2.1l-.5.36c-.31.24-.75.59-1.27,1l-.85.73-.94.83-.52.44c-.17.16-.35.31-.53.46s-.37.32-.57.47Z" style="fill:#4c2c2a"/><path d="M71.59,77s.33-.11.9-.33a9.22,9.22,0,0,0,1-.47c.18-.1.39-.19.58-.32l.6-.4a4.31,4.31,0,0,0,.62-.46l.63-.52c.21-.18.41-.39.61-.59s.41-.42.59-.65.37-.46.54-.7a8.63,8.63,0,0,0,.48-.75,5.86,5.86,0,0,0,.42-.78c.12-.27.23-.53.34-.8,0,0-.22.2-.58.58l-.66.67c-.13.13-.26.27-.41.41s-.3.29-.46.45l-.5.5-.55.53c-.19.18-.37.37-.59.56l-.62.58-.67.6c-.23.21-.46.41-.71.61s-.48.44-.75.64S71.85,76.77,71.59,77Z" style="fill:#4c2c2a"/><path d="M71.64,77.49l.23,0,.28,0a3.47,3.47,0,0,0,.36-.08,8,8,0,0,0,.93-.35c.34-.16.7-.33,1.1-.55a4.24,4.24,0,0,0,.61-.36c.2-.13.42-.26.62-.42s.41-.32.59-.5.39-.37.57-.58a7.84,7.84,0,0,0,.5-.64c.15-.23.3-.45.43-.69a8,8,0,0,0,.33-.74c.09-.25.16-.5.23-.75,0,0-.18.2-.46.57-.15.18-.35.39-.55.64l-.36.37c-.13.13-.26.28-.41.41s-.29.29-.45.43l-.51.45-.56.46-.61.46-.65.47-.7.52-.71.51A2.48,2.48,0,0,1,71.64,77.49Z" style="fill:#4c2c2a"/><path d="M76.26,66.5l-.53.26a9.25,9.25,0,0,0-1.24.82A7.66,7.66,0,0,0,73.08,69,4.91,4.91,0,0,0,72.17,71s.12-.14.3-.4a5.07,5.07,0,0,1,.36-.44,6.94,6.94,0,0,1,.48-.56C74,68.74,75.08,67.69,76.26,66.5Z" style="fill:#b27f7b"/><path d="M76.47,67.24s-.52.32-1.21.79a8.29,8.29,0,0,0-1.08.9,3.33,3.33,0,0,0-.81,1.26l.25-.24a2,2,0,0,1,.29-.28,3.51,3.51,0,0,1,.39-.34A14.57,14.57,0,0,0,76.47,67.24Z" style="fill:#b27f7b"/><path d="M76.18,68.38a1.34,1.34,0,0,1-.13.15c-.08.09-.21.21-.35.34a5.12,5.12,0,0,0-.93,1,5,5,0,0,0,.5-.37,6.18,6.18,0,0,0,.48-.45A2.08,2.08,0,0,0,76.18,68.38Z" style="fill:#b27f7b"/><path d="M77.59,68.09s-.19.11-.48.31a8.65,8.65,0,0,0-1.16.88,9.23,9.23,0,0,0-2.44,3.2s.14-.11.37-.32.53-.54.92-.92C75.56,70.46,76.56,69.38,77.59,68.09Z" style="fill:#b27f7b"/><path d="M78.19,68.69l-.27.31c-.16.18-.41.43-.71.71a8.72,8.72,0,0,0-1.87,2.13s.39-.3,1-.79a9,9,0,0,0,1-.93A4.33,4.33,0,0,0,78.19,68.69Z" style="fill:#b27f7b"/><path d="M79.66,69.53s0,.12-.13.28a7.27,7.27,0,0,1-.37.67,11,11,0,0,0-1.09,1.87,8.19,8.19,0,0,0,.66-.72,5.45,5.45,0,0,0,.59-.87A2.88,2.88,0,0,0,79.66,69.53Z" style="fill:#b27f7b"/><path d="M80.22,70.34l-.06.17c0,.11-.1.26-.2.45A7,7,0,0,1,79,72.34c-.82,1-2.18,2.16-3.11,3.51l.5-.3c.31-.2.75-.5,1.27-.91A8.18,8.18,0,0,0,79.31,73,4.39,4.39,0,0,0,80.22,70.34Z" style="fill:#b27f7b"/><path d="M75.45,66.28s-.22,0-.6.11a5.86,5.86,0,0,0-1.43.59,8.62,8.62,0,0,0-3,3s.62-.42,1.5-1.15A20.92,20.92,0,0,1,75.45,66.28Z" style="fill:#b27f7b"/><path d="M54.81,86.12s.31-.13.81-.39a12.3,12.3,0,0,0,1.88-1.19,14,14,0,0,0,2.11-2c.17-.2.32-.4.48-.61s.31-.42.45-.64a7.6,7.6,0,0,0,.78-1.44,7.1,7.1,0,0,0-.71.28c-.22.1-.49.23-.8.4l-.47.27a4.1,4.1,0,0,0-.5.35,11.54,11.54,0,0,0-2.1,2c-.35.41-.68.89-1,1.36A14.39,14.39,0,0,0,54.81,86.12Z" style="fill:#a3a6af"/><path d="M62.28,79.24l.35-.13.4-.17a3.22,3.22,0,0,0,.46-.27,6.12,6.12,0,0,0,.95-.79l.43-.5a3.64,3.64,0,0,0,.38-.58,2.3,2.3,0,0,0-.31.09l-.35.14a1.91,1.91,0,0,0-.44.24,5,5,0,0,0-1,.79c-.16.16-.31.36-.46.54A5.55,5.55,0,0,0,62.28,79.24Z" style="fill:#a3a6af"/><path d="M50.49,90.54l-.33.16c-.21.11-.52.26-.91.48s-.81.53-1.3.87l-.76.55c-.26.19-.54.37-.83.57-.56.39-1.18.88-1.8,1.37s-1.25,1-1.87,1.61l-.93.85c-.3.29-.6.58-.89.89a20.1,20.1,0,0,0-1.66,1.91A31.15,31.15,0,0,0,43,97.52c.55-.38,1.12-.83,1.72-1.31s1.23-1,1.88-1.6l1-.92c.34-.32.65-.67,1-1l.95-1.07Z" style="fill:#a00d23"/><path d="M52.19,89.58c-2.65-.75-5.28,2.17-5.48,4.65-.1,1.27,2.88,1.12,3-.23a3.69,3.69,0,0,1,.78-1.66,3.37,3.37,0,0,1,.29-.35,5.16,5.16,0,0,1-.43,1.31,5.71,5.71,0,0,1-1.49,2.14c-1.41,1.15,1.25,2,2.22,1.22C52.62,95.4,55.58,90.55,52.19,89.58Z" style="fill:#d8214d;mix-blend-mode:multiply"/><path d="M45,93.68c-1.91,3.17-4.2,6.36-5,10-.32,1.45,3,1,3.25-.31.76-3.45,3-6.49,4.82-9.47C49,92.48,45.69,92.6,45,93.68Z" style="fill:#d8214d;mix-blend-mode:multiply"/><g id="_Group_3" data-name="&lt;Group&gt;"><path d="M49.68,87.7c1.43.12,1.59,5.9,1.4,7.69a23.54,23.54,0,0,1-.61,3l.05,0c.26-1,.86-2.2,1.19-3.1s.92-3.32,1.87-3.29c1.26-.09,1.74,2.08,1.82,3.12.21,3.9-.86,8.15-2,12.23h0c1.44-2.81,2.28-6.27,4.23-8.52,3.62-4,2.61,3.8,2,5.64C57.22,111.44,56.25,116,59,123c2.19,5.41,5.1,11.57,7.72,17,3,6.21,3.75,12.8,3.57,19.63,0,2.8.13,5.78,0,8.71-.39,4.76-.47,9.4-.54,14.24a50,50,0,0,1-1,8.87c-.43,2.76.78,8.08-.2,10.57l-.93,14.45c-1,3.08-3.4,1.89-6,4.23-11.49,10.56-16.79,1-17.39.77,0,0-2,.82-2,.81.86-3.39,3.36-15.24,4.48-19.26A151.52,151.52,0,0,0,50,186.65c1.47-10.2,4.39-20.05-.56-29.3-5.13-9.39-10-17.88-15.3-27.1-2.19-3.94-6.11-6.93-5.19-11.73.89-5.12,1.36-8.16.8-13.64-.16-2.19-1.31-4.94-.49-6.58,5.82,1.45,5.94,10.28,6,15-.08,7.57,1.66,10.55,7.56,17.81-1.19-3.17-1.87-6.46-2.85-9.65-1.24-4-3.25-6.91-1.54-10.92s4.07-7.88,6-11.92c1.36-2.94,2-6.35,3.65-9.21.69-1.28,1.24-1.76,1.67-1.73Z" style="fill:#fff1e3"/></g><path d="M29.21,98.3s6,6.49,4.21,21.56c0,0,.25,6.19,9.32,11.26,0,0-5.82-6.89-7-11.68s.14-13.85-2.42-17.69S29.21,98.3,29.21,98.3Z" style="fill:#ffe2dc"/><path d="M49.67,87.69s4.67,3.6-2.56,19.52l-2.23,6s-.7,2,1.25,7.57a55.28,55.28,0,0,1,2.56,10.51s-6.63-11-5.73-16.7S51.25,97.54,49.67,87.69Z" style="fill:#ffe2dc"/><path d="M53.76,92.18s3.52.19-.14,14.45c0,0-1.66,5.42-2.39,8.23s3.53,15.71,3.88,17.21c0,0-7.55-13.47-5.66-18.11S55.65,99.1,53.76,92.18Z" style="fill:#ffe2dc"/><path d="M59.14,98s2.39-1.33.32,7.14c0,0-3,7-1.75,13.62,0,0,2.86,8.28,5.31,13.47,0,0,8.49,14.39,7.19,29.16,0,0-2.46,49.18-4.93,57.11,0,0-9.78,10.11-16.16,4,0,0,21.69-39.78,15.66-65.08s-12.23-39.79-7.86-49.86c3.7-8.55,2.25-9.37,2.25-9.37Z" style="fill:#ffe2dc"/><path d="M49,132.69a.57.57,0,0,0-.76.46,2.49,2.49,0,0,0,.47,1.78.42.42,0,0,0,.24.18.56.56,0,0,0,.7-.14A1.43,1.43,0,0,0,49,132.69Z" style="fill:#ffe2dc"/><path d="M55.58,133.46a.56.56,0,0,0-1,.31,2.78,2.78,0,0,0,.66,2,.56.56,0,0,0,1-.14,2,2,0,0,0-.45-2A.53.53,0,0,0,55.58,133.46Z" style="fill:#ffe2dc"/><path d="M38.62,110.69a1.65,1.65,0,0,0-.78,1.21v0a5.82,5.82,0,0,0,.62,4.79.56.56,0,0,0,.89,0c.63-1,.24-2.06.36-3.17.09-.89.38-2-.31-2.76A.57.57,0,0,0,38.62,110.69Z" style="fill:#ffe2dc"/><path d="M45.78,112.58a1.15,1.15,0,0,0-.91,1.3.58.58,0,0,0,.11.35,4.08,4.08,0,0,0,.57,3.27.57.57,0,0,0,1-.14,5.17,5.17,0,0,0,.48-1.78,4.81,4.81,0,0,0,0-2C46.79,113.08,46.39,112.5,45.78,112.58Z" style="fill:#ffe2dc"/><path d="M52,114.28a1.71,1.71,0,0,0-.82.9.51.51,0,0,0,.06.5,5.68,5.68,0,0,0,.5,2.7.56.56,0,0,0,.85.23c1.11-.87,1.16-3.46,0-4.26A.57.57,0,0,0,52,114.28Z" style="fill:#ffe2dc"/><path d="M29.13,118.7a1.67,1.67,0,0,0-.33,1,5.5,5.5,0,0,0,.65,3.15.58.58,0,0,0,.86.23c1.15-.73.93-3,.41-4C30.42,118.52,29.64,118.11,29.13,118.7Z" style="fill:#ffe2dc"/><path d="M70.31,161.15c1-15.1-5.44-25-5.44-25-1.19-2.47-5.38-11.89-5.38-11.89,1.42,4,7.95,17.3,9.24,30.77,3.26,33.93-8.3,66.72-8.3,66.72h0s3.83-3.4,6.69-4.46c0,0,1.43-1.42.45-4.73,0,0,1.08-11.13,1.29-15.68,0,0,1-14,.91-17.33s0-.46,0-.46Z" style="fill:#ffc5bb"/><path d="M31.45,99.5s-.05,0-.09,0a8.28,8.28,0,0,0-1.73-1.19c-.11-.06-.54.31-.48.37a16.26,16.26,0,0,1,4,4.59A17.6,17.6,0,0,1,34.81,109c0,.09.23-.2.23-.34a16.8,16.8,0,0,0-1.38-6s0,0,0,0A4.92,4.92,0,0,0,31.45,99.5Z" style="fill:#ffc5bb"/><path d="M49.64,87.92c1.34,2.52,1.53,6.26,1.15,9,0,0,.45-.12.46-.26a19.27,19.27,0,0,0,0-4.49c-.14-1.28-.26-3.53-1.24-4.47C49.93,87.64,49.58,87.81,49.64,87.92Z" style="fill:#ffc5bb"/><path d="M53.75,92.79A8.24,8.24,0,0,1,55,96.06c.11,1-.06,2,.14,3,0,.1.51-.24.5-.39-.09-1.29-.14-2.6-.31-3.88-.1-.74-.58-2.35-1.3-2.79C53.85,91.92,53.67,92.66,53.75,92.79Z" style="fill:#ffc5bb"/><path d="M59.36,97.82s-.29,0-.28.09A5,5,0,0,0,59.62,99a3.52,3.52,0,0,1,.22,1.4,29.94,29.94,0,0,0-.18,3.65,13.36,13.36,0,0,0,.49-1.41,21.17,21.17,0,0,0,.21-2.86C60.35,99.19,60.12,97.86,59.36,97.82Z" style="fill:#ffc5bb"/><path d="M29,98.54c-.48,1.52.74,7.18.74,7.18a1,1,0,0,0,1.55-.24c1.87-3.83-2.13-6.81-2.13-6.81Z" style="fill:#fffcfa"/><path d="M49.51,87.82A7.63,7.63,0,0,1,48,94.68s-1.47.55-1.74-.65C46.22,94,47.28,89.28,49.51,87.82Z" style="fill:#fffcfa"/><path d="M53.58,92.05a6.44,6.44,0,0,1-.43,6.39s-2.23,0-2.31-1C50.84,97.48,52.51,92.08,53.58,92.05Z" style="fill:#fffcfa"/><path d="M59.07,97.83c-1.66.28-3.75,5.23-3.75,5.23,0,2.08,2.53,1.08,2.53,1.08,2.69-4.6,1.48-6.17,1.48-6.17Z" style="fill:#fffcfa"/><path d="M42.73,219.52s3.55-14.16,4.58-18.86,5.1-26.85,4.8-33.11c-.27-5.63-3.79-12.53-7.94-19L35,131.1s12.21,17.42,13.46,20.41,6.76,9.53,6.17,18.67C53.78,183,42.73,219.52,42.73,219.52Z" style="fill:#fffcfa"/><path d="M29,118.86s.44-1.73,1-4c.08-.29.15-.59.21-.92,0-.16.06-.32.1-.48s0-.34.05-.51,0-.34.05-.51v-.53a9.39,9.39,0,0,0,0-1.06c0-.36-.08-.71-.12-1.07s-.09-.69-.14-1-.1-.69-.15-1l-.12-1s0,.37-.05,1,0,1.56.1,2.68c0,.28,0,.57,0,.87s0,.61,0,.93,0,.65-.06,1-.11.68-.16,1c-.13.71-.27,1.47-.41,2.26S29.1,118,29,118.86Z" style="fill:#fffcfa"/><path d="M29.88,123.31l.75,1.25L31.5,126c.15.26.35.53.51.84l.53.95c.36.65.77,1.35,1.19,2.07.21.36.4.75.61,1.12l.63,1.15.67,1.16c.21.39.43.78.65,1.17.44.78.89,1.55,1.36,2.28,0,0-.17-.43-.47-1.16l-.57-1.34-.37-.82c-.12-.3-.28-.6-.44-.92-.31-.63-.66-1.32-1-2-.2-.37-.39-.75-.62-1.12l-.72-1.16c-.24-.39-.5-.79-.76-1.2l-.39-.61-.46-.59C31.19,124.92,30.55,124.12,29.88,123.31Z" style="fill:#fffcfa"/><path d="M42.67,131.37l0-.1a3,3,0,0,0,.1-.29,2.89,2.89,0,0,0-.06-1.14c-.06-.24-.12-.5-.2-.78s-.14-.57-.21-.9-.13-.67-.21-1-.14-.74-.26-1.13c-.22-.77-.45-1.6-.7-2.46s-.51-1.72-.78-2.62L40,119.56a8.32,8.32,0,0,0-.6-1.32c-.22-.43-.46-.83-.64-1.25a5,5,0,0,1-.41-1.31s0,.12,0,.35a2.25,2.25,0,0,0,0,.41,3.33,3.33,0,0,0,.12.56,13.55,13.55,0,0,0,.53,1.46,8.11,8.11,0,0,1,.33.88c.1.3.17.66.27,1,.18.72.37,1.5.63,2.35.12.43.26.86.39,1.31s.28.89.43,1.35.32.92.45,1.42l.44,1.49a15.18,15.18,0,0,0,.54,1.52A2.36,2.36,0,0,1,42.67,131.37Z" style="fill:#fffcfa"/><path d="M38.45,111a1.13,1.13,0,0,0,0-.12,1.68,1.68,0,0,1,.09-.33,5.8,5.8,0,0,1,.6-1.13c.29-.46.62-1,1-1.69s.79-1.38,1.23-2.17c.22-.4.45-.81.68-1.24l.76-1.27c.51-.87,1-1.79,1.51-2.76.24-.48.47-1,.68-1.47s.41-1,.6-1.51.33-1,.49-1.54.24-1,.34-1.54c0,0-.2.51-.56,1.38-.21.44-.41,1-.72,1.58-.15.31-.3.63-.48,1l-.55,1.07c-.21.37-.42.76-.64,1.16s-.46.82-.71,1.25L42,102.92c-.26.46-.55.93-.78,1.43-.5,1-1,2-1.5,3.13L39,109.15c-.13.27-.26.56-.37.86A2.52,2.52,0,0,0,38.45,111Z" style="fill:#fffcfa"/><path d="M45.28,112.51l.08-.06a2.15,2.15,0,0,0,.2-.21,5.28,5.28,0,0,0,.63-.9,4.33,4.33,0,0,0,.3-.72c.08-.26.18-.55.28-.84s.21-.62.34-1,.24-.67.39-1,.31-.67.52-1,.39-.73.56-1.13.35-.8.5-1.22.31-.84.43-1.27a24.52,24.52,0,0,0,.68-2.65c.19-.88.34-1.77.46-2.64l-.4,1.2c-.12.39-.27.86-.45,1.4s-.37,1.16-.6,1.83l-.37,1c-.13.36-.28.73-.43,1.12s-.33.77-.5,1.17l-.58,1.23a10.78,10.78,0,0,0-.53,1.37c-.15.47-.27,1-.39,1.45s-.22,1-.36,1.48A4.82,4.82,0,0,1,45.28,112.51Z" style="fill:#fffcfa"/><path d="M45.66,117.33s.05.12.13.34l.15.39a2.87,2.87,0,0,1,.17.54c0,.2.11.42.17.67s.1.51.16.79c.11.56.22,1.21.33,1.89.22,1.36.49,2.93.83,4.55.2.8.42,1.6.63,2.39.09.4.2.79.28,1.19s.13.8.2,1.19v-1.15a4.69,4.69,0,0,0-.05-.62c0-.23-.06-.47-.08-.73-.09-.52-.21-1.11-.33-1.74s-.24-1.34-.38-2.09-.29-1.54-.46-2.38-.37-1.71-.63-2.6c-.06-.22-.13-.45-.2-.67s-.17-.45-.26-.67l-.13-.34L46,118Z" style="fill:#fffcfa"/><path d="M51.87,118.73s.05.11.13.32.1.23.17.38a4,4,0,0,1,.17.52c.06.2.13.41.2.65s.12.5.18.77.14.57.2.88.13.62.19,1,.13.67.18,1,.11.72.16,1.1c.1.75.22,1.53.36,2.33s.35,1.6.55,2.39.53,1.53.82,2.25c0,0-.08-.41-.22-1.1-.08-.36-.17-.79-.27-1.28s-.17-1.08-.26-1.71-.19-1.32-.3-2.06-.22-1.53-.38-2.36c-.08-.41-.2-.83-.3-1.26s-.25-.85-.4-1.28a10.72,10.72,0,0,0-.5-1.29A8.29,8.29,0,0,0,51.87,118.73Z" style="fill:#fffcfa"/><path d="M51.51,114.86S52.2,113.28,53,111l1.35-3.74c.46-1.33.9-2.71,1.24-4,0,0-.61,1.27-1.46,3.36-.21.52-.43,1.09-.67,1.71s-.45,1.28-.67,2C52.37,111.7,51.92,113.24,51.51,114.86Z" style="fill:#fffcfa"/><path d="M51.93,113.68l.3-1,.31-1.15c.06-.21.1-.45.19-.69s.17-.48.26-.74c.18-.52.36-1.07.55-1.65.09-.28.23-.56.34-.85l.35-.89.34-.9c.14-.29.27-.59.4-.89.26-.59.51-1.19.74-1.78l-.47.78-.54.91-.32.58c-.12.2-.21.43-.32.66-.21.47-.44,1-.67,1.55a6,6,0,0,0-.33.87c-.09.31-.19.63-.29,1s-.18.65-.28,1a7.26,7.26,0,0,0-.23,1C52.14,112.19,52,112.93,51.93,113.68Z" style="fill:#fffcfa"/><path d="M42.05,223c.64-2.67,1.21-5.36,1.8-8s1.18-5.37,1.8-8.05,1.38-5.32,1.94-8,1-5.39,1.5-8.1l1.26-8.14c.45-2.71.91-5.42,1.21-8.14a39.77,39.77,0,0,0,.17-8.16,23.26,23.26,0,0,0-2.09-7.82c-.29-.61-.61-1.2-1-1.8l-1-1.8-2-3.59-4-7.19L37.57,137l-2-3.58-1-1.79c-.34-.6-.67-1.19-1-1.75-1.47-2.28-3.34-4.38-4.38-7a7.91,7.91,0,0,1-.49-4.2c.23-1.36.47-2.7.65-4.06a36.44,36.44,0,0,0,.29-8.15c-.06-.67-.1-1.38-.17-2s-.23-1.33-.36-2a17.51,17.51,0,0,1-.33-2.07A4,4,0,0,1,29,98.19l.09-.17.19,0a6.08,6.08,0,0,1,2.17,1,7,7,0,0,1,1.61,1.77,12.8,12.8,0,0,1,1.67,4.4,29.19,29.19,0,0,1,.54,4.65c.08,1.55.07,3.11.06,4.66,0,.77.05,1.54.12,2.31a22.18,22.18,0,0,0,.34,2.29c.08.38.19.75.28,1.12s.24.74.37,1.1a18.14,18.14,0,0,0,1,2.11c.36.68.76,1.35,1.18,2s.87,1.28,1.32,1.91c.92,1.25,1.88,2.47,2.85,3.69-1-1.2-2-2.41-2.91-3.65-.46-.62-.92-1.25-1.35-1.89s-.85-1.31-1.22-2a19.57,19.57,0,0,1-1-2.12c-.13-.36-.26-.73-.38-1.1s-.22-.75-.31-1.13a20.22,20.22,0,0,1-.38-2.31c-.09-.78-.13-1.55-.16-2.34a46.6,46.6,0,0,0-.69-9.23,12.53,12.53,0,0,0-1.65-4.24,6.42,6.42,0,0,0-1.52-1.64,5.63,5.63,0,0,0-2-1l.27-.13a3.62,3.62,0,0,0-.24,1.89,17.79,17.79,0,0,0,.34,2c.14.67.29,1.34.38,2s.13,1.37.2,2.07a36.9,36.9,0,0,1-.26,8.27c-.19,1.37-.42,2.73-.65,4.08a7.38,7.38,0,0,0,.47,3.88c1,2.5,2.83,4.58,4.34,6.9.39.58.73,1.19,1.07,1.78l1,1.79,2,3.58,4.08,7.15,4,7.21,2,3.59,1,1.8c.34.6.67,1.22,1,1.85a24,24,0,0,1,2.12,8,39.48,39.48,0,0,1-.23,8.28c-.33,2.74-.81,5.45-1.28,8.15l-1.34,8.13c-.47,2.71-1,5.42-1.6,8.1s-1.44,5.3-2,8-1.26,5.35-1.88,8S42.72,220.32,42.05,223Z" style="fill:#f9b5aa"/><path d="M42.74,131.12l-.28-.72c-.18-.46-.42-1.16-.71-2.05s-.6-2-1-3.23S40,122.46,39.53,121s-1.25-3.08-1.75-4.88a9.34,9.34,0,0,1-.35-2.87,8.07,8.07,0,0,1,.74-2.94c.79-1.84,1.74-3.71,2.71-5.57s2-3.75,2.91-5.67A49.16,49.16,0,0,0,46,93.09a25.7,25.7,0,0,1,1.22-2.92c.12-.23.24-.46.37-.69s.24-.43.39-.67a3.93,3.93,0,0,1,1.08-1.24,1,1,0,0,1,.48-.16.85.85,0,0,1,.54.14,1.75,1.75,0,0,1,.54.7,5.89,5.89,0,0,1,.43,1.46,18.83,18.83,0,0,1,.28,2.85,22,22,0,0,1,0,2.7,22.7,22.7,0,0,1-.48,2.48,29.48,29.48,0,0,1-1.39,4.17c-.49,1.2-1,2.24-1.34,3.1-.77,1.7-1.19,2.68-1.19,2.68s.37-1,1.07-2.74c.35-.86.78-1.91,1.23-3.13a34.78,34.78,0,0,0,1.26-4.17c.17-.77.31-1.59.41-2.43a21.18,21.18,0,0,0,0-2.64,18.71,18.71,0,0,0-.33-2.76,6.41,6.41,0,0,0-.4-1.33,1.24,1.24,0,0,0-.35-.46c-.12-.07-.22-.07-.4,0a7.25,7.25,0,0,0-1.6,2.37,24.12,24.12,0,0,0-1.17,2.86,48.43,48.43,0,0,1-2.23,6c-1,1.94-2,3.82-3,5.68s-1.93,3.68-2.75,5.51a8,8,0,0,0-.71,2.74,8.51,8.51,0,0,0,.27,2.72c.44,1.75,1.15,3.35,1.63,4.88s.83,3,1.15,4.23.59,2.36.85,3.26.45,1.6.62,2.07S42.74,131.12,42.74,131.12Z" style="fill:#f9b5aa"/><path d="M50.42,99.33a3.15,3.15,0,0,1,.09-1,9.21,9.21,0,0,1,.31-1c.11-.33.24-.66.36-1l.36-1v0a13.69,13.69,0,0,1,.57-1.93,4.56,4.56,0,0,1,.48-.93c0-.07.1-.15.16-.22s.13-.14.21-.21a1.28,1.28,0,0,1,.28-.16.81.81,0,0,1,.35-.07h0a1.24,1.24,0,0,1,.82.21,2,2,0,0,1,.55.56,4.66,4.66,0,0,1,.56,1.33,6.39,6.39,0,0,1,.23,1.41v2l-.06.68-.13,1.37c-.06.46-.15.9-.22,1.35s-.14.9-.26,1.34c-.21.88-.39,1.77-.64,2.64s-.5,1.74-.76,2.6-.53,1.73-.81,2.58-.54,1.73-.83,2.58c.37-1.76.79-3.52,1.24-5.27.22-.87.43-1.75.62-2.62.1-.44.22-.88.3-1.32l.27-1.31c.1-.44.15-.88.23-1.32s.15-.88.2-1.33L55,98l.07-.66v-2A7,7,0,0,0,54.89,94a4,4,0,0,0-.46-1.17,1.47,1.47,0,0,0-.37-.41.92.92,0,0,0-.46-.14h0s-.09,0-.14,0a.56.56,0,0,0-.15.08c-.05,0-.09.09-.15.13s-.09.11-.14.17a4.34,4.34,0,0,0-.46.82,12.52,12.52,0,0,0-.65,1.84h0c-.27.67-.6,1.29-.88,1.93-.14.32-.27.65-.38,1-.06.16-.09.33-.14.5A3.07,3.07,0,0,0,50.42,99.33Z" style="fill:#f9b5aa"/><path d="M53.44,107.41s.14-.28.37-.82.56-1.34.95-2.36a33.55,33.55,0,0,1,1.6-3.64,9.91,9.91,0,0,1,1.41-2,4.08,4.08,0,0,1,1.09-.85,1.05,1.05,0,0,1,.82,0,1.18,1.18,0,0,1,.52.63,4.6,4.6,0,0,1,.27,1.47c0,.5,0,1,0,1.52a16.92,16.92,0,0,1-.5,3.14,54,54,0,0,0-1.87,6.49A19,19,0,0,0,57.9,118a24.79,24.79,0,0,0,.91,3.56c.22.57.41,1.17.66,1.73L60.2,125c.49,1.16,1,2.31,1.49,3.44s1,2.28,1.52,3.4c1,2.23,2.06,4.43,3.08,6.55L67,140c.23.53.48,1,.68,1.57s.42,1.06.59,1.59.35,1,.5,1.58a38.63,38.63,0,0,1,1.22,6,47.57,47.57,0,0,1,.37,5.13c0,1.53,0,2.87-.06,4s-.12,2-.16,2.55-.08.89-.08.89,0-.31,0-.9,0-1.45.07-2.54a56.51,56.51,0,0,0-.55-9,38.29,38.29,0,0,0-1.32-5.89c-.15-.51-.33-1-.52-1.53s-.39-1-.6-1.55-.47-1-.7-1.56l-.75-1.57c-1-2.11-2.08-4.31-3.13-6.54-.52-1.12-1-2.26-1.55-3.4s-1-2.29-1.5-3.44l-.73-1.74c-.26-.58-.44-1.18-.66-1.77a26.49,26.49,0,0,1-.92-3.66,19.45,19.45,0,0,1,.23-7.31,47.42,47.42,0,0,1,2-6.51,17.26,17.26,0,0,0,.53-3,12,12,0,0,0,0-1.46,4.15,4.15,0,0,0-.22-1.35.82.82,0,0,0-.33-.44A.63.63,0,0,0,59,98a3.8,3.8,0,0,0-1,.75,9.82,9.82,0,0,0-1.43,1.93,35,35,0,0,0-1.69,3.56C54,106.31,53.44,107.41,53.44,107.41Z" style="fill:#f9b5aa"/><path d="M46.84,108s-.38.76-1,2l-.5,1.08c-.09.2-.18.4-.27.62s-.17.43-.26.66a9.16,9.16,0,0,0-.46,1.53,5.73,5.73,0,0,0-.06,1.81c.05.3.12.63.19.92l.24.9c.17.6.34,1.22.52,1.85.36,1.26.71,2.57,1.11,3.89.21.66.38,1.33.58,2s.39,1.34.6,2l.57,2c.2.67.4,1.32.61,2,0,0-.08-.69-.26-1.93-.05-.31-.1-.65-.16-1s-.11-.79-.2-1.22c-.17-.86-.38-1.85-.61-2.93-.11-.54-.27-1.1-.41-1.68s-.32-1.18-.48-1.81c-.33-1.25-.74-2.55-1.17-3.93,0-.17-.11-.35-.15-.51s-.09-.33-.13-.5a5.69,5.69,0,0,1-.11-1,8,8,0,0,1,.35-2.15c.19-.75.47-1.48.71-2.24Z" style="fill:#f9b5aa"/><path d="M51.87,112.84l-.22.45a3.9,3.9,0,0,0-.24.56,4.79,4.79,0,0,0-.25.78c0,.15-.07.3-.11.47s0,.34-.07.52a5.49,5.49,0,0,0,0,.58c0,.2,0,.4,0,.61a12.81,12.81,0,0,0,.16,1.32c.07.46.18.93.29,1.41.45,1.93,1,4.14,1.64,6.38s1.38,4.52,2.2,6.64c0,0-.4-2.3-1.25-5.93-.44-1.81-1-3.93-1.62-6.26-.17-.58-.34-1.18-.52-1.78s-.31-1.23-.4-1.86a6.91,6.91,0,0,1-.05-1.93,6.7,6.7,0,0,1,.17-1C51.65,113.49,51.78,113.17,51.87,112.84Z" style="fill:#f9b5aa"/><path d="M29.2,98.66l.13.14c.09.1.22.23.36.41s.16.19.24.3.18.22.27.36.19.26.27.42a5.26,5.26,0,0,1,.27.47,7.91,7.91,0,0,1,.47,1.1,6.13,6.13,0,0,1,.18.61c0,.21.09.43.11.65s0,.43,0,.66,0,.44-.05.66,0,.22,0,.33-.06.21-.09.33-.15.42-.21.63l.08-.15a2.19,2.19,0,0,0,.22-.42c0-.09.09-.2.13-.32a3,3,0,0,0,.12-.39c0-.14,0-.3.08-.46a3.08,3.08,0,0,0,0-.53,3.82,3.82,0,0,0,0-.58c0-.2-.06-.41-.11-.61a5.24,5.24,0,0,0-.2-.64c-.08-.22-.18-.43-.28-.65A6.88,6.88,0,0,0,29.2,98.66Z" style="fill:#f9b5aa"/><path d="M49.67,87.61l0,.71c0,.11,0,.23,0,.36v.43c0,.15,0,.31,0,.47s0,.35,0,.52a3.68,3.68,0,0,1-.06.56c0,.19-.07.38-.1.58s-.11.39-.17.59,0,.2-.08.3l-.12.29c-.09.19-.15.4-.25.59l-.29.57a5.15,5.15,0,0,1-.33.56c-.11.17-.21.35-.33.54l.4-.46.21-.25c.08-.09.14-.2.22-.31s.15-.25.24-.38a2.63,2.63,0,0,0,.24-.44l.23-.5a4.09,4.09,0,0,0,.18-.56,3.89,3.89,0,0,0,.16-.61l.09-.66c0-.23,0-.47,0-.7a5.79,5.79,0,0,0,0-.72c0-.25,0-.49-.1-.74S49.73,87.87,49.67,87.61Z" style="fill:#f9b5aa"/><path d="M53.59,92l.07.16a2.94,2.94,0,0,1,.17.43,3.87,3.87,0,0,1,.18.68,5.51,5.51,0,0,1,.12.88,4.1,4.1,0,0,1,0,.5c0,.17,0,.35,0,.53a8.53,8.53,0,0,1-.15,1.1,7.25,7.25,0,0,1-.32,1.1,5,5,0,0,1-.23.53,4.82,4.82,0,0,1-.27.5l.09-.11A2.1,2.1,0,0,0,53.5,98a5.67,5.67,0,0,0,.33-.55,6.87,6.87,0,0,0,.31-.79,5.69,5.69,0,0,0,.21-1,5.6,5.6,0,0,0,0-1.17,4.48,4.48,0,0,0-.06-.62c0-.21-.09-.42-.15-.63a4.12,4.12,0,0,0-.25-.63A3.91,3.91,0,0,0,53.59,92Z" style="fill:#f9b5aa"/><path d="M59.15,98a.87.87,0,0,0,.08.14,1.38,1.38,0,0,1,.08.17c0,.08,0,.16.07.25s0,.2,0,.31,0,.24,0,.37a7.2,7.2,0,0,1-.09.86c-.05.31-.13.64-.22,1s-.2.69-.33,1a9.9,9.9,0,0,1-.95,2l.1-.1c.06-.07.15-.17.25-.31a7.14,7.14,0,0,0,.71-1.25,8.71,8.71,0,0,0,.62-2,5.48,5.48,0,0,0,.07-.6,4.56,4.56,0,0,0,0-.64c0-.1,0-.21,0-.32s-.05-.21-.08-.32a2.88,2.88,0,0,0-.13-.31C59.29,98.16,59.21,98.08,59.15,98Z" style="fill:#f9b5aa"/></g><g style="clip-path:url(#clip-path-2)"><g id="_Group_4" data-name="&lt;Group&gt;"><path d="M12.86,175l-.18.06c-11.55-6.68-30.6-6.29-41.06-4.39-9.16,1.9-17.34,5.7-26.82,6.33-10.14.95-17-2.29-26.5-4.43-14.06-3.16-34.55-1.58-47,6l-.31-.11c-3.81,10.08-8.25,23.17-5,34,.09.31.19.62.3.92,0,0,0,0,0,.05a41.23,41.23,0,0,1,1.76,10h-11.6c1.49-15.48-2.5-22.06-4-33.45-1.47-13.28-6.38-26.1.49-38.91,6.38-10.44,14.2-15.1,26.5-15.66,35-1.58,41.53-16.48,40.37-44,.61-1.07,2.86,2.16,4.21,1.57,4.17-1.78,8.58-2.26,13-3s8.22-1.54,12.51-.71c2.45.47,5,.71,7.36,1.07,1.1.11,2.21.11,3.31.23a20.73,20.73,0,0,0,2.8-2.28C-40.64,116-32.42,134.81,2,135.37c12.31.2,20.12,5.22,26.5,15.66,6.87,12.81,2,25.63.49,38.91-1.47,11.39-4.47,21.44-4,33.31v.14H17.58a35,35,0,0,1,1.11-9.51c4.39-11.52-.87-26.07-5-36.75C13.46,176.42,13.16,175.7,12.86,175Z" style="fill:#fff1e3"/></g><path d="M2.14,135.41s31.8,8.34,28.5,44.62c0,0,5.25-21.44-4.05-32S11.89,136.24,2.14,135.41Z" style="fill:#fffcfa"/><path d="M-36.84,87.67s-.07.69-.21,2-.3,3.22-.39,5.66a71,71,0,0,0,.17,8.8A44.57,44.57,0,0,0-35,115.24a26.49,26.49,0,0,0,7.28,11.09,26.89,26.89,0,0,0,6.08,4A37.81,37.81,0,0,0-14.43,133a83.11,83.11,0,0,0,15.93,2.1,45,45,0,0,1,8.28,1.11,29.33,29.33,0,0,1,7.84,3.12,28.09,28.09,0,0,1,6.52,5.37,37.72,37.72,0,0,1,2.64,3.27c.4.56.8,1.14,1.18,1.72.19.29.37.59.55.88a4.87,4.87,0,0,1,.28.47l.24.46c.32.6.6,1.25.88,1.88s.52,1.28.73,1.94a27.73,27.73,0,0,1,1.07,4,36.19,36.19,0,0,1,.6,8,103.6,103.6,0,0,1-2,15c-.41,2.36-.8,4.66-1.08,6.9s-.61,4.4-1,6.47c-.71,4.13-1.46,7.9-2,11.25s-.93,6.3-1.12,8.74c-.11,1.21-.15,2.3-.2,3.25s0,1.76,0,2.41c0,1.31,0,2,0,2s0-.7-.06-2c0-.65,0-1.46,0-2.41s.05-2,.14-3.26c.15-2.44.47-5.4,1-8.77s1.19-7.15,1.87-11.28c.34-2.07.65-4.22.91-6.46s.63-4.56,1-6.93.81-4.8,1.16-7.29a65.71,65.71,0,0,0,.7-7.64,35.52,35.52,0,0,0-.62-7.87,28.06,28.06,0,0,0-1-3.87c-.21-.64-.47-1.26-.72-1.89s-.55-1.23-.87-1.84A32.14,32.14,0,0,0,17.26,139.9a28,28,0,0,0-7.65-3.06,43.22,43.22,0,0,0-8.15-1.13,83.21,83.21,0,0,1-16-2.16A31.58,31.58,0,0,1-28,126.72a25.39,25.39,0,0,1-4.5-5.41,29.89,29.89,0,0,1-2.82-5.93,43.93,43.93,0,0,1-2.17-11.24,74.59,74.59,0,0,1,0-8.82c.13-2.45.34-4.36.48-5.66S-36.84,87.67-36.84,87.67Z" style="fill:#f9b5aa"/><path d="M-14.37-16.45s.74.85,1.93,2.43c.59.79,1.29,1.76,2.06,2.9s1.62,2.44,2.49,3.9,1.77,3.06,2.64,4.8S-3.51,1.17-2.7,3.14A65.16,65.16,0,0,1-.57,9.33,55.33,55.33,0,0,1,1,15.92a48.1,48.1,0,0,1,.54,6.75v1.67c0,.55-.07,1.1-.11,1.65A28.06,28.06,0,0,1,1,29.21c0,.27-.07.53-.11.79s-.11.52-.16.77c-.11.51-.22,1-.34,1.52A12.11,12.11,0,0,1,0,33.75c-.15.48-.29,1-.44,1.42a37,37,0,0,1-2.15,5c-.19.38-.37.75-.57,1.11s-.41.69-.62,1c-.41.65-.78,1.29-1.17,1.85l-1.15,1.55c-.37.48-.66.94-1,1.3l-2.06,2.32,2-2.4c.33-.37.61-.84,1-1.33l1.09-1.58c.37-.57.71-1.22,1.1-1.88l.59-1c.18-.36.35-.73.54-1.11a36.59,36.59,0,0,0,2-5c.13-.47.27-.94.4-1.41a11.4,11.4,0,0,0,.37-1.45c.1-.49.21-1,.31-1.5.05-.25.11-.51.16-.76s.07-.52.1-.78A29.84,29.84,0,0,0,.77,26c0-.54.07-1.08.1-1.63s0-1.09,0-1.64A46.67,46.67,0,0,0,.27,16,56.61,56.61,0,0,0-1.17,9.5C-1.76,7.37-2.5,5.32-3.25,3.36-3.66,2.38-4,1.42-4.45.5L-5.06-.88q-.32-.68-.63-1.32C-6.53-3.95-7.39-5.56-8.22-7S-9.85-9.83-10.59-11s-1.4-2.16-2-3C-13.67-15.57-14.37-16.45-14.37-16.45Z" style="fill:#9b6c3f"/><polygon points="21.73 119.13 21.73 120.11 58.92 109.05 58.92 108.3 21.73 119.13" style="fill:#f4607f"/><polygon points="21.73 119.13 5.85 108.3 55.19 95.3 58.92 108.3 21.73 119.13" style="fill:#fff"/><polygon points="5.85 108.3 21.73 119.13 21.73 120.11 5.85 108.99 5.85 108.3" style="fill:#f4607f"/><polygon points="10.51 108.74 39.99 100.67 49.19 109.22 23.38 117.82 10.51 108.74" style="opacity:0.5;fill:url(#radial-gradient-4)"/><path d="M21.73,119.13,58.92,108.3l.44-27.45s.06-2.26-2-1.79L23.59,86.73s-2.34,0-2.32,4.23Z" style="fill:#fcacac"/><path d="M5.72,108.4l.39-.11c.26-.08.62-.2,1.09-.3.94-.24,2.27-.48,3.83-.76.78-.13,1.62-.29,2.5-.49s1.75-.44,2.65-.68a26.29,26.29,0,0,0,5.3-1.9s-.46.1-1.27.31c-.41.11-.91.21-1.49.33l-2,.41c-1.46.29-3.18.74-5.06,1.18A24.29,24.29,0,0,0,5.72,108.4Z" style="fill:#f4607f"/><path d="M39.54,97.84c-.64-2.59-2-5.28-5-4.6-2,.47-2.93,2-3.22,4a4.69,4.69,0,0,0-2.7.29c-1.76.65-2.43,2.32-2.54,4.36a3.46,3.46,0,0,0-1.26.09,2.82,2.82,0,0,0-2.4,2.94c-.26,3.79,1,8.61,2.05,12.23.23.79,3.45-.11,3.22-.87a60.5,60.5,0,0,1-1.94-11.15,15.17,15.17,0,0,1,.64,1.51c.2.5.37,1,.54,1.51.55,2.11,1.21,4,1.53,5.1.23.79,3.44-.11,3.22-.86-.37-1.26-.79-3.54-1.5-5.66a27.28,27.28,0,0,1-.65-5.36c-.06-4.43,1.12-.71,1.43.47.48,1.81.78,3.63,1.12,5.47.13.73,3.26,0,3.22-.86-.14-3.38-1.34-7.42-.51-10.84a5.37,5.37,0,0,0,.51.36,9.49,9.49,0,0,1,.75,1.8,25.63,25.63,0,0,1,.89,3.68c.84,4.11,3.14,7.73,4,11.8.15.74,3.39,0,3.23-.86C43.11,107.46,40.73,102.76,39.54,97.84Z" style="fill:#fcacac;mix-blend-mode:multiply"/><path d="M54,105.51a7.71,7.71,0,0,0-4.23,2c-1,.87-2.19,2.13-2.2,3.53,0,1.67,3.27,1.15,3.27-.26A2.94,2.94,0,0,1,52,108.85a4.4,4.4,0,0,1,1.69-1c.7-.06,1.68-.47,1.79-1.28S54.65,105.45,54,105.51Z" style="fill:#fcacac;mix-blend-mode:multiply"/><path d="M12.28,139.36c1.28-2.67,5.83-1,4.54,1.73C5.11,165.64,7.49,194.15,5,220.55,4.7,223.49-.14,223,.14,220,2.69,193.15.36,164.35,12.28,139.36Z" style="fill:#fbe0da;opacity:0.8;mix-blend-mode:multiply"/><g id="_Group_5" data-name="&lt;Group&gt;"><path d="M35.68,93.44c-1.44,0-2.24,5.69-2.25,7.49a23.34,23.34,0,0,0,.28,3.08h-.06c-.14-1-.61-2.28-.84-3.2s-.54-3.41-1.49-3.49c-1.25-.23-2,1.88-2.15,2.91-.64,3.85-.06,8.19.62,12.37h0c-1.12-3-1.58-6.49-3.26-8.93-3.17-4.34-3,3.48-2.62,5.37,1.67,7.14,2.13,11.75-1.36,18.45-2.78,5.13-6.36,10.93-9.55,16-3.64,5.84-5.15,12.3-5.73,19.11-.35,2.77-.77,5.73-1,8.66-.14,4.77-.57,9.39-1,14.21a50.25,50.25,0,0,0,0,8.93c.12,2.79-1.66,8-1,10.53L3.65,219.4c.69,3.18,3.16,2.26,5.43,4.87C19.34,236,25.67,227.09,26.29,227l1.88,1c-.47-3.46-1.64-15.52-2.32-19.63a154.94,154.94,0,0,1-1.41-16.59c-.33-10.31-2.14-20.42,3.81-29.06,6.14-8.77,11.94-16.66,18.2-25.24,2.62-3.67,6.85-6.21,6.47-11.08-.32-5.19-.45-8.26.71-13.64.4-2.16,1.86-4.78,1.21-6.5-5.93.81-7,9.56-7.58,14.26-.76,7.54-2.83,10.31-9.49,16.86,1.53-3,2.57-6.21,3.89-9.27,1.68-3.84,4-6.5,2.74-10.68s-3.17-8.29-4.63-12.51c-1-3.08-1.25-6.53-2.61-9.56-.55-1.35-1-1.89-1.48-1.9Z" style="fill:#fff1e3"/></g><path d="M54.84,106.24s-6.69,5.79-6.57,21c0,0-.93,6.13-10.5,10.17,0,0,6.54-6.2,8.25-10.83s1.4-13.78,4.37-17.32S54.84,106.24,54.84,106.24Z" style="fill:#ffe2dc"/><path d="M35.68,93.44s-5,3,.39,19.68l1.56,6.19s.47,2.09-2.09,7.39a55.65,55.65,0,0,0-3.71,10.16s7.81-10.2,7.55-16S33,103.05,35.68,93.44Z" style="fill:#ffe2dc"/><path d="M31.13,97.45s-3.53-.21-1.47,14.37c0,0,1.06,5.57,1.47,8.45s-5.25,15.22-5.76,16.67c0,0,9-12.55,7.62-17.37S28.48,104.11,31.13,97.45Z" style="fill:#ffe2dc"/><path d="M31.42,138.24a.57.57,0,0,1,.7.54,2.52,2.52,0,0,1-.66,1.72.41.41,0,0,1-.26.15.56.56,0,0,1-.68-.22A1.43,1.43,0,0,1,31.42,138.24Z" style="fill:#ffe2dc"/><path d="M24.75,138.27a.56.56,0,0,1,.92.41,2.73,2.73,0,0,1-.88,1.94.57.57,0,0,1-.94-.25,2,2,0,0,1,.67-2A.55.55,0,0,1,24.75,138.27Z" style="fill:#ffe2dc"/><path d="M44.12,117.52a1.63,1.63,0,0,1,.64,1.29v0a5.82,5.82,0,0,1-1.15,4.69.56.56,0,0,1-.88-.1c-.51-1.09,0-2.07,0-3.19,0-.89-.15-2,.61-2.71A.57.57,0,0,1,44.12,117.52Z" style="fill:#ffe2dc"/><path d="M36.8,118.6a1.16,1.16,0,0,1,.76,1.4.63.63,0,0,1-.15.33,4.11,4.11,0,0,1-.93,3.19.57.57,0,0,1-.94-.25,5.11,5.11,0,0,1-.29-1.82,4.93,4.93,0,0,1,.27-2C35.74,119,36.2,118.46,36.8,118.6Z" style="fill:#ffe2dc"/><path d="M30.4,119.6a1.69,1.69,0,0,1,.71,1,.51.51,0,0,1-.11.49,5.81,5.81,0,0,1-.8,2.63.56.56,0,0,1-.87.12c-1-1-.77-3.55.51-4.22A.59.59,0,0,1,30.4,119.6Z" style="fill:#ffe2dc"/><path d="M52.66,126.53a1.63,1.63,0,0,1,.22,1.08,5.5,5.5,0,0,1-1,3.06.56.56,0,0,1-.87.13c-1.07-.85-.6-3.08,0-4.05C51.4,126.21,52.22,125.89,52.66,126.53Z" style="fill:#ffe2dc"/><path d="M7,164.16c.67-15.12,8.18-24.25,8.18-24.25,1.45-2.33,6.66-11.23,6.66-11.23C20,132.46,12.06,145,9.29,158.24c-7,33.36.85,67.23.85,67.23h0S6.71,221.66,4,220.3c0,0-1.27-1.57.08-4.76,0,0,.16-11.17.45-15.72,0,0,.52-14,1-17.33s.07-.46.07-.46Z" style="fill:#ffc5bb"/><path d="M52.49,107.19l.09,0a8.29,8.29,0,0,1,1.84-1c.12,0,.51.37.44.42a16.29,16.29,0,0,0-4.47,4.13,17.39,17.39,0,0,0-2.3,5.52c0,.09-.21-.23-.19-.36a17,17,0,0,1,2-5.82s0,0,0,0A5,5,0,0,1,52.49,107.19Z" style="fill:#ffc5bb"/><path d="M35.69,93.67c-1.6,2.35-2.22,6-2.14,8.85,0,0-.43-.18-.43-.32a19.59,19.59,0,0,1,.5-4.45c.28-1.26.64-3.49,1.72-4.31C35.44,93.36,35.76,93.56,35.69,93.67Z" style="fill:#ffc5bb"/><path d="M31.07,98.06a8.13,8.13,0,0,0-1.55,3.11c-.23,1-.17,2-.47,3,0,.1-.49-.29-.47-.43.24-1.27.43-2.57.74-3.83.19-.73.85-2.27,1.61-2.62C31.07,97.18,31.16,97.93,31.07,98.06Z" style="fill:#ffc5bb"/><path d="M24.94,102.43s.28.07.26.12a5.59,5.59,0,0,1-.65,1.06,3.56,3.56,0,0,0-.39,1.36,27.37,27.37,0,0,1-.22,3.64,14.11,14.11,0,0,1-.32-1.45,18.2,18.2,0,0,1,.11-2.86C23.81,103.68,24.18,102.39,24.94,102.43Z" style="fill:#ffc5bb"/><path d="M35.84,93.58a7.63,7.63,0,0,0,.77,7s1.4.72,1.81-.45C38.42,100.12,37.89,95.28,35.84,93.58Z" style="fill:#fffcfa"/><path d="M31.32,97.33a6.45,6.45,0,0,0-.28,6.41s2.21.29,2.4-.7C33.44,103,32.38,97.49,31.32,97.33Z" style="fill:#fffcfa"/><path d="M28,225.22S26,210.75,25.51,206s-2.09-27.24-1.09-33.44c.89-5.57,5.15-12,10-18l11-16.29s-14.06,16-15.64,18.8-7.77,8.72-8.2,17.87C21,187.74,28,225.22,28,225.22Z" style="fill:#fffcfa"/><path d="M52.77,126.71s-.25-1.78-.58-4.08c0-.29-.08-.6-.1-.93,0-.16,0-.33,0-.49s0-.34,0-.51,0-.34,0-.52,0-.35,0-.52c0-.35.1-.7.16-1s.16-.7.24-1,.17-.68.26-1,.17-.68.26-1,.15-.66.23-1c0,0,0,.37-.06,1s-.2,1.55-.39,2.65c-.05.28-.08.56-.13.86s-.07.61-.11.93,0,.66,0,1,0,.69,0,1c0,.73.1,1.49.16,2.3S52.77,125.88,52.77,126.71Z" style="fill:#fffcfa"/><path d="M51.41,131l-.89,1.16-1,1.28c-.18.25-.41.49-.6.78s-.41.58-.63.89c-.44.61-.91,1.25-1.42,1.92l-.73,1.05c-.25.36-.5.71-.75,1.08s-.53.71-.79,1.07l-.78,1.1c-.52.72-1.06,1.43-1.6,2.1l.59-1.09.72-1.27.45-.78c.16-.28.35-.56.54-.86.38-.59.81-1.24,1.27-1.93.24-.34.47-.7.75-1l.83-1.07.89-1.11c.16-.18.31-.37.47-.56l.51-.54C49.93,132.49,50.66,131.76,51.41,131Z" style="fill:#fffcfa"/><path d="M37.8,137.62a.35.35,0,0,0,0-.1c0-.07-.05-.17-.07-.3a2.89,2.89,0,0,1,0-.49,4.11,4.11,0,0,1,.17-.64c.08-.23.17-.48.29-.75s.2-.55.3-.87l.32-1c.12-.35.23-.72.38-1.09.3-.75.63-1.55,1-2.37s.71-1.66,1.07-2.52l.57-1.3a8.07,8.07,0,0,1,.74-1.25c.27-.4.55-.78.78-1.17a5.24,5.24,0,0,0,.55-1.26s0,.12,0,.34a1.8,1.8,0,0,1-.09.41,2.92,2.92,0,0,1-.18.55,12.6,12.6,0,0,1-.69,1.38c-.14.27-.29.54-.42.84s-.25.64-.38,1c-.27.7-.54,1.46-.89,2.28l-.53,1.26-.58,1.29c-.19.44-.42.88-.6,1.36s-.4.94-.6,1.43a13,13,0,0,1-.72,1.45A2.44,2.44,0,0,0,37.8,137.62Z" style="fill:#fffcfa"/><path d="M44.26,117.8v-.12a1.85,1.85,0,0,0,0-.34,6.5,6.5,0,0,0-.48-1.19c-.23-.5-.5-1.1-.8-1.79s-.64-1.47-1-2.3c-.17-.42-.35-.86-.54-1.3l-.61-1.35c-.41-.92-.82-1.9-1.19-2.91-.19-.5-.36-1-.52-1.53s-.3-1-.43-1.57-.21-1.07-.31-1.59-.12-1-.18-1.57l.41,1.44c.16.45.31,1,.55,1.65.11.32.22.66.36,1l.44,1.13c.16.39.32.8.5,1.22L41,108l.61,1.41c.21.49.45,1,.62,1.51.39,1,.77,2.14,1.15,3.28l.56,1.73a8.75,8.75,0,0,1,.28.91A2.52,2.52,0,0,1,44.26,117.8Z" style="fill:#fffcfa"/><path d="M37.3,118.59a.36.36,0,0,0-.07-.07,2.07,2.07,0,0,1-.18-.23,5.82,5.82,0,0,1-.53-1,5.1,5.1,0,0,1-.21-.75c-.06-.27-.12-.57-.19-.87s-.14-.64-.23-1-.16-.69-.28-1-.23-.7-.39-1.09a12,12,0,0,1-.43-1.19c-.13-.42-.27-.84-.37-1.27s-.21-.87-.29-1.31a27.18,27.18,0,0,1-.38-2.71c-.09-.9-.14-1.8-.16-2.67,0,0,.09.45.26,1.23l.29,1.44c.11.56.24,1.19.4,1.89.08.35.16.71.25,1.08s.2.76.3,1.16.24.81.37,1.23l.44,1.27a11.54,11.54,0,0,1,.37,1.43c.1.49.17,1,.23,1.48s.11,1,.2,1.51A4.78,4.78,0,0,0,37.3,118.59Z" style="fill:#fffcfa"/><path d="M36.39,123.34s-.06.11-.16.32-.12.23-.2.37a5.31,5.31,0,0,0-.23.52c-.07.19-.16.41-.25.64s-.15.5-.24.77c-.17.55-.35,1.18-.53,1.85-.37,1.33-.82,2.85-1.34,4.42-.28.78-.59,1.55-.89,2.31-.13.39-.28.77-.41,1.15s-.21.78-.32,1.17c0,0,0-.43.12-1.15a3.85,3.85,0,0,1,.12-.61l.17-.72c.14-.5.32-1.07.51-1.69s.39-1.31.61-2,.46-1.5.73-2.32.55-1.66.9-2.51c.09-.22.18-.43.28-.65l.33-.64.17-.31.21-.3Z" style="fill:#fffcfa"/><path d="M30.07,124a2.61,2.61,0,0,0-.17.3l-.21.36c-.08.14-.15.32-.23.5s-.18.4-.27.63-.17.48-.27.74-.19.56-.3.85-.19.61-.29.93-.2.66-.29,1-.19.7-.28,1.07c-.18.74-.39,1.51-.62,2.28s-.52,1.55-.8,2.31-.71,1.47-1.07,2.15c0,0,.12-.39.34-1.07.11-.35.25-.77.41-1.24s.29-1.06.45-1.67.34-1.29.53-2,.38-1.5.63-2.31c.13-.4.29-.8.44-1.22s.35-.81.54-1.22a10.27,10.27,0,0,1,.64-1.23A7.16,7.16,0,0,1,30.07,124Z" style="fill:#fffcfa"/><path d="M30.85,120.23s-.51-1.64-1.09-4c-.28-1.18-.6-2.5-.92-3.87s-.6-2.79-.79-4.15c0,0,.47,1.33,1.08,3.5.15.54.31,1.14.47,1.77s.31,1.32.46,2C30.34,117,30.62,118.58,30.85,120.23Z" style="fill:#fffcfa"/><path d="M30.56,119l-.18-1c-.05-.34-.11-.73-.18-1.18,0-.22-.06-.46-.12-.7s-.11-.51-.17-.77c-.12-.53-.24-1.1-.36-1.7-.07-.29-.17-.58-.25-.89s-.17-.61-.25-.92-.16-.62-.24-.93-.2-.61-.3-.93c-.19-.61-.37-1.23-.53-1.84l.38.82c.12.27.26.6.43,1l.26.6a7.19,7.19,0,0,1,.24.7c.16.49.32,1,.5,1.61a8.06,8.06,0,0,1,.23.91c.05.31.12.64.18,1s.11.67.17,1a7.31,7.31,0,0,1,.11,1.07C30.51,117.51,30.54,118.26,30.56,119Z" style="fill:#fffcfa"/><path d="M28.27,228.74c-.34-2.73-.61-5.46-.9-8.19s-.57-5.47-.89-8.2-.78-5.44-1-8.17-.46-5.47-.6-8.21l-.35-8.23c-.14-2.75-.3-5.49-.3-8.23a40.19,40.19,0,0,1,.73-8.13,23.11,23.11,0,0,1,2.95-7.53c.36-.58.73-1.13,1.14-1.69l1.2-1.68,2.39-3.35,4.79-6.7,4.86-6.65,2.42-3.33,1.21-1.66c.4-.56.79-1.11,1.23-1.63,1.71-2.1,3.8-4,5.13-6.5a8,8,0,0,0,.95-4.12c-.08-1.37-.17-2.74-.2-4.11a36.32,36.32,0,0,1,.62-8.13c.13-.66.25-1.36.39-2s.38-1.3.58-2a19.24,19.24,0,0,0,.56-2,4.22,4.22,0,0,0-.07-2.17L55,106l-.19,0a6,6,0,0,0-2.28.8,7.12,7.12,0,0,0-1.8,1.57,13.31,13.31,0,0,0-2.14,4.19,30.13,30.13,0,0,0-1.06,4.56c-.25,1.54-.4,3.09-.57,4.63-.1.77-.22,1.53-.37,2.28a21.1,21.1,0,0,1-.6,2.24c-.12.36-.27.72-.4,1.08s-.32.71-.49,1a16.54,16.54,0,0,1-1.18,2c-.43.64-.9,1.26-1.39,1.86s-1,1.18-1.53,1.76c-1,1.14-2.14,2.24-3.23,3.35,1.11-1.09,2.22-2.18,3.29-3.3.53-.57,1-1.14,1.55-1.74A21.08,21.08,0,0,0,44,130.49a17.76,17.76,0,0,0,1.23-2c.18-.35.34-.7.51-1.06s.29-.72.42-1.09a19.84,19.84,0,0,0,.64-2.25c.17-.76.3-1.53.41-2.3A47,47,0,0,1,49,112.7a13,13,0,0,1,2.11-4,6.76,6.76,0,0,1,1.7-1.46,5.58,5.58,0,0,1,2.1-.72l-.25-.15a3.59,3.59,0,0,1,0,1.9,17.78,17.78,0,0,1-.55,2c-.21.65-.44,1.3-.61,2s-.28,1.35-.42,2a36.33,36.33,0,0,0-.66,8.26c0,1.38.12,2.76.19,4.12a7.39,7.39,0,0,1-.9,3.81c-1.25,2.37-3.32,4.24-5.08,6.37-.45.54-.85,1.11-1.25,1.66l-1.22,1.66-2.43,3.33-4.85,6.66-4.77,6.71-2.38,3.36-1.2,1.68c-.4.55-.79,1.13-1.16,1.72a24.07,24.07,0,0,0-3,7.73,39.48,39.48,0,0,0-.7,8.25c0,2.76.21,5.51.37,8.25l.44,8.23c.16,2.74.36,5.49.69,8.22s.84,5.43,1.15,8.16.66,5.46,1,8.19S27.9,226,28.27,228.74Z" style="fill:#f9b5aa"/><path d="M37.77,137.37l.35-.69c.23-.44.55-1.1.93-2s.82-1.91,1.32-3.11,1.05-2.56,1.71-4,1.59-2.92,2.28-4.66a9.24,9.24,0,0,0,.66-2.81,8,8,0,0,0-.4-3c-.59-1.91-1.32-3.88-2.08-5.84s-1.55-4-2.26-6a49.32,49.32,0,0,1-1.57-6.14,26.48,26.48,0,0,0-.89-3c-.09-.24-.19-.49-.3-.73s-.19-.46-.31-.71a3.81,3.81,0,0,0-.93-1.35,1.09,1.09,0,0,0-.46-.21.85.85,0,0,0-.55.08,1.77,1.77,0,0,0-.62.63,6.31,6.31,0,0,0-.59,1.41,21.08,21.08,0,0,0-.59,2.79,23,23,0,0,0-.25,2.7,22,22,0,0,0,.2,2.51,29.27,29.27,0,0,0,.92,4.3c.36,1.26.71,2.34,1,3.23.57,1.78.89,2.8.89,2.8s-.26-1-.77-2.84c-.25-.9-.56-2-.87-3.25a36.18,36.18,0,0,1-.79-4.28c-.08-.78-.13-1.62-.14-2.46a22.55,22.55,0,0,1,.3-2.63,18.86,18.86,0,0,1,.64-2.7,5.43,5.43,0,0,1,.55-1.28,1.23,1.23,0,0,1,.39-.42c.13-.06.23,0,.39.08a7.11,7.11,0,0,1,1.33,2.54,25.47,25.47,0,0,1,.85,3,48.58,48.58,0,0,0,1.55,6.21c.73,2,1.53,4,2.31,6s1.5,3.87,2.11,5.79a8.2,8.2,0,0,1,.41,2.8,8.84,8.84,0,0,1-.57,2.67c-.64,1.69-1.52,3.2-2.17,4.67s-1.15,2.85-1.6,4.07-.86,2.28-1.21,3.14-.63,1.55-.84,2Z" style="fill:#f9b5aa"/><path d="M33.66,104.92a4.36,4.36,0,0,0,.05-.52,4.58,4.58,0,0,0,0-.53c0-.36-.12-.7-.19-1.05s-.17-.69-.25-1l-.26-1h0a13.74,13.74,0,0,0-.36-2,5.54,5.54,0,0,0-.36-1c-.05-.07-.09-.16-.15-.23a1.3,1.3,0,0,0-.18-.23,1.79,1.79,0,0,0-.26-.2,1.23,1.23,0,0,0-.34-.11h0a1.28,1.28,0,0,0-.84.11,2.33,2.33,0,0,0-.61.5,5.12,5.12,0,0,0-.71,1.26,6.66,6.66,0,0,0-.37,1.38l-.16,1.34-.07.67,0,.69,0,1.38c0,.46.05.91.07,1.36s0,.91.11,1.36c.11.9.19,1.8.35,2.7s.29,1.78.46,2.67.33,1.77.52,2.65.34,1.77.53,2.66c-.16-1.8-.39-3.59-.64-5.38-.12-.89-.23-1.78-.33-2.68-.05-.44-.11-.89-.15-1.33l-.12-1.34c-.05-.45-.05-.89-.08-1.34s-.05-.89-.06-1.34l0-1.32v-.66l.07-.67.14-1.35a6.57,6.57,0,0,1,.32-1.23,4.12,4.12,0,0,1,.58-1.1,1.56,1.56,0,0,1,.41-.37.9.9,0,0,1,.48-.09h0s.09,0,.13,0a.31.31,0,0,1,.14.09c.05,0,.09.11.14.15l.12.19a4.74,4.74,0,0,1,.37.86,13.44,13.44,0,0,1,.44,1.9h0c.19.69.45,1.34.66,2,.1.34.2.67.27,1,0,.18,0,.34.08.52A4.51,4.51,0,0,1,33.66,104.92Z" style="fill:#f9b5aa"/><path d="M29.76,112.62s-.11-.3-.28-.86-.41-1.39-.69-2.45a31.93,31.93,0,0,0-1.18-3.8,9.67,9.67,0,0,0-1.18-2.17,3.63,3.63,0,0,0-1-1,1,1,0,0,0-.8-.12,1.16,1.16,0,0,0-.59.56,4.3,4.3,0,0,0-.43,1.43,12.66,12.66,0,0,0-.15,1.51,17.19,17.19,0,0,0,.15,3.18,57,57,0,0,1,1.14,6.66,19.13,19.13,0,0,1-.61,7.07,25.42,25.42,0,0,1-1.3,3.43c-.28.55-.53,1.13-.85,1.65l-.92,1.64c-.61,1.09-1.22,2.19-1.85,3.26s-1.25,2.15-1.89,3.2C16.06,138,14.8,140,13.55,142l-.92,1.49c-.29.51-.6,1-.85,1.5s-.54,1-.76,1.51-.47,1-.67,1.51a39,39,0,0,0-1.89,5.8,48.71,48.71,0,0,0-.92,5.06c-.19,1.52-.31,2.85-.38,3.94s-.11,2-.13,2.55,0,.9,0,.9l.06-.9c0-.59.11-1.44.22-2.54a57.11,57.11,0,0,1,1.54-8.92,39,39,0,0,1,2-5.7c.21-.49.45-1,.69-1.47s.51-1,.77-1.47.58-1,.87-1.48l.92-1.47c1.27-2,2.54-4.05,3.83-6.16.65-1,1.27-2.13,1.92-3.2s1.26-2.16,1.88-3.26l.91-1.64c.32-.55.57-1.13.86-1.69a25.08,25.08,0,0,0,1.31-3.54,19.72,19.72,0,0,0,.59-7.29,50.32,50.32,0,0,0-1.25-6.69,16.94,16.94,0,0,1-.19-3.08,11.52,11.52,0,0,1,.11-1.46,4.22,4.22,0,0,1,.37-1.32.78.78,0,0,1,.38-.4.64.64,0,0,1,.51.08,3.53,3.53,0,0,1,.91.86,9.32,9.32,0,0,1,1.2,2.07,31.7,31.7,0,0,1,1.29,3.73A34.27,34.27,0,0,0,29.76,112.62Z" style="fill:#f9b5aa"/><path d="M36.25,114s.29.79.76,2.14c.11.35.24.73.37,1.13l.21.64.18.69a10,10,0,0,1,.29,1.57,5.56,5.56,0,0,1-.15,1.8c-.08.3-.18.62-.29.91s-.22.57-.34.86l-.71,1.78c-.51,1.21-1,2.47-1.54,3.74-.28.64-.53,1.28-.8,1.93s-.53,1.28-.81,1.92L32.63,135c-.27.63-.54,1.26-.82,1.87,0,0,.16-.67.47-1.88.08-.31.17-.64.26-1s.2-.76.34-1.18c.27-.84.58-1.8.94-2.84.17-.53.38-1.07.59-1.63l.68-1.75c.46-1.2,1-2.45,1.59-3.77.07-.17.15-.34.21-.49l.18-.48a5.76,5.76,0,0,0,.22-1,7.73,7.73,0,0,0-.11-2.18c-.11-.77-.3-1.52-.45-2.31S36.42,114.76,36.25,114Z" style="fill:#f9b5aa"/><path d="M30.71,118.18l.18.48a4.14,4.14,0,0,1,.17.58,4.84,4.84,0,0,1,.17.8c0,.15,0,.31.05.48a4.64,4.64,0,0,1,0,.53,3.82,3.82,0,0,1,0,.58c0,.19,0,.4-.08.6-.07.42-.18.85-.3,1.3s-.28.9-.45,1.37c-.66,1.87-1.45,4-2.33,6.16s-1.88,4.34-2.93,6.36c0,0,.65-2.25,1.9-5.76.64-1.75,1.39-3.81,2.3-6,.24-.56.47-1.13.72-1.71s.44-1.18.6-1.8a7.11,7.11,0,0,0,.27-1.91,8.51,8.51,0,0,0-.06-1C30.86,118.86,30.77,118.53,30.71,118.18Z" style="fill:#f9b5aa"/><path d="M54.82,106.61l-.15.13c-.1.08-.24.2-.41.36l-.27.27c-.09.1-.2.2-.3.33s-.21.24-.31.38a5,5,0,0,0-.32.44,8.07,8.07,0,0,0-.6,1l-.24.59c-.06.21-.14.42-.18.63s-.08.43-.12.65,0,.45,0,.67,0,.22,0,.33,0,.22,0,.34.1.43.15.64a1.15,1.15,0,0,1-.07-.15,2.72,2.72,0,0,1-.17-.44c0-.1-.06-.21-.1-.33s0-.26-.07-.4,0-.31,0-.47a3.2,3.2,0,0,1,0-.53c0-.19.06-.37.09-.57s.12-.4.19-.6a4.06,4.06,0,0,1,.27-.61,4.16,4.16,0,0,1,.35-.61A6.77,6.77,0,0,1,54.82,106.61Z" style="fill:#f9b5aa"/><path d="M35.7,93.36l-.13.69a3.37,3.37,0,0,0-.06.36c0,.14,0,.28,0,.43s0,.3-.05.47,0,.34,0,.52a2.63,2.63,0,0,0,0,.56l0,.59c0,.19.06.39.1.6s0,.2,0,.31l.09.3c.06.2.1.41.17.62s.15.39.23.6a5.15,5.15,0,0,0,.27.59l.26.57-.34-.5a3.16,3.16,0,0,1-.18-.27c-.07-.1-.12-.22-.19-.34l-.19-.4a2.76,2.76,0,0,1-.19-.46c-.06-.17-.11-.34-.17-.52a3.51,3.51,0,0,1-.13-.58,4.17,4.17,0,0,1-.08-.63c0-.21,0-.44,0-.67s0-.46,0-.69a4.21,4.21,0,0,1,.12-.71,4.46,4.46,0,0,1,.18-.72Q35.57,93.73,35.7,93.36Z" style="fill:#f9b5aa"/><path d="M31.31,97.33l-.08.14a3.52,3.52,0,0,0-.22.41,4.33,4.33,0,0,0-.26.66,7.14,7.14,0,0,0-.22.86c0,.16-.05.33-.07.5s0,.34,0,.52a8.28,8.28,0,0,0,0,1.11,7.53,7.53,0,0,0,.19,1.14,4.84,4.84,0,0,0,.17.54c.06.19.15.35.22.53l-.08-.12a2.09,2.09,0,0,1-.21-.34,4.19,4.19,0,0,1-.27-.59,6,6,0,0,1-.22-.82,7.51,7.51,0,0,1-.1-1,6,6,0,0,1,.09-1.17c0-.2.08-.4.13-.61s.13-.41.22-.61a6.63,6.63,0,0,1,.31-.59A3.74,3.74,0,0,1,31.31,97.33Z" style="fill:#f9b5aa"/><path d="M25.13,102.62l-.09.13a.83.83,0,0,0-.11.17c0,.07-.06.15-.1.23s0,.2-.08.31,0,.23-.05.36a8.21,8.21,0,0,0,0,.87c0,.31.06.65.11,1s.13.71.22,1.08a10.36,10.36,0,0,0,.71,2.12.63.63,0,0,0-.08-.11,2.38,2.38,0,0,1-.21-.34,6.41,6.41,0,0,1-.57-1.32,8.47,8.47,0,0,1-.39-2.08,4.12,4.12,0,0,1,0-.61c0-.21,0-.42.07-.63s.05-.21.08-.32.07-.21.11-.31.12-.2.17-.29S25.06,102.7,25.13,102.62Z" style="fill:#f9b5aa"/><path d="M22.75,86.92l.88-.14,1-.17c.41-.07.88-.11,1.4-.18l.81-.11.9-.09,2-.19c1.42-.14,3-.27,4.76-.49.87-.12,1.77-.27,2.69-.43L40,84.5l2.83-.66c1-.23,1.94-.45,2.92-.7s2-.51,3-.79,2-.58,3-.93,2-.69,2.89-1.09A30.11,30.11,0,0,0,57.32,79l-.74.11c-.48.07-1.18.22-2.09.33l-1.5.23-1.78.26c-1.28.18-2.72.39-4.32.65s-3.35.56-5.21,1c-.93.19-1.9.43-2.89.68s-1.92.54-2.94.76-2.05.49-3.11.74-2.17.5-3.29.79c-.55.14-1.11.3-1.68.47s-1.13.33-1.69.55-1.12.39-1.68.63Z" style="fill:#f46767"/><path d="M59.25,80s-.1,1-.2,2.67c0,.42,0,.88-.09,1.38s-.11,1-.16,1.6-.1,1.17-.16,1.8-.14,1.29-.21,2-.14,1.39-.21,2.12S58.07,93,58,93.75s-.12,1.55-.16,2.35-.09,1.6-.09,2.43,0,1.64,0,2.47.13,1.67.21,2.49l.15,1.23.24,1.22c.18.8.37,1.59.58,2.35,0,0,.07-.83.12-2.28,0-.37,0-.77,0-1.21s.08-.92.12-1.43.07-1.06.11-1.64.11-1.19.16-1.83c.1-1.28.22-2.68.35-4.18s.22-3.11.28-4.81c0-.85,0-1.72,0-2.61s-.06-1.8-.12-2.72a27,27,0,0,0-.3-2.79C59.59,81.85,59.43,80.9,59.25,80Z" style="fill:#f46767"/><path d="M22.32,87.29l-.15.13-.19.17-.21.28a4.71,4.71,0,0,0-.44.85A7.56,7.56,0,0,0,21,90a19.31,19.31,0,0,0-.31,3.42c0,.64,0,1.33,0,2s0,1.47-.06,2.25c0,1.56-.06,3.23-.06,5s0,3.52.12,5.38c0,.93.08,1.87.18,2.79s.19,1.85.31,2.77.25,1.83.38,2.73.26,1.8.4,2.69c0,0,.07-.93.13-2.59,0-.83,0-1.83,0-3,0-.59,0-1.21,0-1.87s0-1.35,0-2.08c0-1.45,0-3,0-4.74s0-3.53-.09-5.44c0-1-.08-1.93-.12-2.93,0-.5,0-1-.09-1.52l-.15-1.52a24.18,24.18,0,0,1-.13-3.08,8.1,8.1,0,0,1,.19-1.54A3,3,0,0,1,22.32,87.29Z" style="fill:#f46767"/></g></g></g></svg>
