<svg xmlns="http://www.w3.org/2000/svg" xmlns:xlink="http://www.w3.org/1999/xlink" viewBox="0 0 142.4 143.57"><defs><clipPath id="clip-path"><circle cx="-101.36" cy="71.93" r="65.8" style="fill:none"/></clipPath><clipPath id="clip-path-2"><circle cx="70.88" cy="71.93" r="65.8" transform="translate(-4.85 5.13) rotate(-4.01)" style="fill:none"/></clipPath><linearGradient id="linear-gradient" x1="105.04" y1="65.75" x2="105.04" y2="106.4" gradientUnits="userSpaceOnUse"><stop offset="0.33" stop-color="#f9b5aa"/><stop offset="0.76" stop-color="#ffe3e3"/><stop offset="1" stop-color="#fff1e3"/></linearGradient><linearGradient id="_R_W_h_22" x1="91.57" y1="-90.88" x2="108.85" y2="24.77" gradientTransform="translate(-1.97 9.58) rotate(0.34)" gradientUnits="userSpaceOnUse"><stop offset="0"/><stop offset="0.5" stop-color="#e9a768"/><stop offset="0.95"/></linearGradient><linearGradient id="_R_W_h_81" x1="91.57" y1="-90.88" x2="108.85" y2="24.77" gradientTransform="translate(-1.97 9.58) rotate(0.34)" gradientUnits="userSpaceOnUse"><stop offset="0"/><stop offset="0.18" stop-color="#020101"/><stop offset="0.24" stop-color="#090604"/><stop offset="0.29" stop-color="#140f09"/><stop offset="0.33" stop-color="#251b11"/><stop offset="0.36" stop-color="#3b2b1b"/><stop offset="0.39" stop-color="#573e27"/><stop offset="0.41" stop-color="#775535"/><stop offset="0.43" stop-color="#9b7045"/><stop offset="0.45" stop-color="#bc8754"/><stop offset="0.5" stop-color="#e9a768"/><stop offset="0.55" stop-color="#9f7247"/><stop offset="0.55" stop-color="#9b6f45"/><stop offset="0.57" stop-color="#765535"/><stop offset="0.6" stop-color="#573e27"/><stop offset="0.62" stop-color="#3b2b1b"/><stop offset="0.65" stop-color="#251b11"/><stop offset="0.69" stop-color="#140f09"/><stop offset="0.73" stop-color="#090604"/><stop offset="0.79" stop-color="#020101"/><stop offset="0.95"/></linearGradient><radialGradient id="radial-gradient" cx="76.6" cy="22.64" r="10.43" gradientTransform="translate(-1.97 9.58) rotate(0.34)" gradientUnits="userSpaceOnUse"><stop offset="0" stop-color="#ff8191"/><stop offset="1" stop-color="#fff1e3"/></radialGradient><radialGradient id="radial-gradient-2" cx="-2913.61" cy="23.29" r="10.43" gradientTransform="matrix(-1, -0.01, -0.01, 1, -2787.49, -7.79)" xlink:href="#radial-gradient"/><radialGradient id="_R_W_h_34" cx="76.33" cy="39.51" r="12.23" gradientTransform="translate(-1.97 9.58) rotate(0.34)" gradientUnits="userSpaceOnUse"><stop offset="0" stop-color="#ffa7b7"/><stop offset="1" stop-color="#fff1e3"/></radialGradient><radialGradient id="_R_W_h_34-2" cx="128.83" cy="39.42" r="12.47" xlink:href="#_R_W_h_34"/><linearGradient id="_R_W_h_2" x1="-649.79" y1="21.51" x2="-649.79" y2="34.64" gradientTransform="translate(722.96 13.9) rotate(0.34)" gradientUnits="userSpaceOnUse"><stop offset="0.47" stop-color="#54312f"/><stop offset="0.85" stop-color="#913b37"/><stop offset="1" stop-color="#ff9b7f"/></linearGradient><linearGradient id="_R_W_h_2-2" x1="-3434.66" y1="22.12" x2="-3434.66" y2="35.24" gradientTransform="matrix(-1, -0.01, -0.01, 1, -3307.71, -10.89)" xlink:href="#_R_W_h_2"/><radialGradient id="radial-gradient-3" cx="105.23" cy="77.89" r="12.05" gradientTransform="translate(-3.74 -0.72) rotate(-0.28)" xlink:href="#radial-gradient"/></defs><title>level</title><g style="isolation:isolate"><g id="Layer_1" data-name="Layer 1"><g style="clip-path:url(#clip-path)"><g id="_Group_" data-name="&lt;Group&gt;"><path d="M17.1,221.84l-.21.09c-14-10-37.18-9.42-49.9-6.57-11.13,2.84-21.06,8.53-32.59,9.48-12.32,1.42-20.64-3.43-32.19-6.64-17.09-4.73-42-2.37-57.09,9l-.38-.17c-4.63,15.1-10,34.72-6,50.88.12.47.24.93.37,1.38a.19.19,0,0,1,0,.08,74.84,74.84,0,0,1,2.15,15h-14.1c1.81-23.19-3-33.06-4.82-50.12-1.79-19.9-7.75-39.1.59-58.3,7.75-15.64,17.26-22.62,32.2-23.46,42.49-2.37,50.47-24.7,49.05-66,.75-1.6,3.48,3.23,5.12,2.34,5.06-2.66,10.43-3.37,15.8-4.44,5.21-1.07,10-2.31,15.2-1.07,3,.72,6.11,1.07,8.94,1.6,1.34.18,2.68.18,4,.36.43,0,3-3.08,3.4-3.42-4.55,41.59,5.44,69.76,47.21,70.6,14.94.3,24.44,7.82,32.19,23.46,8.34,19.2,2.38,38.4.59,58.3-1.78,17.06-5.42,32.13-4.83,49.9v.22h-9a64,64,0,0,1,1.36-14.26c5.33-17.24-1.06-39-6-55C17.83,224,17.48,222.93,17.1,221.84Z" style="fill:#fff1e3"/></g><path d="M-43.28,91s-.08,1-.24,2.81-.34,4.54-.46,8-.16,7.63.12,12.41a86.08,86.08,0,0,0,2.28,15.88,54,54,0,0,0,2.93,8.67,39.4,39.4,0,0,0,5,8.38,33.18,33.18,0,0,0,7.52,7,39.18,39.18,0,0,0,9.66,4.64A61.8,61.8,0,0,0-5.61,161.2c1.88.26,3.77.46,5.68.62s3.83.27,5.77.47a37.63,37.63,0,0,1,11.44,2.9A31.47,31.47,0,0,1,27.05,172a47.35,47.35,0,0,1,7.1,9.53c.49.85,1,1.72,1.43,2.59.23.43.45.87.67,1.31l.17.33,0,.08,0,.12.07.16.27.68c.39.89.71,1.84,1,2.76s.61,1.86.86,2.81a55.48,55.48,0,0,1,1.9,11.43c.12,1.9.16,3.8.14,5.69s-.11,3.75-.24,5.59c-.53,7.4-1.75,14.44-2.64,21.14-.23,1.68-.44,3.33-.62,5s-.33,3.24-.53,4.82c-.36,3.17-.78,6.22-1.21,9.14-.84,5.85-1.69,11.19-2.31,15.95s-1,8.91-1.22,12.35c-.07.86-.1,1.67-.13,2.43s-.07,1.49-.08,2.16c0,1.33-.05,2.47,0,3.39l0,2.83s0-1-.07-2.83c0-.92,0-2.06,0-3.39,0-.67,0-1.39.05-2.16s0-1.58.09-2.44c.15-3.44.48-7.62,1-12.39s1.31-10.13,2.12-16c.4-2.93.79-6,1.13-9.14.18-1.58.3-3.18.48-4.82s.37-3.3.58-5c.85-6.72,2-13.77,2.5-21.1.12-1.84.2-3.69.23-5.55s0-3.74-.16-5.63a54.93,54.93,0,0,0-1.9-11.24c-.25-.93-.56-1.84-.85-2.75s-.65-1.81-1-2.71l-.28-.67-.07-.17s0-.09,0-.06l0-.08-.17-.32c-.22-.43-.43-.87-.66-1.3-.46-.86-.93-1.71-1.42-2.55a46.05,46.05,0,0,0-7-9.31,30.69,30.69,0,0,0-9.47-6.61,36.52,36.52,0,0,0-11.14-2.86c-1.91-.2-3.84-.3-5.76-.48s-3.83-.38-5.72-.65a62,62,0,0,1-11-2.48,38.62,38.62,0,0,1-9.85-4.79,33.51,33.51,0,0,1-7.62-7.19,40.32,40.32,0,0,1-5-8.56,53.64,53.64,0,0,1-2.88-8.79,83.21,83.21,0,0,1-2.11-16c-.2-4.8-.09-9,.07-12.43s.42-6.14.58-8S-43.28,91-43.28,91Z" style="fill:#f9b5aa"/></g><circle cx="70.88" cy="71.93" r="70.88" transform="translate(-11.58 130.23) rotate(-80.68)" style="fill:#fff"/><circle cx="70.88" cy="71.93" r="65.8" transform="translate(-4.85 5.13) rotate(-4.01)" style="fill:#fff"/><g style="clip-path:url(#clip-path-2)"><g id="_Group_2" data-name="&lt;Group&gt;"><path d="M186.9,188l-.19.09c-13.22-9.42-35-8.87-47-6.19-10.47,2.68-19.83,8-30.68,8.93-11.6,1.34-19.44-3.23-30.31-6.25-16.09-4.46-39.52-2.23-53.75,8.48l-.36-.16c-4.36,14.22-9.44,32.69-5.67,47.91.11.43.22.87.34,1.3a.12.12,0,0,1,0,.07,70.5,70.5,0,0,1,2,14.14H8.06c1.7-21.84-2.86-31.13-4.54-47.2-1.68-18.74-7.3-36.81.56-54.88,7.3-14.73,16.25-21.31,30.31-22.09,40-2.23,47.52-23.26,46.19-62.12.7-1.51,3.27,3,4.81,2.21,4.77-2.51,9.83-3.18,14.88-4.18s9.4-2.18,14.31-1c2.81.67,5.75,1,8.42,1.51,1.26.17,2.53.17,3.79.34.4,0,2.86-2.91,3.2-3.23-4.29,39.17,5.12,65.69,44.44,66.48,14.08.28,23,7.36,30.31,22.09,7.86,18.07,2.25,36.14.56,54.88-1.68,16.07-5.11,30.25-4.55,47v.21h-8.44a60.21,60.21,0,0,1,1.27-13.43c5-16.24-1-36.76-5.67-51.84C187.59,190.08,187.26,189.06,186.9,188Z" style="fill:#fff1e3"/></g><path d="M122,112.59s-1.37,19.86-12.79,34c0,0-.37,1.38,5.71-1.6,0,0,5.3-3.94,20.84-1.45,0,0,13.61,1.63,20.83.11,0,0-24.39-6.77-37.74-3.76C118.84,139.92,125.15,122.45,122,112.59Z" style="fill:#ffe2dc"/><path d="M85,117.11s5.69,21.47,12.56,26.83c0,0,.28,5-3.15,2.68,0,0-6.42-5.81-23.1-3.12,0,0-12.62,3.37-18.65.44A63.62,63.62,0,0,0,68,140.26c7.15-2.93,16.46-.9,21.81.17C89.81,140.43,84.38,124.56,85,117.11Z" style="fill:#ffe2dc"/><path d="M80,67.82s.12,22.43,0,25.22c0,0,19.22,28.33,50,2.48A160.76,160.76,0,0,1,130,65.75L81.75,69.57Z" style="fill:url(#linear-gradient)"/><path d="M34.39,132.23S-2,144,1.78,195.17c0,0-6-30.24,4.64-45.17S23.23,133.4,34.39,132.23Z" style="fill:#fffcfa"/><path d="M80,67.82s.08.91.24,2.62.33,4.23.46,7.43a107.43,107.43,0,0,1-.15,11.58,62,62,0,0,1-2.67,14.78,41.79,41.79,0,0,1-3.44,7.9,35.26,35.26,0,0,1-5.6,7.35,41.33,41.33,0,0,1-17.12,9.93,69.15,69.15,0,0,1-10.25,2.38c-1.75.28-3.52.5-5.31.69s-3.57.31-5.33.6a33.8,33.8,0,0,0-10.22,3.21,29.75,29.75,0,0,0-4.55,2.91,32,32,0,0,0-4,3.69,45.81,45.81,0,0,0-6.24,8.88c-.44.8-.86,1.6-1.27,2.41l-.15.3-.12.28-.26.63c-.18.42-.36.84-.5,1.27A43.43,43.43,0,0,0,2,161.78,64.47,64.47,0,0,0,.71,182.7c.56,6.83,1.61,13.4,2.38,19.66.19,1.56.37,3.11.52,4.64.08.76.15,1.51.22,2.26s.17,1.49.25,2.23c.37,2.93.81,5.75,1.3,8.46s1,5.29,1.4,7.76.78,4.83,1,7a99.82,99.82,0,0,1,.69,11.56c0,.8,0,1.56,0,2.27s-.05,1.39-.07,2-.05,1.2-.07,1.73-.06,1-.09,1.43c-.12,1.72-.19,2.63-.19,2.63s0-.91.15-2.63c0-.43,0-.91.07-1.44s0-1.1,0-1.72,0-1.29,0-2,0-1.47,0-2.27a98.54,98.54,0,0,0-.85-11.52c-.57-4.42-1.6-9.35-2.62-14.76-.51-2.7-1-5.54-1.37-8.49l-.27-2.22L3,207.06c-.16-1.52-.35-3.06-.56-4.62C1.62,196.2.48,189.65-.08,182.77a65.08,65.08,0,0,1,1.25-21.19,46.65,46.65,0,0,1,1.63-5.24c.15-.44.33-.86.5-1.28l.26-.63.06-.16,0-.08,0-.1.16-.31c.41-.82.84-1.63,1.27-2.44a47.21,47.21,0,0,1,6.34-9.07,32.46,32.46,0,0,1,4.08-3.78,29.58,29.58,0,0,1,4.7-3,34.39,34.39,0,0,1,10.49-3.27c1.8-.29,3.61-.43,5.38-.59s3.53-.4,5.27-.67a69.72,69.72,0,0,0,10.13-2.32,48.69,48.69,0,0,0,9.23-3.92A36.45,36.45,0,0,0,68.42,119,34.82,34.82,0,0,0,74,111.84a41.12,41.12,0,0,0,3.46-7.76,64.69,64.69,0,0,0,2.83-14.65,109.16,109.16,0,0,0,.32-11.55c-.08-3.21-.23-5.72-.35-7.44Z" style="fill:#f9b5aa"/><path d="M130.05,64.88s-.08.92-.22,2.66-.33,4.27-.43,7.51-.16,7.18.1,11.68a81.35,81.35,0,0,0,2.16,15,50.57,50.57,0,0,0,2.75,8.16,37.15,37.15,0,0,0,4.69,7.89,31.31,31.31,0,0,0,7.08,6.57,36.75,36.75,0,0,0,9.1,4.36,58.32,58.32,0,0,0,10.24,2.28c1.76.25,3.55.43,5.34.59s3.61.25,5.44.43a35.64,35.64,0,0,1,10.77,2.73,30,30,0,0,1,9.2,6.39,44.86,44.86,0,0,1,6.69,9c.46.81.91,1.62,1.34,2.44.22.41.42.82.63,1.24l.16.31,0,.07,0,.11.07.16.26.64c.36.84.67,1.72,1,2.59s.58,1.76.82,2.65A52.45,52.45,0,0,1,209.08,171c.12,1.79.16,3.58.14,5.36s-.11,3.53-.23,5.27c-.5,7-1.65,13.59-2.49,19.9-.21,1.57-.41,3.13-.58,4.66s-.31,3.06-.5,4.54c-.34,3-.74,5.86-1.13,8.61-.8,5.5-1.6,10.53-2.18,15s-1,8.39-1.15,11.63c-.06.81-.1,1.57-.12,2.3s-.07,1.39-.08,2c0,1.26,0,2.33,0,3.2,0,1.74,0,2.66,0,2.66s0-.92-.08-2.66c0-.87,0-1.94,0-3.2,0-.63,0-1.31.05-2s0-1.49.09-2.3c.14-3.24.45-7.17,1-11.66s1.23-9.54,2-15c.37-2.76.75-5.62,1.06-8.6.18-1.49.29-3,.46-4.55s.35-3.1.55-4.68c.79-6.32,1.85-13,2.35-19.87a61.3,61.3,0,0,0-1.72-21.1c-.24-.88-.53-1.74-.81-2.6s-.6-1.69-1-2.54l-.27-.64-.06-.16s0-.08,0-.05l0-.08-.16-.3c-.21-.41-.41-.82-.63-1.22-.42-.81-.87-1.61-1.33-2.4a43.4,43.4,0,0,0-6.57-8.77,29,29,0,0,0-8.91-6.23,35.09,35.09,0,0,0-10.5-2.69c-1.8-.19-3.61-.27-5.42-.45s-3.6-.35-5.38-.61A59.45,59.45,0,0,1,155,129.42a36.9,36.9,0,0,1-9.27-4.51,31.55,31.55,0,0,1-7.18-6.77,37.53,37.53,0,0,1-4.7-8.06,51.3,51.3,0,0,1-2.72-8.28,78.3,78.3,0,0,1-2-15.06c-.2-4.52-.09-8.46.07-11.7s.38-5.78.54-7.51Z" style="fill:#f9b5aa"/><path d="M122.55,90.73s-.12,1.87-.25,5c-.07,1.58-.16,3.5-.25,5.67,0,1.08-.12,2.23-.19,3.43s-.18,2.45-.27,3.75-.24,2.63-.39,4-.32,2.78-.57,4.21c-.12.71-.22,1.43-.35,2.15s-.28,1.45-.43,2.18-.31,1.47-.48,2.2-.34,1.47-.53,2.21l-.63,2.2c-.1.37-.19.74-.31,1.11l-.37,1.09-.73,2.19-.83,2.15-.42,1.08c-.13.36-.31.7-.46,1q-.47,1.06-.93,2.1l-.22.53-.26.5-.52,1c-.33.68-.67,1.35-1,2l.64-.92c.2-.31.46-.68.76-1.12s.66-1,1-1.56l1.16-2c.2-.37.43-.75.64-1.15l.62-1.29c.42-.9.92-1.83,1.31-2.88l.64-1.6.33-.84c.1-.29.19-.58.29-.87.37-1.18.83-2.4,1.14-3.72.17-.65.35-1.32.52-2s.29-1.39.44-2.1c.32-1.41.52-2.9.75-4.42.12-.76.18-1.53.26-2.32s.18-1.57.22-2.38.09-1.62.14-2.44,0-1.66.07-2.5,0-1.68,0-2.54,0-1.71,0-2.58C123,97.92,122.78,94.36,122.55,90.73Z" style="fill:#f9b5aa"/><path d="M82.51,97.08s-.06,1.75.06,4.73a101.42,101.42,0,0,0,1.17,12c.19,1.21.41,2.47.67,3.76s.55,2.6.89,3.93.71,2.69,1.14,4,.91,2.72,1.43,4.07,1.13,2.7,1.8,4l.5,1,.55,1c.35.65.76,1.26,1.15,1.89s.83,1.21,1.26,1.79.89,1.16,1.39,1.68a22.49,22.49,0,0,0,3.11,2.92l-.7-.77-.39-.43-.43-.53-.5-.63c-.18-.22-.35-.47-.54-.73s-.39-.53-.58-.83l-.61-.94c-.22-.32-.41-.68-.62-1s-.45-.74-.65-1.14-.42-.82-.65-1.25l-.64-1.34c-.42-.94-.86-1.92-1.27-3-.84-2.11-1.64-4.46-2.38-7-.38-1.28-.73-2.6-1.08-4s-.68-2.78-1-4.24c-.64-2.9-1.21-6-1.74-9.15S82.87,100.47,82.51,97.08Z" style="fill:#f9b5aa"/><path d="M39.45,141.22l1.33.42c.87.25,2.12.67,3.73,1.1l2.64.73c1,.26,2,.49,3.12.76s2.3.49,3.55.72c.63.11,1.27.24,1.93.34l2.06.15a18.66,18.66,0,0,0,2.12,0H61c.37,0,.73,0,1.1-.06.73-.06,1.48-.09,2.23-.17l2.27-.24,4.61-.61c.78-.11,1.56-.2,2.34-.29l1.18-.14,1.17-.1,1.18-.11c.39,0,.79,0,1.19,0l2.41,0a47.91,47.91,0,0,1,4.8.17,24.3,24.3,0,0,1,4.65.87,20.41,20.41,0,0,1,4.32,1.86l-.94-.7c-.33-.2-.72-.48-1.21-.76l-.8-.44-.94-.44c-.34-.15-.7-.29-1.08-.44s-.79-.28-1.22-.4a22.51,22.51,0,0,0-2.84-.65c-1-.17-2.13-.31-3.3-.39s-2.4-.14-3.68-.17l-1,0c-.33,0-.67,0-1,0l-2.09.12c-1.4.13-2.86.28-4.34.48s-3,.41-4.59.59-3.17.35-4.81.46c-.81,0-1.65.08-2.48.08s-1.67,0-2.52-.09L53,143.53l-1.31-.17-1.33-.21-2.68-.42L45,142.24C43.17,141.93,41.32,141.55,39.45,141.22Z" style="fill:#f9b5aa"/><path d="M167.14,141.3l-1.37.25c-.89.16-2.18.43-3.82.71l-2.69.48c-1,.17-2,.32-3.15.5s-2.3.33-3.53.47c-.62.07-1.26.17-1.9.23l-2,0c-.66,0-1.35,0-2,0l-1.05,0c-.35,0-.7-.07-1.06-.1-.71-.07-1.44-.12-2.17-.22l-2.23-.28-4.61-.62c-.78-.11-1.58-.18-2.38-.27l-1.2-.12-1.23-.07-1.23-.07c-.41,0-.82,0-1.24,0l-2.44.08a38.58,38.58,0,0,0-4.91.53,21.59,21.59,0,0,0-4.72,1.4,17.21,17.21,0,0,0-4.06,2.49l1-.57c.34-.16.76-.38,1.27-.6l.82-.34.95-.33,1.08-.32c.39-.09.79-.2,1.21-.28a23.31,23.31,0,0,1,2.77-.4c1-.09,2.07-.15,3.22-.16s2.35,0,3.63,0l.95,0c.32,0,.65.05,1,.08l2,.18c1.38.17,2.8.34,4.28.56s3,.43,4.6.61,3.25.33,4.94.39c.86,0,1.72,0,2.59,0s1.77-.1,2.65-.2l2.63-.48,1.33-.24,1.33-.31,2.66-.63,2.68-.74C163.53,142.44,165.32,141.86,167.14,141.3Z" style="fill:#f9b5aa"/><path d="M80,71.78l.06-.08a.73.73,0,0,1,.22-.19.77.77,0,0,1,.45-.1,2.19,2.19,0,0,1,.62.14,16.92,16.92,0,0,1,1.64.77,7.22,7.22,0,0,0,1.1.43,3.1,3.1,0,0,0,.71.12,1.8,1.8,0,0,0,.83-.16L87.38,72l2-.63c.73-.17,1.46-.39,2.26-.54l1.21-.25,1.26-.22c.85-.16,1.75-.28,2.66-.43l2.85-.44c1-.15,2-.35,3-.53l1.51-.28,1.51-.25c1-.16,2-.31,3-.37A13.06,13.06,0,0,1,110.2,68l.77,0,.76,0,.76,0c.26,0,.51.07.76.11l1.57.24c1.13.18,2.25.35,3.38.51s2.22.26,3.34.37c.56,0,1.09.13,1.68.13l1.72,0h1.75a1.32,1.32,0,0,0,.28,0,1,1,0,0,0,.24-.14,3.54,3.54,0,0,0,.42-.35c.21-.22.38-.43.56-.65.35-.43.68-.88,1-1.32l.46-.68.22-.35.1-.17,0-.08s0,0,0,0,0,0,0,0,0,0,0,0l0,0,0,0h0s0,0,0-.06H130l0,0-.07.07c-.11.11-.28.28-.51.49-.46.43-1.14,1.07-2,1.79l-.32.24a1.43,1.43,0,0,1-.28.13,1,1,0,0,1-.3,0l-.52-.09-2.3-.38c-.4,0-.83-.15-1.27-.25L121,67.36c-.94-.22-1.94-.42-3-.67l-3.19-.75L113,65.55c-.63-.08-1.29-.14-2-.21s-1.34,0-2,0-1.38.08-2.06.17c-1.38.17-2.77.42-4.16.72l-4.21.92c-1.44.31-2.92.63-4.43,1-.75.21-1.51.39-2.27.64l-1.15.37c-.38.13-.76.28-1.14.43a27.24,27.24,0,0,0-4.44,2.18l-.18.1-.22,0a2,2,0,0,1-.59,0,9.12,9.12,0,0,1-1.33-.32,12.12,12.12,0,0,0-1.44-.36,2,2,0,0,0-.8,0,.89.89,0,0,0-.36.19A1.06,1.06,0,0,0,80,71.78Z" style="fill:#f9b5aa"/><g id="_Group_3" data-name="&lt;Group&gt;"><path d="M126.18,20.41l-.13.23c-13.31-.67-28.66-10-35.64-22.7h0c2,8.11,8.32,17.51,16.14,21.21v.05C85.92,15.17,73.74-1.88,70.21-22c-.08-.43-.15-.88-.22-1.35C51.17-2.83,46.89,32.19,63.69,56a53.45,53.45,0,0,1-8.77-9.55,55.83,55.83,0,0,1-6.5-12l-.4,0a10.28,10.28,0,0,0-3.69.68l0-.12c-5.14-15.57-8.35-42.14,2-64,2.89-6.13,9.25-16.28,16.83-20.72l.09-.07c6.82-5.67,16.49-8,26.06-9.78a59.31,59.31,0,0,1,23.28.36,77.13,77.13,0,0,1,10.14,2.89c9.62,3.32,17.26,7.82,23.75,14.52,1.12,1.16,2.22,2.39,3.28,3.68h0c1.38,1.7,2.71,3.51,4,5.46l.43.65c1,1.49,1.9,3.05,2.82,4.7a1,1,0,0,1,.08.14c10.59,19.6,10.82,44.43-.21,63.54l-.05.08a9.64,9.64,0,0,0-4.92-1.39,58.54,58.54,0,0,1-4.6,9h0A57.71,57.71,0,0,1,142.12,51c2.13-7,6.49-14.65-2.5-26.15h0A41.21,41.21,0,0,1,126.18,20.41Z" style="fill:#bc875b"/><path d="M63.69,56C46.89,32.19,51.17-2.83,70-23.37c.07.47.14.92.22,1.35,3.53,20.14,15.71,37.19,36.32,41.23v-.05C98.71,15.46,92.43,6.06,90.39-2h0c7,12.71,22.33,22,35.64,22.7l.13-.23a41.21,41.21,0,0,0,13.44,4.46h0c9,11.5,4.63,19.11,2.5,26.15a57.71,57.71,0,0,0,5.11-6.93c-.29,2.71-1.87,7.39-4,12.56-3.64,8.87-8.86,19.2-11.83,23.57-3.42,5-19,19.3-29.26,19.24s-24.53-14.2-30-19.59c-3-3-8-13.1-12.55-23-1.66-3.6-3.27-7.17-4.71-10.35l.06,0A53.45,53.45,0,0,0,63.69,56Z" style="fill:#fff1e3"/><path d="M54.86,46.5c1.44,3.18,3,6.75,4.71,10.35C52.8,56,47.35,51.62,43.61,46c-1.55-2.31-3.41-5.88-1.93-8.66a4.94,4.94,0,0,1,2.65-2.2A10.28,10.28,0,0,1,48,34.49h.36a56.15,56.15,0,0,0,6.54,12Z" style="fill:#fff1e3"/></g><path d="M91.14-.78s11,18.9,34.91,21.42c0,0-11.87.8-19.52-1.43C106.53,19.21,95.92,14.88,91.14-.78Z" style="fill:#ffd1c5"/><path d="M70.12-23.51S72.81,9.73,102.44,18.2c0,0-27.12-5.19-33.69-29.26,0,0-20,21.3-10.26,57.93C58.49,46.87,41.32,9.15,70.12-23.51Z" style="fill:#ffd1c5"/><path d="M62.28-34.44S32.32-6,46.44,34.61A20.19,20.19,0,0,1,49,34.49S33.33,3,62.28-34.44Z" style="fill:#aa784b"/><path d="M91-26s9.71,29.18,30.2,45c1.78,1.38,1.42.33,5,1.56,4,1.36,6.87,3,10.84,3.84s9.08.94,14,1.35C151.07,25.74,105.32,17.51,91-26Z" style="fill:#aa784b"/><path d="M100.55-25.37s16.79,34.85,37.69,48c3.61,2.26,8.6,2.29,12.83,3.12C151.07,25.74,114.52,3.82,100.55-25.37Z" style="fill:#aa784b"/><path d="M94.55-37.75s40.36,22.5,56.52,63.49c0,0-5.28.59-7.63-2.83-2.67-3.87.7-9-10.22-22.95C121.65-14.85,110.24-28.48,94.55-37.75Z" style="fill:#aa784b"/><path d="M94.71-40.41s47.81,6.61,56.36,66.15c0,0-4.63-1.26-5.31-10.09C144.25-3.9,123-36.37,94.71-40.41Z" style="fill:#aa784b"/><path d="M86.93-47s57.62-7,61.61,62.12c.27,4.73-1.74,8.53-1.19,9.43s3.76-1.07,3.72,1.18C151.07,25.74,155.92-50.63,86.93-47Z" style="fill:#aa784b"/><path d="M136,24.25s11.5,11.17,6.08,26.77c0,0,3.82-6.16,3-16-.27-3.1-5.47-10.19-5.47-10.19A13.4,13.4,0,0,1,136,24.25Z" style="fill:#ffd1c5"/><path d="M55.68,47.88S67,74.69,71.57,79.27c0,0,12,12.28,18.61,15.67,0,0-11.6-12.94-16.34-17.6C70.44,74,56.18,49.83,55.68,47.88Z" style="fill:#ffe2dc"/><path d="M146.15,46.85l-.22-.15c-3.27,6.68-12.35,25.06-15.74,30.2-4,6.11-16.85,18.81-16.85,18.81,10.44-5.22,18.48-16.1,18.48-16.1C139,69.84,144.49,53.22,146.4,47Z" style="fill:#ffe2dc"/><path d="M70.12-23.51S36.47,12.44,63.68,56c0,0-15.43-13-17.13-29.93,0,0,5-.61,4.47-6.41S57.93-15.43,70.12-23.51Z" style="fill:#aa784b"/><path d="M69.41-28s4,41.53,37.12,47.2c0,0-13.59-8.31-15.71-20.54,0,0,11.14,20.46,35.8,22l-7.76-3.74c.86-5.37-25-1.33-32.24-31.86,0,0,.53,12.45,5,22.51C91.58,7.56,71.55-1,69.41-28Z" style="fill:#aa784b"/><path d="M45.44,42.18s-.87-3.72,1-3.92,5.68,5.62,6,8.51c0,0-2.38.4-1.6,2.12s3.44,3.54,3.44,3.54A16.16,16.16,0,0,1,45.44,42.18Z" style="fill:#ffd1c5"/><path d="M46,6.49c-.5,6,.74,11.35,2.55,12,1.07.42,2.3-1,3-4.4,1.9-9.37.78,10.33-.13,12.93s-5.77,5.45-6.06-1.3S46,6.49,46,6.49Z" style="fill:#aa784b"/><path d="M151,18.21c.2,4.44.08,6.83,3.17,6.64,0,0-1.89,2.51-9.68.61-1.64-.39-2.05-.29-3-.87C138.53,22.75,151,18.21,151,18.21Z" style="fill:#aa784b"/><path d="M156.54,15.78c-.76,4.5-3,17-8.08,16-1.64-.34-3.19-6.43-3.19-6.43-1.28-.1-5.65-.5-5.65-.5,3.32,3.17,5.13,10.84,5.13,10.84.76,1.75.43,4.7-.22,7.55-.9,3.24-2.41,7.76-2.41,7.76a55.3,55.3,0,0,0,8.46-13.54,70.2,70.2,0,0,0,3.34-8.33A70.37,70.37,0,0,0,156.54,15.78Z" style="fill:#aa784b"/><path d="M45.44,42.18s1.38-4.3,6.77,4.28c0,0-1.66-6.36-5.48-8.2C46.73,38.26,44.73,37.44,45.44,42.18Z" style="fill:#f4a4a4"/><path d="M98.62,12.69a29.55,29.55,0,0,1-7.8-14s7.8,12.78,17.64,16.66C108.46,15.33,106.72,16.38,98.62,12.69Z" style="fill:#f4a4a4"/><path d="M55.68,4.19s2.83-15.52,14.2-27.43c0,0,3.38,21.78,16.22,32.48C86.1,9.24,71-3.89,68-18.11,68-18.11,57.77-5.59,55.68,4.19Z" style="fill:#f4a4a4"/><path d="M48.06,35.25c-2.14-1.73-6.27,1-6.84,3.4-.91,3.93,2.09,7.5,4.77,9.94,0,0,.33.2.27.12a23.67,23.67,0,0,1-3.34-6.15,8.74,8.74,0,0,1-.57-4.08c.29-2.64,3.63-2.54,5.58-3.09C48,35.38,48.14,35.31,48.06,35.25Z" style="fill:#fffcfa"/><path d="M69.88-23.24S73,12.84,106.53,19.21c0,0-13.34-7-15.71-20.54a44.4,44.4,0,0,0,35.23,22s7.93,3.74,13.57,4.23c0,0,9.82,10.44,2.5,26.15,0,0,6.66-7.41,9.58-15.91a7.07,7.07,0,0,1,5.19,1.15s22.47-36.4-5.75-72.47C124.58-70.14,79-62,63.05-49.58c0,0-36.44,23.77-18.77,84.63a7.35,7.35,0,0,1,4.14-.58S53.75,48.77,63.69,56C63.69,56,36.22,16.06,69.88-23.24Z" style="opacity:0.35000000000000003;mix-blend-mode:screen;fill:url(#_R_W_h_22)"/><path d="M69.88-23.24S73,12.84,106.53,19.21c0,0-13.34-7-15.71-20.54a44.4,44.4,0,0,0,35.23,22s7.93,3.74,13.57,4.23c0,0,9.82,10.44,2.5,26.15,0,0,6.66-7.41,9.58-15.91a7.07,7.07,0,0,1,5.19,1.15s22.47-36.4-5.75-72.47C124.58-70.14,79-62,63.05-49.58c0,0-36.44,23.77-18.77,84.63a7.35,7.35,0,0,1,4.14-.58S53.75,48.77,63.69,56C63.69,56,36.22,16.06,69.88-23.24Z" style="opacity:0.6000000000000001;mix-blend-mode:screen;fill:url(#_R_W_h_81)"/><path d="M48,34.49l-.41,0c-.27,0-.66.07-1.15.16a9.3,9.3,0,0,0-1.72.48,6.21,6.21,0,0,0-1.94,1.17,4.16,4.16,0,0,0-1.26,2.24,6.35,6.35,0,0,0,.21,2.91,14.35,14.35,0,0,0,1.3,2.94c.28.47.58,1,.89,1.41s.65,1,1,1.38a28.36,28.36,0,0,0,2.16,2.58A27.64,27.64,0,0,0,49.48,52c.4.35.83.64,1.23,1s.82.59,1.23.84.81.51,1.22.72.79.43,1.18.6l.56.27.56.22c.36.15.7.29,1,.39s.63.23.92.3l.8.21c.48.13.87.19,1.14.25l.4.09-.41,0c-.27,0-.66-.05-1.16-.15l-.82-.15c-.3,0-.61-.14-1-.23A10.42,10.42,0,0,1,55.33,56c-.38-.12-.77-.27-1.17-.43a18.86,18.86,0,0,1-2.52-1.24c-.44-.24-.86-.53-1.31-.81s-.87-.61-1.29-1a26.08,26.08,0,0,1-2.49-2.25,31.92,31.92,0,0,1-2.25-2.64c-.36-.47-.66-.94-1-1.41s-.63-1-.91-1.48a13.69,13.69,0,0,1-1.31-3.13A6.65,6.65,0,0,1,41,38.44,4.5,4.5,0,0,1,42.51,36a6.2,6.2,0,0,1,2.13-1.1,10.17,10.17,0,0,1,1.8-.36,8.85,8.85,0,0,1,1.16-.05Z" style="fill:#f9b5aa"/><path d="M45.5,42.68a9.61,9.61,0,0,1-.3-1.51,6.84,6.84,0,0,1-.05-1.57,3,3,0,0,1,.21-.8,1.42,1.42,0,0,1,.24-.38,1,1,0,0,1,.37-.3,1.06,1.06,0,0,1,.46-.13,1.66,1.66,0,0,1,.45,0,3.5,3.5,0,0,1,.81.27h0l0,0a19.6,19.6,0,0,1,1.76,1.77c.27.3.54.62.79.95s.5.66.74,1a28.53,28.53,0,0,1,.65,1.07l.3.56.25.58a6.13,6.13,0,0,1,.22.6,4,4,0,0,1,.17.62c0,.21.1.42.12.64l0,.65,0,.29-.3.06-.44.13-.41.2a1.31,1.31,0,0,0-.55.6,1,1,0,0,0-.06.39,1.35,1.35,0,0,0,.08.43,2.69,2.69,0,0,0,.19.43,3.19,3.19,0,0,0,.26.42,10.07,10.07,0,0,0,1.35,1.51c.5.48,1,.91,1.58,1.36-.3-.18-.61-.35-.89-.55s-.58-.39-.86-.6-.56-.43-.83-.66a7.71,7.71,0,0,1-.74-.77,5.15,5.15,0,0,1-.32-.45,2.65,2.65,0,0,1-.27-.5,1.8,1.8,0,0,1-.08-1.22,1.86,1.86,0,0,1,.78-1,4.11,4.11,0,0,1,.51-.27,3.07,3.07,0,0,1,.56-.19l-.29.36L52,46.21c0-.18-.09-.37-.12-.56a3.5,3.5,0,0,0-.17-.55,4.05,4.05,0,0,0-.2-.55L51.29,44,51,43.5c-.09-.18-.2-.35-.3-.52a5.29,5.29,0,0,0-.32-.5c-.21-.34-.45-.66-.68-1s-.49-.64-.75-.94c-.51-.62-1.06-1.22-1.62-1.78l.07,0a2.33,2.33,0,0,0-.64-.26,1.08,1.08,0,0,0-.3,0,.64.64,0,0,0-.28.06.61.61,0,0,0-.24.15,1,1,0,0,0-.18.26,2.46,2.46,0,0,0-.23.66,6.76,6.76,0,0,0-.14,1.5C45.41,41.66,45.44,42.17,45.5,42.68Z" style="fill:#f9b5aa"/><path d="M54.85,46.5s1,2.12,2.73,5.84c.88,1.85,1.94,4.1,3.16,6.68s2.64,5.47,4.23,8.61c.8,1.56,1.65,3.18,2.56,4.83s1.9,3.35,3,5a14.58,14.58,0,0,0,1.9,2.32l2.25,2.17c1.53,1.47,3.1,2.94,4.74,4.39a86.31,86.31,0,0,0,10.68,8.22,37.69,37.69,0,0,0,6.1,3.2A15.61,15.61,0,0,0,102.92,99a20.09,20.09,0,0,0,6.6-1.8,44.37,44.37,0,0,0,6-3.32,74.21,74.21,0,0,0,10.56-8.35,45.7,45.7,0,0,0,4.38-4.69,24.53,24.53,0,0,0,1.74-2.56c.54-.87,1.05-1.76,1.54-2.63,2-3.51,3.66-6.91,5.18-10.08s2.81-6.11,3.93-8.74,2-4.95,2.68-6.88a45.17,45.17,0,0,0,1.36-4.56c.11-.54.2-1,.23-1.23l.06-.43s0,.15,0,.43-.11.7-.21,1.24A42.92,42.92,0,0,1,145.71,50c-.62,1.95-1.48,4.3-2.53,6.95s-2.32,5.63-3.8,8.82-3.14,6.63-5.07,10.18c-.49.88-1,1.77-1.52,2.67A28.7,28.7,0,0,1,131,81.29a47.35,47.35,0,0,1-4.44,4.77A75.2,75.2,0,0,1,116,94.54a45.7,45.7,0,0,1-6.14,3.39A20.53,20.53,0,0,1,103,99.82a16.36,16.36,0,0,1-7-1.37,37.51,37.51,0,0,1-6.21-3.28A86.62,86.62,0,0,1,79,86.84c-1.64-1.47-3.22-3-4.75-4.42L72,80.22a15.74,15.74,0,0,1-2-2.43c-1.14-1.69-2.1-3.41-3-5.07s-1.73-3.31-2.51-4.89c-1.56-3.15-2.92-6.08-4.1-8.68s-2.18-4.88-3-6.76C55.8,48.64,54.85,46.5,54.85,46.5Z" style="fill:#f9b5aa"/><path d="M70.13-23.5,68.7-21.93c-.47.5-1,1.18-1.63,1.94-.33.37-.65.8-1,1.26s-.71.93-1.08,1.44c-.72,1.05-1.53,2.19-2.32,3.49-.41.64-.8,1.33-1.2,2-.2.35-.4.72-.61,1.08l-.59,1.14-.61,1.18L59.1-7.12l-.59,1.26L58-4.53c-.38.88-.72,1.81-1.07,2.76s-.66,1.93-1,2.92-.58,2-.88,3.08-.53,2.12-.75,3.21-.45,2.21-.61,3.34c-.09.57-.19,1.14-.26,1.71s-.13,1.15-.2,1.73S53.08,15.39,53,16s-.09,1.18-.13,1.78c0,1.19-.12,2.39-.09,3.6a67.25,67.25,0,0,0,.41,7.33A65.77,65.77,0,0,0,54.52,36a59,59,0,0,0,2.21,7.14c.41,1.17,1,2.29,1.42,3.43L59,48.25l.41.82.45.81.89,1.6,1,1.54.48.76.52.74,1,1.47-1-1.5c-.15-.25-.33-.52-.52-.83l-.59-1-.69-1.19c-.23-.43-.46-.9-.72-1.38-.52-1-1-2.1-1.57-3.31-.27-.61-.52-1.27-.79-1.94s-.53-1.38-.78-2.11l-.39-1.12c-.13-.38-.24-.78-.36-1.18-.24-.79-.5-1.61-.7-2.46s-.45-1.73-.62-2.64c-.09-.46-.19-.92-.29-1.38s-.16-.94-.24-1.42l-.24-1.46-.18-1.5c-.14-1-.22-2-.3-3.1s-.11-2.14-.17-3.23,0-2.22,0-3.36.07-2.29.18-3.46.21-2.36.35-3.56a68,68,0,0,1,1.31-7.32c.26-1.24.63-2.47,1-3.73S57.15-.71,57.61-2,58.55-4.45,59-5.71s1.08-2.49,1.71-3.71a60,60,0,0,1,4.16-7.26A64.87,64.87,0,0,1,70.13-23.5Z" style="fill:#9b6c3f"/><path d="M68.1-41.22l-1.83,2-1,1.07c-.36.4-.73.85-1.14,1.33-.8,1-1.76,2-2.72,3.34l-1.54,2c-.51.72-1,1.48-1.58,2.27L57.46-28q-.41.63-.81,1.29l-.84,1.33c-.28.45-.57.92-.83,1.4-.54,1-1.1,1.94-1.66,3s-1,2.11-1.6,3.2-1,2.27-1.52,3.44-.92,2.41-1.4,3.65-.86,2.54-1.24,3.85c-.18.67-.37,1.33-.55,2-.09.33-.19.67-.28,1s-.15.69-.23,1c-.15.69-.31,1.39-.46,2.09s-.25,1.42-.38,2.13c-.27,1.43-.43,2.89-.6,4.36-.11.74-.13,1.48-.19,2.23s-.13,1.5-.13,2.25c0,1.51-.08,3,0,4.57s.17,3.08.3,4.62c.08.78.2,1.55.3,2.32l.16,1.16.21,1.15a57.09,57.09,0,0,0,2.4,9.13l.4,1.12.2.56.23.54.91,2.19c.68,1.43,1.34,2.86,2.13,4.22a48.78,48.78,0,0,0,5.28,7.75A48.3,48.3,0,0,0,63.75,56L62.1,54.48l-.43-.4-.44-.48-1-1.08c-.38-.38-.75-.83-1.15-1.3s-.83-1-1.26-1.52l-1.33-1.76c-.47-.61-.89-1.31-1.37-2s-.92-1.46-1.39-2.24c-.23-.4-.48-.79-.7-1.21s-.45-.85-.67-1.29-.47-.87-.69-1.33-.42-.94-.64-1.41c-.46-1-.84-2-1.25-3-.1-.25-.21-.51-.31-.78s-.18-.53-.28-.8l-.55-1.65c-.37-1.11-.66-2.28-1-3.46a62.78,62.78,0,0,1-1.42-7.57,65.52,65.52,0,0,1-.55-8.31c0-1.44,0-2.9.15-4.38.06-.74.09-1.49.17-2.24s.17-1.5.26-2.26.21-1.52.34-2.28S46.79.19,47-.58c.34-1.53.63-3.1,1.08-4.64a75.79,75.79,0,0,1,3.1-9.35l1-2.33c.31-.79.72-1.54,1.07-2.32.71-1.56,1.55-3.06,2.37-4.6.4-.77.88-1.5,1.32-2.26s.88-1.53,1.38-2.25c1-1.48,1.93-3,3-4.42A103.73,103.73,0,0,1,68.1-41.22Z" style="fill:#9b6c3f"/><path d="M139.63,24.87,141.11,27l.69,1.17a13.57,13.57,0,0,1,.76,1.38c.24.51.52,1,.76,1.61s.46,1.18.67,1.82l.27,1a8.6,8.6,0,0,1,.25,1,16.68,16.68,0,0,1,.3,2.17,19.31,19.31,0,0,1,.05,2.29c0,.38-.07.77-.1,1.16a11.7,11.7,0,0,1-.15,1.17c-.11.79-.3,1.56-.47,2.35s-.41,1.55-.65,2.32-.47,1.53-.7,2.29-.45,1.51-.66,2.26c0,0,.06-.19.19-.55s.31-.89.55-1.56.55-1.5.87-2.47c.16-.48.33-1,.49-1.55s.32-1.14.46-1.77.25-1.28.38-2a21.07,21.07,0,0,0,.16-2.16c0-.38,0-.76,0-1.15s-.06-.77-.1-1.17a8.49,8.49,0,0,0-.18-1.2,10.4,10.4,0,0,0-.25-1.21l-.36-1.22a10.33,10.33,0,0,0-.45-1.21c-.18-.4-.31-.83-.53-1.22l-.61-1.19c-.2-.4-.45-.78-.69-1.17l-.75-1.16C140.78,26.35,140.2,25.62,139.63,24.87Z" style="fill:#9b6c3f"/><path d="M154.78-10.55s.09.56.27,1.6l.33,1.89c.14.74.22,1.6.35,2.55s.29,2,.37,3.15c.05.57.11,1.17.16,1.78s.12,1.25.14,1.91.06,1.33.09,2,.08,1.41.06,2.14V8.72c0,.38,0,.76,0,1.15L156.49,11c0,.79-.07,1.6-.11,2.41s-.15,1.64-.23,2.48L156,17.19c0,.42-.09.85-.16,1.27-.13.85-.26,1.72-.39,2.59s-.34,1.73-.51,2.61L154.7,25l-.14.67-.18.66c-.23.87-.47,1.76-.71,2.65a13.35,13.35,0,0,1-.41,1.32c-.14.44-.29.88-.44,1.32-.54,1.78-1.31,3.49-2,5.23-.37.86-.81,1.69-1.21,2.54L149,40.64c-.22.41-.46.81-.69,1.22l-1.38,2.43-1.54,2.33c-.26.38-.5.77-.77,1.15l-.83,1.09L142.13,51l.87-1,1-1.27.66-.8c.24-.29.45-.63.7-1L147,44.67c.57-.85,1.11-1.82,1.73-2.84s1.17-2.16,1.79-3.35,1.16-2.52,1.74-3.89c.15-.34.3-.69.44-1s.25-.73.38-1.09c.26-.74.52-1.49.78-2.26.14-.38.25-.78.36-1.18l.33-1.2c.11-.41.22-.82.34-1.23s.23-.83.31-1.26c.35-1.71.77-3.46,1-5.3.06-.46.13-.92.2-1.39s.14-.93.17-1.4c.09-.95.17-1.91.26-2.87s.09-2,.14-2.95c0-.5,0-1,.05-1.5s0-1,0-1.52c0-1,0-2-.07-3.07s-.13-2.06-.2-3.11-.22-2.1-.32-3.16c-.07-.53-.13-1.06-.19-1.59s-.17-1.06-.25-1.59-.17-1.07-.26-1.6l-.13-.81-.16-.8C155.22-8.39,155-9.47,154.78-10.55Z" style="fill:#9b6c3f"/><path d="M63.09-49.66l-.52.29a14.94,14.94,0,0,0-1.46.87c-.3.21-.67.42-1,.71l-1.18.91-1.29,1.15c-.43.43-.91.88-1.38,1.37-.94,1-2,2.13-3,3.43s-2,2.73-3.06,4.3-2,3.28-3,5.12c-.48.92-1,1.86-1.43,2.86l-1.33,3c-.11.26-.24.52-.34.79s-.19.54-.29.81c-.19.54-.38,1.09-.58,1.64s-.39,1.1-.59,1.66-.33,1.15-.49,1.73-.33,1.16-.5,1.75l-.24.88c-.07.3-.13.61-.2.91-.26,1.2-.54,2.42-.78,3.66S40-9.26,39.84-8s-.28,2.56-.42,3.86l-.1,1,0,1c0,.66-.06,1.31-.1,2-.09,1.32-.07,2.65-.08,4,0,.66,0,1.33,0,2s0,1.33.08,2,0,1.34.09,2l.17,2,.17,2,.24,2,.26,2,.32,2,.34,2c.13.66.26,1.31.4,2s.25,1.31.41,1.95l.48,1.92c.62,2.56,1.41,5.05,2.24,7.48,0,0-.19-.64-.54-1.85-.17-.6-.39-1.35-.6-2.24q-.18-.68-.36-1.44c-.14-.51-.27-1.06-.39-1.64-.23-1.17-.55-2.45-.78-3.88-.13-.71-.26-1.45-.4-2.22s-.22-1.58-.35-2.41c-.26-1.67-.41-3.46-.62-5.34-.09-.95-.14-1.93-.21-2.93,0-.5-.07-1-.1-1.52s0-1-.05-1.55c0-1.06-.08-2.13-.06-3.23s0-2.22,0-3.36c.12-2.29.21-4.66.52-7.1.06-.61.12-1.23.19-1.85s.19-1.24.29-1.86c.2-1.25.37-2.53.67-3.8.13-.63.27-1.28.41-1.92.07-.32.14-.65.2-1s.18-.65.27-1c.17-.64.35-1.29.53-1.95l.27-1,.14-.49.16-.49c.46-1.29.89-2.61,1.37-3.92s1.09-2.6,1.65-3.91a71.73,71.73,0,0,1,4.17-7.67,54.38,54.38,0,0,1,5.33-7.27A26.74,26.74,0,0,1,63.09-49.66Z" style="fill:#9b6c3f"/><path d="M55.18,46.84l.26.82c.08.27.19.59.31,1s.24.83.38,1.32.3,1,.43,1.62.31,1.23.45,1.91.29,1.4.42,2.16.27,1.56.35,2.39c0,.42.09.84.14,1.27s.06.86.09,1.31c.08.88.08,1.79.1,2.72,0,.47,0,.94,0,1.41s0,1-.06,1.43-.07,1-.1,1.44-.12,1-.18,1.46l-.08.73-.12.73c-.09.49-.17,1-.25,1.47-.21,1-.38,2-.65,2.91-.12.48-.23,1-.37,1.44s-.27.94-.41,1.42c-.26.94-.6,1.86-.88,2.78l.29-.66c.1-.22.21-.49.35-.8s.3-.68.45-1.1.33-.89.52-1.4.35-1.07.54-1.67.38-1.26.55-2c.09-.34.19-.7.27-1.07s.15-.75.22-1.14c.18-.78.28-1.6.4-2.46.07-.43.1-.87.14-1.32s.09-.9.11-1.36c0-.94.09-1.9,0-2.88,0-.5,0-1-.06-1.51s-.08-1-.13-1.53-.13-1-.2-1.56c0-.26-.07-.53-.11-.79s-.1-.53-.16-.8c-.18-1.06-.45-2.13-.73-3.22s-.62-2.16-1-3.24S55.62,47.92,55.18,46.84Z" style="fill:#9b6c3f"/><path d="M70.24-40.78l-.4,1.88c-.15.61-.22,1.37-.35,2.26-.08.44-.11.93-.15,1.44s-.09,1.05-.12,1.62,0,1.18,0,1.81,0,1.29,0,2,.06,1.39.12,2.13c0,.36,0,.74.08,1.12l.12,1.15c0,.39.09.79.13,1.19s.12.8.17,1.21c.1.83.27,1.66.44,2.52s.32,1.74.54,2.62.46,1.78.69,2.7a14.24,14.24,0,0,0,.41,1.37c.14.46.29.92.44,1.39s.31.93.46,1.4.36.93.55,1.4a55.19,55.19,0,0,0,2.53,5.66l1.57,2.79C78-.22,78.64.68,79.24,1.59c.29.47.65.88,1,1.32l1,1.32.51.65.56.62c.37.41.75.82,1.12,1.24.73.85,1.59,1.57,2.4,2.35a29.75,29.75,0,0,0,2.59,2.17c.45.34.87.71,1.34,1l1.42.92c.47.31.94.62,1.42.92l1.48.79,1.49.79c.5.25,1,.45,1.54.67a27.11,27.11,0,0,0,3.1,1.19l1.58.5a12.33,12.33,0,0,0,1.58.44l3.17.69L105,18.78l-1.88-.49c-.74-.2-1.57-.53-2.51-.85-.47-.17-1-.33-1.48-.53l-1.58-.72c-.54-.25-1.12-.5-1.71-.78l-1.77-1A39.55,39.55,0,0,1,90.26,12l-.49-.34-.47-.38-1-.78a23.18,23.18,0,0,1-2-1.68c-.63-.61-1.29-1.22-1.93-1.87s-1.24-1.38-1.87-2.1a11.1,11.1,0,0,1-.91-1.12q-.45-.57-.9-1.17c-.29-.4-.62-.77-.89-1.2S79.34.5,79.05.07l-.85-1.3c-.27-.44-.51-.9-.78-1.36-.5-.93-1.07-1.85-1.51-2.84L75.2-6.92c-.24-.5-.48-1-.68-1.52-.41-1.05-.86-2.08-1.24-3.17s-.75-2.18-1.1-3.3-.61-2.28-.93-3.43-.5-2.36-.75-3.55-.42-2.42-.56-3.65a53.51,53.51,0,0,1-.49-7.53A40.51,40.51,0,0,1,70.24-40.78Z" style="fill:#9b6c3f"/><path d="M106.52,19.16l-.59-.33-.71-.39c-.27-.15-.57-.37-.91-.59a11.54,11.54,0,0,1-1.09-.76c-.38-.3-.81-.59-1.22-1s-.87-.73-1.3-1.17-.91-.86-1.35-1.35l-.69-.74-.67-.8c-.47-.53-.9-1.12-1.35-1.71s-.86-1.22-1.3-1.85-.84-1.29-1.21-2c-.2-.34-.4-.68-.59-1l-.54-1c-.19-.35-.35-.71-.52-1.07s-.35-.71-.5-1.07c-.3-.73-.61-1.45-.87-2.18S90.62-1.32,90.38-2l.14.55c.1.36.21.9.44,1.57.11.34.22.71.36,1.12s.32.84.49,1.31.41,1,.63,1.47S93,5,93.23,5.59s.62,1.13.94,1.73.73,1.19,1.14,1.79.84,1.24,1.33,1.85,1,1.23,1.53,1.85c.26.31.56.6.85.91a12.62,12.62,0,0,0,.9.89l1,.88,1,.83c.33.29.71.54,1.07.8s.74.52,1.13.75.78.48,1.19.68Z" style="fill:#9b6c3f"/><path d="M86.63-14.87s0,.5.09,1.42c0,.46.13,1,.2,1.68,0,.34.11.68.19,1.06s.15.77.24,1.18.23.84.35,1.3.29.91.44,1.39.35,1,.55,1.49c.1.25.21.51.31.77l.36.78c.12.26.25.53.37.8s.28.54.43.81l.44.83.49.82a36,36,0,0,0,2.26,3.36c.41.56.88,1.11,1.33,1.68s.95,1.1,1.46,1.65,1,1.1,1.59,1.62l.84.8.87.77a46,46,0,0,0,3.74,3c1.32.94,2.7,1.83,4.13,2.65a47.46,47.46,0,0,0,4.45,2.24A43.82,43.82,0,0,0,116.43,19a38.73,38.73,0,0,0,4.81,1.17,34.43,34.43,0,0,0,4.81.5l-1.19-.11c-.39,0-.86-.1-1.43-.18s-1.21-.2-1.93-.34c-.36-.06-.74-.16-1.14-.25s-.82-.18-1.25-.31l-1.34-.38-1.44-.47a46.64,46.64,0,0,1-6.47-2.77c-1.16-.59-2.35-1.28-3.56-2s-2.42-1.57-3.63-2.49l-.92-.7-.9-.74c-.62-.48-1.2-1-1.81-1.56a45.08,45.08,0,0,1-3.5-3.54c-.58-.62-1.1-1.3-1.65-2S92.82,1.41,92.34.67s-1-1.49-1.45-2.26S90-3.17,89.61-4a29.47,29.47,0,0,1-2-5.22A29.29,29.29,0,0,1,86.63-14.87Z" style="fill:#9b6c3f"/><path d="M104.83-.71l.8,1.12c.51.73,1.27,1.79,2.23,3.11.49.66,1,1.39,1.62,2.17s1.25,1.61,2,2.47,1.48,1.78,2.32,2.7c.41.47.86.93,1.3,1.4s.92,1,1.41,1.41q1.47,1.42,3.15,2.79a41,41,0,0,0,3.6,2.61c.62.43,1.29.8,2,1.2s1.36.76,2.07,1.1a41.62,41.62,0,0,0,4.38,1.84,40.34,40.34,0,0,0,4.64,1.31c.39.08.78.18,1.18.25l1.19.2c.79.15,1.6.22,2.39.33s1.6.13,2.39.19,1.59.06,2.38.08l2.36,0,2.32-.13h-1.16c-.37,0-.84,0-1.39,0L146,25.32c-.71,0-1.5-.11-2.36-.17s-1.79-.18-2.79-.33l-1.53-.25-1.63-.32c-1.1-.24-2.27-.53-3.47-.89s-2.44-.79-3.7-1.3c-.64-.25-1.27-.54-1.92-.82s-1.29-.61-1.93-1a41.94,41.94,0,0,1-3.88-2.33c-1.28-.88-2.56-1.84-3.82-2.88s-2.49-2.2-3.7-3.41-2.39-2.5-3.56-3.84C109.41,5.14,107.15,2.23,104.83-.71Z" style="fill:#9b6c3f"/><g id="_x_9_" data-name="¤­©x_9_"><path d="M101.41,60.15c-1.21-2.09-4.46-1.87-6.33-2.88-.09-.05-.75-.16-.6,0a3.9,3.9,0,0,0,.36.25,2.19,2.19,0,0,0-.83.36,4.87,4.87,0,0,1,.64.55l.24.28.27.24c2,2,4,4.7,4,7.49a1.27,1.27,0,0,0,1-.34C101,64.15,102.61,62.22,101.41,60.15Z" style="fill:#ffd1c5"/><path d="M61.06,36.67S71.57,25,87.9,38.82c0,0-2.5-13.47-15.83-12.11C59.92,27.94,61.06,36.67,61.06,36.67Z" style="opacity:0.6000000000000001;fill:url(#radial-gradient)"/><path d="M139.36,37.14S129,25.36,112.5,39c0,0,2.67-13.44,16-11.93C140.61,28.42,139.36,37.14,139.36,37.14Z" style="opacity:0.6000000000000001;fill:url(#radial-gradient-2)"/><path d="M84.48,44.13c-7,1.55-13.77,1.55-20.55-.89-.15-.06-.34,0-.11.09a20.25,20.25,0,0,0,10.41,3.26c4,.12,7-1.53,10.81-2.54C85,44.05,84.64,44.09,84.48,44.13Z" style="fill:#fff"/><path d="M95.94,36.05a.94.94,0,0,0-.44-.21,29.19,29.19,0,0,1,2,12.08c-.29,3.28-1.23,7.43-3.83,9.7-.07.06.62.31.78.17C100.06,52.79,99.6,42,95.94,36.05Z" style="fill:#fffcfa"/><path d="M86.35,49.63A12.23,12.23,0,1,1,74.2,37.33,12.22,12.22,0,0,1,86.35,49.63Z" style="opacity:0.6000000000000001;fill:url(#_R_W_h_34)"/><path d="M139.1,49.85a12.47,12.47,0,1,1-12.39-12.54A12.47,12.47,0,0,1,139.1,49.85Z" style="opacity:0.6000000000000001;fill:url(#_R_W_h_34-2)"/><path d="M95.49,35.55a27.8,27.8,0,0,1,.85,2.68c.24.91.43,1.83.61,2.75s.31,1.85.42,2.79.16,1.88.2,2.83,0,1.89-.07,2.85a21.07,21.07,0,0,1-.39,2.84,14.51,14.51,0,0,1-.86,2.79,9.62,9.62,0,0,1-1.52,2.53l0-.72c.29.34.55.67.81,1s.51.69.75,1c.48.71.95,1.43,1.36,2.18a16.65,16.65,0,0,1,1.08,2.35A7,7,0,0,1,99.16,66a7.79,7.79,0,0,0-.82-2.36A19.3,19.3,0,0,0,97,61.5c-.48-.68-1-1.34-1.52-2-.26-.33-.54-.64-.81-1s-.55-.62-.83-.91l-.3-.32.27-.41A11,11,0,0,0,95,54.59,18.82,18.82,0,0,0,95.68,52c.17-.88.25-1.78.34-2.68s.11-1.81.12-2.72,0-1.83,0-2.75S96,42,96,41.1s-.14-1.84-.21-2.77S95.59,36.48,95.49,35.55Z" style="fill:#f9b5aa"/><path d="M58.15,26.14l.24-.22c.16-.15.4-.36.72-.61s.71-.55,1.19-.85l.76-.48c.27-.16.57-.31.88-.47a21.79,21.79,0,0,1,2-1l1.15-.43.61-.21.62-.17,1.29-.34c.44-.1.89-.18,1.35-.25.9-.19,1.84-.22,2.77-.32a13.1,13.1,0,0,1,1.4,0l1.39,0c.92.05,1.82.21,2.69.3s1.67.37,2.45.55a8,8,0,0,1,1.12.32l1,.37a12.77,12.77,0,0,1,1.75.69l1.31.65,1.11.59s-.45-.1-1.22-.31l-1.39-.38c-.52-.18-1.14-.27-1.8-.42l-1-.22L80,22.86c-.18,0-.38-.05-.57-.08l-2.39-.33-2.57-.17H73.18a11.82,11.82,0,0,0-1.33,0,25.45,25.45,0,0,0-2.63.25c-.43.07-.87.12-1.29.18L66.68,23l-.6.12-.59.16-1.15.3L63.28,24a8.83,8.83,0,0,0-1,.34c-.64.23-1.21.46-1.72.68s-.94.42-1.3.59-.64.31-.83.42Z" style="fill:#9b6c42"/><path d="M140.83,27.69l-.28-.16c-.19-.11-.47-.24-.82-.43s-.79-.39-1.3-.61-1.07-.46-1.71-.7a9.42,9.42,0,0,0-1-.35l-1.06-.36-1.14-.31L133,24.6l-.61-.13-1.24-.27-1.28-.2a25.37,25.37,0,0,0-2.64-.28c-.44-.06-.88,0-1.33-.06l-1.32,0-2.57.13-2.39.31-.57.07-.54.12-1,.21c-.66.14-1.29.22-1.81.39l-1.39.37-1.23.29,1.12-.57,1.31-.64a12.68,12.68,0,0,1,1.77-.67l1-.35a8,8,0,0,1,1.12-.32c.78-.17,1.6-.38,2.46-.51s1.77-.23,2.69-.27h1.39a13.17,13.17,0,0,1,1.4,0c.93.1,1.87.15,2.77.34.45.08.9.17,1.34.27l1.29.36.62.17.6.22,1.16.44c.72.34,1.42.63,2,1l.87.49.76.49c.47.31.86.61,1.18.86s.55.47.71.62A2.69,2.69,0,0,1,140.83,27.69Z" style="fill:#9b6c42"/><path d="M63,43.05s4.47,4.13,22.13.8a22.24,22.24,0,0,1-12.29,2.86C65.49,46.36,63,43.05,63,43.05Z" style="fill:#ffe6e3"/><path d="M114.58,43.36s4.47,4.13,22.13.8A22.24,22.24,0,0,1,124.42,47C117.09,46.67,114.58,43.36,114.58,43.36Z" style="fill:#ffe6e3"/><path d="M79.17,32.48c.17.07,10.79,3.86,6.88,11.27,0,0-12.85,3.38-20.74.09,0,0-6.29-1.47-3.15-7.82C62.16,36,69.32,27.9,79.17,32.48Z" style="fill:#fff"/><path d="M87.9,38.82S75.45,20.39,60.25,36.15c0,0,.22,4.25,1.4,5.64A9.5,9.5,0,0,1,62,37.6C62.63,36,74.62,26.21,87.9,38.82Z" style="fill:#543129"/><path d="M81.46,33.64s4,5.84-.44,10.42c0,0-8.09,1.16-14.26.2,0,0-4.83-1.34-3.71-7.85,0,0,3.09-4.5,10.83-4.85S81.46,33.64,81.46,33.64Z" style="fill:url(#_R_W_h_2)"/><path d="M86.05,43.75c.57-.18-16.92,1.44-22.94-.85C63.11,42.9,68.67,49.05,86.05,43.75Z" style="fill:#543129"/><path d="M61.83,40.9s.68-3.13,3.14-1.22C65,39.68,63.78,43.41,61.83,40.9Z" style="fill:#fff"/><path d="M68.74,39.26a3.5,3.5,0,1,0,3.52-3.48A3.5,3.5,0,0,0,68.74,39.26Z" style="fill:#543129"/><path d="M81.67,37.61s-3.47-5.3-8.11.84C73.56,38.45,78.58,44.37,81.67,37.61Z" style="fill:#fff;opacity:0.9"/><path d="M70.67,39.88s-5.21,0-4.36,2.22S70.27,40.08,70.67,39.88Z" style="fill:#ffe0dc"/><path d="M70.9,38.45s-4.12-3.2-4.82-.9S70.45,38.37,70.9,38.45Z" style="fill:#ffe0dc"/><path d="M86.88,35.56s-.28-.34-.8-.89a29.58,29.58,0,0,0-2.32-2.11,23.13,23.13,0,0,0-3.65-2.45c-.35-.2-.73-.36-1.09-.54s-.76-.33-1.16-.47a15.36,15.36,0,0,0-2.43-.69,13.49,13.49,0,0,0-2.52-.27c-.41,0-.83,0-1.24,0l-.61,0-.59.09a10.8,10.8,0,0,0-1.16.21,9.14,9.14,0,0,0-1.09.28,9.38,9.38,0,0,0-1,.33c-.33.13-.65.23-.94.36-.59.28-1.14.49-1.6.75s-.88.45-1.2.66l-1,.61,1-.73c.3-.24.69-.49,1.14-.78a17.6,17.6,0,0,1,1.56-.9c.29-.15.61-.28.93-.43a8,8,0,0,1,1-.4,9,9,0,0,1,1.11-.35,8,8,0,0,1,1.2-.26l.62-.11c.21,0,.43,0,.64-.06s.43,0,.65-.06h.65a14.89,14.89,0,0,1,2.65.27,15.89,15.89,0,0,1,2.55.75,15.39,15.39,0,0,1,2.31,1.11,18.56,18.56,0,0,1,2,1.32A19.39,19.39,0,0,1,84,32.24a20.73,20.73,0,0,1,2.14,2.34A8.93,8.93,0,0,1,86.88,35.56Z" style="fill:#f9b5aa"/><path d="M65.5,32.44s-4.55.48-6.13-3.17c0,0,.34,2.92,4.51,4.56Z" style="fill:#543129"/><path d="M67.72,31S64.93,31,64.12,29a3.46,3.46,0,0,0,2.57,2.82Z" style="fill:#543129"/><path d="M69.06,30.9a2.32,2.32,0,0,1-.41,0l-.2-.06a1.07,1.07,0,0,1-.22-.1,2.18,2.18,0,0,1-.47-.32,2.91,2.91,0,0,1-.47-.46,5.06,5.06,0,0,1-.42-.58A5.29,5.29,0,0,1,66.26,28a.62.62,0,0,0,0,.09,1.58,1.58,0,0,0,0,.26,4.18,4.18,0,0,0,.32.91,3.69,3.69,0,0,0,.86,1.13,2.28,2.28,0,0,0,.71.43,1.44,1.44,0,0,0,.42.11A1.7,1.7,0,0,0,69.06,30.9Z" style="fill:#543129"/><path d="M63.84,34.37l-.77-.12a2,2,0,0,1-.39-.07l-.45-.13a3.17,3.17,0,0,1-.5-.15l-.53-.22-.28-.11c-.1,0-.18-.1-.28-.15l-.56-.31c-.19-.12-.36-.26-.55-.39A3.71,3.71,0,0,1,59,32.3l-.53-.47L58,31.3c-.08-.09-.15-.18-.24-.27l-.2-.28-.42-.57.3.6.16.33c.06.11.15.22.24.35l.29.4a2.71,2.71,0,0,0,.36.41l.43.43a5.47,5.47,0,0,0,.52.4,4,4,0,0,0,.59.39l.66.34c.23.1.48.17.73.26l.38.12.4.07a4.37,4.37,0,0,0,.81.09Z" style="fill:#543129"/><path d="M62.18,34.71s-3.39,1.79-7.09-2.95c0,0,1.78,5.17,6,4.91Z" style="fill:#543129"/><path d="M120.68,32.72c-.17.08-10.83,3.74-7,11.19,0,0,12.8,3.54,20.73.34,0,0,6.31-1.39,3.25-7.78C137.65,36.47,130.59,28.26,120.68,32.72Z" style="fill:#fff"/><path d="M111.87,39s12.67-18.28,27.68-2.34c0,0-.27,4.25-1.47,5.62a9.63,9.63,0,0,0-.24-4.2C137.18,36.39,125.31,26.51,111.87,39Z" style="fill:#543129"/><path d="M118.38,33.86s-4.09,5.79.31,10.42c0,0,8.08,1.26,14.26.37,0,0,4.84-1.28,3.8-7.8,0,0-3-4.54-10.77-5S118.38,33.86,118.38,33.86Z" style="fill:url(#_R_W_h_2-2)"/><path d="M113.67,43.91c-.57-.18,16.9,1.65,22.94-.57C136.61,43.34,131,49.42,113.67,43.91Z" style="fill:#543129"/><path d="M114.84,41.22s.68-3.14,3.14-1.22C118,40,116.79,43.72,114.84,41.22Z" style="fill:#fff"/><path d="M122.2,39.41a3.5,3.5,0,1,0,3.52-3.48A3.5,3.5,0,0,0,122.2,39.41Z" style="fill:#543129"/><path d="M135.13,37.76s-3.47-5.3-8.11.84C127,38.6,132.05,44.52,135.13,37.76Z" style="fill:#fff;opacity:0.9"/><path d="M124.13,40s-5.21,0-4.36,2.22S123.73,40.23,124.13,40Z" style="fill:#ffe0dc"/><path d="M124.36,38.6s-4.12-3.2-4.81-.9S123.92,38.52,124.36,38.6Z" style="fill:#ffe0dc"/><path d="M112.93,35.71a11.28,11.28,0,0,1,.71-1,20.79,20.79,0,0,1,2.17-2.31,19.75,19.75,0,0,1,1.64-1.36,19.35,19.35,0,0,1,2-1.3,15.4,15.4,0,0,1,2.32-1.08,15.81,15.81,0,0,1,2.55-.72,14,14,0,0,1,2.65-.23h.66c.22,0,.43,0,.65.06s.42,0,.63.07l.62.11a9.13,9.13,0,0,1,1.2.28,9,9,0,0,1,1.11.36,7.89,7.89,0,0,1,1,.41c.32.16.64.29.93.44.58.33,1.11.61,1.55.92s.83.55,1.13.79l.94.75s-.38-.22-1-.63c-.32-.21-.73-.41-1.19-.67s-1-.49-1.59-.77c-.3-.13-.62-.24-.94-.36a8,8,0,0,0-1-.35,10.29,10.29,0,0,0-1.09-.29,8.82,8.82,0,0,0-1.16-.23l-.59-.09c-.21,0-.41,0-.61-.05-.41,0-.83,0-1.24,0a14.33,14.33,0,0,0-2.52.24,15.42,15.42,0,0,0-2.44.67c-.4.13-.78.3-1.16.45s-.75.34-1.1.53a23,23,0,0,0-3.68,2.4,25.82,25.82,0,0,0-2.34,2.09C113.21,35.38,112.93,35.71,112.93,35.71Z" style="fill:#f9b5aa"/><path d="M137.41,35.16s3.37,1.83,7.13-2.86c0,0-1.85,5.14-6,4.83Z" style="fill:#543129"/><path d="M134.34,32.85s4.55.53,6.18-3.09c0,0-.38,2.91-4.57,4.5Z" style="fill:#543129"/><path d="M132.14,31.34c.05,0,2.8.12,3.62-1.9a3.46,3.46,0,0,1-2.59,2.79Z" style="fill:#543129"/><path d="M130.81,31.26a1.93,1.93,0,0,0,.41,0,.93.93,0,0,0,.22,0,1.27,1.27,0,0,0,.24-.07,1.94,1.94,0,0,0,.53-.28,2.87,2.87,0,0,0,.52-.47,3.86,3.86,0,0,0,.44-.6,3.17,3.17,0,0,0,.46-1.44l0,.09c0,.05,0,.14-.08.24a5.09,5.09,0,0,1-1.25,1.9,2.51,2.51,0,0,1-.65.45,1.66,1.66,0,0,1-.39.15A2,2,0,0,1,130.81,31.26Z" style="fill:#543129"/><path d="M136,34.78h.78a2.84,2.84,0,0,0,.41,0l.48-.07c.16,0,.35,0,.53-.1l.57-.18.3-.09.29-.14.61-.3c.2-.12.38-.26.58-.4a3.45,3.45,0,0,0,.56-.45l.52-.52c.15-.19.3-.39.44-.59l.21-.3c.05-.1.11-.21.16-.32s.2-.41.3-.64l-.39.54-.2.29c-.08.1-.18.2-.28.31l-.32.36a2.63,2.63,0,0,1-.38.36l-.44.39c-.15.13-.34.23-.51.36a6,6,0,0,1-.56.36L139,34c-.21.1-.45.18-.69.27l-.35.14-.38.1a6.5,6.5,0,0,1-.79.18Z" style="fill:#543129"/><path d="M86.59,69.07s12.81,5.45,30.46-.14c0,0-1.41,15.3-15.15,15.36S86.59,69.07,86.59,69.07Z" style="opacity:0.6000000000000001;fill:url(#radial-gradient-3)"/><path d="M94.42,83.25s7.77,5.62,15.17-.56c0,0-2.48,6.66-8.3,6.26A7.46,7.46,0,0,1,94.42,83.25Z" style="fill:#ffd1c5"/><path d="M94.2,83.05a19.51,19.51,0,0,0,15.39-.36S102.38,90.78,94.2,83.05Z" style="fill:#ef9289"/><path d="M87.72,70.78s11,5.61,27.47-.17c0,0-2.36,10.76-13.68,11.13C90.83,82.08,87.72,70.78,87.72,70.78Z" style="fill:#fff"/><path d="M88.39,69.7l1.13.28c.37.07.8.18,1.31.27s1.08.19,1.71.29,1.31.19,2,.28,1.49.16,2.28.21l1.2.09,1.23,0c.83,0,1.68,0,2.52,0s1.69-.05,2.52-.08,1.64-.13,2.43-.19,1.54-.19,2.27-.27,1.39-.22,2-.32,1.2-.19,1.7-.31l1.31-.29,1.14-.24-1.11.35-1.29.38c-.49.17-1.07.27-1.69.42s-1.29.31-2,.42-1.48.27-2.28.35-1.61.18-2.45.23-1.69.12-2.54.12-1.71,0-2.55-.06L98,71.63l-1.22-.11c-.79,0-1.56-.19-2.28-.29s-1.41-.23-2-.37l-.9-.2-.8-.21c-.5-.12-.93-.26-1.29-.37C88.78,69.86,88.39,69.7,88.39,69.7Z" style="fill:#fffcfa"/><path d="M87.72,70.78A36.41,36.41,0,0,0,92,71.86c.63.14,1.34.23,2.07.37l1.14.15c.39.05.79.1,1.2.13l1.23.12,1.27.06c.85.07,1.72,0,2.58,0a11.23,11.23,0,0,0,1.3,0l1.29-.06c.85,0,1.69-.16,2.5-.23s1.58-.25,2.32-.35,1.43-.28,2.07-.4l.92-.2a6.33,6.33,0,0,0,.83-.19l1.33-.36,1.18-.3-1.11.48-1.29.53c-.5.22-1.09.37-1.72.57a19.58,19.58,0,0,1-2.06.58c-.75.15-1.53.36-2.35.48l-1.26.17a10.83,10.83,0,0,1-1.29.15l-1.32.08a11.74,11.74,0,0,1-1.33,0c-.88,0-1.77,0-2.65-.08-.43,0-.86-.05-1.29-.1l-1.26-.17c-.83-.08-1.61-.28-2.36-.41s-1.44-.34-2.08-.55l-.91-.27-.81-.29c-.5-.18-.93-.37-1.29-.52A11.92,11.92,0,0,1,87.72,70.78Z" style="fill:#ef9289"/><path d="M88.15,72s.07.12.19.36.33.56.59,1a19.44,19.44,0,0,0,2.49,3.16c.27.31.61.59.92.9s.7.58,1.06.88.79.54,1.19.82l1.31.74,1.43.59c.51.14,1,.31,1.53.44s1,.19,1.59.26l1.62.08,1.66-.08c.52-.08,1-.13,1.57-.24a14.79,14.79,0,0,0,1.52-.43l.73-.26.69-.34.33-.16.32-.2.63-.4c.37-.31.78-.57,1.1-.9l.51-.48.44-.5c.31-.32.55-.69.81-1,.47-.67.89-1.32,1.23-1.9s.62-1.12.85-1.55c.45-.87.73-1.37.73-1.37s-.2.53-.56,1.44c-.19.46-.41,1-.7,1.64a18.28,18.28,0,0,1-1.09,2.06,12.74,12.74,0,0,1-1.71,2.18,12.6,12.6,0,0,1-1.14,1l-.66.45-.33.23-.36.19-.74.39-.77.31a12.78,12.78,0,0,1-1.63.49c-.56.13-1.14.19-1.72.28l-1.7.1-1.74-.1c-.57-.09-1.13-.2-1.69-.3s-1.09-.34-1.63-.51-1-.45-1.5-.67-.93-.54-1.37-.83-.83-.61-1.2-.93-.74-.64-1-1-.63-.65-.9-1a17.87,17.87,0,0,1-2.24-3.44c-.22-.44-.36-.8-.46-1Z" style="fill:#ef9289"/><path d="M108.29,81.62a4,4,0,0,0-2.13.37l-.11.05a4,4,0,0,0-1.21.9c-.07.08-.22.23-.07.31a2.67,2.67,0,0,0,3-.56,1.38,1.38,0,0,0,.63-.76v-.05a.91.91,0,0,1,.08-.13C108.48,81.65,108.34,81.62,108.29,81.62Z" style="fill:#fffcfa"/></g><path d="M55.25-43.08s-.26.22-.73.65-1.15,1.07-2,1.91a71.58,71.58,0,0,0-6.42,7.44c-1.23,1.61-2.47,3.44-3.69,5.42l-.91,1.51c-.3.52-.58,1.06-.87,1.59-.6,1.06-1.13,2.19-1.7,3.33A56.24,56.24,0,0,0,36.11-14c-.44,1.26-.73,2.57-1.07,3.87-.18.65-.26,1.32-.4,2s-.28,1.32-.36,2l-.26,2c0,.33-.1.67-.12,1l-.07,1c0,.67-.09,1.34-.13,2s0,1.33,0,2,0,1.33,0,2,.09,1.31.14,2c0,1.31.29,2.58.46,3.83s.47,2.47.7,3.66a33.2,33.2,0,0,0,.89,3.47c.16.56.31,1.11.47,1.65L36.94,20l.55,1.52c.18.5.35,1,.56,1.45.84,1.85,1.52,3.59,2.32,5s1.37,2.78,2,3.78l1.9,3.23-2-3.15c-.67-1-1.33-2.28-2.14-3.73s-1.59-3.15-2.45-5c-.23-.46-.41-.95-.6-1.44s-.38-1-.58-1.52-.4-1-.6-1.58L35.39,17a35.33,35.33,0,0,1-1-3.48c-.26-1.2-.59-2.42-.75-3.7s-.42-2.55-.48-3.87c0-.66-.11-1.32-.16-2s0-1.33,0-2,0-1.35,0-2l.12-2,.06-1c0-.35.08-.68.12-1l.25-2c.08-.68.25-1.35.38-2s.23-1.35.42-2c.35-1.32.65-2.64,1.1-3.92a57.51,57.51,0,0,1,2.91-7.34c.58-1.14,1.11-2.29,1.74-3.34.31-.54.6-1.08.91-1.59l1-1.51c1.27-2,2.55-3.79,3.82-5.39s2.5-3,3.62-4.24,2.17-2.23,3-3.05S54-42,54.49-42.46,55.25-43.08,55.25-43.08Z" style="fill:#9b6c3f"/><path d="M70-24.29s0,.86,0,2.37c0,.75,0,1.67.11,2.71s.18,2.23.33,3.51.37,2.66.67,4.1c.14.73.34,1.46.51,2.22s.38,1.52.63,2.28l.36,1.16L73-4.78c.26.79.61,1.55.92,2.33a36.1,36.1,0,0,0,2.38,4.52,30.77,30.77,0,0,0,3,4.13c.56.63,1.13,1.24,1.7,1.83l.91.84c.3.27.59.56.91.8a31.85,31.85,0,0,0,3.76,2.68c.64.36,1.25.74,1.87,1.05l1.82.86c.58.27,1.17.46,1.71.68a16,16,0,0,0,1.57.57l1.41.42.62.19.58.14,2.31.53-2.33-.44c-.19,0-.38-.06-.59-.11l-.63-.17-1.42-.38c-.52-.12-1-.32-1.6-.51s-1.16-.39-1.75-.65l-1.85-.83c-.63-.3-1.26-.67-1.91-1A29.62,29.62,0,0,1,82.47,10a11.72,11.72,0,0,1-.93-.81l-.92-.84c-.59-.59-1.18-1.21-1.75-1.85a31.81,31.81,0,0,1-3.06-4.18,36.25,36.25,0,0,1-2.37-4.59c-.32-.8-.66-1.57-.92-2.37-.14-.39-.28-.79-.41-1.18L71.75-7c-.25-.77-.42-1.56-.62-2.31s-.34-1.51-.46-2.24c-.28-1.46-.45-2.86-.59-4.15a52.33,52.33,0,0,1-.26-6.25C69.86-23.43,70-24.29,70-24.29Z" style="fill:#9b6c3f"/><path d="M91.14-.78s.34.62,1,1.67,1.66,2.5,2.94,4.18c.65.84,1.36,1.74,2.16,2.64s1.67,1.84,2.6,2.78,1.93,1.86,3,2.74c.52.45,1.09.86,1.64,1.29s1.13.83,1.72,1.21,1.17.78,1.78,1.12l.9.52.93.47a29.07,29.07,0,0,0,3.72,1.59c.62.23,1.25.38,1.85.58s1.22.29,1.8.44a29.85,29.85,0,0,0,3.37.47l.77.06.74,0c.48,0,.94,0,1.37,0,.85-.05,1.6-.07,2.22-.13l1.93-.24-1.92.34c-.61.09-1.36.13-2.22.22-.44,0-.9,0-1.38,0h-.75l-.78-.05a27.81,27.81,0,0,1-3.42-.39c-.6-.13-1.22-.24-1.84-.4s-1.25-.34-1.88-.56a30,30,0,0,1-3.8-1.58l-.94-.47-.92-.53c-.63-.34-1.22-.74-1.82-1.12s-1.16-.82-1.74-1.23-1.12-.87-1.64-1.33c-1.07-.9-2.07-1.85-3-2.79S97.73,8.9,97,8,95.48,6.1,94.84,5.25A48.71,48.71,0,0,1,92.06.94C91.44-.14,91.14-.78,91.14-.78Z" style="fill:#9b6c3f"/><path d="M68-24.76s-.83,1.07-2.17,3-3.17,4.8-5.17,8.33a99.81,99.81,0,0,0-6,12.46,76.79,76.79,0,0,0-2.51,7.37,62.61,62.61,0,0,0-1.69,7.85,49,49,0,0,0-.57,8A41.37,41.37,0,0,0,50.74,30a38,38,0,0,0,2.14,6.92,36.88,36.88,0,0,0,3,5.75,42.69,42.69,0,0,0,3.3,4.42c1.07,1.24,2.07,2.28,2.92,3.1l1.15,1.08.88.77.73.64L64.13,52l-.91-.73-1.19-1c-.88-.8-1.91-1.81-3-3a37.59,37.59,0,0,1-6.63-10.14,37.13,37.13,0,0,1-2.27-7,42.47,42.47,0,0,1-.88-7.83,50.38,50.38,0,0,1,.53-8.11,63.24,63.24,0,0,1,1.76-7.93,78,78,0,0,1,2.58-7.42c.94-2.37,2-4.59,3-6.68s2.13-4,3.16-5.76c2.07-3.5,4-6.28,5.42-8.19S68-24.76,68-24.76Z" style="fill:#9b6c3f"/><path d="M150.44,25.41s-1-.56-2.64-1.62-4-2.6-6.76-4.57c-1.38-1-2.85-2.07-4.39-3.24s-3.15-2.43-4.78-3.78-3.29-2.76-5-4.23c-.84-.73-1.66-1.49-2.49-2.25S122.79,4.19,122,3.4c-1.61-1.58-3.2-3.18-4.71-4.81l-1.12-1.22-1.09-1.22L114-5.07l-1-1.22c-.69-.8-1.34-1.61-2-2.41s-1.23-1.59-1.81-2.37l-.85-1.15c-.27-.39-.53-.77-.8-1.14-.52-.75-1-1.47-1.48-2.19s-.91-1.38-1.31-2l-1.11-1.88c-.69-1.19-1.24-2.26-1.71-3.12l-1.36-2.78L102-22.64c.49.85,1.07,1.9,1.78,3.07L105-17.72c.41.64.87,1.31,1.34,2s1,1.41,1.51,2.15c.26.37.53.74.81,1.12s.57.75.87,1.14c.58.76,1.19,1.55,1.84,2.33s1.29,1.59,2,2.39l1,1.21,1.08,1.2,1.09,1.22,1.13,1.2c1.51,1.62,3.1,3.21,4.71,4.78.8.78,1.62,1.55,2.43,2.32s1.64,1.52,2.47,2.26c1.65,1.47,3.29,2.9,4.92,4.24,3.23,2.7,6.34,5.13,9.05,7.13s5,3.63,6.65,4.72S150.44,25.41,150.44,25.41Z" style="fill:#9b6c3f"/><path d="M94.55-37.75s1.18.64,3.17,1.88,4.81,3.07,8,5.45c1.62,1.19,3.36,2.51,5.16,4s3.66,3,5.55,4.67,3.79,3.44,5.67,5.3l1.42,1.39L125-13.67c.94.95,1.84,1.95,2.76,2.93s1.77,2,2.66,3l2.54,3.07c.82,1,1.64,2.06,2.42,3.1s1.54,2.06,2.26,3.09,1.44,2,2.1,3.06l1.91,3,1.72,2.89c.55.94,1,1.87,1.53,2.75s.93,1.73,1.33,2.56.8,1.59,1.15,2.33c.67,1.5,1.27,2.79,1.72,3.87.88,2.17,1.38,3.42,1.38,3.42L149,22c-.47-1.07-1.11-2.34-1.81-3.82-.36-.73-.78-1.49-1.2-2.3s-.86-1.67-1.37-2.53-1-1.79-1.56-2.72l-1.75-2.86-1.95-2.95c-.67-1-1.39-2-2.11-3s-1.5-2-2.27-3.08-1.6-2-2.42-3.07l-2.55-3c-.88-1-1.75-2-2.66-3s-1.8-2-2.73-2.93l-1.38-1.44-1.41-1.4C120-18,118-19.78,116.18-21.46s-3.7-3.26-5.49-4.71-3.49-2.81-5.09-4c-3.21-2.41-6-4.33-7.93-5.6S94.55-37.75,94.55-37.75Z" style="fill:#9b6c3f"/><path d="M94.71-40.41a35.56,35.56,0,0,1,3.89.83c1.23.32,2.71.75,4.38,1.33a58.31,58.31,0,0,1,5.51,2.2c2,.88,4.08,2,6.25,3.21l1.62,1,.82.51.81.54c.54.37,1.1.73,1.65,1.11l1.62,1.2c.56.4,1.09.83,1.63,1.27l1.62,1.32,1.57,1.41.8.71.76.75,1.54,1.51c.49.51,1,1.05,1.47,1.58,1,1.05,1.91,2.19,2.84,3.3.47.55.89,1.14,1.33,1.73l1.29,1.74c.81,1.2,1.6,2.41,2.38,3.61s1.45,2.44,2.13,3.67,1.29,2.47,1.89,3.69,1.1,2.46,1.64,3.66.92,2.42,1.37,3.58l.33.87c.1.29.19.58.28.87.19.57.37,1.14.55,1.7s.36,1.1.53,1.64.3,1.08.45,1.61c.28,1,.55,2,.8,3,.13.48.23.95.32,1.41s.19.91.28,1.34c.36,1.73.69,3.23.86,4.49.39,2.5.61,3.93.61,3.93s-.25-1.42-.7-3.92c-.19-1.25-.56-2.74-1-4.46-.1-.43-.2-.87-.31-1.33s-.21-.92-.35-1.4c-.27-1-.55-2-.84-3-.16-.52-.28-1.06-.47-1.6l-.55-1.63-.56-1.69c-.1-.28-.2-.57-.29-.86s-.23-.57-.34-.86c-.47-1.15-.92-2.34-1.42-3.55L142.1-2c-.6-1.22-1.25-2.43-1.89-3.66s-1.42-2.42-2.13-3.65-1.57-2.38-2.38-3.56c-.43-.58-.86-1.16-1.3-1.73s-.85-1.17-1.32-1.71c-.92-1.11-1.81-2.25-2.8-3.29-.49-.52-1-1.06-1.46-1.58l-1.52-1.5-.75-.75-.79-.71-1.56-1.4-1.6-1.32c-.53-.44-1.06-.87-1.61-1.26l-1.61-1.21-1.63-1.11c-.26-.19-.53-.37-.8-.55l-.81-.52-1.6-1c-2.14-1.25-4.2-2.37-6.17-3.28s-3.8-1.68-5.45-2.28-3.12-1.08-4.34-1.42A34.3,34.3,0,0,0,94.71-40.41Z" style="fill:#9b6c3f"/><path d="M150.47,25.42s.11-1.73.05-4.76a105.89,105.89,0,0,0-1-12.51c-.35-2.58-.85-5.35-1.5-8.25a87.94,87.94,0,0,0-2.56-9,68.64,68.64,0,0,0-3.91-9.19A57.54,57.54,0,0,0,136.06-27a51.59,51.59,0,0,0-7-7.5,48.59,48.59,0,0,0-8.19-5.67,52.17,52.17,0,0,0-8.54-3.72,61.41,61.41,0,0,0-8.11-2c-1.29-.21-2.51-.43-3.69-.55l-1.71-.21-1.63-.13c-1-.11-2-.13-3-.18s-1.76,0-2.51-.06c-1.52,0-2.71,0-3.52,0l-1.25,0L88.18-47c.81,0,2-.1,3.52-.1.76,0,1.6,0,2.51,0s1.91,0,3,.12l1.64.11c.56,0,1.13.11,1.72.17,1.19.1,2.42.32,3.71.51a61.81,61.81,0,0,1,8.17,2,49,49,0,0,1,8.65,3.69,48.75,48.75,0,0,1,8.29,5.7,51,51,0,0,1,7.12,7.55A58.57,58.57,0,0,1,142-18.5a69.87,69.87,0,0,1,3.89,9.26,82,82,0,0,1,2.51,9.06c.63,2.92,1.09,5.7,1.42,8.29a99.51,99.51,0,0,1,.81,12.55C150.61,23.69,150.47,25.42,150.47,25.42Z" style="fill:#9b6c3f"/><path d="M150.44,25.41s-1.27-.21-3.45-.76c-1.09-.26-2.41-.64-3.91-1.09s-3.18-1-5-1.7c-.91-.33-1.83-.73-2.8-1.11s-2-.82-3-1.3c-2-.9-4.1-2-6.22-3.14s-4.24-2.48-6.32-3.93-4.15-3-6.16-4.61c-1-.84-1.94-1.69-2.89-2.55l-1.39-1.34c-.46-.44-.93-.87-1.36-1.34-.86-.93-1.77-1.81-2.56-2.77S103.81-2.08,103.09-3s-1.5-1.87-2.14-2.84c-.34-.48-.67-1-1-1.42L99.48-8,99-8.71c-.58-.95-1.17-1.85-1.69-2.75s-1-1.79-1.46-2.64c-.24-.42-.44-.85-.64-1.26l-.59-1.22c-.37-.8-.75-1.54-1-2.28s-.58-1.4-.83-2-.5-1.2-.68-1.74L91-26l1.24,3.31c.18.53.44,1.1.71,1.72s.57,1.29.88,2,.7,1.45,1.09,2.24.78,1.62,1.26,2.45,1,1.71,1.49,2.61,1.13,1.78,1.71,2.71l.45.7.49.68,1,1.4c.66.95,1.41,1.86,2.15,2.81S105-1.48,105.8-.54s1.7,1.82,2.56,2.74c.43.46.89.89,1.35,1.33l1.39,1.31c1,.86,1.91,1.7,2.89,2.53,2,1.62,4,3.2,6.09,4.61s4.2,2.73,6.28,3.93c1,.58,2.08,1.17,3.11,1.69l1.53.78,1.51.73c1,.49,2,.9,2.92,1.33s1.87.8,2.77,1.14c1.79.72,3.46,1.3,4.94,1.8s2.79.89,3.87,1.19C149.18,25.17,150.44,25.41,150.44,25.41Z" style="fill:#9b6c3f"/><path d="M39.18,62.93a4.59,4.59,0,0,1-.38.44,11.5,11.5,0,0,1-1.12,1,9.72,9.72,0,0,1-.82.55,10.55,10.55,0,0,1-1,.48A5.59,5.59,0,0,0,34.8,66a7.62,7.62,0,0,0-.95.77,12.11,12.11,0,0,1-.93.82l-.94.71a11.68,11.68,0,0,1-1.78,1.1c-.55.29-1,.49-1.37.63a4.88,4.88,0,0,1-.55.18l-.05-.08a5.64,5.64,0,0,1,.38-.43,14,14,0,0,1,1.11-1,12.26,12.26,0,0,1,1.7-1.22l1-.59a11.2,11.2,0,0,1,1.1-.54,8.09,8.09,0,0,0,1.09-.58,5.58,5.58,0,0,0,.92-.75,8.15,8.15,0,0,1,.83-.75,7.16,7.16,0,0,1,.83-.53A8.79,8.79,0,0,1,38.57,63a3.17,3.17,0,0,1,.55-.18Z" style="fill:#fff"/><path d="M68,101.22l-2.55.64s.56-1.29,1-1.47S68,101.22,68,101.22Z" style="fill:#e8bd9a"/><rect x="42.86" y="60.65" width="42.69" height="32.84" rx="5.91" ry="5.91" transform="translate(-34.24 96.3) rotate(-61.26)" style="fill:#e8bd9a"/><rect x="40.9" y="61.12" width="42.69" height="32.84" rx="5.91" ry="5.91" transform="translate(-35.67 94.83) rotate(-61.26)" style="fill:#efd4bb"/><path d="M67.62,124.76c-.8-1.77-3.6-.61-2.79,1.17,5.84,12.91,2.08,29-1,42.14-1.55,6.62-3.4,13.15-5.09,19.73-1.74,6.78-6.05,13.33-6.59,20.35-.15,1.94,2.85,2.34,3,.4.28-3.62,1.94-7.08,3.27-10.4a79,79,0,0,0,3.32-10c1.82-7.16,3.83-14.26,5.49-21.45C70.27,153.55,73.45,137.65,67.62,124.76Z" style="fill:#ffe2dc;mix-blend-mode:multiply"/><path d="M65.25,81.42A1.28,1.28,0,0,0,63.56,81c-.24.12-.48.26-.72.4a5.49,5.49,0,0,0-.79-4.76,2.72,2.72,0,0,0-2.74-1.15c.12-2-.49-4-2.22-4.83-1.43-.66-2.69,1.47-1.24,2.12s1.19,3.09.54,4.77a7.58,7.58,0,0,0-1.11,1.89c-.47,1.2,1.24,2,2.06,1.19a6.17,6.17,0,0,0,1.3-2.09,2.72,2.72,0,0,1,.53-.42c1.38-.9,1.34,1.68,1.24,2.36a13.63,13.63,0,0,1-2.15,5.23c-.31.43-.61.87-.89,1.31-.84,1.38,1.22,2.51,2.13,1.25.25-.35.53-.75.8-1.19a13.31,13.31,0,0,1,3.34-3.27c.58,2.52-2.13,5.42-3.37,7.37-1.69,2.65-2.84,5.62-1.25,8.58.75,1.4,1.4.2.65-1.2-1.66-3.09,3.11-6.67,4.68-9.14S67.12,84,65.25,81.42Z" style="fill:#e8bd9a;opacity:0.6000000000000001;mix-blend-mode:multiply"/><g id="_Group_4" data-name="&lt;Group&gt;"><path d="M55.66,70.69c1.48.28,1,5.93.55,7.65a21.08,21.08,0,0,1-1,2.87l.06,0a30.43,30.43,0,0,1,1.61-2.87c.36-.91,1.35-3.14,2.34-3,1.33,0,1.57,2.21,1.52,3.24-.24,3.81-1.86,7.83-3.53,11.68h0c1.84-2.58,3.14-5.85,5.44-7.82,4.25-3.44,2.27,4,1.42,5.7-3.39,6.46-4.94,10.75-2.92,17.9,1.64,5.51,3.95,11.83,6,17.35,2.36,6.36,2.4,12.86,1.4,19.48-.29,2.73-.55,5.64-1.06,8.47-1,4.59-1.61,9.09-2.26,13.79a44.36,44.36,0,0,1-2.13,8.51c-.77,2.64-.15,8-1.84,10l-2.69,14c-1.09,3.15-8.46,33.62-11.4,35.61-13.27,9-22.43-1.64-23-1.91l-3.81-.77c1.29-3.2,16.79-44.27,18.45-48A144.5,144.5,0,0,0,44.17,167c2.75-9.77,7-19,2.9-28.56-4.24-9.7-8.34-18.5-12.75-28-1.82-4.08-5.56-7.42-4-12,1.54-4.87,2.39-7.78,2.46-13.17.09-2.15-.78-5,.28-6.46,5.9,2.06,5,10.66,4.44,15.26-1,7.36.48,10.45,5.77,18.17-.86-3.22-1.18-6.49-1.81-9.7-.83-4-2.58-7.08-.31-10.8s5.18-7.21,7.67-10.92c1.78-2.71,2.81-6,4.91-8.56.88-1.16,1.51-1.57,2-1.49Z" style="fill:#fff1e3"/></g><path d="M33,78.73s5.51,7,1.82,21.44c0,0-.47,6,8.39,12,0,0-5.25-7.35-5.92-12.13s1.79-13.46-.42-17.48S33,78.73,33,78.73Z" style="fill:#ffe2dc"/><path d="M55.66,70.69s4.44,4-5,18.7l-3,5.57s-1,1.89.42,7.5A51.39,51.39,0,0,1,49.44,113s-5.61-11.44-4-16.89S56.13,80.44,55.66,70.69Z" style="fill:#ffe2dc"/><path d="M59.39,75.51s3.66.57-1.86,14c0,0-2.39,5.09-3.49,7.74s1.82,15.68,2,17.17c0,0-6.28-13.93-3.75-18.23S60.54,82.44,59.39,75.51Z" style="fill:#ffe2dc"/><path d="M64.32,81.76s2.65-1-.52,7c0,0-3.91,6.46-3.45,13.06,0,0,2,8.37,3.94,13.68,0,0,7.16,14.94,4,29.16,0,0-11.76,72.3-19.75,91.43,0,0-9.45,17.36-15.39,10.74,0,0,33.21-81.31,29.93-106.58S54.85,100,60.85,90.85c5-7.64,3.55-8.68,3.55-8.68S63.65,81.66,64.32,81.76Z" style="fill:#ffe2dc"/><path d="M49.55,114.38a.6.6,0,0,0-.85.35,2.35,2.35,0,0,0,.27,1.79.49.49,0,0,0,.23.2.64.64,0,0,0,.76-.06A1.35,1.35,0,0,0,49.55,114.38Z" style="fill:#ffe2dc"/><path d="M56.38,115.86a.61.61,0,0,0-1.05.19,2.55,2.55,0,0,0,.45,2,.62.62,0,0,0,1,0,1.87,1.87,0,0,0-.23-2A.65.65,0,0,0,56.38,115.86Z" style="fill:#ffe2dc"/><path d="M41.38,91.83a1.63,1.63,0,0,0-1,1.09v0a5.35,5.35,0,0,0,.07,4.73.62.62,0,0,0,.93.09c.78-.93.5-2,.75-3,.21-.85.64-1.92,0-2.72A.63.63,0,0,0,41.38,91.83Z" style="fill:#ffe2dc"/><path d="M48.63,94.46a1.17,1.17,0,0,0-1.11,1.16.55.55,0,0,0,.08.35,3.76,3.76,0,0,0,.21,3.25.62.62,0,0,0,1,0,4.87,4.87,0,0,0,.72-1.67,4.47,4.47,0,0,0,.19-2C49.62,95.06,49.27,94.45,48.63,94.46Z" style="fill:#ffe2dc"/><path d="M55,96.81a1.76,1.76,0,0,0-1,.79.48.48,0,0,0,0,.49,5.09,5.09,0,0,0,.21,2.68.6.6,0,0,0,.86.31c1.25-.71,1.62-3.23.46-4.14A.65.65,0,0,0,55,96.81Z" style="fill:#ffe2dc"/><path d="M30.51,98.57a1.53,1.53,0,0,0-.46,1,5,5,0,0,0,.3,3.14.6.6,0,0,0,.86.31c1.3-.57,1.34-2.81.91-3.86A1,1,0,0,0,30.51,98.57Z" style="fill:#ffe2dc"/><path d="M35.22,80.15a.16.16,0,0,0-.1,0,8.89,8.89,0,0,0-1.65-1.35c-.12-.07-.61.24-.55.3A16.12,16.12,0,0,1,36.54,84a15.92,15.92,0,0,1,1.05,5.77c0,.09.27-.17.28-.3a15.35,15.35,0,0,0-.72-6s0,0,0,0A4.81,4.81,0,0,0,35.22,80.15Z" style="fill:#ffc5bb"/><path d="M55.6,70.91c1.09,2.6.85,6.25.12,8.91,0,.05.49-.07.52-.21a17.75,17.75,0,0,0,.52-4.36c0-1.26.16-3.46-.75-4.49C55.93,70.67,55.55,70.79,55.6,70.91Z" style="fill:#ffc5bb"/><path d="M59.31,76.1a7.76,7.76,0,0,1,.86,3.32c0,1-.3,2-.21,2.92,0,.1.57-.17.57-.31.06-1.27.17-2.55.14-3.81,0-.74-.33-2.36-1-2.86C59.51,75.27,59.24,76,59.31,76.1Z" style="fill:#ffc5bb"/><path d="M64.56,81.62s-.3,0-.3.06a5.11,5.11,0,0,0,.43,1.14,3.26,3.26,0,0,1,.07,1.39,27.05,27.05,0,0,0-.62,3.52,13.11,13.11,0,0,0,.67-1.31,17.77,17.77,0,0,0,.56-2.76C65.43,83.06,65.36,81.74,64.56,81.62Z" style="fill:#ffc5bb"/><path d="M33,79.09s3.82,3.35,1.41,6.86a1,1,0,0,1-1.64.07s-.6-5.65.08-7.07Z" style="fill:#fffcfa"/><path d="M55.47,70.79S56.31,74.1,53,77.3c0,0-1.6.37-1.74-.83C51.3,76.47,53,72,55.47,70.79Z" style="fill:#fffcfa"/><path d="M59.22,75.36A6,6,0,0,1,58,81.53s-2.34-.2-2.3-1.19C55.71,80.34,58.1,75.28,59.22,75.36Z" style="fill:#fffcfa"/><path d="M64.32,81.76s1.27,1.65-2.09,5.83c0,0-2.8.7-2.51-1.33,0,0,2.77-4.58,4.55-4.67Z" style="fill:#fffcfa"/><path d="M32.71,198.13s5.41-13.38,7-17.84,8.51-25.54,8.94-31.67c.39-5.5-2.46-12.6-6-19.39l-7.51-18s10.67,18.31,11.63,21.35,5.92,10,4.21,18.84C48.6,163.87,32.71,198.13,32.71,198.13Z" style="fill:#fffcfa"/><path d="M30.37,98.71,31.91,95a8.79,8.79,0,0,0,.32-.87c.06-.15.11-.3.17-.46s.07-.32.11-.48.08-.33.11-.5.05-.34.07-.51a8.93,8.93,0,0,0,.08-1c0-.35,0-.7,0-1l0-1c0-.34,0-.68,0-1V87s-.06.35-.17,1-.16,1.52-.22,2.61c0,.28,0,.56-.07.85s-.07.6-.11.91a8.56,8.56,0,0,1-.19,1,9.87,9.87,0,0,1-.28,1c-.22.68-.46,1.4-.7,2.15S30.56,97.93,30.37,98.71Z" style="fill:#fffcfa"/><path d="M30.75,103.13l.63,1.3.74,1.45c.13.28.31.56.44.87l.43,1c.31.68.65,1.39,1,2.14.18.38.33.77.51,1.17s.35.78.52,1.18l.56,1.2.54,1.22c.37.8.75,1.59,1.15,2.36l-.35-1.18-.44-1.37c-.09-.26-.19-.54-.28-.84s-.23-.61-.35-.93c-.26-.66-.55-1.36-.86-2.12-.16-.38-.32-.77-.52-1.16s-.4-.79-.6-1.2L33.21,107c-.11-.21-.22-.43-.34-.64l-.4-.63C31.92,104.85,31.35,104,30.75,103.13Z" style="fill:#fffcfa"/><path d="M43.15,112.39a.44.44,0,0,1,.05-.09,1.72,1.72,0,0,0,.13-.27,1.74,1.74,0,0,0,.1-.47,3.66,3.66,0,0,0,0-.65q0-.36-.12-.78a7.8,7.8,0,0,1-.1-.89c0-.33-.07-.67-.11-1s0-.74-.13-1.12c-.14-.78-.28-1.62-.43-2.48s-.34-1.73-.51-2.64c-.1-.45-.19-.9-.28-1.36a8.73,8.73,0,0,0-.47-1.36c-.18-.43-.38-.85-.52-1.28a4.63,4.63,0,0,1-.27-1.32l0,.34a1.79,1.79,0,0,0,0,.41,4.3,4.3,0,0,0,.06.56c.07.41.22.91.38,1.47a7.71,7.71,0,0,1,.24.89c.07.31.11.66.16,1,.11.73.21,1.51.38,2.36.08.43.16.87.25,1.32s.19.9.29,1.36.22.93.3,1.43.18,1,.28,1.49a13.51,13.51,0,0,0,.39,1.55A2.21,2.21,0,0,1,43.15,112.39Z" style="fill:#fffcfa"/><path d="M41.17,92.07l0-.12a2.69,2.69,0,0,1,.13-.31,6.09,6.09,0,0,1,.76-1c.36-.42.78-1,1.25-1.54s1-1.25,1.55-2L45.74,86l.95-1.15c.64-.79,1.29-1.63,1.9-2.52.31-.44.61-.89.89-1.35s.55-.93.8-1.4.47-1,.7-1.45.37-1,.54-1.46l-.75,1.29c-.27.4-.55.9-.94,1.45-.2.28-.39.58-.62.89s-.46.63-.7,1-.53.69-.81,1.06l-.88,1.13-1,1.21c-.33.43-.69.84-1,1.31-.63.91-1.28,1.87-1.93,2.88-.33.5-.65,1-1,1.53-.17.26-.34.52-.49.8A2.38,2.38,0,0,0,41.17,92.07Z" style="fill:#fffcfa"/><path d="M48.12,94.33l.09,0,.23-.18a5,5,0,0,0,.77-.8,4,4,0,0,0,.39-.68c.12-.24.26-.5.41-.78s.28-.58.45-.89.33-.62.54-.93.4-.62.65-1,.5-.67.72-1,.47-.73.67-1.12.42-.79.61-1.2c.39-.81.72-1.65,1-2.49s.56-1.69.78-2.52l-.55,1.12c-.18.37-.39.81-.64,1.31s-.53,1.09-.85,1.71l-.51,1c-.17.33-.38.68-.58,1s-.44.71-.66,1.09l-.75,1.12a10,10,0,0,0-.72,1.28c-.21.44-.4.9-.58,1.36s-.35,1-.55,1.4A5,5,0,0,1,48.12,94.33Z" style="fill:#fffcfa"/><path d="M47.94,99.07l.09.34.11.4a2.54,2.54,0,0,1,.12.54c0,.2.06.43.1.67s0,.51.07.79c0,.56.08,1.2.12,1.88.06,1.35.16,2.9.33,4.51.1.8.24,1.61.37,2.4,0,.4.12.79.15,1.19s0,.79.06,1.18c0,0,0-.42.14-1.13a3.83,3.83,0,0,0,0-.6v-.72c0-.51-.08-1.1-.13-1.73s-.09-1.33-.15-2.07-.12-1.53-.2-2.37-.18-1.7-.34-2.6c0-.22-.09-.45-.13-.68s-.13-.44-.19-.67l-.1-.35-.15-.32C48.14,99.51,48,99.29,47.94,99.07Z" style="fill:#fffcfa"/><path d="M54.26,101.11s0,.12.1.33.07.24.12.39a3.22,3.22,0,0,1,.12.53c0,.2.1.42.13.65s.07.5.11.78.06.57.1.87.05.62.08,1,.06.67.06,1,0,.71,0,1.08c0,.75.05,1.52.1,2.31s.17,1.59.29,2.38.37,1.55.59,2.29c0,0,0-.41-.1-1.1,0-.36-.08-.79-.14-1.28s0-1.07-.06-1.69,0-1.3-.07-2,0-1.52-.11-2.34c0-.41-.11-.83-.17-1.26s-.16-.85-.26-1.29a13.61,13.61,0,0,0-.37-1.31A8.53,8.53,0,0,0,54.26,101.11Z" style="fill:#fffcfa"/><path d="M54.35,97.31s.9-1.45,2-3.54l1.86-3.49C58.88,89,59.5,87.75,60,86.49c0,0-.79,1.17-1.92,3.11q-.42.72-.9,1.59c-.33.56-.62,1.19-.94,1.84C55.61,94.34,55,95.78,54.35,97.31Z" style="fill:#fffcfa"/><path d="M54.92,96.22l.43-1c.13-.3.29-.67.46-1.08.09-.2.17-.42.28-.65l.36-.69c.25-.48.51-1,.77-1.54.13-.27.31-.52.46-.79s.32-.55.47-.83.32-.55.47-.84.34-.54.52-.81c.34-.56.68-1.11,1-1.65l-.58.7-.67.83c-.13.17-.26.34-.41.52a7.19,7.19,0,0,0-.41.61c-.28.44-.57.92-.88,1.43a5.38,5.38,0,0,0-.45.82c-.13.29-.27.58-.41.88s-.28.62-.41.94a5.7,5.7,0,0,0-.37,1C55.32,94.79,55.12,95.5,54.92,96.22Z" style="fill:#fffcfa"/><path d="M24.75,217.27c4.1-10.28,9.17-22.1,9.68-23.47.93-2.54,1.87-5.09,2.83-7.62s2.08-5,3-7.58,1.75-5.11,2.53-7.7l2.3-7.78c.78-2.59,1.59-5.17,2.22-7.78a36.86,36.86,0,0,0,1.16-7.92,21.39,21.39,0,0,0-1.26-7.84c-.23-.62-.49-1.24-.77-1.85l-.84-1.86-1.67-3.72-3.34-7.44-3.42-7.41-1.7-3.7-.85-1.86c-.28-.62-.55-1.23-.88-1.82-1.26-2.38-3-4.63-3.73-7.32a7.29,7.29,0,0,1,0-4.14c.41-1.29.82-2.58,1.17-3.87a33.23,33.23,0,0,0,1.27-7.9c0-.66.06-1.35.06-2s-.07-1.32-.13-2a15.39,15.39,0,0,1-.1-2,3.75,3.75,0,0,1,.58-2l.11-.16.19.06a6.47,6.47,0,0,1,2.14,1.26,6.73,6.73,0,0,1,1.48,1.9A12,12,0,0,1,38,86.14a26.94,26.94,0,0,1,0,4.58c-.1,1.52-.3,3-.49,4.54-.08.75-.14,1.51-.16,2.26a21.35,21.35,0,0,0,.09,2.26c0,.38.11.75.16,1.13s.16.73.25,1.1a18.39,18.39,0,0,0,.75,2.16,21.84,21.84,0,0,0,1,2.07c.36.68.76,1.35,1.15,2,.81,1.31,1.67,2.61,2.53,3.9-.88-1.28-1.76-2.56-2.59-3.87-.41-.66-.82-1.32-1.19-2a22.23,22.23,0,0,1-1-2.07,18,18,0,0,1-.79-2.16c-.1-.37-.18-.75-.27-1.12s-.13-.76-.18-1.13a19.53,19.53,0,0,1-.13-2.29c0-.77.05-1.53.12-2.29a43,43,0,0,0,.37-9.06,11.82,11.82,0,0,0-1.21-4.31,6.59,6.59,0,0,0-1.4-1.76,5.74,5.74,0,0,0-1.79-1,3.64,3.64,0,0,0-.37,1.62,14.93,14.93,0,0,0,.11,2c.07.66.14,1.34.16,2s0,1.35,0,2a33.69,33.69,0,0,1-1.26,8c-.35,1.31-.76,2.6-1.16,3.9a6.71,6.71,0,0,0,0,3.82c.73,2.54,2.41,4.77,3.72,7.19.33.61.61,1.24.9,1.86l.85,1.85,1.71,3.7,3.41,7.41,3.32,7.46,1.66,3.72L47,137.5c.28.61.55,1.25.78,1.9a21.83,21.83,0,0,1,1.26,8,35.69,35.69,0,0,1-1.22,8c-.67,2.63-1.5,5.21-2.3,7.79L43.15,171c-.81,2.58-1.66,5.16-2.63,7.69s-2.13,5-3.09,7.54-2,5.06-2.91,7.6c-.53,1.36-5.32,11.68-9.44,22C25.07,215.78,23.92,217.64,24.75,217.27Z" style="fill:#f9b5aa"/><path d="M43.24,112.16l-.2-.73c-.13-.47-.3-1.17-.49-2.07s-.4-2-.63-3.25-.47-2.67-.82-4.2-.93-3.13-1.24-4.94a8.39,8.39,0,0,1,0-2.83A7.47,7.47,0,0,1,41,91.36c1-1.7,2.26-3.41,3.49-5.11s2.52-3.44,3.71-5.2a46.2,46.2,0,0,0,3.05-5.51,25.52,25.52,0,0,1,1.62-2.71q.22-.31.48-.63c.16-.21.3-.4.48-.61a3.89,3.89,0,0,1,1.27-1.08,1.12,1.12,0,0,1,.53-.11,1,1,0,0,1,.54.2,1.71,1.71,0,0,1,.48.74,5.6,5.6,0,0,1,.28,1.47,17.35,17.35,0,0,1,0,2.8,22,22,0,0,1-.37,2.62,21.76,21.76,0,0,1-.8,2.36,28.31,28.31,0,0,1-2,3.9c-.66,1.12-1.26,2.08-1.76,2.87-1,1.57-1.57,2.48-1.57,2.48s.51-.94,1.44-2.55c.47-.8,1.05-1.78,1.66-2.92a31.83,31.83,0,0,0,1.81-3.9A20.26,20.26,0,0,0,56,78.15a20.93,20.93,0,0,0,.31-2.58,17.68,17.68,0,0,0,0-2.72A5.32,5.32,0,0,0,56,71.52a1.11,1.11,0,0,0-.3-.49c-.12-.09-.23-.09-.42,0a7.42,7.42,0,0,0-2,2.14,20.9,20.9,0,0,0-1.55,2.65,45.79,45.79,0,0,1-3.06,5.59c-1.21,1.77-2.5,3.49-3.75,5.19S42.55,90,41.48,91.65a7.44,7.44,0,0,0-1.08,2.58,8.32,8.32,0,0,0,0,2.68c.26,1.74.81,3.38,1.13,4.93s.51,3,.69,4.23.34,2.36.5,3.26.29,1.61.4,2.09S43.24,112.16,43.24,112.16Z" style="fill:#f9b5aa"/><path d="M55.05,82.09a3,3,0,0,1,.07-.51,3.22,3.22,0,0,1,.16-.5c.12-.33.28-.64.43-1s.33-.62.5-.92l.5-.92v0a12.91,12.91,0,0,1,.83-1.82,4.77,4.77,0,0,1,.61-.85l.19-.19a2.27,2.27,0,0,1,.25-.18.79.79,0,0,1,.31-.13.92.92,0,0,1,.37,0h0a1.45,1.45,0,0,1,.84.3,2,2,0,0,1,.5.61A4.33,4.33,0,0,1,61,77.35a5.9,5.9,0,0,1,.07,1.4l-.16,1.31-.08.66-.14.66-.31,1.32c-.12.43-.26.86-.39,1.29s-.25.86-.42,1.27c-.33.83-.62,1.68-1,2.5s-.71,1.63-1.1,2.44-.75,1.62-1.15,2.42-.76,1.62-1.16,2.42c.58-1.68,1.24-3.34,1.91-5,.34-.82.66-1.65,1-2.48.15-.42.32-.83.46-1.25l.44-1.25c.16-.41.26-.84.39-1.26s.27-.84.38-1.26L60,81.28l.14-.63.09-.66.17-1.31a5.78,5.78,0,0,0,0-1.24A3.76,3.76,0,0,0,60,76.26a1.27,1.27,0,0,0-.34-.44.86.86,0,0,0-.46-.19h0s-.09,0-.15,0a.44.44,0,0,0-.17.06,1.2,1.2,0,0,0-.17.11l-.16.15a3.87,3.87,0,0,0-.58.74,12.22,12.22,0,0,0-.9,1.72h0c-.36.61-.78,1.18-1.15,1.77-.18.3-.36.6-.51.91-.08.15-.13.31-.2.47A4.6,4.6,0,0,0,55.05,82.09Z" style="fill:#f9b5aa"/><path d="M57.24,90.29s.18-.26.49-.76.74-1.24,1.28-2.19A30.3,30.3,0,0,1,61.11,84a9.92,9.92,0,0,1,1.71-1.81,3.93,3.93,0,0,1,1.24-.7,1,1,0,0,1,.86.06,1.17,1.17,0,0,1,.47.66,4.28,4.28,0,0,1,.1,1.47,11,11,0,0,1-.2,1.47,17,17,0,0,1-.89,3,52.16,52.16,0,0,0-2.73,6.1,17.48,17.48,0,0,0-1,6.88,22.86,22.86,0,0,0,.54,3.56c.16.58.28,1.19.48,1.76l.56,1.76c.37,1.18.73,2.36,1.14,3.52s.78,2.32,1.19,3.46c.81,2.3,1.61,4.55,2.43,6.72l.6,1.63c.17.54.37,1.06.52,1.61s.31,1.07.42,1.61.25,1.06.34,1.58a36.59,36.59,0,0,1,.57,5.94,45.16,45.16,0,0,1-.23,5c-.16,1.5-.36,2.79-.54,3.86s-.35,1.88-.47,2.45-.18.86-.18.86,0-.3.14-.87.23-1.4.38-2.47a51.94,51.94,0,0,0,.5-8.85,35.17,35.17,0,0,0-.68-5.87c-.09-.51-.22-1-.35-1.55s-.3-1-.45-1.57-.37-1.06-.54-1.59l-.61-1.62c-.82-2.16-1.65-4.42-2.48-6.71-.42-1.14-.8-2.3-1.21-3.47s-.79-2.34-1.16-3.52L61,106.6c-.2-.6-.32-1.21-.48-1.81a23.9,23.9,0,0,1-.52-3.66,18.06,18.06,0,0,1,1.11-7.08,45.38,45.38,0,0,1,2.84-6.11,16.22,16.22,0,0,0,.92-2.9,10.42,10.42,0,0,0,.22-1.42A4,4,0,0,0,65,82.28a.84.84,0,0,0-.3-.47.7.7,0,0,0-.54,0A3.78,3.78,0,0,0,63,82.4a9.29,9.29,0,0,0-1.72,1.71,30.06,30.06,0,0,0-2.19,3.29A33.62,33.62,0,0,1,57.24,90.29Z" style="fill:#f9b5aa"/><path d="M50.28,90.14S49.79,90.83,49,92l-.65,1-.36.56-.35.62A10.18,10.18,0,0,0,47,95.64a5,5,0,0,0-.27,1.75c0,.3,0,.63.08.92s.1.59.15.9c.1.6.21,1.22.32,1.85.23,1.27.44,2.58.7,3.92.14.66.24,1.33.36,2s.25,1.35.39,2l.36,2c.13.66.26,1.32.4,2,0,0,0-.69,0-1.91,0-.3,0-.64,0-1s0-.78-.07-1.21c-.07-.86-.17-1.84-.29-2.91-.05-.54-.14-1.1-.23-1.68s-.18-1.19-.28-1.82c-.2-1.24-.47-2.57-.75-4,0-.17-.08-.35-.1-.52s-.05-.33-.07-.49a4.87,4.87,0,0,1,0-1,7.3,7.3,0,0,1,.63-2c.29-.71.66-1.39,1-2.1Z" style="fill:#f9b5aa"/><path d="M55,95.39l-.29.42a4,4,0,0,0-.31.51,4.14,4.14,0,0,0-.36.73l-.17.45c0,.16-.08.33-.13.5a3.27,3.27,0,0,0-.1.56,5.61,5.61,0,0,0-.06.59,11.27,11.27,0,0,0,0,1.3c0,.46.08.92.14,1.4.24,1.93.55,4.14,1,6.4s.91,4.55,1.51,6.7c0,0-.14-2.29-.6-5.9-.24-1.82-.54-3.94-.95-6.28-.1-.58-.21-1.18-.32-1.79a14.33,14.33,0,0,1-.2-1.85,6.69,6.69,0,0,1,.17-1.88,6.41,6.41,0,0,1,.3-.94C54.66,96,54.82,95.7,55,95.39Z" style="fill:#f9b5aa"/><path d="M33,79.09l.12.15a4.93,4.93,0,0,1,.33.44,2.77,2.77,0,0,1,.22.31c.07.12.16.24.23.38s.16.28.23.44a4.48,4.48,0,0,1,.23.49,7,7,0,0,1,.36,1.12,6.17,6.17,0,0,1,.11.62,4.44,4.44,0,0,1,0,.63c0,.22,0,.43,0,.65s-.07.44-.14.64l-.09.32-.13.31c-.07.2-.2.38-.29.58l.1-.12a3.76,3.76,0,0,0,.28-.39c.06-.09.11-.19.17-.29s.11-.24.17-.38a2.53,2.53,0,0,0,.14-.44,3.54,3.54,0,0,0,.1-.51,5.12,5.12,0,0,0,0-.56,4.17,4.17,0,0,0,0-.61,5.34,5.34,0,0,0-.13-.65c-.06-.22-.14-.43-.22-.65A6.68,6.68,0,0,0,33,79.09Z" style="fill:#f9b5aa"/><path d="M55.66,70.61s0,.27,0,.69c0,.11,0,.23,0,.36s0,.27,0,.41,0,.31-.06.47-.07.33-.1.5a3.71,3.71,0,0,1-.13.53l-.18.55-.24.56-.12.28-.17.27c-.1.18-.2.37-.32.55l-.38.52a4.71,4.71,0,0,1-.4.51c-.13.15-.27.31-.41.49l.47-.4.25-.22a3.79,3.79,0,0,0,.26-.29l.3-.34a2.09,2.09,0,0,0,.3-.4c.1-.14.2-.3.3-.46a3.6,3.6,0,0,0,.26-.52,3.72,3.72,0,0,0,.24-.58c.06-.21.11-.42.17-.63a5.07,5.07,0,0,0,.11-.68,5.52,5.52,0,0,0,0-.71,5.83,5.83,0,0,0,0-.72C55.72,71.11,55.69,70.87,55.66,70.61Z" style="fill:#f9b5aa"/><path d="M59.22,75.36a.72.72,0,0,1,.06.15,3.92,3.92,0,0,1,.14.44,5.23,5.23,0,0,1,.1.68,4.94,4.94,0,0,1,0,.87,4,4,0,0,1,0,.49c0,.17-.06.34-.08.51a8.36,8.36,0,0,1-.29,1.06,7.33,7.33,0,0,1-.46,1,4.9,4.9,0,0,1-.31.48,3.9,3.9,0,0,1-.34.46l.1-.1a2.31,2.31,0,0,0,.3-.28,3.79,3.79,0,0,0,.41-.5,6.12,6.12,0,0,0,.42-.73,7,7,0,0,0,.35-1,6.51,6.51,0,0,0,.18-1.13c0-.2,0-.41,0-.61s0-.43-.08-.64a5,5,0,0,0-.18-.63A3.45,3.45,0,0,0,59.22,75.36Z" style="fill:#f9b5aa"/><path d="M64.32,81.75l.07.15a.61.61,0,0,1,.07.18c0,.07,0,.16.05.25v.3a2.38,2.38,0,0,1,0,.36,4.88,4.88,0,0,1-.19.83,8.28,8.28,0,0,1-.35.93,10.76,10.76,0,0,1-.47,1,9,9,0,0,1-1.23,1.87l.11-.08c.07-.06.18-.15.3-.27a6.8,6.8,0,0,0,.89-1.15,8,8,0,0,0,.89-1.9,4.91,4.91,0,0,0,.15-.58,4.22,4.22,0,0,0,.07-.61c0-.11,0-.21,0-.32s0-.22,0-.33-.07-.21-.11-.31A1.75,1.75,0,0,0,64.32,81.75Z" style="fill:#f9b5aa"/><path d="M58.75,85l.31-.35.37-.41c.14-.16.33-.32.52-.51s.41-.4.66-.61.51-.45.81-.66.6-.47.95-.69.7-.47,1.09-.69l.58-.35.62-.33c.41-.24.86-.44,1.3-.66s.92-.42,1.39-.63,1-.4,1.45-.58,1-.37,1.49-.54,1-.34,1.52-.5,1-.32,1.53-.45,1-.28,1.51-.42l-.38,0c-.26,0-.63,0-1.11.11s-1.06.15-1.73.28-1.43.31-2.25.55c-.41.12-.84.27-1.28.41s-.9.33-1.36.53-.93.41-1.41.66-1,.51-1.44.8-1,.61-1.42,1l-.7.55-.68.6c-.23.2-.43.43-.64.65a6.89,6.89,0,0,0-.62.7A14.13,14.13,0,0,0,58.75,85Z" style="fill:#e8bd9a"/><path d="M59.74,81.87l.85-1.14a3.76,3.76,0,0,1,.46-.58l.56-.64a8.28,8.28,0,0,1,.64-.72L63,78l.39-.4.42-.39.88-.81c.3-.27.63-.53.95-.8s.63-.56,1-.82l1-.81c.34-.27.69-.52,1-.79s.69-.53,1-.77l1-.76-1.1.54c-.35.17-.77.4-1.24.69l-.76.47c-.27.16-.54.36-.83.56l-.89.63-.91.75a12,12,0,0,0-1,.83l-1,.93c-.32.32-.61.69-.93,1l-.46.55c-.15.19-.29.4-.43.6a14.87,14.87,0,0,0-.83,1.24Z" style="fill:#e8bd9a"/><path d="M62.72,60.71l-.79,1-.2.26-.18.29c-.13.21-.26.44-.41.67a7,7,0,0,0-.42.77l-.42.87c-.07.16-.15.31-.22.47s-.12.32-.19.49c-.12.34-.25.68-.38,1s-.21.73-.32,1.1-.21.75-.27,1.14-.14.77-.21,1.17-.08.79-.12,1.19a9.3,9.3,0,0,0,0,1.18c0,.39,0,.78.06,1.16l.13-1.09c0-.18,0-.37.07-.58s.09-.43.13-.68.09-.5.14-.77.13-.56.2-.86.14-.61.22-.94l.29-1c.1-.35.19-.71.33-1.07l.38-1.11c.12-.38.3-.75.45-1.15.07-.19.15-.39.23-.59s.18-.38.27-.58c.2-.39.36-.81.58-1.19Z" style="fill:#e8bd9a"/></g></g></g></svg>
